<svg xmlns="http://www.w3.org/2000/svg" viewBox="0 0 626.82 426.21" style=""><defs><style>.cls-1{fill:none;stroke:whitesmoke;stroke-miterlimit:10;stroke-width:20px;}</style></defs><g id="Layer_2" data-name="Layer 2"><g id="Layer_1-2" data-name="Layer 1"><path class="cls-1 fridkjrg_0" d="M40.89,373.9Q2,323.61,2,213.1T40.89,52.31Q79.77,2,160,2T279.15,52.31Q318,102.62,318,213.1T279.15,373.9Q240.27,424.23,160,424.21T40.89,373.9Zm159.87-37q15.42-13.28,22.53-43.21t7.1-80.56q0-50.59-7.1-80.55T200.76,89.34Q185.33,76.08,160,76.07T119.28,89.34q-15.44,13.29-22.53,43.21t-7.1,80.55q0,50.63,7.1,80.56t22.53,43.21Q134.7,350.15,160,350.14T200.76,336.87Z"></path><path class="cls-1 fridkjrg_1" d="M360.63,345.82l87-88.27q33.94-35.19,50.62-54.94t24.38-36.42a84.22,84.22,0,0,0,7.72-35.8q0-27.78-14.51-39.81t-43.52-12q-40.74,0-90.12,7.41L367.42,87.8l-4.32-66A425.77,425.77,0,0,1,488.4,3.23Q618,3.23,618,119.9q0,30.87-8.34,54.62t-27.77,48.15q-19.44,24.39-55.25,57.1l-71,64.19H624.82V418H360.63Z"></path></g></g><style data-made-with="vivus-instant">.fridkjrg_0{stroke-dasharray:1908 1910;stroke-dashoffset:1909;animation:fridkjrg_draw 2000ms linear 0ms forwards;}.fridkjrg_1{stroke-dasharray:1735 1737;stroke-dashoffset:1736;animation:fridkjrg_draw 2000ms linear 0ms forwards;}@keyframes fridkjrg_draw{100%{stroke-dashoffset:0;}}@keyframes fridkjrg_fade{0%{stroke-opacity:1;}93.54838709677419%{stroke-opacity:1;}100%{stroke-opacity:0;}}</style></svg>