<svg xmlns="http://www.w3.org/2000/svg" viewBox="0 0 629.29 427.44" style=""><defs><style>.cls-1{fill:none;stroke:#93278f;stroke-miterlimit:10;stroke-width:4px;}</style></defs><g id="Layer_2" data-name="Layer 2"><g id="Layer_1-2" data-name="Layer 1"><path class="cls-1 ObpAkSKr_0" d="M40.89,373.9Q2,323.61,2,213.1T40.89,52.31Q79.77,2,160,2T279.15,52.31Q318,102.62,318,213.1T279.15,373.9Q240.27,424.23,160,424.21T40.89,373.9Zm159.87-37q15.42-13.28,22.53-43.21t7.1-80.56q0-50.59-7.1-80.55T200.76,89.34Q185.33,76.08,160,76.07T119.28,89.34q-15.44,13.29-22.53,43.21t-7.1,80.55q0,50.63,7.1,80.56t22.53,43.21Q134.7,350.15,160,350.14T200.76,336.87Z"></path><path class="cls-1 ObpAkSKr_1" d="M375.44,409.39l-19.75-4.93L360,339.64q67.89,11.75,109.87,11.73,35.81,0,52.78-12.65t17-38q0-25.93-16-39.82t-43.21-13.89h-82.1V176.69h82.1q20.37,0,36.11-17.29t15.74-40.12q0-21.6-16.36-31.79T464.33,77.31q-29,0-83.95,8.64l-16.05,2.47-5.55-63Q415.56,3.23,483.46,3.23q71,0,103.7,26.24t32.72,83q0,33.33-11.42,55.25t-36.11,39.19q21.6,11.73,33,22.22A61.3,61.3,0,0,1,622,255.39q5.24,15.74,5.25,41.66,0,65.44-33.64,96.91t-107.1,31.48Q438.4,425.44,375.44,409.39Z"></path></g></g><style data-made-with="vivus-instant">.ObpAkSKr_0{stroke-dasharray:1908 1910;stroke-dashoffset:1909;animation:ObpAkSKr_draw 2000ms linear 0ms forwards;}.ObpAkSKr_1{stroke-dasharray:1846 1848;stroke-dashoffset:1847;animation:ObpAkSKr_draw 2000ms linear 0ms forwards;}@keyframes ObpAkSKr_draw{100%{stroke-dashoffset:0;}}@keyframes ObpAkSKr_fade{0%{stroke-opacity:1;}93.54838709677419%{stroke-opacity:1;}100%{stroke-opacity:0;}}</style></svg>