<svg xmlns="http://www.w3.org/2000/svg" viewBox="0 0 644.1 426.21" style=""><defs><style>.cls-1{fill:none;stroke:#1394aa;stroke-miterlimit:10;stroke-width:4px;}</style></defs><g id="Layer_2" data-name="Layer 2"><g id="Layer_1-2" data-name="Layer 1"><path class="cls-1 yGpjfWfF_0" d="M40.89,373.9Q2,323.61,2,213.1T40.89,52.31Q79.77,2,160,2T279.15,52.31Q318,102.62,318,213.1T279.15,373.9Q240.27,424.23,160,424.21T40.89,373.9Zm159.87-37q15.42-13.28,22.53-43.21t7.1-80.56q0-50.59-7.1-80.55T200.76,89.34Q185.33,76.08,160,76.07T119.28,89.34q-15.44,13.29-22.53,43.21t-7.1,80.55q0,50.63,7.1,80.56t22.53,43.21Q134.7,350.15,160,350.14T200.76,336.87Z"></path><path class="cls-1 yGpjfWfF_1" d="M518,350.75H345.2V285.94L445.81,10.64h93.83l-109.26,266H518V162.49h85.18V276.68H642.1v74.07H603.21V418H518Z"></path></g></g><style data-made-with="vivus-instant">.yGpjfWfF_0{stroke-dasharray:1908 1910;stroke-dashoffset:1909;animation:yGpjfWfF_draw 2000ms linear 0ms forwards;}.yGpjfWfF_1{stroke-dasharray:1685 1687;stroke-dashoffset:1686;animation:yGpjfWfF_draw 2000ms linear 0ms forwards;}@keyframes yGpjfWfF_draw{100%{stroke-dashoffset:0;}}@keyframes yGpjfWfF_fade{0%{stroke-opacity:1;}93.54838709677419%{stroke-opacity:1;}100%{stroke-opacity:0;}}</style></svg>