<svg xmlns="http://www.w3.org/2000/svg" viewBox="0 0 649.66 427.44" style=""><defs><style>.cls-1{fill:none;stroke:#f8a599;stroke-miterlimit:10;stroke-width:4px;}</style></defs><g id="Layer_2" data-name="Layer 2"><g id="Layer_1-2" data-name="Layer 1"><path class="cls-1 GRjqlrsf_0" d="M40.89,373.9Q2,323.61,2,213.1T40.89,52.31Q79.77,2,160,2T279.15,52.31Q318,102.62,318,213.1T279.15,373.9Q240.27,424.23,160,424.21T40.89,373.9Zm159.87-37q15.42-13.28,22.53-43.21t7.1-80.56q0-50.59-7.1-80.55T200.76,89.34Q185.33,76.08,160,76.07T119.28,89.34q-15.44,13.29-22.53,43.21t-7.1,80.55q0,50.63,7.1,80.56t22.53,43.21Q134.7,350.15,160,350.14T200.76,336.87Z"></path><path class="cls-1 GRjqlrsf_1" d="M380.69,370.81Q342.11,316.19,342.11,210q0-104.31,43.21-155.55T511.86,3.23q49.38,0,103.08,13.58l19.14,4.32-7.41,65.43q-63-9.25-109.26-9.25-87.64,0-87.65,95.05l13-3.7q39.5-11.72,64.81-11.73,70.37,0,105.24,32.1t34.88,99.38q0,67.29-39.2,102.16T494,425.44Q419.26,425.44,380.69,370.81ZM544,335q16-16.33,16-46,0-58-59.88-58-27.78,0-60.49,10.5l-10.49,3.08q0,106.8,69.13,106.79Q527.91,351.37,544,335Z"></path></g></g><style data-made-with="vivus-instant">.GRjqlrsf_0{stroke-dasharray:1908 1910;stroke-dashoffset:1909;animation:GRjqlrsf_draw 2000ms linear 0ms forwards;}.GRjqlrsf_1{stroke-dasharray:2001 2003;stroke-dashoffset:2002;animation:GRjqlrsf_draw 2000ms linear 0ms forwards;}@keyframes GRjqlrsf_draw{100%{stroke-dashoffset:0;}}@keyframes GRjqlrsf_fade{0%{stroke-opacity:1;}93.54838709677419%{stroke-opacity:1;}100%{stroke-opacity:0;}}</style></svg>