<svg xmlns="http://www.w3.org/2000/svg" viewBox="0 0 662.62 427.44" style=""><defs><style>.cls-1{fill:none;stroke:whitesmoke;stroke-miterlimit:10;stroke-width:6px;}</style></defs><g id="Layer_2" data-name="Layer 2"><g id="Layer_1-2" data-name="Layer 1"><path class="cls-1 NUvvzIBw_0" d="M40.89,373.9Q2,323.61,2,213.1T40.89,52.31Q79.77,2,160,2T279.15,52.31Q318,102.62,318,213.1T279.15,373.9Q240.27,424.23,160,424.21T40.89,373.9Zm159.87-37q15.42-13.28,22.53-43.21t7.1-80.56q0-50.59-7.1-80.55T200.76,89.34Q185.33,76.08,160,76.07T119.28,89.34q-15.44,13.29-22.53,43.21t-7.1,80.55q0,50.63,7.1,80.56t22.53,43.21Q134.7,350.15,160,350.14T200.76,336.87Z"></path><path class="cls-1 NUvvzIBw_1" d="M350.14,314.33q0-37.63,11.41-60.18t39.82-46q-25.94-20.37-35.19-40.43t-9.25-53.4q0-52.45,40.12-82.09,40.11-29,107.4-29,67.89,0,109,29.94T654.45,115q0,35.81-8.65,53.7T610,208.17q28.39,23.46,39.51,44.13t11.11,55.25q0,58.65-41.67,88.26t-114.5,29.63Q350.13,425.44,350.14,314.33Zm219.12-19.75q0-32.08-36.41-46.29H478.53q-37,13.57-37,46.29,0,54.33,64.2,54.32Q569.24,348.9,569.26,294.58ZM532.85,176.07q30.23-21,30.24-48.15,0-48.15-57.4-48.15t-57.41,50q0,25.32,30.25,46.3Z"></path></g></g><style data-made-with="vivus-instant">.NUvvzIBw_0{stroke-dasharray:1908 1910;stroke-dashoffset:1909;animation:NUvvzIBw_draw 2000ms linear 0ms forwards;}.NUvvzIBw_1{stroke-dasharray:2032 2034;stroke-dashoffset:2033;animation:NUvvzIBw_draw 2000ms linear 0ms forwards;}@keyframes NUvvzIBw_draw{100%{stroke-dashoffset:0;}}@keyframes NUvvzIBw_fade{0%{stroke-opacity:1;}93.54838709677419%{stroke-opacity:1;}100%{stroke-opacity:0;}}</style></svg>