<svg xmlns="http://www.w3.org/2000/svg" viewBox="0 0 637.31 427.44" style=""><defs><style>.cls-1{fill:none;stroke:#f4a49a;stroke-miterlimit:10;stroke-width:4px;}</style></defs><g id="Layer_2" data-name="Layer 2"><g id="Layer_1-2" data-name="Layer 1"><path class="cls-1 FlJkoZpd_0" d="M40.89,373.9Q2,323.61,2,213.1T40.89,52.31Q79.77,2,160,2T279.15,52.31Q318,102.62,318,213.1T279.15,373.9Q240.27,424.23,160,424.21T40.89,373.9Zm159.87-37q15.42-13.28,22.53-43.21t7.1-80.56q0-50.59-7.1-80.55T200.76,89.34Q185.33,76.08,160,76.07T119.28,89.34q-15.44,13.29-22.53,43.21t-7.1,80.55q0,50.63,7.1,80.56t22.53,43.21Q134.7,350.15,160,350.14T200.76,336.87Z"></path><path class="cls-1 FlJkoZpd_1" d="M433.16,420.2q-36.12-5.24-59.57-12l-22.22-5.56,9.26-63q72.83,11.75,124.69,11.73,30.23,0,46.29-16.05t16-46.29q0-56.79-51.85-56.79-42.58,0-72.84,8l-9.26,2.47L363.1,231,374.21,10.64H623V84.71H440.87L430.38,173q38.26-14.8,72.84-14.81,132.07,0,132.09,122.83,0,69.15-36.42,106.79T495.81,425.44Q469.26,425.44,433.16,420.2Z"></path></g></g><style data-made-with="vivus-instant">.FlJkoZpd_0{stroke-dasharray:1908 1910;stroke-dashoffset:1909;animation:FlJkoZpd_draw 1000ms linear 0ms forwards;}.FlJkoZpd_1{stroke-dasharray:1985 1987;stroke-dashoffset:1986;animation:FlJkoZpd_draw 1000ms linear 0ms forwards;}@keyframes FlJkoZpd_draw{100%{stroke-dashoffset:0;}}@keyframes FlJkoZpd_fade{0%{stroke-opacity:1;}92.3076923076923%{stroke-opacity:1;}100%{stroke-opacity:0;}}</style></svg>