<svg xmlns="http://www.w3.org/2000/svg" viewBox="0 0 662 427.44" style=""><defs><style>.cls-1{fill:none;stroke:#69c5d8;stroke-miterlimit:10;stroke-width:4px;}</style></defs><g id="Layer_2" data-name="Layer 2"><g id="Layer_1-2" data-name="Layer 1"><path class="cls-1 RYRTmdJD_0" d="M40.89,373.9Q2,323.61,2,213.1T40.89,52.31Q79.77,2,160,2T279.15,52.31Q318,102.62,318,213.1T279.15,373.9Q240.27,424.23,160,424.21T40.89,373.9Zm159.87-37q15.42-13.28,22.53-43.21t7.1-80.56q0-50.59-7.1-80.55T200.76,89.34Q185.33,76.08,160,76.07T119.28,89.34q-15.44,13.29-22.53,43.21t-7.1,80.55q0,50.63,7.1,80.56t22.53,43.21Q134.7,350.15,160,350.14T200.76,336.87Z"></path><path class="cls-1 RYRTmdJD_1" d="M393,370.82q-38.6-54.63-38.58-160.8,0-104.31,43.2-155.55T524.2,3.24q49.38,0,103.09,13.57l19.13,4.33L639,86.57q-63-9.27-109.26-9.26-87.66,0-87.65,95.06l13-3.71q39.49-11.72,64.81-11.73,70.38,0,105.25,32.1T660,288.41q0,67.29-39.19,102.16T506.3,425.44Q431.62,425.44,393,370.82ZM556.3,335q16.05-16.33,16.05-46,0-58-59.87-58-27.78,0-60.5,10.5l-10.49,3.08q0,106.8,69.13,106.79Q540.26,351.37,556.3,335Z"></path></g></g><style data-made-with="vivus-instant">.RYRTmdJD_0{stroke-dasharray:1908 1910;stroke-dashoffset:1909;animation:RYRTmdJD_draw 1000ms linear 0ms forwards;}.RYRTmdJD_1{stroke-dasharray:2001 2003;stroke-dashoffset:2002;animation:RYRTmdJD_draw 1000ms linear 0ms forwards;}@keyframes RYRTmdJD_draw{100%{stroke-dashoffset:0;}}@keyframes RYRTmdJD_fade{0%{stroke-opacity:1;}92.3076923076923%{stroke-opacity:1;}100%{stroke-opacity:0;}}</style></svg>