<svg xmlns="http://www.w3.org/2000/svg" viewBox="0 0 625.58 427.83" style=""><defs><style>.cls-1{fill:none;stroke:#a4a6cb;stroke-miterlimit:10;stroke-width:4px;}</style></defs><g id="Layer_2" data-name="Layer 2"><g id="Layer_1-2" data-name="Layer 1"><path class="cls-1 EecjQHfg_0" d="M40.89,373.9Q2,323.61,2,213.1T40.89,52.31Q79.77,2,160,2T279.15,52.31Q318,102.62,318,213.1T279.15,373.9Q240.27,424.23,160,424.21T40.89,373.9Zm159.87-37q15.42-13.28,22.53-43.21t7.1-80.56q0-50.59-7.1-80.55T200.76,89.34Q185.33,76.08,160,76.07T119.28,89.34q-15.44,13.29-22.53,43.21t-7.1,80.55q0,50.63,7.1,80.56t22.53,43.21Q134.7,350.15,160,350.14T200.76,336.87Z"></path><path class="cls-1 EecjQHfg_1" d="M399.52,403.22,538.4,106.32V86.57H363.1V10.64H623.58v96.3L478.53,425.44Z"></path></g></g><style data-made-with="vivus-instant">.EecjQHfg_0{stroke-dasharray:1908 1910;stroke-dashoffset:1909;animation:EecjQHfg_draw 1000ms linear 0ms forwards;}.EecjQHfg_1{stroke-dasharray:1388 1390;stroke-dashoffset:1389;animation:EecjQHfg_draw 1000ms linear 0ms forwards;}@keyframes EecjQHfg_draw{100%{stroke-dashoffset:0;}}@keyframes EecjQHfg_fade{0%{stroke-opacity:1;}92.3076923076923%{stroke-opacity:1;}100%{stroke-opacity:0;}}</style></svg>