<svg xmlns="http://www.w3.org/2000/svg" viewBox="0 0 580.52 426.21" style=""><defs><style>.cls-1{fill:none;stroke:#00afef;stroke-miterlimit:10;stroke-width:4px;}</style></defs><g id="Layer_2" data-name="Layer 2"><g id="Layer_1-2" data-name="Layer 1"><path class="cls-1 ClbCXzSD_0" d="M40.89,373.9Q2,323.61,2,213.1T40.89,52.31Q79.77,2,160,2T279.15,52.31Q318,102.62,318,213.1T279.15,373.9Q240.27,424.23,160,424.21T40.89,373.9Zm159.87-37q15.42-13.28,22.53-43.21t7.1-80.56q0-50.59-7.1-80.55T200.76,89.34Q185.33,76.08,160,76.07T119.28,89.34q-15.44,13.29-22.53,43.21t-7.1,80.55q0,50.63,7.1,80.56t22.53,43.21Q134.7,350.15,160,350.14T200.76,336.87Z"></path><path class="cls-1 ClbCXzSD_1" d="M493.34,106.93l-88.27,56.79-38.89-63.57L500.75,10.64h77.77V418H493.34Z"></path></g></g><style data-made-with="vivus-instant">.ClbCXzSD_0{stroke-dasharray:1908 1910;stroke-dashoffset:1909;animation:ClbCXzSD_draw 1000ms linear 0ms forwards;}.ClbCXzSD_1{stroke-dasharray:1223 1225;stroke-dashoffset:1224;animation:ClbCXzSD_draw 1000ms linear 0ms forwards;}@keyframes ClbCXzSD_draw{100%{stroke-dashoffset:0;}}@keyframes ClbCXzSD_fade{0%{stroke-opacity:1;}94.44444444444444%{stroke-opacity:1;}100%{stroke-opacity:0;}}</style></svg>