<svg xmlns="http://www.w3.org/2000/svg" viewBox="0 0 18.82 33.61"><defs><style>.cls-1{fill:#e43d30;}.cls-2{fill:#00afef;}</style></defs><g id="Layer_2" data-name="Layer 2"><g id="Layer_1-2" data-name="Layer 1"><path class="cls-1" d="M1.41,22.84c1,.68,17.41,10.77,17.41,10.77V23.36L.38,12A5.15,5.15,0,0,0,0,14.26c0,.85,0,5.34,0,5.34A3.53,3.53,0,0,0,1.41,22.84Z"/><path class="cls-2" d="M.37,21.64h0a2.88,2.88,0,0,0,.66.9c-.28-.88-.14-1.13.26-1.45L3,20l.26-.17,15.53-9.59V0S2.38,10.1,1.41,10.77,0,12.21,0,14v5.34a3.83,3.83,0,0,0,.36,2.28"/></g></g></svg>