<svg xmlns="http://www.w3.org/2000/svg" xmlns:xlink="http://www.w3.org/1999/xlink" viewBox="0 0 1156.52 884.91"><defs><style>.cls-1{font-size:32px;}.cls-1,.cls-4,.cls-5{fill:#575756;}.cls-1,.cls-3,.cls-4,.cls-5{font-family:Cairo-SemiBold, Cairo;font-weight:600;}.cls-2{font-size:54.15px;fill:#f4a89e;font-family:Cairo-Bold, Cairo;font-weight:700;}.cls-3{font-size:31.12px;}.cls-4,.cls-5{font-size:26.34px;}.cls-10,.cls-6,.cls-7,.cls-8,.cls-9{fill:none;stroke-linecap:round;stroke-linejoin:round;stroke-width:2.82px;}.cls-6{stroke:url(#linear-gradient);}.cls-7{stroke:url(#linear-gradient-2);}.cls-8{stroke:url(#linear-gradient-3);}.cls-9{stroke:url(#linear-gradient-4);}.cls-10{stroke:url(#linear-gradient-5);}</style><linearGradient id="linear-gradient" y1="1.41" x2="1156.52" y2="1.41" gradientUnits="userSpaceOnUse"><stop offset="0" stop-color="#00b8ed"/><stop offset="1" stop-color="#f4a89e"/></linearGradient><linearGradient id="linear-gradient-2" y1="385.27" x2="1156.52" y2="385.27" xlink:href="#linear-gradient"/><linearGradient id="linear-gradient-3" y1="522.64" x2="1156.52" y2="522.64" xlink:href="#linear-gradient"/><linearGradient id="linear-gradient-4" y1="883.5" x2="1156.52" y2="883.5" xlink:href="#linear-gradient"/><linearGradient id="linear-gradient-5" y1="697.6" x2="1156.52" y2="697.6" xlink:href="#linear-gradient"/></defs><g id="Layer_2" data-name="Layer 2"><g id="Layer_1-2" data-name="Layer 1"><text class="cls-1" transform="translate(1.41 55.53)">Performances<tspan x="0" y="28.4">commerciales </tspan></text><text class="cls-1" transform="translate(1.41 571.97)">Encours global<tspan x="0" y="34.4">des dépôts</tspan></text><text class="cls-1" transform="translate(1.41 746.93)">Encours global<tspan x="0" y="34.4">des crédits</tspan></text><text class="cls-1" transform="translate(1.41 437.48)">RSE</text><text class="cls-2" transform="translate(363.36 64.37)">1,4<tspan class="cls-3" x="74.89" y="0" xml:space="preserve"> million</tspan><tspan class="cls-4"><tspan x="0" y="31.6">de clients actifs</tspan></tspan></text><text class="cls-2" transform="translate(631.78 64.37)">92<tspan class="cls-3" x="60.65" y="0" xml:space="preserve"> %</tspan><tspan class="cls-5" x="84.92" y="0" xml:space="preserve"> de taux</tspan><tspan class="cls-4"><tspan x="0" y="31.6">de satisfaction</tspan><tspan x="0" y="63.2">des clients</tspan></tspan></text><text class="cls-2" transform="translate(909.21 64.37)">+69<tspan class="cls-3" x="90.97" y="0" xml:space="preserve"> %</tspan><tspan class="cls-5" x="115.25" y="0" xml:space="preserve"> de clients</tspan><tspan class="cls-4"><tspan x="0" y="31.6">particuliers et</tspan><tspan x="0" y="63.2">autoentrepreneurs</tspan><tspan x="0" y="94.81">entre 2018 et 2020</tspan></tspan></text><text class="cls-4" transform="translate(363.36 573.07)">2020<tspan class="cls-2"><tspan x="0" y="50.61">50,1</tspan><tspan class="cls-3" x="105.21" y="50.61" xml:space="preserve"> MMDH</tspan></tspan></text><text class="cls-4" transform="translate(631.78 573.07)">2019<tspan class="cls-2"><tspan x="0" y="50.61">41,4</tspan><tspan class="cls-3" x="105.21" y="50.61" xml:space="preserve"> MDH</tspan></tspan></text><text class="cls-2" transform="translate(909.21 583.07)">+21,0<tspan class="cls-3" x="135.26" y="0" xml:space="preserve"> %</tspan><tspan class="cls-4"><tspan x="0" y="31.6">par rapport à</tspan><tspan x="0" y="63.2">décembre 2019</tspan></tspan></text><text class="cls-4" transform="translate(363.36 749.72)">2020<tspan class="cls-2"><tspan x="0" y="50.61">52,0</tspan><tspan class="cls-3" x="105.21" y="50.61" xml:space="preserve"> MMDH</tspan></tspan></text><text class="cls-4" transform="translate(631.78 749.72)">2019<tspan class="cls-2"><tspan x="0" y="50.61">43,6</tspan><tspan class="cls-3" x="105.21" y="50.61" xml:space="preserve"> MMDH</tspan></tspan></text><text class="cls-2" transform="translate(363.36 439.72)">+51<tspan class="cls-3" x="90.97" y="0" xml:space="preserve"> %</tspan><tspan class="cls-5" x="115.25" y="0" xml:space="preserve"> de budget</tspan><tspan class="cls-4"><tspan x="0" y="31.6">de mécénat en 2020</tspan></tspan></text><text class="cls-2" transform="translate(363.36 238.6)">423 455<tspan class="cls-4"><tspan x="0" y="31.6">nouveaux comptes</tspan><tspan x="0" y="63.2">ouverts en 2020 </tspan></tspan></text><text class="cls-2" transform="translate(631.78 238.6)">1,5<tspan class="cls-3" x="74.89" y="0" xml:space="preserve"> million</tspan><tspan class="cls-5" x="170.56" y="0" xml:space="preserve"> de</tspan><tspan class="cls-4"><tspan x="0" y="31.6">comptes CIH ONLINE</tspan><tspan x="0" y="63.2">et CIH MOBILE</tspan></tspan></text><text class="cls-2" transform="translate(909.21 238.6)">104,2<tspan class="cls-3" x="135.53" y="0" xml:space="preserve"> millions</tspan><tspan class="cls-4"><tspan x="0" y="31.6">de connexions</tspan><tspan x="0" y="63.2">à CIH ONLINE</tspan><tspan x="0" y="94.81">et CIH MOBILE</tspan></tspan></text><text class="cls-2" transform="translate(909.21 768.99)">+19,3<tspan class="cls-3" x="135.26" y="0" xml:space="preserve"> %</tspan><tspan class="cls-4"><tspan x="0" y="31.6">par rapport à</tspan><tspan x="0" y="63.2">décembre 2019</tspan></tspan></text><line class="cls-6" x1="1.41" y1="1.41" x2="1155.1" y2="1.41"/><line class="cls-7" x1="1.41" y1="385.27" x2="1155.1" y2="385.27"/><line class="cls-8" x1="1.41" y1="522.64" x2="1155.1" y2="522.64"/><line class="cls-9" x1="1.41" y1="883.5" x2="1155.1" y2="883.5"/><line class="cls-10" x1="1.41" y1="697.6" x2="1155.1" y2="697.6"/></g></g></svg>