<svg xmlns="http://www.w3.org/2000/svg" viewBox="0 0 796.34 691.71"><defs><style>.cls-1,.cls-9{font-size:26.01px;}.cls-1,.cls-12,.cls-4,.cls-5{fill:#575756;}.cls-1,.cls-4,.cls-5,.cls-9{font-family:Cairo-Regular, Cairo;}.cls-10,.cls-2,.cls-9{fill:#fff;}.cls-11,.cls-2{stroke:#575756;stroke-miterlimit:10;stroke-width:0.88px;}.cls-3{fill:#f5ab93;}.cls-4{font-size:29.27px;}.cls-5{font-size:22.76px;}.cls-6{fill:#ee7882;}.cls-7{fill:#d06e82;}.cls-8{fill:#956580;}.cls-11{fill:none;}</style></defs><g id="Layer_2" data-name="Layer 2"><g id="Layer_1-2" data-name="Layer 1"><text class="cls-1" transform="translate(13.92 82.77)">2500</text><text class="cls-1" transform="translate(13.92 186.83)">2000</text><text class="cls-1" transform="translate(13.92 290.89)">1500</text><text class="cls-1" transform="translate(13.92 394.95)">1000</text><text class="cls-1" transform="translate(29.72 499.01)">500</text><text class="cls-1" transform="translate(61.33 603.06)">0</text><text class="cls-1" transform="translate(172.59 640.18)">2018</text><text class="cls-1" transform="translate(404.06 640.18)">2019</text><text class="cls-1" transform="translate(633.03 640.18)">2020</text><line class="cls-2" x1="91.45" y1="604.61" x2="782.61" y2="604.61"/><line class="cls-2" x1="91.45" y1="499.5" x2="782.61" y2="499.5"/><line class="cls-2" x1="91.45" y1="394.4" x2="782.61" y2="394.4"/><line class="cls-2" x1="91.45" y1="289.3" x2="782.61" y2="289.3"/><line class="cls-2" x1="91.45" y1="184.2" x2="782.61" y2="184.2"/><line class="cls-2" x1="91.45" y1="79.1" x2="782.61" y2="79.1"/><rect class="cls-3" x="141.71" y="387.7" width="124.98" height="216.94"/><rect class="cls-3" x="373.18" y="375.06" width="124.98" height="229.57"/><rect class="cls-3" x="602.15" y="363.27" width="124.98" height="241.36"/><text class="cls-4" transform="translate(166.96 24.76)">1927</text><text class="cls-4" transform="translate(393.58 24.76)">2044</text><text class="cls-4" transform="translate(625.52 24.76)">2083</text><text class="cls-5" transform="translate(60.09 681.1)">≤ 10 ans</text><text class="cls-5" transform="translate(259.93 681.1)">11 - 20 ans</text><text class="cls-5" transform="translate(485.03 681.1)">21 - 30 ans</text><text class="cls-5" transform="translate(713.87 681.1)">≥ 30 ans</text><rect class="cls-6" x="199.21" y="667.68" width="53.1" height="9.42"/><rect class="cls-3" y="667.68" width="53.1" height="9.42"/><rect class="cls-7" x="424.1" y="667.68" width="53.1" height="9.42"/><rect class="cls-8" x="650.55" y="667.68" width="53.1" height="9.42"/><rect class="cls-6" x="141.71" y="343.46" width="124.98" height="44.24"/><rect class="cls-7" x="141.71" y="219.43" width="124.98" height="124.03"/><rect class="cls-6" x="373.18" y="320.21" width="124.98" height="54.86"/><rect class="cls-7" x="373.18" y="183.96" width="124.98" height="136.24"/><rect class="cls-6" x="602.15" y="313.02" width="124.98" height="50.25"/><rect class="cls-7" x="602.15" y="183.96" width="124.98" height="129.06"/><rect class="cls-8" x="141.71" y="190.71" width="124.98" height="28.72"/><rect class="cls-8" x="373.18" y="161.57" width="124.98" height="22.39"/><rect class="cls-8" x="602.15" y="155.25" width="124.98" height="28.72"/><text class="cls-9" transform="translate(172.72 489.67)">1007</text><text class="cls-9" transform="translate(402.72 482.76)">1059</text><text class="cls-9" transform="translate(633.16 473.54)">1101</text><text class="cls-9" transform="translate(641.21 346.79)">259</text><text class="cls-9" transform="translate(641.21 256.92)">637</text><text class="cls-9" transform="translate(649.27 178.57)">86</text><text class="cls-9" transform="translate(410.77 358.32)">235</text><text class="cls-9" transform="translate(410.77 259.22)">702</text><text class="cls-9" transform="translate(418.82 183.18)">48</text><text class="cls-9" transform="translate(178.27 376.75)">137</text><text class="cls-9" transform="translate(178.27 289.18)">734</text><text class="cls-9" transform="translate(186.32 215.44)">49</text><line class="cls-10" x1="204.19" y1="35.81" x2="204.19" y2="184.45"/><line class="cls-11" x1="204.19" y1="35.81" x2="204.19" y2="181.68"/><rect class="cls-12" x="201.28" y="178.62" width="5.82" height="5.82"/><line class="cls-10" x1="435.67" y1="35.81" x2="435.67" y2="155.18"/><line class="cls-11" x1="435.67" y1="35.81" x2="435.67" y2="152.41"/><rect class="cls-12" x="432.76" y="149.36" width="5.82" height="5.82"/><line class="cls-10" x1="664.64" y1="35.81" x2="664.64" y2="148.68"/><line class="cls-11" x1="664.64" y1="35.81" x2="664.64" y2="145.91"/><rect class="cls-12" x="661.73" y="142.85" width="5.82" height="5.82"/></g></g></svg>