<svg xmlns="http://www.w3.org/2000/svg" xmlns:xlink="http://www.w3.org/1999/xlink" viewBox="0 0 1156.51 1121.27"><defs><style>.cls-1{font-size:54.15px;fill:#f4a89e;font-family:Cairo-Bold, Cairo;font-weight:700;}.cls-2,.cls-6{font-size:26.34px;}.cls-13,.cls-2,.cls-5,.cls-6{fill:#575756;}.cls-13,.cls-14,.cls-2,.cls-3,.cls-4,.cls-5,.cls-6{font-family:Cairo-SemiBold, Cairo;font-weight:600;}.cls-3{font-size:31.12px;}.cls-4,.cls-5{font-size:27.07px;}.cls-10,.cls-11,.cls-12,.cls-7,.cls-8,.cls-9{fill:none;stroke-linecap:round;stroke-linejoin:round;}.cls-7,.cls-8,.cls-9{stroke-width:2.82px;}.cls-7{stroke:url(#linear-gradient);}.cls-8{stroke:url(#linear-gradient-2);}.cls-9{stroke:url(#linear-gradient-3);}.cls-10,.cls-11,.cls-12{stroke-width:2px;opacity:0.4;}.cls-10{stroke:url(#linear-gradient-4);}.cls-11{stroke:url(#linear-gradient-5);}.cls-12{stroke:url(#linear-gradient-6);}.cls-13{font-size:32px;}.cls-14{font-size:26px;fill:gray;}</style><linearGradient id="linear-gradient" y1="1.41" x2="1156.51" y2="1.41" gradientUnits="userSpaceOnUse"><stop offset="0" stop-color="#00b8ed"/><stop offset="1" stop-color="#f4a89e"/></linearGradient><linearGradient id="linear-gradient-2" y1="206.86" x2="1156.51" y2="206.86" xlink:href="#linear-gradient"/><linearGradient id="linear-gradient-3" y1="980.87" x2="1156.51" y2="980.87" xlink:href="#linear-gradient"/><linearGradient id="linear-gradient-4" x1="0.41" y1="470.26" x2="1156.1" y2="470.26" gradientUnits="userSpaceOnUse"><stop offset="0" stop-color="#f4a89e"/><stop offset="1" stop-color="#00b8ed"/></linearGradient><linearGradient id="linear-gradient-5" x1="0.41" y1="650.96" x2="1156.1" y2="650.96" xlink:href="#linear-gradient-4"/><linearGradient id="linear-gradient-6" x1="0.41" y1="828.85" x2="1156.1" y2="828.85" xlink:href="#linear-gradient-4"/></defs><g id="Layer_2" data-name="Layer 2"><g id="Layer_1-2" data-name="Layer 1"><text class="cls-1" transform="translate(363.36 60.99)">307<tspan class="cls-2"><tspan x="0" y="31.6">agences et</tspan><tspan x="0" y="63.2">9 Directions</tspan><tspan x="0" y="94.81">Régionales</tspan></tspan></text><text class="cls-2" transform="translate(363.36 304.79)">2020<tspan class="cls-1"><tspan x="0" y="50.61">89,5</tspan><tspan class="cls-3" x="105.21" y="50.61" xml:space="preserve"> MDH</tspan></tspan></text><text class="cls-2" transform="translate(363.36 516.71)">2020<tspan class="cls-1"><tspan x="0" y="50.61">1 315,4</tspan><tspan class="cls-4" x="169.1" y="50.61" xml:space="preserve"> MDH</tspan></tspan></text><text class="cls-2" transform="translate(363.36 695.29)">2020<tspan class="cls-1"><tspan x="0" y="50.61">249,3</tspan><tspan class="cls-3" x="135.53" y="50.61" xml:space="preserve"> MDH</tspan></tspan></text><text class="cls-5" transform="translate(363.36 877.3)">2020<tspan class="cls-1"><tspan x="0" y="50.61">5,0</tspan><tspan class="cls-3" x="74.89" y="50.61" xml:space="preserve"> MMDH</tspan></tspan></text><text class="cls-1" transform="translate(363.36 1045.29)">2 083<tspan class="cls-2"><tspan x="0" y="31.6">collaborateurs</tspan><tspan x="0" y="63.2">à fin 2020 </tspan></tspan></text><text class="cls-1" transform="translate(631.79 1045.29)">40<tspan class="cls-3" x="60.54" y="0" xml:space="preserve"> %</tspan><tspan class="cls-2"><tspan x="0" y="31.6">de femmes</tspan></tspan></text><text class="cls-5" transform="translate(631.79 877.3)">2019<tspan class="cls-1"><tspan x="0" y="50.61">5,2</tspan><tspan class="cls-4" x="74.89" y="50.61" xml:space="preserve"> MMDH</tspan></tspan></text><text class="cls-5" transform="translate(631.79 695.91)">2019<tspan class="cls-1"><tspan x="0" y="50.61">451,4</tspan><tspan class="cls-4" x="135.53" y="50.61" xml:space="preserve"> MDH</tspan></tspan></text><text class="cls-2" transform="translate(903.21 695.29)">En baisse de<tspan class="cls-1"><tspan x="0" y="50.61">45</tspan><tspan class="cls-3" x="60.65" y="50.61" xml:space="preserve"> %</tspan><tspan class="cls-6" x="84.92" y="50.61" xml:space="preserve"> par rapport</tspan></tspan><tspan x="0" y="82.22">à décembre 2019</tspan></text><text class="cls-2" transform="translate(631.79 516.71)">2019<tspan class="cls-1"><tspan x="0" y="50.61">1 222,0</tspan><tspan class="cls-4" x="172.35" y="50.61" xml:space="preserve"> MDH</tspan></tspan></text><text class="cls-2" transform="translate(909.21 516.71)">En progression de <tspan class="cls-1"><tspan x="0" y="50.61">7,6</tspan><tspan class="cls-3" x="74.89" y="50.61" xml:space="preserve"> %</tspan><tspan class="cls-6" x="99.16" y="50.61" xml:space="preserve"> par rapport</tspan></tspan><tspan x="0" y="82.22">à décembre 2019</tspan></text><text class="cls-2" transform="translate(631.79 304.79)">2019<tspan class="cls-1"><tspan x="0" y="50.61">65,8</tspan><tspan class="cls-3" x="105.21" y="50.61" xml:space="preserve"> MDH</tspan></tspan></text><text class="cls-2" transform="translate(909.21 304.79)">En progression de<tspan class="cls-1"><tspan x="0" y="50.61">19,2</tspan><tspan class="cls-3" x="104.99" y="50.61" xml:space="preserve"> %</tspan></tspan><tspan x="0" y="82.22">par rapport à</tspan><tspan x="0" y="113.82">décembre 2019</tspan></text><text class="cls-1" transform="translate(631.79 60.99)">6<tspan class="cls-2"><tspan x="0" y="31.6">nouvelles agences</tspan><tspan x="0" y="63.2">en 2020</tspan></tspan></text><text class="cls-1" transform="translate(909.21 60.99)">4<tspan class="cls-2"><tspan x="0" y="31.6">agences mobiles</tspan></tspan></text><line class="cls-7" x1="1.41" y1="1.41" x2="1155.1" y2="1.41"/><line class="cls-8" x1="1.41" y1="206.86" x2="1155.1" y2="206.86"/><line class="cls-9" x1="1.41" y1="980.87" x2="1155.1" y2="980.87"/><line class="cls-10" x1="1.41" y1="470.26" x2="1155.1" y2="470.26"/><line class="cls-11" x1="1.41" y1="650.96" x2="1155.1" y2="650.96"/><line class="cls-12" x1="1.41" y1="828.85" x2="1155.1" y2="828.85"/><text class="cls-13" transform="translate(1.41 53.14)">Réseau commercial</text><text class="cls-13" transform="translate(1.41 258.59)">Résultats financiers </text><text class="cls-14" transform="translate(1.41 304.51)">Total bilan</text><text class="cls-14" transform="translate(1.41 516.43)">Résultat Brut<tspan x="0" y="27.2">d’Exploitation </tspan></text><text class="cls-14" transform="translate(1.41 695.01)">Résultat net </text><text class="cls-14" transform="translate(1.41 877.53)">Fonds propres </text><text class="cls-13" transform="translate(1.41 1032.59)">Capital humain</text></g></g></svg>