<svg xmlns="http://www.w3.org/2000/svg" viewBox="0 0 28.75 28.75"><defs><style>.cls-1{fill:none;stroke:#fff;stroke-miterlimit:10;stroke-width:0.5px;}.cls-2{fill:#fff;}.cls-3{fill:#e43d30;}.cls-4{fill:#00afef;}</style></defs><g id="Layer_2" data-name="Layer 2"><g id="Layer_1-2" data-name="Layer 1"><circle class="cls-1" cx="14.37" cy="14.37" r="14.12"/><circle class="cls-2" cx="14.37" cy="14.37" r="12.54"/><path class="cls-3" d="M19.53,11.29C18.9,10.94,8.31,5.78,8.31,5.78V11l11.88,5.83a2.24,2.24,0,0,0,.23-1.17c0-.44,0-2.73,0-2.73A1.68,1.68,0,0,0,19.53,11.29Z"/><path class="cls-4" d="M20.19,11.9h0a1.68,1.68,0,0,0-.43-.46c.18.45.09.58-.17.75l-1.12.54-.16.09-10,4.9V23S18.9,17.8,19.53,17.46a1.59,1.59,0,0,0,.9-1.66V13.07a1.64,1.64,0,0,0-.24-1.17"/></g></g></svg>