<svg xmlns="http://www.w3.org/2000/svg" xmlns:xlink="http://www.w3.org/1999/xlink" viewBox="0 0 1068.61 669.23"><defs><style>.cls-1{font-size:38.95px;fill:#1394aa;font-family:Cairo-SemiBold, Cairo SemiBold;font-weight:600;}.cls-2,.cls-3,.cls-6{fill:none;}.cls-2,.cls-3{stroke-miterlimit:10;stroke-width:4.67px;}.cls-2{stroke:url(#linear-gradient);}.cls-3{stroke:url(#linear-gradient-2);}.cls-4{font-size:28.85px;}.cls-4,.cls-5{fill:#666;font-family:Cairo-Regular, Cairo Regular;}.cls-5{font-size:28.77px;}.cls-6{stroke:#7768aa;stroke-linejoin:round;stroke-width:2px;}.cls-7{fill:#fff;}.cls-8{fill:#7768aa;}</style><linearGradient id="linear-gradient" x1="97.68" y1="666.9" x2="1068.61" y2="666.9" gradientUnits="userSpaceOnUse"><stop offset="0.22" stop-color="#c1227f"/><stop offset="0.82" stop-color="#234e98"/></linearGradient><linearGradient id="linear-gradient-2" x1="140.75" y1="219.59" x2="1025.24" y2="219.59" gradientUnits="userSpaceOnUse"><stop offset="0.18" stop-color="#234e98"/><stop offset="0.78" stop-color="#c1227f"/></linearGradient></defs><g id="Layer_2" data-name="Layer 2"><g id="Layer_1-2" data-name="Layer 1"><text class="cls-1" transform="translate(0 32.6)">Evolution de la Capitalisation Boursière</text><line class="cls-2" x1="97.68" y1="666.9" x2="1068.61" y2="666.9"/><polyline class="cls-3" points="141.81 188.63 230.46 233.91 318.56 285.38 406.67 281.46 494.77 257.31 582.87 279.95 671.76 185.61 759.86 153.96 847.97 186.36 936.07 153.91 1024.48 184.1"/><text class="cls-4" transform="translate(107.45 153.91)">579,0</text><text class="cls-4" transform="translate(195.75 211.67)">516,2</text><text class="cls-4" transform="translate(284.02 264.55)">445,3</text><text class="cls-4" transform="translate(372.29 264.55)">451,1</text><text class="cls-4" transform="translate(460.55 243.77)">484,4</text><text class="cls-4" transform="translate(548.82 237.46)">453,3</text><text class="cls-4" transform="translate(637.09 168.77)">583,4</text><text class="cls-4" transform="translate(725.35 139.48)">627,0</text><text class="cls-4" transform="translate(813.62 163.48)">582,2</text><text class="cls-4" transform="translate(901.89 139.48)">626,7</text><text class="cls-4" transform="translate(990.15 164.23)">585,0</text><text class="cls-5" transform="translate(13.15 543.1)">100,0</text><text class="cls-5" transform="translate(13.15 470.65)">200,0</text><text class="cls-5" transform="translate(13.15 398.95)">300,0</text><text class="cls-5" transform="translate(13.15 326.5)">400,0</text><text class="cls-5" transform="translate(13.15 254.04)">500,0</text><text class="cls-5" transform="translate(13.15 181.58)">600,0</text><text class="cls-5" transform="translate(13.15 109.13)">700,0</text><text class="cls-4" transform="translate(104.64 646.98)">2010</text><text class="cls-4" transform="translate(192.91 646.98)">2011</text><text class="cls-4" transform="translate(281.18 646.98)">2012</text><text class="cls-4" transform="translate(369.44 646.98)">2013</text><text class="cls-4" transform="translate(457.71 646.98)">2014</text><text class="cls-4" transform="translate(545.98 646.98)">2015</text><text class="cls-4" transform="translate(634.25 646.98)">2016</text><text class="cls-4" transform="translate(722.51 646.98)">2017</text><text class="cls-4" transform="translate(810.78 646.98)">2018</text><text class="cls-4" transform="translate(899.04 646.98)">2019</text><text class="cls-4" transform="translate(987.31 646.98)">2020</text><line class="cls-6" x1="140.59" y1="188.21" x2="140.59" y2="607.52"/><circle class="cls-7" cx="140.59" cy="188.55" r="6.02" transform="translate(-68.05 297.13) rotate(-80.78)"/><path class="cls-8" d="M133.78,188.55a6.82,6.82,0,1,0,6.81-6.81,6.82,6.82,0,0,0-6.81,6.81Zm12,0a5.22,5.22,0,1,1-5.22-5.21,5.22,5.22,0,0,1,5.22,5.21Z"/><line class="cls-6" x1="228.86" y1="233.64" x2="228.86" y2="607.52"/><path class="cls-7" d="M222.84,234a6,6,0,1,1,6,6A6,6,0,0,1,222.84,234Z"/><path class="cls-8" d="M222,234a6.82,6.82,0,1,0,6.82-6.82A6.83,6.83,0,0,0,222,234Zm12,0a5.22,5.22,0,1,1-5.21-5.22,5.21,5.21,0,0,1,5.21,5.22Z"/><line class="cls-6" x1="317.13" y1="284.93" x2="317.13" y2="607.52"/><path class="cls-7" d="M311.11,285.28a6,6,0,1,1,6,6A6,6,0,0,1,311.11,285.28Z"/><path class="cls-8" d="M310.31,285.28a6.82,6.82,0,1,0,6.82-6.82,6.83,6.83,0,0,0-6.82,6.82Zm12,0a5.22,5.22,0,1,1-5.21-5.22,5.22,5.22,0,0,1,5.21,5.22Z"/><line class="cls-6" x1="405.39" y1="280.73" x2="405.39" y2="607.52"/><path class="cls-7" d="M399.38,281.07a6,6,0,1,1,6,6A6,6,0,0,1,399.38,281.07Z"/><path class="cls-8" d="M398.58,281.07a6.82,6.82,0,1,0,6.81-6.81,6.82,6.82,0,0,0-6.81,6.81Zm12,0a5.22,5.22,0,1,1-5.22-5.22,5.22,5.22,0,0,1,5.22,5.22Z"/><line class="cls-6" x1="493.66" y1="256.61" x2="493.66" y2="607.52"/><path class="cls-7" d="M487.64,257a6,6,0,1,1,6,6A6,6,0,0,1,487.64,257Z"/><path class="cls-8" d="M486.84,257a6.82,6.82,0,1,0,6.82-6.82,6.83,6.83,0,0,0-6.82,6.82Zm12,0a5.22,5.22,0,1,1-5.22-5.22,5.22,5.22,0,0,1,5.22,5.22Z"/><line class="cls-6" x1="581.93" y1="279.14" x2="581.93" y2="607.52"/><path class="cls-7" d="M575.91,279.48a6,6,0,1,1,6,6A6,6,0,0,1,575.91,279.48Z"/><path class="cls-8" d="M575.11,279.48a6.82,6.82,0,1,0,6.82-6.82,6.83,6.83,0,0,0-6.82,6.82Zm12,0a5.22,5.22,0,1,1-5.21-5.22,5.22,5.22,0,0,1,5.21,5.22Z"/><line class="cls-6" x1="670.19" y1="185.04" x2="670.19" y2="607.52"/><path class="cls-7" d="M664.18,185.39a6,6,0,1,1,6,6A6,6,0,0,1,664.18,185.39Z"/><path class="cls-8" d="M663.38,185.39a6.82,6.82,0,1,0,6.81-6.82,6.82,6.82,0,0,0-6.81,6.82Zm12,0a5.22,5.22,0,1,1-5.22-5.22,5.22,5.22,0,0,1,5.22,5.22Z"/><line class="cls-6" x1="758.46" y1="153.51" x2="758.46" y2="607.52"/><path class="cls-7" d="M752.45,153.86a6,6,0,1,1,6,6A6,6,0,0,1,752.45,153.86Z"/><path class="cls-8" d="M751.65,153.86a6.82,6.82,0,1,0,6.81-6.82,6.82,6.82,0,0,0-6.81,6.82Zm12,0a5.22,5.22,0,1,1-5.22-5.22,5.22,5.22,0,0,1,5.22,5.22Z"/><line class="cls-6" x1="846.73" y1="185.93" x2="846.73" y2="607.52"/><path class="cls-7" d="M840.71,186.27a6,6,0,1,1,6,6A6,6,0,0,1,840.71,186.27Z"/><path class="cls-8" d="M839.91,186.27a6.82,6.82,0,1,0,6.82-6.81,6.83,6.83,0,0,0-6.82,6.81Zm12,0a5.22,5.22,0,1,1-5.21-5.21,5.22,5.22,0,0,1,5.21,5.21Z"/><line class="cls-6" x1="935" y1="153.71" x2="935" y2="607.52"/><circle class="cls-7" cx="935" cy="154.05" r="6.02" transform="translate(-5.22 36) rotate(-2.2)"/><path class="cls-8" d="M928.18,154.05a6.82,6.82,0,1,0,6.82-6.81,6.83,6.83,0,0,0-6.82,6.81Zm12,0a5.22,5.22,0,1,1-5.21-5.21,5.22,5.22,0,0,1,5.21,5.21Z"/><line class="cls-6" x1="1023.26" y1="183.89" x2="1023.26" y2="607.52"/><path class="cls-7" d="M1017.25,184.23a6,6,0,1,1,6,6A6,6,0,0,1,1017.25,184.23Z"/><path class="cls-8" d="M1016.45,184.23a6.82,6.82,0,1,0,6.81-6.81,6.82,6.82,0,0,0-6.81,6.81Zm12,0a5.22,5.22,0,1,1-5.22-5.21,5.22,5.22,0,0,1,5.22,5.21Z"/></g></g></svg>