<svg xmlns="http://www.w3.org/2000/svg" viewBox="0 0 1183.25 752.56"><defs><style>.cls-1{fill:#cfd1d3;}.cls-2{fill:#e6e7e7;}.cls-3{fill:#f5ab93;}.cls-4{fill:#355c7d;}.cls-5{fill:#d06e82;}.cls-6{fill:#ee7882;}.cls-7{fill:#956580;}.cls-8{font-size:31.08px;}.cls-8,.cls-9{fill:#808184;font-family:Cairo-Regular, Cairo;}.cls-9{font-size:35.59px;}</style></defs><g id="Layer_2" data-name="Layer 2"><g id="Layer_1-2" data-name="Layer 1"><path class="cls-1" d="M591.63,584.19a209.92,209.92,0,0,1-108.28-30A1.89,1.89,0,1,1,485.3,551,206.65,206.65,0,0,0,698,551a1.89,1.89,0,0,1,1.94,3.24A209.91,209.91,0,0,1,591.63,584.19Z"/><path class="cls-1" d="M728.31,533.11a1.86,1.86,0,0,1-1.42-.65,1.88,1.88,0,0,1,.18-2.66,206.63,206.63,0,0,0,65.71-202.25,1.89,1.89,0,0,1,3.69-.85,210.47,210.47,0,0,1-66.92,206A1.89,1.89,0,0,1,728.31,533.11Z"/><path class="cls-1" d="M783.4,294.47a1.9,1.9,0,0,1-1.74-1.15,206.62,206.62,0,0,0-172-125,1.88,1.88,0,0,1-1.72-2,1.86,1.86,0,0,1,2.05-1.72A210.41,210.41,0,0,1,785.14,291.85a1.88,1.88,0,0,1-1,2.47A1.92,1.92,0,0,1,783.4,294.47Z"/><path class="cls-1" d="M399.85,294.47a1.92,1.92,0,0,1-.74-.15,1.88,1.88,0,0,1-1-2.47A210.41,210.41,0,0,1,573.3,164.56a1.89,1.89,0,1,1,.33,3.76,206.62,206.62,0,0,0-172,125A1.9,1.9,0,0,1,399.85,294.47Z"/><path class="cls-1" d="M454.94,533.11a1.89,1.89,0,0,1-1.24-.46A210.41,210.41,0,0,1,386.78,326.7a1.89,1.89,0,0,1,3.68.85A206.66,206.66,0,0,0,456.18,529.8a1.89,1.89,0,0,1-1.24,3.31Z"/><path class="cls-2" d="M591.63,614.43c-132.37,0-240.06-107.69-240.06-240.06S459.26,134.31,591.63,134.31s240,107.69,240,240.06S724,614.43,591.63,614.43Zm0-476.34c-130.29,0-236.29,106-236.29,236.28s106,236.28,236.29,236.28,236.28-106,236.28-236.28S721.91,138.09,591.63,138.09Z"/><path class="cls-3" d="M403.73,374.37a187.66,187.66,0,0,0,9.16,58.07l16.62-5.4a170.58,170.58,0,0,1,61.94-190.55l-10.27-14.13A187.65,187.65,0,0,0,403.73,374.37Z"/><path class="cls-4" d="M429.51,427l-16.62,5.4A188,188,0,0,0,591.63,562.27V544.79A170.49,170.49,0,0,1,429.51,427Z"/><path class="cls-5" d="M762.05,374.37A170.17,170.17,0,0,1,753.74,427l16.62,5.4a188.08,188.08,0,0,0-68.29-210.08L691.8,236.49A170.21,170.21,0,0,1,762.05,374.37Z"/><path class="cls-6" d="M591.63,204A169.66,169.66,0,0,1,691.8,236.49l10.27-14.13a187.88,187.88,0,0,0-220.89,0l10.27,14.13A169.69,169.69,0,0,1,591.63,204Z"/><path class="cls-7" d="M591.63,544.79v17.48A188,188,0,0,0,770.36,432.44L753.74,427A170.49,170.49,0,0,1,591.63,544.79Z"/><path class="cls-7" d="M785.81,626.47a1.42,1.42,0,0,1-1-.45L777,617.75a1.42,1.42,0,1,1,2.07-1.94l7.74,8.27a1.42,1.42,0,0,1-.06,2A1.45,1.45,0,0,1,785.81,626.47Zm-15.48-16.55a1.42,1.42,0,0,1-1-.45l-7.74-8.27a1.42,1.42,0,1,1,2.07-1.94l7.74,8.27a1.42,1.42,0,0,1-.06,2A1.45,1.45,0,0,1,770.33,609.92Zm-15.48-16.55a1.42,1.42,0,0,1-1-.45l-7.74-8.27a1.42,1.42,0,1,1,2.07-1.94l7.74,8.27a1.42,1.42,0,0,1-.06,2A1.47,1.47,0,0,1,754.85,593.37Zm299,35.46h-11.21a1.42,1.42,0,0,1,0-2.83h11.21a1.42,1.42,0,0,1,0,2.83Zm18.9,0h-11.21a1.42,1.42,0,0,1,0-2.83h11.21a1.42,1.42,0,0,1,0,2.83Zm18.89,0h-11.2a1.42,1.42,0,0,1,0-2.83h11.2a1.42,1.42,0,0,1,0,2.83Zm-60.2,0h-11.21a1.42,1.42,0,0,1,0-2.83h11.21a1.42,1.42,0,0,1,0,2.83Zm82.62,0h-11.21a1.42,1.42,0,0,1,0-2.83h11.21a1.42,1.42,0,0,1,0,2.83Zm18.89,0h-11.2a1.42,1.42,0,0,1,0-2.83H1133a1.42,1.42,0,0,1,0,2.83Zm18.9,0h-11.21a1.42,1.42,0,0,1,0-2.83h11.21a1.42,1.42,0,0,1,0,2.83Zm-142.83,0H997.82a1.42,1.42,0,0,1,0-2.83H1009a1.42,1.42,0,0,1,0,2.83Zm-22.41,0H975.41a1.42,1.42,0,0,1,0-2.83h11.21a1.42,1.42,0,0,1,0,2.83Zm-22.42,0H953a1.42,1.42,0,0,1,0-2.83h11.2a1.42,1.42,0,0,1,0,2.83Zm-22.41,0H930.58a1.42,1.42,0,0,1,0-2.83h11.21a1.42,1.42,0,0,1,0,2.83Zm-22.42,0h-11.2a1.42,1.42,0,0,1,0-2.83h11.2a1.42,1.42,0,0,1,0,2.83Zm-22.41,0H885.75a1.42,1.42,0,0,1,0-2.83H897a1.42,1.42,0,0,1,0,2.83Zm-22.41,0H863.34a1.42,1.42,0,0,1,0-2.83h11.21a1.42,1.42,0,0,1,0,2.83Zm-22.42,0H840.92a1.42,1.42,0,0,1,0-2.83h11.21a1.42,1.42,0,0,1,0,2.83Zm-22.41,0H818.51a1.42,1.42,0,0,1,0-2.83h11.21a1.42,1.42,0,0,1,0,2.83Zm-22.42,0H796.1a1.42,1.42,0,0,1,0-2.83h11.2a1.42,1.42,0,0,1,0,2.83Z"/><path class="cls-6" d="M591.62,115a1.41,1.41,0,0,1-1.41-1.41V102.26a1.42,1.42,0,1,1,2.83,0v11.33A1.41,1.41,0,0,1,591.62,115Zm0-22.66a1.41,1.41,0,0,1-1.41-1.41V79.6a1.42,1.42,0,1,1,2.83,0V90.93A1.41,1.41,0,0,1,591.62,92.34Z"/><path class="cls-3" d="M347.34,286.68l-8.4-7.6a1.42,1.42,0,1,1,1.9-2.1l8.4,7.6a1.42,1.42,0,0,1-.95,2.47A1.39,1.39,0,0,1,347.34,286.68ZM68,274.28a1.42,1.42,0,0,1,1.42-1.41H80.73a1.42,1.42,0,1,1,0,2.83H69.4A1.42,1.42,0,0,1,68,274.28Zm22.66,0a1.42,1.42,0,0,1,1.42-1.41h11.33a1.42,1.42,0,1,1,0,2.83H92.06A1.42,1.42,0,0,1,90.64,274.28Zm22.66,0a1.42,1.42,0,0,1,1.42-1.41h11.33a1.42,1.42,0,1,1,0,2.83H114.72A1.42,1.42,0,0,1,113.3,274.28Zm22.67,0a1.41,1.41,0,0,1,1.41-1.41h11.33a1.42,1.42,0,1,1,0,2.83H137.38A1.41,1.41,0,0,1,136,274.28Zm22.66,0a1.41,1.41,0,0,1,1.41-1.41h11.33a1.42,1.42,0,1,1,0,2.83H160A1.41,1.41,0,0,1,158.63,274.28ZM0,274.28a1.41,1.41,0,0,1,1.42-1.41H12.75a1.42,1.42,0,0,1,0,2.83H1.42A1.41,1.41,0,0,1,0,274.28Zm22.66,0a1.42,1.42,0,0,1,1.42-1.41H35.41a1.42,1.42,0,0,1,0,2.83H24.08A1.42,1.42,0,0,1,22.66,274.28Zm22.66,0a1.42,1.42,0,0,1,1.42-1.41H58.07a1.42,1.42,0,0,1,0,2.83H46.74A1.42,1.42,0,0,1,45.32,274.28Zm136,0a1.41,1.41,0,0,1,1.41-1.41H194a1.42,1.42,0,1,1,0,2.83H182.7A1.41,1.41,0,0,1,181.29,274.28Zm22.66,0a1.41,1.41,0,0,1,1.41-1.41h11.33a1.42,1.42,0,1,1,0,2.83H205.36A1.41,1.41,0,0,1,204,274.28Zm22.66,0a1.41,1.41,0,0,1,1.42-1.41h11.33a1.42,1.42,0,0,1,0,2.83H228A1.41,1.41,0,0,1,226.61,274.28Zm22.66,0a1.41,1.41,0,0,1,1.42-1.41H262a1.42,1.42,0,0,1,0,2.83H250.69A1.41,1.41,0,0,1,249.27,274.28Zm22.66,0a1.42,1.42,0,0,1,1.42-1.41h11.33a1.42,1.42,0,0,1,0,2.83H273.35A1.42,1.42,0,0,1,271.93,274.28Zm22.66,0a1.42,1.42,0,0,1,1.42-1.41h11.33a1.42,1.42,0,0,1,0,2.83H296A1.42,1.42,0,0,1,294.59,274.28Zm22.66,0a1.42,1.42,0,0,1,1.42-1.41H330a1.42,1.42,0,1,1,0,2.83H318.67A1.42,1.42,0,0,1,317.25,274.28Z"/><path class="cls-5" d="M835,287.05a1.42,1.42,0,0,1-1-2.47l8.4-7.6a1.42,1.42,0,0,1,1.9,2.1l-8.4,7.6A1.39,1.39,0,0,1,835,287.05Zm278.89-11.35h-11.33a1.42,1.42,0,1,1,0-2.83h11.33a1.42,1.42,0,1,1,0,2.83Zm-22.66,0h-11.33a1.42,1.42,0,1,1,0-2.83h11.33a1.42,1.42,0,1,1,0,2.83Zm-22.66,0H1057.2a1.42,1.42,0,1,1,0-2.83h11.33a1.42,1.42,0,1,1,0,2.83Zm-22.66,0h-11.33a1.42,1.42,0,1,1,0-2.83h11.33a1.42,1.42,0,1,1,0,2.83Zm-22.66,0h-11.33a1.42,1.42,0,1,1,0-2.83h11.33a1.42,1.42,0,0,1,0,2.83Zm158.62,0H1170.5a1.42,1.42,0,0,1,0-2.83h11.33a1.42,1.42,0,1,1,0,2.83Zm-22.66,0h-11.33a1.42,1.42,0,0,1,0-2.83h11.33a1.42,1.42,0,1,1,0,2.83Zm-22.66,0h-11.33a1.42,1.42,0,0,1,0-2.83h11.33a1.42,1.42,0,1,1,0,2.83Zm-136,0H989.22a1.42,1.42,0,1,1,0-2.83h11.33a1.42,1.42,0,0,1,0,2.83Zm-22.66,0H966.56a1.42,1.42,0,1,1,0-2.83h11.33a1.42,1.42,0,0,1,0,2.83Zm-22.66,0H943.89a1.42,1.42,0,0,1,0-2.83h11.34a1.42,1.42,0,0,1,0,2.83Zm-22.67,0H921.23a1.42,1.42,0,0,1,0-2.83h11.33a1.42,1.42,0,1,1,0,2.83Zm-22.66,0H898.57a1.42,1.42,0,0,1,0-2.83H909.9a1.42,1.42,0,1,1,0,2.83Zm-22.66,0H875.91a1.42,1.42,0,0,1,0-2.83h11.33a1.42,1.42,0,1,1,0,2.83Zm-22.66,0H853.25a1.42,1.42,0,1,1,0-2.83h11.33a1.42,1.42,0,1,1,0,2.83Z"/><path class="cls-4" d="M396.56,626.09a1.42,1.42,0,0,1-.06-2l7.74-8.27a1.42,1.42,0,1,1,2.07,1.94L398.57,626a1.42,1.42,0,0,1-1,.45A1.45,1.45,0,0,1,396.56,626.09ZM412,609.54a1.42,1.42,0,0,1-.06-2l7.74-8.27a1.42,1.42,0,1,1,2.07,1.94l-7.74,8.27a1.42,1.42,0,0,1-1,.45A1.45,1.45,0,0,1,412,609.54ZM427.52,593a1.42,1.42,0,0,1-.06-2l7.74-8.27a1.42,1.42,0,1,1,2.07,1.94l-7.74,8.27a1.42,1.42,0,0,1-1,.45A1.47,1.47,0,0,1,427.52,593ZM128.08,627.42a1.41,1.41,0,0,1,1.4-1.42h11.21a1.42,1.42,0,0,1,0,2.83H129.48A1.41,1.41,0,0,1,128.08,627.42Zm-18.9,0a1.41,1.41,0,0,1,1.4-1.42h11.21a1.42,1.42,0,0,1,0,2.83H110.58A1.41,1.41,0,0,1,109.18,627.42Zm-18.89,0a1.4,1.4,0,0,1,1.4-1.42h11.2a1.42,1.42,0,0,1,0,2.83H91.69A1.4,1.4,0,0,1,90.29,627.42Zm60.2,0a1.41,1.41,0,0,1,1.4-1.42H163.1a1.42,1.42,0,0,1,0,2.83H151.89A1.41,1.41,0,0,1,150.49,627.42Zm-82.62,0a1.41,1.41,0,0,1,1.4-1.42H80.48a1.42,1.42,0,0,1,0,2.83H69.27A1.41,1.41,0,0,1,67.87,627.42Zm-18.89,0a1.4,1.4,0,0,1,1.4-1.42h11.2a1.42,1.42,0,0,1,0,2.83H50.38A1.4,1.4,0,0,1,49,627.42Zm-18.9,0a1.41,1.41,0,0,1,1.4-1.42H42.69a1.42,1.42,0,0,1,0,2.83H31.48A1.41,1.41,0,0,1,30.08,627.42Zm142.83,0a1.41,1.41,0,0,1,1.4-1.42h11.21a1.42,1.42,0,0,1,0,2.83H174.31A1.41,1.41,0,0,1,172.91,627.42Zm22.41,0a1.41,1.41,0,0,1,1.4-1.42h11.21a1.42,1.42,0,0,1,0,2.83H196.72A1.41,1.41,0,0,1,195.32,627.42Zm22.42,0a1.4,1.4,0,0,1,1.4-1.42h11.2a1.42,1.42,0,0,1,0,2.83h-11.2A1.4,1.4,0,0,1,217.74,627.42Zm22.41,0a1.41,1.41,0,0,1,1.4-1.42h11.21a1.42,1.42,0,0,1,0,2.83H241.55A1.41,1.41,0,0,1,240.15,627.42Zm22.41,0A1.41,1.41,0,0,1,264,626h11.2a1.42,1.42,0,0,1,0,2.83H264A1.41,1.41,0,0,1,262.56,627.42Zm22.42,0a1.41,1.41,0,0,1,1.4-1.42h11.21a1.42,1.42,0,0,1,0,2.83H286.38A1.41,1.41,0,0,1,285,627.42Zm22.41,0a1.41,1.41,0,0,1,1.4-1.42H320a1.42,1.42,0,0,1,0,2.83H308.79A1.41,1.41,0,0,1,307.39,627.42Zm22.42,0a1.4,1.4,0,0,1,1.4-1.42h11.21a1.42,1.42,0,0,1,0,2.83H331.21A1.4,1.4,0,0,1,329.81,627.42Zm22.41,0a1.41,1.41,0,0,1,1.4-1.42h11.21a1.42,1.42,0,0,1,0,2.83H353.62A1.41,1.41,0,0,1,352.22,627.42Zm22.42,0A1.4,1.4,0,0,1,376,626h11.2a1.42,1.42,0,0,1,0,2.83H376A1.4,1.4,0,0,1,374.64,627.42Z"/><circle class="cls-7" cx="731.63" cy="567.13" r="10.13"/><path class="cls-5" d="M821.28,291.2a10.13,10.13,0,1,1-12.76,6.5A10.12,10.12,0,0,1,821.28,291.2Z"/><path class="cls-6" d="M583.43,130.3a10.13,10.13,0,1,1,2.24,14.14A10.13,10.13,0,0,1,583.43,130.3Z"/><path class="cls-3" d="M356.9,306.78A10.13,10.13,0,1,1,371.05,309,10.13,10.13,0,0,1,356.9,306.78Z"/><path class="cls-4" d="M454.75,576.76a10.13,10.13,0,1,1,6.5-12.76A10.12,10.12,0,0,1,454.75,576.76Z"/><text class="cls-8" transform="translate(172.29 668.04)">Le renforcement<tspan x="-85.38" y="35.02">de la sécurité proposée</tspan><tspan x="71.49" y="70.04">aux clients </tspan></text><text class="cls-8" transform="translate(108.15 314.38)">La sensibilisation<tspan x="-58.75" y="35.02">et l’accompagnement</tspan><tspan x="84.58" y="70.04">des clients</tspan><tspan x="-57.75" y="105.05">et des collaborateurs </tspan></text><text class="cls-8" transform="translate(425.17 26.3)">La sécurité<tspan x="0" y="35.02">des applications sensibles</tspan></text><text class="cls-8" transform="translate(796.53 668.05)">Les capacités de détection<tspan x="0" y="35.02">et de réaction </tspan></text><text class="cls-8" transform="translate(853.11 314.38)">La sécurité des données<tspan x="0" y="35.02">client, personnelles</tspan><tspan x="0" y="70.04" xml:space="preserve">et bancaires  </tspan></text><text class="cls-9" transform="translate(523.38 324.51)">stratégie<tspan x="-15.21" y="35.59">de sécurité</tspan><tspan x="-36.27" y="71.18">des systèmes</tspan><tspan x="-42.44" y="106.77">d’informations</tspan></text></g></g></svg>