<svg xmlns="http://www.w3.org/2000/svg" viewBox="0 0 1066.58 789.22"><defs><style>.cls-1{fill:#f5ab93;}.cls-2{fill:#ee7882;}.cls-3{fill:#d06e82;}.cls-4{fill:#956580;}.cls-5{font-size:23.59px;fill:#fff;}.cls-5,.cls-6,.cls-7,.cls-8{font-family:Cairo-Regular, Cairo Regular;}.cls-6{font-size:26.96px;}.cls-13,.cls-6,.cls-7,.cls-8{fill:#666;}.cls-7{font-size:29.11px;}.cls-8{font-size:28.77px;}.cls-10,.cls-11,.cls-9{fill:none;stroke:#666;}.cls-9{stroke-miterlimit:10;stroke-width:1.66px;}.cls-10{stroke-linecap:round;stroke-width:0.84px;}.cls-10,.cls-11{stroke-linejoin:round;}.cls-11{stroke-width:1.68px;}.cls-12{font-size:38.95px;fill:#1394aa;}.cls-12,.cls-13{font-family:Cairo-SemiBold, Cairo SemiBold;font-weight:600;}.cls-13{font-size:22.66px;}</style></defs><g id="Layer_2" data-name="Layer 2"><g id="Layer_1-2" data-name="Layer 1"><rect class="cls-1" x="77.1" y="156.86" width="48.52" height="139.91"/><rect class="cls-2" x="125.63" y="183.55" width="49.33" height="113.22"/><rect class="cls-3" x="174.96" y="296.77" width="48.52" height="144.76"/><rect class="cls-4" x="223.48" y="129.37" width="48.52" height="167.41"/><text class="cls-5" transform="translate(86.86 179.51)">3,6</text><text class="cls-5" transform="translate(135.79 207)">2,9</text><text class="cls-5" transform="translate(181.1 432.85)">-3,7</text><text class="cls-5" transform="translate(233.24 152.82)">4,3</text><rect class="cls-1" x="272.01" y="211.05" width="48.52" height="85.73"/><rect class="cls-2" x="320.53" y="230.46" width="48.52" height="66.32"/><rect class="cls-3" x="369.06" y="296.77" width="48.52" height="211.08"/><rect class="cls-4" x="417.58" y="168.18" width="48.52" height="128.59"/><text class="cls-5" transform="translate(281.76 234.5)">2,2</text><text class="cls-5" transform="translate(330.29 253.91)">1,7</text><text class="cls-5" transform="translate(375.2 499.16)">-5,4</text><text class="cls-5" transform="translate(427.33 191.64)">3,3</text><rect class="cls-1" x="466.18" y="183.55" width="48.52" height="113.22"/><rect class="cls-2" x="514.7" y="207" width="48.52" height="89.77"/><rect class="cls-3" x="563.22" y="296.77" width="48.52" height="140.72"/><rect class="cls-4" x="611.75" y="160.1" width="48.52" height="136.68"/><text class="cls-5" transform="translate(475.93 207)">2,9</text><text class="cls-5" transform="translate(524.46 230.45)">2,3</text><text class="cls-5" transform="translate(569.37 428.8)">-3,6</text><text class="cls-5" transform="translate(621.5 183.55)">3,5</text><rect class="cls-1" x="660.31" y="223.18" width="48.52" height="73.59"/><rect class="cls-2" x="708.84" y="249.87" width="48.52" height="46.91"/><rect class="cls-3" x="757.36" y="296.77" width="48.52" height="292.76"/><rect class="cls-4" x="805.88" y="156.86" width="48.52" height="139.91"/><text class="cls-5" transform="translate(670.07 245.82)">1,9</text><text class="cls-5" transform="translate(718.59 273.32)">1,2</text><text class="cls-5" transform="translate(763.51 580.84)">-7,5</text><text class="cls-5" transform="translate(815.64 179.51)">3,6</text><rect class="cls-1" x="854.4" y="121.28" width="48.52" height="175.49"/><rect class="cls-2" x="902.93" y="152.82" width="48.52" height="143.95"/><rect class="cls-3" x="951.45" y="296.77" width="48.52" height="101.9"/><rect class="cls-4" x="999.98" y="101.87" width="48.52" height="194.9"/><text class="cls-5" transform="translate(864.16 144.73)">4,5</text><text class="cls-5" transform="translate(912.68 176.27)">3,7</text><text class="cls-5" transform="translate(957.6 386.21)">-2,6</text><text class="cls-5" transform="translate(1018.2 125.32)">5</text><text class="cls-6" transform="translate(134.48 634.4)">Monde</text><text class="cls-6" transform="translate(295.76 634.4)">Pays avancés</text><text class="cls-6" transform="translate(507 634.4)">États-Unis</text><text class="cls-6" transform="translate(699.43 634.4)">Zone euro</text><text class="cls-6" transform="translate(862.52 580.2)">Pays émergents<tspan x="31.92" y="26.96">et pays en </tspan><tspan x="-1.27" y="53.92">développement</tspan></text><rect class="cls-1" x="62.75" y="685.9" width="48.91" height="15.22"/><text class="cls-7" transform="translate(118.01 702.28)">2018</text><rect class="cls-2" x="237.57" y="685.9" width="48.91" height="15.22"/><text class="cls-7" transform="translate(292.83 702.28)">2019</text><rect class="cls-3" x="412.4" y="685.9" width="48.91" height="15.22"/><text class="cls-7" transform="translate(467.65 702.28)">2020p</text><rect class="cls-4" x="603.45" y="685.9" width="48.91" height="15.22"/><text class="cls-7" transform="translate(658.7 702.28)">2021p</text><text class="cls-8" transform="translate(5.18 613.14)">-8</text><text class="cls-8" transform="translate(5.18 574.28)">-7</text><text class="cls-8" transform="translate(5.18 535.41)">-6</text><text class="cls-8" transform="translate(5.18 496.56)">-5</text><text class="cls-8" transform="translate(5.18 457.69)">-4</text><text class="cls-8" transform="translate(5.18 418.82)">-3</text><text class="cls-8" transform="translate(5.18 379.97)">-2</text><text class="cls-8" transform="translate(5.18 341.1)">-1</text><text class="cls-8" transform="translate(13.98 302.24)">0</text><text class="cls-8" transform="translate(13.98 263.37)">1</text><text class="cls-8" transform="translate(13.98 224.51)">2</text><text class="cls-8" transform="translate(13.98 185.64)">3</text><text class="cls-8" transform="translate(13.98 146.78)">4</text><text class="cls-8" transform="translate(13.98 107.92)">5</text><line class="cls-9" x1="62.75" y1="646.96" x2="62.75" y2="88.39"/><line class="cls-9" x1="62.75" y1="607.69" x2="41.8" y2="607.69"/><line class="cls-9" x1="62.75" y1="568.82" x2="41.8" y2="568.82"/><line class="cls-9" x1="62.75" y1="529.96" x2="41.8" y2="529.96"/><line class="cls-9" x1="62.75" y1="491.09" x2="41.8" y2="491.09"/><line class="cls-9" x1="62.75" y1="452.23" x2="41.8" y2="452.23"/><line class="cls-9" x1="62.75" y1="413.37" x2="41.8" y2="413.37"/><text class="cls-8" transform="translate(5.18 652.01)">-9</text><line class="cls-9" x1="62.75" y1="646.55" x2="41.8" y2="646.55"/><line class="cls-9" x1="62.75" y1="374.5" x2="41.8" y2="374.5"/><line class="cls-9" x1="62.75" y1="335.64" x2="41.8" y2="335.64"/><line class="cls-9" x1="62.75" y1="296.77" x2="41.8" y2="296.77"/><line class="cls-9" x1="62.75" y1="257.91" x2="41.8" y2="257.91"/><line class="cls-9" x1="62.75" y1="219.04" x2="41.8" y2="219.04"/><line class="cls-9" x1="62.75" y1="180.18" x2="41.8" y2="180.18"/><line class="cls-9" x1="62.75" y1="141.32" x2="41.8" y2="141.32"/><line class="cls-9" x1="62.75" y1="102.45" x2="41.8" y2="102.45"/><line class="cls-10" x1="272.01" y1="646.96" x2="272.01" y2="102.45"/><line class="cls-10" x1="466.1" y1="646.96" x2="466.1" y2="102.45"/><line class="cls-10" x1="660.35" y1="646.96" x2="660.35" y2="102.45"/><line class="cls-10" x1="854.41" y1="646.96" x2="854.41" y2="102.45"/><line class="cls-11" x1="62.75" y1="296.91" x2="1066.58" y2="296.91"/><text class="cls-12" transform="translate(0 32.6)">Croissance économique annuelle</text><text class="cls-13" transform="translate(0 783.55)">Source : Banque mondiale - Global economic prospects - janvier 2021</text></g></g></svg>