<svg xmlns="http://www.w3.org/2000/svg" xmlns:xlink="http://www.w3.org/1999/xlink" viewBox="0 0 1073.46 727.79" style=""><defs><style>.cls-1,.cls-2,.cls-3,.cls-4,.cls-5{fill:none;stroke-linejoin:round;}.cls-1,.cls-2,.cls-3,.cls-4{stroke-width:4.57px;}.cls-1{stroke:url(#linear-gradient);}.cls-2{stroke:url(#linear-gradient-2);}.cls-3{stroke:url(#linear-gradient-3);}.cls-4{stroke:url(#linear-gradient-4);}.cls-5{stroke:#666;stroke-width:1.95px;}.cls-6{font-size:27.42px;}.cls-6,.cls-7,.cls-9{fill:#666;font-family:Cairo-Regular, Cairo Regular;}.cls-7{font-size:28.77px;}.cls-8{fill:url(#linear-gradient-5);}.cls-9{font-size:20.31px;}.cls-10{fill:url(#linear-gradient-6);}.cls-11{fill:url(#linear-gradient-7);}.cls-12{fill:url(#linear-gradient-8);}.cls-13{font-size:38.95px;fill:#1394aa;font-family:Cairo-SemiBold, Cairo SemiBold;font-weight:600;}</style><linearGradient id="linear-gradient" x1="105.82" y1="303.26" x2="1065.64" y2="303.26" gradientUnits="userSpaceOnUse"><stop offset="0.22" stop-color="#6dbfa5"></stop><stop offset="0.82" stop-color="#ccda70"></stop></linearGradient><linearGradient id="linear-gradient-2" x1="106.16" y1="363.03" x2="1065.64" y2="363.03" gradientUnits="userSpaceOnUse"><stop offset="0.18" stop-color="#7ccdf3"></stop><stop offset="0.78" stop-color="#acd8d1"></stop></linearGradient><linearGradient id="linear-gradient-3" x1="105.57" y1="266.34" x2="1066.16" y2="266.34" gradientUnits="userSpaceOnUse"><stop offset="0.18" stop-color="#e1345c"></stop><stop offset="0.78" stop-color="#ffd330"></stop></linearGradient><linearGradient id="linear-gradient-4" x1="106.58" y1="532.82" x2="1064.61" y2="532.82" gradientUnits="userSpaceOnUse"><stop offset="0.18" stop-color="#234e98"></stop><stop offset="0.78" stop-color="#c1227f"></stop></linearGradient><linearGradient id="linear-gradient-5" x1="658.98" y1="715.53" x2="706.88" y2="715.53" xlink:href="#linear-gradient"></linearGradient><linearGradient id="linear-gradient-6" x1="516.48" y1="715.53" x2="564.39" y2="715.53" xlink:href="#linear-gradient-2"></linearGradient><linearGradient id="linear-gradient-7" x1="783.7" y1="715.53" x2="831.61" y2="715.53" xlink:href="#linear-gradient-3"></linearGradient><linearGradient id="linear-gradient-8" x1="96.95" y1="715.53" x2="144.86" y2="715.53" xlink:href="#linear-gradient-4"></linearGradient></defs><g id="Layer_2" data-name="Layer 2"><g id="Layer_1-2" data-name="Layer 1"><path class="cls-1 dZfCKmpO_0" d="M107.05,259.93L109.94,258.08L112.27,258.08L115.18,256.24L117.5,253.78L125.65,253.78L128.55,252.54L130.88,249.2L133.79,250.7L136.7,250.08L144.26,250.08L147.16,250.7L150.07,251.93L152.4,254.39L155.31,251.93L163.45,259.31L165.78,258.7L168.68,258.7L171.01,262.39L173.92,263.01L182.06,262.39L184.39,266.7L187.29,267.31L190.2,261.78L192.53,258.08L200.67,258.08L203.58,259.93L205.9,259.93L208.81,259.93L211.14,253.16L219.28,255.62L222.19,255.01L224.51,255.62L227.42,256.85L229.75,260.55L237.89,262.39L240.8,269.16L243.13,271.62L246.03,272.85L248.94,283.32L256.5,303.63L259.41,285.78L262.32,287.63L264.64,310.4L267.55,311.63L275.69,339.32L278.02,347.94L280.93,357.31L283.25,348.56L286.16,338.71L294.3,328.86L296.63,322.09L299.54,330.71L302.44,333.17L304.77,335.02L312.91,335.63L315.82,336.25L318.15,338.09L321.06,340.56L323.38,345.48L331.52,349.79L334.43,355.33L336.76,351.63L339.67,349.79L342.57,347.94L350.13,347.33L353.04,348.56L355.95,351.02L358.28,352.87L361.19,354.71L369.33,354.1L371.65,356.56L374.56,357.17L376.89,356.56L379.8,355.94L387.94,354.71L390.26,351.63L393.17,347.94L395.5,344.86L406.55,344.25L408.87,340.56L411.78,338.71L414.69,336.86L417.02,341.79L425.16,341.79L428.07,347.33L430.39,349.79L433.3,347.33L435.63,344.86L443.77,340.56L446.68,342.4L449,341.79L451.91,339.32L454.82,336.25L465.29,331.94L468.19,329.48L470.52,331.94L473.43,331.94L481.57,328.86L483.9,327.01L486.81,323.32L489.13,322.09L492.04,323.32L500.18,322.71L502.51,323.32L505.42,325.78L508.32,327.63L510.65,329.48L518.79,326.4L521.7,324.55L524.03,314.09L526.93,315.94L529.26,316.55L537.4,315.94L540.31,317.17L542.64,318.4L545.54,320.25L547.87,323.94L556.01,324.55L558.92,322.09L561.25,320.86L564.15,321.48L567.06,320.86L574.62,321.48L577.53,322.09L580.44,322.09L582.76,320.86L585.67,322.71L593.82,322.09L596.14,322.71L599.05,319.63L601.38,319.01L604.28,319.01L612.42,319.01L614.75,320.25L617.66,320.86L620.57,320.25L622.89,320.86L631.03,321.48L633.94,320.25L636.27,320.25L649.65,323.94L652.55,322.71L654.88,322.09L657.79,320.25L660.7,319.63L668.26,319.01L671.16,319.63L674.07,319.01L676.4,318.4L687.45,318.4L689.77,318.4L692.68,319.63L706.06,319.63L708.38,320.25L711.29,320.86L713.62,322.71L716.53,325.17L724.67,323.32L727,319.01L729.9,319.01L732.81,319.01L735.14,321.48L743.28,320.25L746.19,321.48L748.51,320.86L751.42,320.25L753.75,320.25L761.89,322.71L764.8,323.32L767.12,324.55L770.03,325.17L772.94,324.55L780.5,323.94L783.41,323.94L786.32,324.55L788.64,327.63L791.55,328.86L799.69,327.63L802.02,327.63L804.93,327.63L807.25,327.01L810.16,324.55L818.3,323.94L820.63,322.09L823.54,320.86L826.45,322.09L828.77,321.48L836.91,321.48L839.82,320.25L842.15,315.94L845.05,315.94L847.38,317.78L855.52,319.01L858.43,318.4L860.76,317.17L863.67,315.94L865.99,314.09L874.13,314.09L877.04,314.09L879.37,313.48L892.74,316.55L895.65,316.55L898.56,316.55L900.89,316.55L911.94,311.01L914.26,309.78L917.17,310.4L919.5,309.17L922.4,307.94L930.55,306.09L932.87,306.09L938.69,304.86L941.01,300.55L949.16,299.94L952.07,296.86L954.39,294.4L957.3,296.86L959.63,301.17L967.77,298.09L970.67,298.7L973,298.7L975.91,298.7L978.82,298.09L986.38,297.47L989.29,296.86L992.19,295.01L994.52,295.01L997.43,287.01L1005.57,287.63L1007.9,287.01L1010.8,285.16L1013.13,281.47L1016.04,282.09L1024.18,292.55L1026.51,287.63L1029.41,285.78L1031.74,287.63L1034.65,290.09L1042.79,290.09L1045.12,291.32L1048.03,291.32L1050.93,288.86L1061.4,287.63L1064.11,290.09"></path><path class="cls-2 dZfCKmpO_1" d="M107.05,327.01L109.94,325.78L112.27,325.17L115.18,323.94L117.5,321.48L125.65,321.48L128.55,320.86L130.88,318.05L133.79,319.63L136.7,319.01L144.26,319.01L147.16,319.63L150.07,320.25L152.4,322.09L155.31,320.25L163.45,326.4L165.78,325.78L168.68,325.78L171.01,329.48L173.92,329.48L182.06,328.86L184.39,332.55L187.29,333.17L190.2,328.86L192.53,325.17L200.67,325.17L203.58,327.01L205.9,327.01L208.81,326.4L211.14,320.86L219.28,323.32L222.19,322.71L224.51,323.32L227.42,323.94L229.75,327.01L237.89,328.86L240.8,334.4L243.13,336.86L246.03,337.48L248.94,346.71L256.5,363.33L259.41,348.56L262.32,349.79L264.64,368.87L267.55,370.1L275.69,392.87L278.02,400.25L280.93,408.02L283.25,400.25L286.16,392.87L294.3,384.25L296.63,378.71L299.54,385.48L302.44,387.95L304.77,389.18L312.91,389.79L315.82,390.41L318.15,392.25L321.06,394.1L323.38,397.79L331.52,401.49L334.43,406.41L336.76,403.33L339.67,402.1L342.57,400.25L350.13,399.64L353.04,400.25L355.95,402.72L358.28,403.95L361.19,405.8L369.33,405.8L371.65,407.64L374.56,407.64L376.89,407.64L379.8,406.41L387.94,405.8L390.26,403.33L393.17,400.25L395.5,397.79L406.55,397.18L408.87,394.1L411.78,392.25L414.69,391.02L417.02,394.72L425.16,395.33L428.07,399.64L430.39,401.49L433.3,399.64L435.63,397.79L443.77,394.1L446.68,395.95L449,395.33L451.91,392.87L454.82,390.41L465.29,386.71L468.19,384.87L470.52,386.71L473.43,386.71L481.57,384.87L483.9,382.41L486.81,379.94L489.13,378.71L492.04,379.94L500.18,379.33L502.51,379.94L505.42,381.79L508.32,383.02L510.65,384.87L518.79,382.41L521.7,381.18L524.03,372.56L526.93,373.79L529.26,374.41L537.4,373.18L540.31,374.41L542.64,375.64L545.54,377.48L547.87,380.56L556.01,381.18L558.92,378.71L561.25,378.1L564.15,378.1L567.06,377.48L574.62,378.71L577.53,378.71L580.44,378.71L582.76,378.1L585.67,379.33L593.82,378.71L596.14,379.33L599.05,376.87L601.38,376.25L604.28,376.25L612.42,376.25L614.75,377.48L617.66,377.48L620.57,377.48L622.89,377.48L631.03,378.1L633.94,377.48L636.27,377.48L649.65,379.94L652.55,379.33L654.88,378.71L657.79,377.48L660.7,376.87L668.26,376.25L671.16,376.87L674.07,376.25L676.4,375.02L687.45,375.64L689.77,375.64L692.68,376.25L706.06,376.87L708.38,376.87L711.29,377.48L713.62,379.33L716.53,381.18L724.67,379.33L727,375.64L729.9,375.64L732.81,376.25L735.14,378.1L743.28,377.48L746.19,378.1L748.51,377.48L751.42,376.87L753.75,376.87L761.89,378.71L764.8,379.94L767.12,380.56L770.03,381.18L772.94,380.56L780.5,379.94L783.41,379.94L786.32,380.56L788.64,383.02L791.55,384.25L799.69,383.02L802.02,383.02L804.93,383.02L807.25,382.41L810.16,380.56L818.3,379.94L820.63,378.71L823.54,377.48L826.45,378.71L828.77,377.48L836.91,378.1L839.82,376.87L842.15,373.18L845.05,373.79L847.38,375.02L855.52,375.64L858.43,375.64L860.76,375.02L863.67,373.79L865.99,371.94L874.13,371.94L877.04,371.94L879.37,371.33L892.74,373.79L895.65,373.79L898.56,374.41L900.89,373.79L911.94,369.48L914.26,368.25L917.17,368.87L919.5,368.25L922.4,366.4L930.55,365.17L932.87,365.17L938.69,363.94L941.01,360.87L949.16,360.25L952.07,357.79L954.39,355.33L957.3,357.17L959.63,360.87L967.77,358.4L970.67,359.02L973,359.02L975.91,359.02L978.82,359.02L986.38,357.79L989.29,357.17L992.19,355.94L994.52,355.94L997.43,349.17L1005.57,349.79L1007.9,349.17L1010.8,347.94L1013.13,344.86L1016.04,345.48L1024.18,354.1L1026.51,349.79L1029.41,348.56L1031.74,349.79L1034.65,352.25L1042.79,352.25L1045.12,353.48L1048.03,353.48L1050.93,351.02L1061.4,349.79L1064.11,352.25"></path><path class="cls-3 dZfCKmpO_2" d="M107.05,203.92L109.94,201.46L112.27,200.84L115.18,199L117.5,200.84L125.65,199.61L128.55,199.61L130.88,195.92L133.79,197.15L136.7,193.46L144.26,197.15L147.16,194.69L150.07,198.38L152.4,200.23L155.31,195.92L163.45,201.46L165.78,201.46L168.68,199.61L171.01,202.69L173.92,202.08L182.06,201.46L184.39,205.15L187.29,207L190.2,201.46L192.53,198.38L200.67,197.77L203.58,199L205.9,198.38L208.81,198.38L211.14,193.26L219.28,195.92L222.19,194.69L224.51,195.92L227.42,197.15L229.75,203.31L237.89,205.15L240.8,210.69L243.13,211.31L246.03,213.77L248.94,227.31L256.5,253.16L259.41,227.93L262.32,231L264.64,260.55L267.55,259.31L275.69,295.01L278.02,305.47L280.93,317.78L283.25,306.09L286.16,294.4L294.3,282.09L296.63,276.55L299.54,287.63L302.44,290.7L304.77,296.24L312.91,295.63L315.82,296.24L318.15,299.32L321.06,303.63L323.38,312.24L331.52,319.01L334.43,330.71L336.76,323.94L339.67,322.71L342.57,320.86L350.13,320.25L353.04,320.86L355.95,325.78L358.28,326.4L361.19,330.71L369.33,331.94L371.65,338.71L374.56,338.09L376.89,338.09L379.8,334.4L387.94,333.17L390.26,328.25L393.17,323.94L395.5,318.4L406.55,317.78L408.87,315.94L411.78,317.78L414.69,319.01L417.02,325.17L425.16,327.63L428.07,336.25L430.39,339.42L433.3,336.86L435.63,333.17L443.77,327.63L446.68,331.32L449,331.94L451.91,327.01L454.82,325.17L465.29,320.86L468.19,315.94L470.52,320.25L473.43,319.01L481.57,318.4L483.9,315.32L486.81,311.63L489.13,310.4L492.04,311.01L500.18,308.55L502.51,309.78L505.42,314.09L508.32,313.48L510.65,317.17L518.79,314.71L521.7,311.63L524.03,299.32L526.93,302.4L529.26,301.78L537.4,299.94L540.31,301.78L542.64,305.47L545.54,306.7L547.87,311.63L556.01,311.63L558.92,309.78L561.25,307.94L564.15,307.94L567.06,307.32L574.62,309.78L577.53,309.78L580.44,309.78L582.76,309.17L585.67,311.01L593.82,311.63L596.14,311.63L599.05,308.55L601.38,307.32L604.28,307.94L612.42,306.7L614.75,306.7L617.66,308.55L620.57,307.32L622.89,306.7L631.03,305.47L633.94,301.78L636.27,299.32L649.65,301.17L652.55,301.17L654.88,301.17L657.79,298.7L660.7,297.47L668.26,295.63L671.16,293.78L674.07,291.93L676.4,291.32L687.45,291.32L689.77,292.55L692.68,293.78L706.06,296.86L708.38,299.32L711.29,304.24L713.62,308.55L716.53,312.24L724.67,310.4L727,301.17L729.9,302.4L732.81,301.78L735.14,304.86L743.28,302.4L746.19,305.47L748.51,304.24L751.42,301.78L753.75,302.4L761.89,304.24L764.8,307.94L767.12,309.17L770.03,311.01L772.94,310.4L780.5,309.17L783.41,308.55L786.32,309.17L788.64,315.32L791.55,314.71L799.69,313.48L802.02,312.86L804.93,312.24L807.25,311.01L810.16,310.4L818.3,309.17L820.63,305.47L823.54,303.63L826.45,303.63L828.77,304.24L836.91,304.86L839.82,301.78L842.15,292.55L845.05,296.24L847.38,299.32L855.52,301.17L858.43,299.94L860.76,299.94L863.67,296.86L865.99,293.78L874.13,294.4L877.04,293.17L879.37,293.78L892.74,296.86L895.65,297.47L898.56,297.47L900.89,296.86L911.94,288.86L914.26,286.39L917.17,287.63L919.5,287.01L922.4,285.16L930.55,282.7L932.87,281.47L938.69,281.47L941.01,273.47L949.16,273.47L952.07,269.78L954.39,266.08L957.3,269.78L959.63,275.32L967.77,270.39L970.67,272.85L973,273.47L975.91,272.85L978.82,271.62L986.38,271.01L989.29,268.55L992.19,268.55L994.52,267.93L997.43,259.31L1005.57,260.55L1007.9,260.55L1010.8,255.01L1013.13,251.31L1016.04,251.93L1024.18,266.7L1026.51,258.7L1029.41,256.85L1031.74,259.93L1034.65,261.16L1042.79,261.16L1045.12,261.78L1048.03,263.01L1050.93,261.78L1061.4,258.7L1064.11,264.24"></path><path class="cls-4 dZfCKmpO_3" d="M107.05,512.88L109.94,513.5L112.27,513.5L115.18,513.5L117.5,507.35L125.65,504.41L128.55,507.96L130.88,509.81L133.79,512.27L136.7,515.35L144.26,514.12L147.16,515.96L150.07,514.73L152.4,514.73L155.31,514.73L163.45,514.12L165.78,513.5L168.68,513.5L171.01,513.5L173.92,513.5L182.06,514.73L184.39,515.96L187.29,514.73L190.2,515.35L192.53,517.81L200.67,516.58L203.58,516.58L205.9,516.58L208.81,516.58L211.14,517.81L219.28,518.42L222.19,518.42L224.51,520.89L227.42,520.89L229.75,525.81L237.89,525.81L240.8,529.5L243.13,530.12L246.03,529.5L248.94,530.12L256.5,537.5L259.41,529.5L262.32,529.5L264.64,535.66L267.55,536.89L275.69,545.5L278.02,548.58L280.93,551.66L283.25,548.58L286.16,545.5L294.3,542.43L296.63,541.2L299.54,544.27L302.44,546.12L304.77,547.35L312.91,546.74L315.82,548.58L318.15,551.04L321.06,551.66L323.38,551.04L331.52,553.51L334.43,552.89L336.76,552.27L339.67,552.27L342.57,551.66L350.13,551.04L353.04,552.27L355.95,552.89L358.28,552.89L361.19,552.27L369.33,554.12L371.65,556.58L374.56,559.04L376.89,561.23L379.8,560.28L387.94,560.89L390.26,559.04L393.17,558.43L395.5,557.2L406.55,556.58L408.87,555.97L411.78,552.89L414.69,550.43L417.02,547.35L425.16,544.27L428.07,546.74L430.39,549.81L433.3,549.81L435.63,547.35L443.77,544.89L446.68,547.35L449,546.74L451.91,547.97L454.82,547.97L465.29,546.74L468.19,546.12L470.52,545.5L473.43,543.04L481.57,539.97L483.9,536.89L486.81,533.2L489.13,535.66L492.04,539.35L500.18,537.5L502.51,536.27L505.42,535.04L508.32,538.12L510.65,538.74L518.79,538.74L521.7,537.5L524.03,533.81L526.93,535.66L529.26,536.89L537.4,537.5L540.31,537.5L542.64,539.35L545.54,543.04L547.87,543.04L556.01,544.27L558.92,543.04L561.25,541.81L564.15,541.81L567.06,541.81L574.62,541.81L577.53,543.04L580.44,544.27L582.76,544.27L585.67,543.66L593.82,544.27L596.14,545.5L599.05,546.74L601.38,547.35L604.28,546.74L612.42,545.5L614.75,545.5L617.66,545.5L620.57,546.74L622.89,549.2L631.03,549.81L633.94,549.2L636.27,548.58L649.65,549.2L652.55,551.66L654.88,551.66L657.79,551.04L660.7,550.43L668.26,551.66L671.16,551.66L674.07,552.27L676.4,552.27L687.45,552.27L689.77,550.43L692.68,551.66L706.06,553.51L708.38,554.74L711.29,554.74L713.62,555.97L716.53,555.35L724.67,557.2L727,555.35L729.9,555.97L732.81,555.35L735.14,554.74L743.28,555.97L746.19,555.35L748.51,555.97L751.42,555.35L753.75,554.12L761.89,553.51L764.8,553.51L767.12,554.74L770.03,555.35L772.94,554.74L780.5,555.97L783.41,555.35L786.32,556.58L788.64,556.58L791.55,555.97L799.69,556.58L802.02,557.81L804.93,558.43L807.25,557.81L810.16,559.04L818.3,559.04L820.63,559.66L823.54,559.66L826.45,559.66L828.77,559.66L836.91,559.04L839.82,557.81L842.15,557.81L845.05,557.2L847.38,557.81L855.52,558.43L858.43,558.43L860.76,559.04L863.67,559.66L865.99,559.04L874.13,558.43L877.04,558.43L879.37,558.43L892.74,560.28L895.65,559.66L898.56,560.28L900.89,560.28L911.94,557.81L914.26,557.2L917.17,556.58L919.5,556.58L922.4,556.58L930.55,557.2L932.87,554.12L938.69,551.66L941.01,548.58L949.16,548.58L952.07,549.2L954.39,549.2L957.3,549.2L959.63,549.81L967.77,551.66L970.67,554.74L973,553.51L975.91,552.89L978.82,554.12L986.38,552.89L989.29,551.04L992.19,549.2L994.52,547.97L997.43,545.5L1005.57,546.12L1007.9,546.74L1010.8,547.97L1013.13,547.97L1016.04,548.58L1024.18,551.66L1026.51,549.2L1029.41,547.35L1031.74,547.35L1034.65,548.58L1042.79,549.2L1045.12,549.2L1048.03,550.43L1050.93,551.04L1061.4,550.43L1064.11,549.81"></path><path class="cls-5 dZfCKmpO_4" d="M1073.46,623.84L105.72,623.84L105.72,130.92"></path><path class="cls-5 dZfCKmpO_5" d="M105.71,623.84L99.48,623.84"></path><path class="cls-5 dZfCKmpO_6" d="M105.71,563.59L99.48,563.59"></path><path class="cls-5 dZfCKmpO_7" d="M105.71,506.89L99.48,506.89"></path><path class="cls-5 dZfCKmpO_8" d="M105.71,447.8L99.48,447.8"></path><path class="cls-5 dZfCKmpO_9" d="M105.71,388.1L99.48,388.1"></path><path class="cls-5 dZfCKmpO_10" d="M105.71,329.02L99.48,329.02"></path><path class="cls-5 dZfCKmpO_11" d="M105.71,269.93L99.48,269.93"></path><path class="cls-5 dZfCKmpO_12" d="M105.71,210.23L99.48,210.23"></path><path class="cls-5 dZfCKmpO_13" d="M105.71,151.15L99.48,151.15"></path><path class="cls-5 dZfCKmpO_14" d="M1001.28,623.84L1001.28,630.26"></path><path class="cls-5 dZfCKmpO_15" d="M921.24,623.84L921.24,630.26"></path><path class="cls-5 dZfCKmpO_16" d="M838.08,623.84L838.08,630.26"></path><path class="cls-5 dZfCKmpO_17" d="M757.82,623.84L757.82,630.26"></path><path class="cls-5 dZfCKmpO_18" d="M675.24,623.84L675.24,630.26"></path><path class="cls-5 dZfCKmpO_19" d="M592.07,623.84L592.07,630.26"></path><path class="cls-5 dZfCKmpO_20" d="M511.81,623.84L511.81,630.26"></path><path class="cls-5 dZfCKmpO_21" d="M429.23,623.84L429.23,630.26"></path><text class="cls-6" transform="translate(87.94 664.09)">Jan</text><text class="cls-6" transform="translate(168.15 664.09)">Fév</text><text class="cls-6" transform="translate(243.68 664.09)">Mar</text><text class="cls-6" transform="translate(329.88 664.09)">Avr</text><text class="cls-6" transform="translate(408.27 664.09)">Mai</text><text class="cls-6" transform="translate(498 664.09)">Jui</text><text class="cls-6" transform="translate(575.23 664.09)">Juil</text><text class="cls-6" transform="translate(652.96 664.09)">Aoû</text><text class="cls-6" transform="translate(736.66 664.09)">Sep</text><text class="cls-6" transform="translate(818.66 664.09)">Oct</text><text class="cls-6" transform="translate(898.56 664.09)">Nov</text><text class="cls-6" transform="translate(979.96 664.09)">Déc</text><path class="cls-5 dZfCKmpO_22" d="M348.97,623.84L348.97,630.26"></path><path class="cls-5 dZfCKmpO_23" d="M266.39,623.84L266.39,630.26"></path><path class="cls-5 dZfCKmpO_24" d="M188.46,623.84L188.46,630.26"></path><path class="cls-5 dZfCKmpO_25" d="M105.71,623.84L105.71,630.26"></path><text class="cls-7" transform="translate(68.11 629.63)">0</text><text class="cls-7" transform="translate(23.92 570.54)">2000</text><text class="cls-7" transform="translate(23.92 510.84)">4000</text><text class="cls-7" transform="translate(23.92 451.75)">6000</text><text class="cls-7" transform="translate(23.92 392.06)">8000</text><text class="cls-7" transform="translate(9.19 332.97)">10000</text><text class="cls-7" transform="translate(9.19 273.89)">12000</text><text class="cls-7" transform="translate(9.19 214.18)">14000</text><text class="cls-7" transform="translate(9.19 155.1)">16000</text><path class="cls-8 dZfCKmpO_26" width="47.91" height="7.77" d="M658.98 711.65 L706.89 711.65 L706.89 719.42 L658.98 719.42 Z"></path><text class="cls-9" transform="translate(711.94 722.71) scale(0.97 1)">Masi</text><path class="cls-10 dZfCKmpO_27" width="47.91" height="7.77" d="M516.48 711.65 L564.39 711.65 L564.39 719.42 L516.48 719.42 Z"></path><text class="cls-9" transform="translate(569.44 722.71) scale(0.97 1)">Madex</text><path class="cls-11 dZfCKmpO_28" width="47.91" height="7.77" d="M783.7 711.65 L831.61 711.65 L831.61 719.42 L783.7 719.42 Z"></path><text class="cls-9" transform="translate(836.66 722.72) scale(0.97 1)">Banque</text><path class="cls-12 dZfCKmpO_29" width="47.9" height="7.77" d="M96.95 711.65 L144.85 711.65 L144.85 719.42 L96.95 719.42 Z"></path><text class="cls-9" transform="translate(149.91 722.71) scale(0.97 1)">Participation et promotion immobilieres</text><text class="cls-13" transform="translate(0 32.6)">Evolution des indices boursiers, du secteur bancaire<tspan x="0" y="46.74">et de la participation et promotion immobilières en 2019</tspan></text></g></g><style data-made-with="vivus-instant">.dZfCKmpO_0{stroke-dasharray:1231 1233;stroke-dashoffset:1232;animation:dZfCKmpO_draw 2000ms linear 0ms forwards;}.dZfCKmpO_1{stroke-dasharray:1167 1169;stroke-dashoffset:1168;animation:dZfCKmpO_draw 2000ms linear 34ms forwards;}.dZfCKmpO_2{stroke-dasharray:1390 1392;stroke-dashoffset:1391;animation:dZfCKmpO_draw 2000ms linear 68ms forwards;}.dZfCKmpO_3{stroke-dasharray:1057 1059;stroke-dashoffset:1058;animation:dZfCKmpO_draw 2000ms linear 103ms forwards;}.dZfCKmpO_4{stroke-dasharray:1461 1463;stroke-dashoffset:1462;animation:dZfCKmpO_draw 2000ms linear 137ms forwards;}.dZfCKmpO_5{stroke-dasharray:7 9;stroke-dashoffset:8;animation:dZfCKmpO_draw 2000ms linear 172ms forwards;}.dZfCKmpO_6{stroke-dasharray:7 9;stroke-dashoffset:8;animation:dZfCKmpO_draw 2000ms linear 206ms forwards;}.dZfCKmpO_7{stroke-dasharray:7 9;stroke-dashoffset:8;animation:dZfCKmpO_draw 2000ms linear 241ms forwards;}.dZfCKmpO_8{stroke-dasharray:7 9;stroke-dashoffset:8;animation:dZfCKmpO_draw 2000ms linear 275ms forwards;}.dZfCKmpO_9{stroke-dasharray:7 9;stroke-dashoffset:8;animation:dZfCKmpO_draw 2000ms linear 310ms forwards;}.dZfCKmpO_10{stroke-dasharray:7 9;stroke-dashoffset:8;animation:dZfCKmpO_draw 2000ms linear 344ms forwards;}.dZfCKmpO_11{stroke-dasharray:7 9;stroke-dashoffset:8;animation:dZfCKmpO_draw 2000ms linear 379ms forwards;}.dZfCKmpO_12{stroke-dasharray:7 9;stroke-dashoffset:8;animation:dZfCKmpO_draw 2000ms linear 413ms forwards;}.dZfCKmpO_13{stroke-dasharray:7 9;stroke-dashoffset:8;animation:dZfCKmpO_draw 2000ms linear 448ms forwards;}.dZfCKmpO_14{stroke-dasharray:7 9;stroke-dashoffset:8;animation:dZfCKmpO_draw 2000ms linear 482ms forwards;}.dZfCKmpO_15{stroke-dasharray:7 9;stroke-dashoffset:8;animation:dZfCKmpO_draw 2000ms linear 517ms forwards;}.dZfCKmpO_16{stroke-dasharray:7 9;stroke-dashoffset:8;animation:dZfCKmpO_draw 2000ms linear 551ms forwards;}.dZfCKmpO_17{stroke-dasharray:7 9;stroke-dashoffset:8;animation:dZfCKmpO_draw 2000ms linear 586ms forwards;}.dZfCKmpO_18{stroke-dasharray:7 9;stroke-dashoffset:8;animation:dZfCKmpO_draw 2000ms linear 620ms forwards;}.dZfCKmpO_19{stroke-dasharray:7 9;stroke-dashoffset:8;animation:dZfCKmpO_draw 2000ms linear 655ms forwards;}.dZfCKmpO_20{stroke-dasharray:7 9;stroke-dashoffset:8;animation:dZfCKmpO_draw 2000ms linear 689ms forwards;}.dZfCKmpO_21{stroke-dasharray:7 9;stroke-dashoffset:8;animation:dZfCKmpO_draw 2000ms linear 724ms forwards;}.dZfCKmpO_22{stroke-dasharray:7 9;stroke-dashoffset:8;animation:dZfCKmpO_draw 2000ms linear 758ms forwards;}.dZfCKmpO_23{stroke-dasharray:7 9;stroke-dashoffset:8;animation:dZfCKmpO_draw 2000ms linear 793ms forwards;}.dZfCKmpO_24{stroke-dasharray:7 9;stroke-dashoffset:8;animation:dZfCKmpO_draw 2000ms linear 827ms forwards;}.dZfCKmpO_25{stroke-dasharray:7 9;stroke-dashoffset:8;animation:dZfCKmpO_draw 2000ms linear 862ms forwards;}.dZfCKmpO_26{stroke-dasharray:112 114;stroke-dashoffset:113;animation:dZfCKmpO_draw 2000ms linear 896ms forwards;}.dZfCKmpO_27{stroke-dasharray:112 114;stroke-dashoffset:113;animation:dZfCKmpO_draw 2000ms linear 931ms forwards;}.dZfCKmpO_28{stroke-dasharray:112 114;stroke-dashoffset:113;animation:dZfCKmpO_draw 2000ms linear 965ms forwards;}.dZfCKmpO_29{stroke-dasharray:112 114;stroke-dashoffset:113;animation:dZfCKmpO_draw 2000ms linear 1000ms forwards;}@keyframes dZfCKmpO_draw{100%{stroke-dashoffset:0;}}@keyframes dZfCKmpO_fade{0%{stroke-opacity:1;}94.44444444444444%{stroke-opacity:1;}100%{stroke-opacity:0;}}</style></svg>