<svg xmlns="http://www.w3.org/2000/svg" viewBox="0 0 1066.5 736.73"><defs><style>.cls-1{fill:#ee7882;}.cls-2{fill:#f5ab93;}.cls-3,.cls-7,.cls-8,.cls-9{fill:none;stroke:#666;}.cls-3,.cls-7,.cls-8{stroke-linejoin:round;stroke-width:1.49px;}.cls-4{font-size:23.49px;fill:#fff;}.cls-4,.cls-5,.cls-6{font-family:Cairo-Regular, Cairo Regular;}.cls-5{font-size:26.84px;}.cls-5,.cls-6{fill:#666;}.cls-6{font-size:28.99px;}.cls-7,.cls-8{stroke-linecap:round;}.cls-8{stroke-dasharray:0 5.97;}.cls-9{stroke-miterlimit:10;stroke-width:1.47px;}</style></defs><g id="Layer_2" data-name="Layer 2"><g id="Layer_1-2" data-name="Layer 1"><rect class="cls-1" x="382.81" y="559.68" width="152.53" height="36.88"/><rect class="cls-1" x="535.34" y="436.13" width="92.84" height="36.88"/><rect class="cls-1" x="535.34" y="312.57" width="437.69" height="36.88"/><rect class="cls-1" x="535.34" y="189.02" width="126" height="36.88"/><rect class="cls-1" x="535.34" y="65.46" width="56.37" height="36.88"/><rect class="cls-2" x="299.92" y="522.8" width="235.42" height="36.88"/><rect class="cls-2" x="303.23" y="399.24" width="232.11" height="36.88"/><rect class="cls-2" x="399.39" y="275.69" width="135.95" height="36.88"/><rect class="cls-2" x="309.86" y="152.14" width="225.48" height="36.88"/><rect class="cls-2" x="210.39" y="28.58" width="324.95" height="36.88"/><line class="cls-3" x1="535.34" y1="617.77" x2="535.34"/><text class="cls-4" transform="translate(385.87 587.26)">-4,6%</text><text class="cls-4" transform="translate(577.02 462)">2,8%</text><text class="cls-4" transform="translate(909.84 337.99)">13,2%</text><text class="cls-4" transform="translate(610.18 214.79)">3,8%</text><text class="cls-4" transform="translate(540.54 91.58)">1,7%</text><text class="cls-4" transform="translate(302.97 549.15)">-7,1%</text><text class="cls-4" transform="translate(306.28 425.94)">-7,0%</text><text class="cls-4" transform="translate(402.44 301.93)">-4,1%</text><text class="cls-4" transform="translate(312.91 178.73)">-6,8%</text><text class="cls-4" transform="translate(213.44 55.53)">-9,8%</text><text class="cls-5" transform="translate(0 665.06)">-15,0%</text><text class="cls-5" transform="translate(165.79 665.06)">-10,0%</text><text class="cls-5" transform="translate(337.93 665.06)">-5,0%</text><text class="cls-5" transform="translate(508.21 665.06)">0,0%</text><text class="cls-5" transform="translate(672.69 665.06)">5,0%</text><text class="cls-5" transform="translate(832.14 665.06)">10,0%</text><text class="cls-5" transform="translate(997.93 665.06)">15,0%</text><text class="cls-5" transform="translate(3.28 563.6)">Secteur primaire</text><text class="cls-5" transform="translate(3.28 439.59)">Secteur secondaire<tspan x="0" y="25.18">hors énergie</tspan></text><text class="cls-5" transform="translate(3.28 316.38)">Secteur énergétique</text><text class="cls-5" transform="translate(3.28 193.18)">Secteur tertiaire</text><text class="cls-5" transform="translate(3.28 47.02)">Secteur<tspan x="0" y="25.18">du bâtiment</tspan><tspan x="0" y="50.35">et travaux publics</tspan></text><rect class="cls-2" x="3.28" y="713.07" width="49.33" height="15.78"/><text class="cls-6" transform="translate(59.24 729.48)">2020</text><rect class="cls-1" x="144.39" y="713.07" width="49.33" height="15.78"/><text class="cls-6" transform="translate(200.35 729.48)">2019</text><line class="cls-3" x1="3.22" y1="617.89" x2="1065.75" y2="617.89"/><line class="cls-7" x1="3.22" y1="495.21" x2="3.22" y2="495.21"/><line class="cls-8" x1="9.19" y1="495.21" x2="1062.77" y2="495.21"/><line class="cls-7" x1="1065.75" y1="495.21" x2="1065.75" y2="495.21"/><line class="cls-7" x1="3.22" y1="374.35" x2="3.22" y2="374.35"/><line class="cls-8" x1="9.19" y1="374.35" x2="1062.77" y2="374.35"/><line class="cls-7" x1="1065.75" y1="374.35" x2="1065.75" y2="374.35"/><line class="cls-7" x1="3.22" y1="250.8" x2="3.22" y2="250.8"/><line class="cls-8" x1="9.19" y1="250.8" x2="1062.77" y2="250.8"/><line class="cls-7" x1="1065.75" y1="250.8" x2="1065.75" y2="250.8"/><line class="cls-7" x1="3.22" y1="127.33" x2="3.22" y2="127.33"/><line class="cls-8" x1="9.19" y1="127.33" x2="1062.77" y2="127.33"/><line class="cls-7" x1="1065.75" y1="127.33" x2="1065.75" y2="127.33"/><line class="cls-9" x1="535.34" y1="617.89" x2="535.34" y2="638.75"/><line class="cls-9" x1="369.16" y1="617.89" x2="369.16" y2="638.75"/><line class="cls-9" x1="203.9" y1="617.89" x2="203.9" y2="638.75"/><line class="cls-9" x1="38.1" y1="617.89" x2="38.1" y2="638.75"/><line class="cls-9" x1="699.82" y1="617.89" x2="699.82" y2="638.75"/><line class="cls-9" x1="866.13" y1="617.89" x2="866.13" y2="638.75"/><line class="cls-9" x1="1031.92" y1="617.89" x2="1031.92" y2="638.75"/></g></g></svg>