<svg xmlns="http://www.w3.org/2000/svg" viewBox="0 0 471.01 591.04"><defs><style>.cls-1,.cls-5,.cls-9{fill:none;}.cls-1{stroke:#ee7882;}.cls-1,.cls-9{stroke-miterlimit:10;stroke-width:2.71px;}.cls-10,.cls-2,.cls-7{font-size:21.82px;}.cls-2,.cls-3{fill:#ee7882;}.cls-10,.cls-2,.cls-6,.cls-7,.cls-8{font-family:Cairo-Regular, Cairo Regular;}.cls-10,.cls-4{fill:#f5ab93;}.cls-5{stroke:#7768aa;stroke-linejoin:round;stroke-width:1.36px;}.cls-6{font-size:28.06px;}.cls-6,.cls-8{fill:#666;}.cls-7{fill:#fff;}.cls-8{font-size:26.94px;}.cls-9{stroke:#f5ab93;}</style></defs><g id="Layer_2" data-name="Layer 2"><g id="Layer_1-2" data-name="Layer 1"><polyline class="cls-1" points="289.57 12.49 179.19 12.49 179.19 386.41"/><polyline class="cls-1" points="376.88 393.84 376.88 12.49 334.51 12.49"/><text class="cls-2" transform="translate(291.11 18.27)">-12%</text><rect class="cls-3" x="334.51" y="397.64" width="84.72" height="96.22"/><rect class="cls-4" x="249.79" y="85.63" width="84.72" height="408.23"/><rect class="cls-3" x="136.82" y="389.02" width="84.72" height="104.84"/><rect class="cls-4" x="52.1" y="117.86" width="84.72" height="375.99"/><line class="cls-5" x1="0.32" y1="493.86" x2="471.01" y2="493.86"/><text class="cls-6" transform="translate(113.06 536.7)">2019</text><text class="cls-6" transform="translate(310.75 536.7)">2020</text><text class="cls-7" transform="translate(55.37 152.48)">794,405</text><text class="cls-7" transform="translate(140.09 423.32)">155,637</text><text class="cls-7" transform="translate(253.05 117.86)">862,513</text><text class="cls-7" transform="translate(337.78 423.32)">137,426</text><rect class="cls-4" y="569.15" width="34.23" height="14.08"/><text class="cls-8" transform="translate(38.67 584.31)">Dépôts à vue</text><rect class="cls-3" x="257.55" y="569.15" width="34.23" height="14.08"/><text class="cls-8" transform="translate(296.22 584.31)">Dépôts à terme</text><polyline class="cls-9" points="204.85 47.94 94.46 47.94 94.46 114.75"/><polyline class="cls-9" points="292.15 82.32 292.15 47.94 249.79 47.94"/><text class="cls-10" transform="translate(208.99 53.72)">+9%</text></g></g></svg>