<svg xmlns="http://www.w3.org/2000/svg" viewBox="0 0 995.06 638.79" style=""><defs><style>.cls-1{isolation:isolate;}.cls-15,.cls-2,.cls-7{font-size:28.35px;}.cls-19,.cls-2,.cls-4,.cls-6{fill:#a0d6e4;}.cls-11,.cls-15,.cls-16,.cls-2,.cls-6,.cls-7{font-family:Cairo-SemiBold, Cairo;font-weight:600;}.cls-12,.cls-3,.cls-8{fill:none;stroke-miterlimit:10;stroke-width:1.54px;}.cls-3{stroke:#a0d6e4;}.cls-5{fill:#fff;}.cls-11,.cls-16,.cls-6{font-size:36px;}.cls-11,.cls-18,.cls-7,.cls-9{fill:#f4a89e;}.cls-8{stroke:#f4a89e;}.cls-10{fill:#f7f5f6;}.cls-12{stroke:#b897c6;}.cls-13,.cls-15,.cls-16,.cls-17{fill:#b897c6;}.cls-14{fill:#d1e7ef;}.cls-17{opacity:0.5;}.cls-17,.cls-18,.cls-19{mix-blend-mode:multiply;}</style></defs><g class="cls-1"><g id="Layer_2" data-name="Layer 2"><g id="Layer_1-2" data-name="Layer 1"><text class="cls-2" transform="translate(351.65 23.92)">CMMB<tspan x="16.62" y="35.06">101</tspan></text><path class="cls-3 HBIMvYDF_0" d="M520.46,102.49L493.67,32.83L303.73,32.83"></path><path class="cls-4 HBIMvYDF_1" d="M298.44,32.83A5.7,5.7 0,1,1 309.84,32.83A5.7,5.7 0,1,1 298.44,32.83"></path><path class="cls-5 HBIMvYDF_2" d="M301.28,32.83A2.86,2.86 0,1,1 307,32.83A2.86,2.86 0,1,1 301.28,32.83"></path><text class="cls-6" transform="translate(225.43 38.53)">11%</text><text class="cls-7" transform="translate(719.6 79.31)">Bank Al Magrhib<tspan x="82.78" y="49.23">27</tspan></text><path class="cls-8 HBIMvYDF_3" d="M673.48,164.5L692.25,92.1L941.2,92.1"></path><path class="cls-9 HBIMvYDF_4" d="M935.0999999999999,92.1A5.7,5.7 0,1,1 946.5,92.1A5.7,5.7 0,1,1 935.0999999999999,92.1"></path><path class="cls-10 HBIMvYDF_5" d="M937.9399999999999,92.1A2.86,2.86 0,1,1 943.66,92.1A2.86,2.86 0,1,1 937.9399999999999,92.1"></path><text class="cls-11" transform="translate(954.81 97.79)">3%</text><path class="cls-12 HBIMvYDF_6" d="M283.37,516.5L261.55,586.17L71.38,586.17"></path><path class="cls-13 HBIMvYDF_7" d="M66.08,586.17A5.7,5.7 0,1,1 77.48,586.17A5.7,5.7 0,1,1 66.08,586.17"></path><path class="cls-14 HBIMvYDF_8" transform="translate(-393.46 222.44) rotate(-45)" d="M68.91,586.17A2.87,2.84 0,1,1 74.65,586.17A2.87,2.84 0,1,1 68.91,586.17"></path><text class="cls-15" transform="translate(93.82 540.01)">GRC/autres<tspan x="27.11" y="28.35">canaux</tspan><tspan x="45.66" y="85.04">495</tspan></text><text class="cls-16" transform="translate(0 591.86)">54%</text><path class="cls-13 HBIMvYDF_9" d="M502.43,536.4a167.7,167.7,0,0,1,0-335.4V101.8c-114.08,0-211.75,68.39-250.77,175.59-50.41,138.49,21,291.63,159.5,342s291.63-21,342-159.5l-93.09-33.88A167.78,167.78,0,0,1,502.43,536.4Z"></path><path class="cls-9 HBIMvYDF_10" d="M639.84,139.91l-51.07,85a167.89,167.89,0,0,1,71.3,201.15l93.09,33.88A266.1,266.1,0,0,0,639.84,139.91Z"></path><path class="cls-4 HBIMvYDF_11" d="M502.43,201a167,167,0,0,1,86.34,23.91l51.07-85C595.11,113,554.57,101.8,502.39,101.8V201Z"></path><path class="cls-17 HBIMvYDF_12" d="M502.43,536.4a167.7,167.7,0,0,1,0-335.4V152.09c-119.61,0-216.57,97-216.57,216.6s97,216.62,216.61,216.62c93.61,0,173.34-59.38,203.61-142.53l-46-16.73A167.75,167.75,0,0,1,502.43,536.4Z"></path><path class="cls-18 HBIMvYDF_13" d="M670.14,368.69a167.24,167.24,0,0,1-10.08,57.36l46,16.73A216.82,216.82,0,0,0,614,183l-25.2,41.92A167.57,167.57,0,0,1,670.14,368.69Z"></path><path class="cls-19 HBIMvYDF_14" d="M502.39,152.09V201h0a167,167,0,0,1,86.33,23.92L614,183a215.56,215.56,0,0,0-111.53-30.9Z"></path></g></g></g><style data-made-with="vivus-instant">.HBIMvYDF_0{stroke-dasharray:265 267;stroke-dashoffset:266;animation:HBIMvYDF_draw 2000ms linear 0ms forwards;}.HBIMvYDF_1{stroke-dasharray:36 38;stroke-dashoffset:37;animation:HBIMvYDF_draw 2000ms linear 71ms forwards;}.HBIMvYDF_2{stroke-dasharray:18 20;stroke-dashoffset:19;animation:HBIMvYDF_draw 2000ms linear 142ms forwards;}.HBIMvYDF_3{stroke-dasharray:324 326;stroke-dashoffset:325;animation:HBIMvYDF_draw 2000ms linear 214ms forwards;}.HBIMvYDF_4{stroke-dasharray:36 38;stroke-dashoffset:37;animation:HBIMvYDF_draw 2000ms linear 285ms forwards;}.HBIMvYDF_5{stroke-dasharray:19 21;stroke-dashoffset:20;animation:HBIMvYDF_draw 2000ms linear 357ms forwards;}.HBIMvYDF_6{stroke-dasharray:264 266;stroke-dashoffset:265;animation:HBIMvYDF_draw 2000ms linear 428ms forwards;}.HBIMvYDF_7{stroke-dasharray:36 38;stroke-dashoffset:37;animation:HBIMvYDF_draw 2000ms linear 500ms forwards;}.HBIMvYDF_8{stroke-dasharray:18 20;stroke-dashoffset:19;animation:HBIMvYDF_draw 2000ms linear 571ms forwards;}.HBIMvYDF_9{stroke-dasharray:2096 2098;stroke-dashoffset:2097;animation:HBIMvYDF_draw 2000ms linear 642ms forwards;}.HBIMvYDF_10{stroke-dasharray:798 800;stroke-dashoffset:799;animation:HBIMvYDF_draw 2000ms linear 714ms forwards;}.HBIMvYDF_11{stroke-dasharray:434 436;stroke-dashoffset:435;animation:HBIMvYDF_draw 2000ms linear 785ms forwards;}.HBIMvYDF_12{stroke-dasharray:1775 1777;stroke-dashoffset:1776;animation:HBIMvYDF_draw 2000ms linear 857ms forwards;}.HBIMvYDF_13{stroke-dasharray:628 630;stroke-dashoffset:629;animation:HBIMvYDF_draw 2000ms linear 928ms forwards;}.HBIMvYDF_14{stroke-dasharray:306 308;stroke-dashoffset:307;animation:HBIMvYDF_draw 2000ms linear 1000ms forwards;}@keyframes HBIMvYDF_draw{100%{stroke-dashoffset:0;}}@keyframes HBIMvYDF_fade{0%{stroke-opacity:1;}94.44444444444444%{stroke-opacity:1;}100%{stroke-opacity:0;}}</style></svg>