<svg xmlns="http://www.w3.org/2000/svg" xmlns:xlink="http://www.w3.org/1999/xlink" viewBox="0 0 1073.46 727.79"><defs><style>.cls-1,.cls-2,.cls-3,.cls-4,.cls-5{fill:none;stroke-linejoin:round;}.cls-1,.cls-2,.cls-3,.cls-4{stroke-width:4.57px;}.cls-1{stroke:url(#linear-gradient);}.cls-2{stroke:url(#linear-gradient-2);}.cls-3{stroke:url(#linear-gradient-3);}.cls-4{stroke:url(#linear-gradient-4);}.cls-5{stroke:#666;stroke-width:1.95px;}.cls-6{font-size:27.42px;}.cls-6,.cls-7,.cls-9{fill:#666;font-family:Cairo-Regular, Cairo Regular;}.cls-7{font-size:28.77px;}.cls-8{fill:url(#linear-gradient-5);}.cls-9{font-size:20.31px;}.cls-10{fill:url(#linear-gradient-6);}.cls-11{fill:url(#linear-gradient-7);}.cls-12{fill:url(#linear-gradient-8);}.cls-13{font-size:38.95px;fill:#1394aa;font-family:Cairo-SemiBold, Cairo SemiBold;font-weight:600;}</style><linearGradient id="linear-gradient" x1="105.82" y1="303.26" x2="1065.64" y2="303.26" gradientUnits="userSpaceOnUse"><stop offset="0.22" stop-color="#6dbfa5"/><stop offset="0.82" stop-color="#ccda70"/></linearGradient><linearGradient id="linear-gradient-2" x1="106.16" y1="363.03" x2="1065.64" y2="363.03" gradientUnits="userSpaceOnUse"><stop offset="0.18" stop-color="#7ccdf3"/><stop offset="0.78" stop-color="#acd8d1"/></linearGradient><linearGradient id="linear-gradient-3" x1="105.57" y1="266.34" x2="1066.16" y2="266.34" gradientUnits="userSpaceOnUse"><stop offset="0.18" stop-color="#e1345c"/><stop offset="0.78" stop-color="#ffd330"/></linearGradient><linearGradient id="linear-gradient-4" x1="106.58" y1="532.82" x2="1064.61" y2="532.82" gradientUnits="userSpaceOnUse"><stop offset="0.18" stop-color="#234e98"/><stop offset="0.78" stop-color="#c1227f"/></linearGradient><linearGradient id="linear-gradient-5" x1="658.98" y1="715.53" x2="706.88" y2="715.53" xlink:href="#linear-gradient"/><linearGradient id="linear-gradient-6" x1="516.48" y1="715.53" x2="564.39" y2="715.53" xlink:href="#linear-gradient-2"/><linearGradient id="linear-gradient-7" x1="783.7" y1="715.53" x2="831.61" y2="715.53" xlink:href="#linear-gradient-3"/><linearGradient id="linear-gradient-8" x1="96.95" y1="715.53" x2="144.86" y2="715.53" xlink:href="#linear-gradient-4"/></defs><g id="Layer_2" data-name="Layer 2"><g id="Layer_1-2" data-name="Layer 1"><polyline class="cls-1" points="107.05 259.93 109.94 258.08 112.27 258.08 115.18 256.24 117.5 253.78 125.65 253.78 128.55 252.54 130.88 249.2 133.79 250.7 136.7 250.08 144.26 250.08 147.16 250.7 150.07 251.93 152.4 254.39 155.31 251.93 163.45 259.31 165.78 258.7 168.68 258.7 171.01 262.39 173.92 263.01 182.06 262.39 184.39 266.7 187.29 267.31 190.2 261.78 192.53 258.08 200.67 258.08 203.58 259.93 205.9 259.93 208.81 259.93 211.14 253.16 219.28 255.62 222.19 255.01 224.51 255.62 227.42 256.85 229.75 260.55 237.89 262.39 240.8 269.16 243.13 271.62 246.03 272.85 248.94 283.32 256.5 303.63 259.41 285.78 262.32 287.63 264.64 310.4 267.55 311.63 275.69 339.32 278.02 347.94 280.93 357.31 283.25 348.56 286.16 338.71 294.3 328.86 296.63 322.09 299.54 330.71 302.44 333.17 304.77 335.02 312.91 335.63 315.82 336.25 318.15 338.09 321.06 340.56 323.38 345.48 331.52 349.79 334.43 355.33 336.76 351.63 339.67 349.79 342.57 347.94 350.13 347.33 353.04 348.56 355.95 351.02 358.28 352.87 361.19 354.71 369.33 354.1 371.65 356.56 374.56 357.17 376.89 356.56 379.8 355.94 387.94 354.71 390.26 351.63 393.17 347.94 395.5 344.86 406.55 344.25 408.87 340.56 411.78 338.71 414.69 336.86 417.02 341.79 425.16 341.79 428.07 347.33 430.39 349.79 433.3 347.33 435.63 344.86 443.77 340.56 446.68 342.4 449 341.79 451.91 339.32 454.82 336.25 465.29 331.94 468.19 329.48 470.52 331.94 473.43 331.94 481.57 328.86 483.9 327.01 486.81 323.32 489.13 322.09 492.04 323.32 500.18 322.71 502.51 323.32 505.42 325.78 508.32 327.63 510.65 329.48 518.79 326.4 521.7 324.55 524.03 314.09 526.93 315.94 529.26 316.55 537.4 315.94 540.31 317.17 542.64 318.4 545.54 320.25 547.87 323.94 556.01 324.55 558.92 322.09 561.25 320.86 564.15 321.48 567.06 320.86 574.62 321.48 577.53 322.09 580.44 322.09 582.76 320.86 585.67 322.71 593.82 322.09 596.14 322.71 599.05 319.63 601.38 319.01 604.28 319.01 612.42 319.01 614.75 320.25 617.66 320.86 620.57 320.25 622.89 320.86 631.03 321.48 633.94 320.25 636.27 320.25 649.65 323.94 652.55 322.71 654.88 322.09 657.79 320.25 660.7 319.63 668.26 319.01 671.16 319.63 674.07 319.01 676.4 318.4 687.45 318.4 689.77 318.4 692.68 319.63 706.06 319.63 708.38 320.25 711.29 320.86 713.62 322.71 716.53 325.17 724.67 323.32 727 319.01 729.9 319.01 732.81 319.01 735.14 321.48 743.28 320.25 746.19 321.48 748.51 320.86 751.42 320.25 753.75 320.25 761.89 322.71 764.8 323.32 767.12 324.55 770.03 325.17 772.94 324.55 780.5 323.94 783.41 323.94 786.32 324.55 788.64 327.63 791.55 328.86 799.69 327.63 802.02 327.63 804.93 327.63 807.25 327.01 810.16 324.55 818.3 323.94 820.63 322.09 823.54 320.86 826.45 322.09 828.77 321.48 836.91 321.48 839.82 320.25 842.15 315.94 845.05 315.94 847.38 317.78 855.52 319.01 858.43 318.4 860.76 317.17 863.67 315.94 865.99 314.09 874.13 314.09 877.04 314.09 879.37 313.48 892.74 316.55 895.65 316.55 898.56 316.55 900.89 316.55 911.94 311.01 914.26 309.78 917.17 310.4 919.5 309.17 922.4 307.94 930.55 306.09 932.87 306.09 938.69 304.86 941.01 300.55 949.16 299.94 952.07 296.86 954.39 294.4 957.3 296.86 959.63 301.17 967.77 298.09 970.67 298.7 973 298.7 975.91 298.7 978.82 298.09 986.38 297.47 989.29 296.86 992.19 295.01 994.52 295.01 997.43 287.01 1005.57 287.63 1007.9 287.01 1010.8 285.16 1013.13 281.47 1016.04 282.09 1024.18 292.55 1026.51 287.63 1029.41 285.78 1031.74 287.63 1034.65 290.09 1042.79 290.09 1045.12 291.32 1048.03 291.32 1050.93 288.86 1061.4 287.63 1064.11 290.09"/><polyline class="cls-2" points="107.05 327.01 109.94 325.78 112.27 325.17 115.18 323.94 117.5 321.48 125.65 321.48 128.55 320.86 130.88 318.05 133.79 319.63 136.7 319.01 144.26 319.01 147.16 319.63 150.07 320.25 152.4 322.09 155.31 320.25 163.45 326.4 165.78 325.78 168.68 325.78 171.01 329.48 173.92 329.48 182.06 328.86 184.39 332.55 187.29 333.17 190.2 328.86 192.53 325.17 200.67 325.17 203.58 327.01 205.9 327.01 208.81 326.4 211.14 320.86 219.28 323.32 222.19 322.71 224.51 323.32 227.42 323.94 229.75 327.01 237.89 328.86 240.8 334.4 243.13 336.86 246.03 337.48 248.94 346.71 256.5 363.33 259.41 348.56 262.32 349.79 264.64 368.87 267.55 370.1 275.69 392.87 278.02 400.25 280.93 408.02 283.25 400.25 286.16 392.87 294.3 384.25 296.63 378.71 299.54 385.48 302.44 387.95 304.77 389.18 312.91 389.79 315.82 390.41 318.15 392.25 321.06 394.1 323.38 397.79 331.52 401.49 334.43 406.41 336.76 403.33 339.67 402.1 342.57 400.25 350.13 399.64 353.04 400.25 355.95 402.72 358.28 403.95 361.19 405.8 369.33 405.8 371.65 407.64 374.56 407.64 376.89 407.64 379.8 406.41 387.94 405.8 390.26 403.33 393.17 400.25 395.5 397.79 406.55 397.18 408.87 394.1 411.78 392.25 414.69 391.02 417.02 394.72 425.16 395.33 428.07 399.64 430.39 401.49 433.3 399.64 435.63 397.79 443.77 394.1 446.68 395.95 449 395.33 451.91 392.87 454.82 390.41 465.29 386.71 468.19 384.87 470.52 386.71 473.43 386.71 481.57 384.87 483.9 382.41 486.81 379.94 489.13 378.71 492.04 379.94 500.18 379.33 502.51 379.94 505.42 381.79 508.32 383.02 510.65 384.87 518.79 382.41 521.7 381.18 524.03 372.56 526.93 373.79 529.26 374.41 537.4 373.18 540.31 374.41 542.64 375.64 545.54 377.48 547.87 380.56 556.01 381.18 558.92 378.71 561.25 378.1 564.15 378.1 567.06 377.48 574.62 378.71 577.53 378.71 580.44 378.71 582.76 378.1 585.67 379.33 593.82 378.71 596.14 379.33 599.05 376.87 601.38 376.25 604.28 376.25 612.42 376.25 614.75 377.48 617.66 377.48 620.57 377.48 622.89 377.48 631.03 378.1 633.94 377.48 636.27 377.48 649.65 379.94 652.55 379.33 654.88 378.71 657.79 377.48 660.7 376.87 668.26 376.25 671.16 376.87 674.07 376.25 676.4 375.02 687.45 375.64 689.77 375.64 692.68 376.25 706.06 376.87 708.38 376.87 711.29 377.48 713.62 379.33 716.53 381.18 724.67 379.33 727 375.64 729.9 375.64 732.81 376.25 735.14 378.1 743.28 377.48 746.19 378.1 748.51 377.48 751.42 376.87 753.75 376.87 761.89 378.71 764.8 379.94 767.12 380.56 770.03 381.18 772.94 380.56 780.5 379.94 783.41 379.94 786.32 380.56 788.64 383.02 791.55 384.25 799.69 383.02 802.02 383.02 804.93 383.02 807.25 382.41 810.16 380.56 818.3 379.94 820.63 378.71 823.54 377.48 826.45 378.71 828.77 377.48 836.91 378.1 839.82 376.87 842.15 373.18 845.05 373.79 847.38 375.02 855.52 375.64 858.43 375.64 860.76 375.02 863.67 373.79 865.99 371.94 874.13 371.94 877.04 371.94 879.37 371.33 892.74 373.79 895.65 373.79 898.56 374.41 900.89 373.79 911.94 369.48 914.26 368.25 917.17 368.87 919.5 368.25 922.4 366.4 930.55 365.17 932.87 365.17 938.69 363.94 941.01 360.87 949.16 360.25 952.07 357.79 954.39 355.33 957.3 357.17 959.63 360.87 967.77 358.4 970.67 359.02 973 359.02 975.91 359.02 978.82 359.02 986.38 357.79 989.29 357.17 992.19 355.94 994.52 355.94 997.43 349.17 1005.57 349.79 1007.9 349.17 1010.8 347.94 1013.13 344.86 1016.04 345.48 1024.18 354.1 1026.51 349.79 1029.41 348.56 1031.74 349.79 1034.65 352.25 1042.79 352.25 1045.12 353.48 1048.03 353.48 1050.93 351.02 1061.4 349.79 1064.11 352.25"/><polyline class="cls-3" points="107.05 203.92 109.94 201.46 112.27 200.84 115.18 199 117.5 200.84 125.65 199.61 128.55 199.61 130.88 195.92 133.79 197.15 136.7 193.46 144.26 197.15 147.16 194.69 150.07 198.38 152.4 200.23 155.31 195.92 163.45 201.46 165.78 201.46 168.68 199.61 171.01 202.69 173.92 202.08 182.06 201.46 184.39 205.15 187.29 207 190.2 201.46 192.53 198.38 200.67 197.77 203.58 199 205.9 198.38 208.81 198.38 211.14 193.26 219.28 195.92 222.19 194.69 224.51 195.92 227.42 197.15 229.75 203.31 237.89 205.15 240.8 210.69 243.13 211.31 246.03 213.77 248.94 227.31 256.5 253.16 259.41 227.93 262.32 231 264.64 260.55 267.55 259.31 275.69 295.01 278.02 305.47 280.93 317.78 283.25 306.09 286.16 294.4 294.3 282.09 296.63 276.55 299.54 287.63 302.44 290.7 304.77 296.24 312.91 295.63 315.82 296.24 318.15 299.32 321.06 303.63 323.38 312.24 331.52 319.01 334.43 330.71 336.76 323.94 339.67 322.71 342.57 320.86 350.13 320.25 353.04 320.86 355.95 325.78 358.28 326.4 361.19 330.71 369.33 331.94 371.65 338.71 374.56 338.09 376.89 338.09 379.8 334.4 387.94 333.17 390.26 328.25 393.17 323.94 395.5 318.4 406.55 317.78 408.87 315.94 411.78 317.78 414.69 319.01 417.02 325.17 425.16 327.63 428.07 336.25 430.39 339.42 433.3 336.86 435.63 333.17 443.77 327.63 446.68 331.32 449 331.94 451.91 327.01 454.82 325.17 465.29 320.86 468.19 315.94 470.52 320.25 473.43 319.01 481.57 318.4 483.9 315.32 486.81 311.63 489.13 310.4 492.04 311.01 500.18 308.55 502.51 309.78 505.42 314.09 508.32 313.48 510.65 317.17 518.79 314.71 521.7 311.63 524.03 299.32 526.93 302.4 529.26 301.78 537.4 299.94 540.31 301.78 542.64 305.47 545.54 306.7 547.87 311.63 556.01 311.63 558.92 309.78 561.25 307.94 564.15 307.94 567.06 307.32 574.62 309.78 577.53 309.78 580.44 309.78 582.76 309.17 585.67 311.01 593.82 311.63 596.14 311.63 599.05 308.55 601.38 307.32 604.28 307.94 612.42 306.7 614.75 306.7 617.66 308.55 620.57 307.32 622.89 306.7 631.03 305.47 633.94 301.78 636.27 299.32 649.65 301.17 652.55 301.17 654.88 301.17 657.79 298.7 660.7 297.47 668.26 295.63 671.16 293.78 674.07 291.93 676.4 291.32 687.45 291.32 689.77 292.55 692.68 293.78 706.06 296.86 708.38 299.32 711.29 304.24 713.62 308.55 716.53 312.24 724.67 310.4 727 301.17 729.9 302.4 732.81 301.78 735.14 304.86 743.28 302.4 746.19 305.47 748.51 304.24 751.42 301.78 753.75 302.4 761.89 304.24 764.8 307.94 767.12 309.17 770.03 311.01 772.94 310.4 780.5 309.17 783.41 308.55 786.32 309.17 788.64 315.32 791.55 314.71 799.69 313.48 802.02 312.86 804.93 312.24 807.25 311.01 810.16 310.4 818.3 309.17 820.63 305.47 823.54 303.63 826.45 303.63 828.77 304.24 836.91 304.86 839.82 301.78 842.15 292.55 845.05 296.24 847.38 299.32 855.52 301.17 858.43 299.94 860.76 299.94 863.67 296.86 865.99 293.78 874.13 294.4 877.04 293.17 879.37 293.78 892.74 296.86 895.65 297.47 898.56 297.47 900.89 296.86 911.94 288.86 914.26 286.39 917.17 287.63 919.5 287.01 922.4 285.16 930.55 282.7 932.87 281.47 938.69 281.47 941.01 273.47 949.16 273.47 952.07 269.78 954.39 266.08 957.3 269.78 959.63 275.32 967.77 270.39 970.67 272.85 973 273.47 975.91 272.85 978.82 271.62 986.38 271.01 989.29 268.55 992.19 268.55 994.52 267.93 997.43 259.31 1005.57 260.55 1007.9 260.55 1010.8 255.01 1013.13 251.31 1016.04 251.93 1024.18 266.7 1026.51 258.7 1029.41 256.85 1031.74 259.93 1034.65 261.16 1042.79 261.16 1045.12 261.78 1048.03 263.01 1050.93 261.78 1061.4 258.7 1064.11 264.24"/><polyline class="cls-4" points="107.05 512.88 109.94 513.5 112.27 513.5 115.18 513.5 117.5 507.35 125.65 504.41 128.55 507.96 130.88 509.81 133.79 512.27 136.7 515.35 144.26 514.12 147.16 515.96 150.07 514.73 152.4 514.73 155.31 514.73 163.45 514.12 165.78 513.5 168.68 513.5 171.01 513.5 173.92 513.5 182.06 514.73 184.39 515.96 187.29 514.73 190.2 515.35 192.53 517.81 200.67 516.58 203.58 516.58 205.9 516.58 208.81 516.58 211.14 517.81 219.28 518.42 222.19 518.42 224.51 520.89 227.42 520.89 229.75 525.81 237.89 525.81 240.8 529.5 243.13 530.12 246.03 529.5 248.94 530.12 256.5 537.5 259.41 529.5 262.32 529.5 264.64 535.66 267.55 536.89 275.69 545.5 278.02 548.58 280.93 551.66 283.25 548.58 286.16 545.5 294.3 542.43 296.63 541.2 299.54 544.27 302.44 546.12 304.77 547.35 312.91 546.74 315.82 548.58 318.15 551.04 321.06 551.66 323.38 551.04 331.52 553.51 334.43 552.89 336.76 552.27 339.67 552.27 342.57 551.66 350.13 551.04 353.04 552.27 355.95 552.89 358.28 552.89 361.19 552.27 369.33 554.12 371.65 556.58 374.56 559.04 376.89 561.23 379.8 560.28 387.94 560.89 390.26 559.04 393.17 558.43 395.5 557.2 406.55 556.58 408.87 555.97 411.78 552.89 414.69 550.43 417.02 547.35 425.16 544.27 428.07 546.74 430.39 549.81 433.3 549.81 435.63 547.35 443.77 544.89 446.68 547.35 449 546.74 451.91 547.97 454.82 547.97 465.29 546.74 468.19 546.12 470.52 545.5 473.43 543.04 481.57 539.97 483.9 536.89 486.81 533.2 489.13 535.66 492.04 539.35 500.18 537.5 502.51 536.27 505.42 535.04 508.32 538.12 510.65 538.74 518.79 538.74 521.7 537.5 524.03 533.81 526.93 535.66 529.26 536.89 537.4 537.5 540.31 537.5 542.64 539.35 545.54 543.04 547.87 543.04 556.01 544.27 558.92 543.04 561.25 541.81 564.15 541.81 567.06 541.81 574.62 541.81 577.53 543.04 580.44 544.27 582.76 544.27 585.67 543.66 593.82 544.27 596.14 545.5 599.05 546.74 601.38 547.35 604.28 546.74 612.42 545.5 614.75 545.5 617.66 545.5 620.57 546.74 622.89 549.2 631.03 549.81 633.94 549.2 636.27 548.58 649.65 549.2 652.55 551.66 654.88 551.66 657.79 551.04 660.7 550.43 668.26 551.66 671.16 551.66 674.07 552.27 676.4 552.27 687.45 552.27 689.77 550.43 692.68 551.66 706.06 553.51 708.38 554.74 711.29 554.74 713.62 555.97 716.53 555.35 724.67 557.2 727 555.35 729.9 555.97 732.81 555.35 735.14 554.74 743.28 555.97 746.19 555.35 748.51 555.97 751.42 555.35 753.75 554.12 761.89 553.51 764.8 553.51 767.12 554.74 770.03 555.35 772.94 554.74 780.5 555.97 783.41 555.35 786.32 556.58 788.64 556.58 791.55 555.97 799.69 556.58 802.02 557.81 804.93 558.43 807.25 557.81 810.16 559.04 818.3 559.04 820.63 559.66 823.54 559.66 826.45 559.66 828.77 559.66 836.91 559.04 839.82 557.81 842.15 557.81 845.05 557.2 847.38 557.81 855.52 558.43 858.43 558.43 860.76 559.04 863.67 559.66 865.99 559.04 874.13 558.43 877.04 558.43 879.37 558.43 892.74 560.28 895.65 559.66 898.56 560.28 900.89 560.28 911.94 557.81 914.26 557.2 917.17 556.58 919.5 556.58 922.4 556.58 930.55 557.2 932.87 554.12 938.69 551.66 941.01 548.58 949.16 548.58 952.07 549.2 954.39 549.2 957.3 549.2 959.63 549.81 967.77 551.66 970.67 554.74 973 553.51 975.91 552.89 978.82 554.12 986.38 552.89 989.29 551.04 992.19 549.2 994.52 547.97 997.43 545.5 1005.57 546.12 1007.9 546.74 1010.8 547.97 1013.13 547.97 1016.04 548.58 1024.18 551.66 1026.51 549.2 1029.41 547.35 1031.74 547.35 1034.65 548.58 1042.79 549.2 1045.12 549.2 1048.03 550.43 1050.93 551.04 1061.4 550.43 1064.11 549.81"/><polyline class="cls-5" points="1073.46 623.84 105.72 623.84 105.72 130.92"/><line class="cls-5" x1="105.71" y1="623.84" x2="99.48" y2="623.84"/><line class="cls-5" x1="105.71" y1="563.59" x2="99.48" y2="563.59"/><line class="cls-5" x1="105.71" y1="506.89" x2="99.48" y2="506.89"/><line class="cls-5" x1="105.71" y1="447.8" x2="99.48" y2="447.8"/><line class="cls-5" x1="105.71" y1="388.1" x2="99.48" y2="388.1"/><line class="cls-5" x1="105.71" y1="329.02" x2="99.48" y2="329.02"/><line class="cls-5" x1="105.71" y1="269.93" x2="99.48" y2="269.93"/><line class="cls-5" x1="105.71" y1="210.23" x2="99.48" y2="210.23"/><line class="cls-5" x1="105.71" y1="151.15" x2="99.48" y2="151.15"/><line class="cls-5" x1="1001.28" y1="623.84" x2="1001.28" y2="630.26"/><line class="cls-5" x1="921.24" y1="623.84" x2="921.24" y2="630.26"/><line class="cls-5" x1="838.08" y1="623.84" x2="838.08" y2="630.26"/><line class="cls-5" x1="757.82" y1="623.84" x2="757.82" y2="630.26"/><line class="cls-5" x1="675.24" y1="623.84" x2="675.24" y2="630.26"/><line class="cls-5" x1="592.07" y1="623.84" x2="592.07" y2="630.26"/><line class="cls-5" x1="511.81" y1="623.84" x2="511.81" y2="630.26"/><line class="cls-5" x1="429.23" y1="623.84" x2="429.23" y2="630.26"/><text class="cls-6" transform="translate(87.94 664.09)">Jan</text><text class="cls-6" transform="translate(168.15 664.09)">Fév</text><text class="cls-6" transform="translate(243.68 664.09)">Mar</text><text class="cls-6" transform="translate(329.88 664.09)">Avr</text><text class="cls-6" transform="translate(408.27 664.09)">Mai</text><text class="cls-6" transform="translate(498 664.09)">Jui</text><text class="cls-6" transform="translate(575.23 664.09)">Juil</text><text class="cls-6" transform="translate(652.96 664.09)">Aoû</text><text class="cls-6" transform="translate(736.66 664.09)">Sep</text><text class="cls-6" transform="translate(818.66 664.09)">Oct</text><text class="cls-6" transform="translate(898.56 664.09)">Nov</text><text class="cls-6" transform="translate(979.96 664.09)">Déc</text><line class="cls-5" x1="348.97" y1="623.84" x2="348.97" y2="630.26"/><line class="cls-5" x1="266.39" y1="623.84" x2="266.39" y2="630.26"/><line class="cls-5" x1="188.46" y1="623.84" x2="188.46" y2="630.26"/><line class="cls-5" x1="105.71" y1="623.84" x2="105.71" y2="630.26"/><text class="cls-7" transform="translate(68.11 629.63)">0</text><text class="cls-7" transform="translate(23.92 570.54)">2000</text><text class="cls-7" transform="translate(23.92 510.84)">4000</text><text class="cls-7" transform="translate(23.92 451.75)">6000</text><text class="cls-7" transform="translate(23.92 392.06)">8000</text><text class="cls-7" transform="translate(9.19 332.97)">10000</text><text class="cls-7" transform="translate(9.19 273.89)">12000</text><text class="cls-7" transform="translate(9.19 214.18)">14000</text><text class="cls-7" transform="translate(9.19 155.1)">16000</text><rect class="cls-8" x="658.98" y="711.65" width="47.91" height="7.77"/><text class="cls-9" transform="translate(711.94 722.71) scale(0.97 1)">Masi</text><rect class="cls-10" x="516.48" y="711.65" width="47.91" height="7.77"/><text class="cls-9" transform="translate(569.44 722.71) scale(0.97 1)">Madex</text><rect class="cls-11" x="783.7" y="711.65" width="47.91" height="7.77"/><text class="cls-9" transform="translate(836.66 722.72) scale(0.97 1)">Banque</text><rect class="cls-12" x="96.95" y="711.65" width="47.9" height="7.77"/><text class="cls-9" transform="translate(149.91 722.71) scale(0.97 1)">Participation et promotion immobilieres</text><text class="cls-13" transform="translate(0 32.6)">Evolution des indices boursiers, du secteur bancaire<tspan x="0" y="46.74">et de la participation et promotion immobilières en 2019</tspan></text></g></g></svg>