<svg xmlns="http://www.w3.org/2000/svg" viewBox="0 0 471.43 617.16"><defs><style>.cls-1,.cls-7{fill:#ee7882;}.cls-2,.cls-9{fill:#f5ab93;}.cls-3,.cls-6,.cls-8{fill:none;}.cls-3{stroke:#7768aa;stroke-linejoin:round;stroke-width:1.36px;}.cls-4{font-size:28.08px;}.cls-4,.cls-5{fill:#666;}.cls-10,.cls-4,.cls-5,.cls-7,.cls-9{font-family:Cairo-Regular, Cairo Regular;}.cls-5{font-size:26.96px;}.cls-6{stroke:#ee7882;}.cls-6,.cls-8{stroke-miterlimit:10;stroke-width:2.71px;}.cls-10,.cls-7,.cls-9{font-size:21.84px;}.cls-8{stroke:#f5ab93;}.cls-10{fill:#fff;}</style></defs><g id="Layer_2" data-name="Layer 2"><g id="Layer_1-2" data-name="Layer 1"><rect class="cls-1" x="325.67" y="309.64" width="84.89" height="184.13"/><rect class="cls-2" x="240.78" y="105.72" width="84.89" height="388.05"/><rect class="cls-1" x="127.8" y="311.56" width="84.89" height="182.21"/><rect class="cls-2" x="42.92" y="125.69" width="84.89" height="368.09"/><line class="cls-3" x1="0.32" y1="493.77" x2="471.43" y2="493.77"/><text class="cls-4" transform="translate(96.35 536.65)">2019</text><text class="cls-4" transform="translate(294.21 536.65)">2020</text><rect class="cls-2" y="569.13" width="34.26" height="14.09"/><text class="cls-5" transform="translate(38.7 584.31)">Crédits Immo</text><rect class="cls-1" x="257.78" y="569.13" width="34.26" height="14.09"/><text class="cls-5" transform="translate(296.48 584.31)">Crédits</text><text class="cls-5" transform="translate(296.48 610.42) scale(0.98 1)">hors Immobilier</text><polyline class="cls-6" points="280.73 12.5 170.25 12.5 170.25 309.64"/><polyline class="cls-6" points="368.11 304.08 368.11 12.5 325.67 12.5"/><polygon class="cls-1" points="372.71 298.67 368.11 303.28 363.51 298.67 363.51 302.58 368.11 307.18 372.71 302.58 372.71 298.67"/><text class="cls-7" transform="translate(288.39 18.28)">-1%</text><polyline class="cls-8" points="195.93 47.98 85.45 47.98 85.45 123.68"/><polyline class="cls-8" points="283.31 98.73 283.31 47.98 240.91 47.98"/><polygon class="cls-2" points="287.91 93.32 283.31 97.93 278.71 93.32 278.71 97.23 283.31 101.83 287.91 97.23 287.91 93.32"/><text class="cls-9" transform="translate(200.07 53.77)">+5%</text><text class="cls-10" transform="translate(131.12 346.36)">270,303</text><text class="cls-10" transform="translate(328.98 346.36)">272,738</text><text class="cls-10" transform="translate(244.1 137.31)">570,527</text><text class="cls-10" transform="translate(46.23 157.02)">545,245</text></g></g></svg>