<svg xmlns="http://www.w3.org/2000/svg" xmlns:xlink="http://www.w3.org/1999/xlink" viewBox="0 0 1164.32 1850.63"><defs><style>.cls-1{font-size:79.61px;}.cls-1,.cls-75,.cls-76,.cls-77{fill:#575756;}.cls-1,.cls-77{font-family:Cairo-Regular, Cairo;}.cls-2{font-size:114.63px;}.cls-2,.cls-51,.cls-52,.cls-53{fill:#00a1e4;}.cls-2,.cls-53,.cls-76{font-family:Cairo-Bold, Cairo;font-weight:700;}.cls-3{fill:url(#linear-gradient);}.cls-4{fill:url(#linear-gradient-2);}.cls-5,.cls-74{fill:#fff;}.cls-6{fill:url(#linear-gradient-3);}.cls-7{fill:url(#linear-gradient-4);}.cls-8{fill:url(#linear-gradient-5);}.cls-9{fill:url(#linear-gradient-6);}.cls-10{fill:url(#linear-gradient-7);}.cls-11{fill:url(#linear-gradient-8);}.cls-12{fill:url(#linear-gradient-9);}.cls-13{fill:url(#linear-gradient-10);}.cls-14{fill:url(#linear-gradient-11);}.cls-15{fill:url(#linear-gradient-12);}.cls-16{fill:url(#linear-gradient-13);}.cls-17{fill:url(#linear-gradient-14);}.cls-18{fill:url(#linear-gradient-15);}.cls-19{fill:url(#linear-gradient-16);}.cls-20{fill:url(#linear-gradient-17);}.cls-21{fill:url(#linear-gradient-18);}.cls-22{fill:url(#linear-gradient-19);}.cls-23{fill:url(#linear-gradient-20);}.cls-24,.cls-25,.cls-26,.cls-27,.cls-28,.cls-29,.cls-30,.cls-31,.cls-32,.cls-33,.cls-34,.cls-35,.cls-36,.cls-37,.cls-38,.cls-39,.cls-40,.cls-41,.cls-42,.cls-43,.cls-44,.cls-45,.cls-46,.cls-47,.cls-48,.cls-49,.cls-50{fill:none;stroke-linecap:round;stroke-linejoin:round;stroke-width:2px;}.cls-24{stroke:url(#linear-gradient-21);}.cls-25{stroke-dasharray:8.38 8.38;stroke:url(#linear-gradient-22);}.cls-26{stroke:url(#linear-gradient-23);}.cls-27{stroke:url(#linear-gradient-24);}.cls-28{stroke-dasharray:8.2 8.2;stroke:url(#linear-gradient-25);}.cls-29{stroke:url(#linear-gradient-26);}.cls-30{stroke:url(#linear-gradient-27);}.cls-31{stroke-dasharray:8.08 8.08;stroke:url(#linear-gradient-28);}.cls-32{stroke:url(#linear-gradient-29);}.cls-33{stroke:url(#linear-gradient-30);}.cls-34{stroke-dasharray:7.32 7.32;stroke:url(#linear-gradient-31);}.cls-35{stroke:url(#linear-gradient-32);}.cls-36{stroke:url(#linear-gradient-33);}.cls-37{stroke-dasharray:8.49 8.49;stroke:url(#linear-gradient-34);}.cls-38{stroke:url(#linear-gradient-35);}.cls-39{stroke:url(#linear-gradient-36);}.cls-40{stroke-dasharray:8.58 8.58;stroke:url(#linear-gradient-37);}.cls-41{stroke:url(#linear-gradient-38);}.cls-42{stroke:url(#linear-gradient-39);}.cls-43{stroke-dasharray:8.07 8.07;stroke:url(#linear-gradient-40);}.cls-44{stroke:url(#linear-gradient-41);}.cls-45{stroke:url(#linear-gradient-42);}.cls-46{stroke-dasharray:8.52 8.52;stroke:url(#linear-gradient-43);}.cls-47{stroke:url(#linear-gradient-44);}.cls-48{stroke:url(#linear-gradient-45);}.cls-49{stroke-dasharray:8.48 8.48;stroke:url(#linear-gradient-46);}.cls-50{stroke:url(#linear-gradient-47);}.cls-52{font-size:29.18px;}.cls-52,.cls-74,.cls-78{font-family:Cairo-SemiBold, Cairo;font-weight:600;}.cls-53{font-size:72.94px;}.cls-54{fill:url(#linear-gradient-48);}.cls-55{fill:url(#linear-gradient-49);}.cls-56{fill:url(#linear-gradient-50);}.cls-57{fill:url(#linear-gradient-51);}.cls-58{fill:url(#linear-gradient-52);}.cls-59{fill:url(#linear-gradient-53);}.cls-60{fill:url(#linear-gradient-54);}.cls-61{fill:url(#linear-gradient-55);}.cls-62{fill:url(#linear-gradient-56);}.cls-63{fill:url(#linear-gradient-57);}.cls-64{fill:url(#linear-gradient-58);}.cls-65{fill:url(#linear-gradient-59);}.cls-66{fill:#e43d30;}.cls-67{opacity:0.4;}.cls-68{fill:url(#linear-gradient-60);}.cls-69{fill:url(#linear-gradient-61);}.cls-70{fill:url(#linear-gradient-62);}.cls-71{fill:url(#linear-gradient-63);}.cls-72{fill:url(#linear-gradient-64);}.cls-73{fill:url(#linear-gradient-65);}.cls-74{font-size:18.76px;}.cls-76{font-size:33.87px;}.cls-77{font-size:28.66px;}</style><linearGradient id="linear-gradient" x1="752.41" y1="689.57" x2="752.41" y2="607.08" gradientUnits="userSpaceOnUse"><stop offset="0" stop-color="#fff"/><stop offset="1" stop-color="#f4a89e"/></linearGradient><linearGradient id="linear-gradient-2" x1="752.41" y1="678.82" x2="752.41" y2="704.35" xlink:href="#linear-gradient"/><linearGradient id="linear-gradient-3" x1="996.2" y1="585.71" x2="-107.51" y2="1162.69" gradientUnits="userSpaceOnUse"><stop offset="0" stop-color="#00b8ed"/><stop offset="1" stop-color="#f4a89e"/></linearGradient><linearGradient id="linear-gradient-4" x1="998.43" y1="589.99" x2="-105.28" y2="1166.97" xlink:href="#linear-gradient-3"/><linearGradient id="linear-gradient-5" x1="1020.38" y1="631.97" x2="-83.33" y2="1208.95" xlink:href="#linear-gradient-3"/><linearGradient id="linear-gradient-6" x1="1045.56" y1="680.14" x2="-58.15" y2="1257.12" xlink:href="#linear-gradient-3"/><linearGradient id="linear-gradient-7" x1="1025.96" y1="642.65" x2="-77.75" y2="1219.63" xlink:href="#linear-gradient-3"/><linearGradient id="linear-gradient-8" x1="1036.22" y1="662.28" x2="-67.49" y2="1239.26" xlink:href="#linear-gradient-3"/><linearGradient id="linear-gradient-9" x1="1003.72" y1="600.09" x2="-99.99" y2="1177.07" xlink:href="#linear-gradient-3"/><linearGradient id="linear-gradient-10" x1="991.85" y1="577.4" x2="-111.86" y2="1154.38" xlink:href="#linear-gradient-3"/><linearGradient id="linear-gradient-11" x1="1003.09" y1="598.89" x2="-100.62" y2="1175.87" xlink:href="#linear-gradient-3"/><linearGradient id="linear-gradient-12" x1="994.51" y1="582.48" x2="-109.2" y2="1159.46" xlink:href="#linear-gradient-3"/><linearGradient id="linear-gradient-13" x1="1005.64" y1="603.78" x2="-98.07" y2="1180.76" xlink:href="#linear-gradient-3"/><linearGradient id="linear-gradient-14" x1="1019.59" y1="630.45" x2="-84.13" y2="1207.43" xlink:href="#linear-gradient-3"/><linearGradient id="linear-gradient-15" x1="1030.8" y1="651.91" x2="-72.91" y2="1228.89" xlink:href="#linear-gradient-3"/><linearGradient id="linear-gradient-16" x1="1025.1" y1="640.99" x2="-78.61" y2="1217.97" xlink:href="#linear-gradient-3"/><linearGradient id="linear-gradient-17" x1="1041" y1="671.41" x2="-62.71" y2="1248.39" xlink:href="#linear-gradient-3"/><linearGradient id="linear-gradient-18" x1="1049.59" y1="687.85" x2="-54.12" y2="1264.83" xlink:href="#linear-gradient-3"/><linearGradient id="linear-gradient-19" x1="890.14" y1="757.5" x2="890.14" y2="675" xlink:href="#linear-gradient"/><linearGradient id="linear-gradient-20" x1="890.14" y1="746.75" x2="890.14" y2="772.28" xlink:href="#linear-gradient"/><linearGradient id="linear-gradient-21" x1="85.22" y1="544.9" x2="703.39" y2="544.9" gradientUnits="userSpaceOnUse"><stop offset="0" stop-color="#00a1e4"/><stop offset="1" stop-color="#f4a89e"/></linearGradient><linearGradient id="linear-gradient-22" x1="85.22" y1="608.12" x2="703.39" y2="608.12" xlink:href="#linear-gradient-21"/><linearGradient id="linear-gradient-23" x1="85.22" y1="666.52" x2="703.39" y2="666.52" xlink:href="#linear-gradient-21"/><linearGradient id="linear-gradient-24" x1="329.89" y1="544.89" x2="703.39" y2="544.89" xlink:href="#linear-gradient-21"/><linearGradient id="linear-gradient-25" x1="329.89" y1="607.59" x2="703.39" y2="607.59" xlink:href="#linear-gradient-21"/><linearGradient id="linear-gradient-26" x1="329.89" y1="666.49" x2="703.39" y2="666.49" xlink:href="#linear-gradient-21"/><linearGradient id="linear-gradient-27" x1="568.17" y1="544.9" x2="703.39" y2="544.9" xlink:href="#linear-gradient-21"/><linearGradient id="linear-gradient-28" x1="568.17" y1="607.59" x2="703.39" y2="607.59" xlink:href="#linear-gradient-21"/><linearGradient id="linear-gradient-29" x1="568.17" y1="666.47" x2="703.39" y2="666.47" xlink:href="#linear-gradient-21"/><linearGradient id="linear-gradient-30" x1="750.76" y1="544.89" x2="776.59" y2="544.89" gradientUnits="userSpaceOnUse"><stop offset="0" stop-color="#f4a89e"/><stop offset="1" stop-color="#00a1e4"/></linearGradient><linearGradient id="linear-gradient-31" x1="750.76" y1="571.28" x2="776.59" y2="571.28" xlink:href="#linear-gradient-30"/><linearGradient id="linear-gradient-32" x1="750.76" y1="594.39" x2="776.59" y2="594.39" xlink:href="#linear-gradient-30"/><linearGradient id="linear-gradient-33" x1="653.07" y1="834.86" x2="905.38" y2="834.86" xlink:href="#linear-gradient-30"/><linearGradient id="linear-gradient-34" x1="653.07" y1="931.52" x2="905.38" y2="931.52" xlink:href="#linear-gradient-30"/><linearGradient id="linear-gradient-35" x1="653.07" y1="1024.06" x2="905.38" y2="1024.06" xlink:href="#linear-gradient-30"/><linearGradient id="linear-gradient-36" x1="588.83" y1="876.66" x2="725.73" y2="876.66" xlink:href="#linear-gradient-30"/><linearGradient id="linear-gradient-37" x1="588.83" y1="952.5" x2="725.73" y2="952.5" xlink:href="#linear-gradient-30"/><linearGradient id="linear-gradient-38" x1="588.83" y1="1024.06" x2="725.73" y2="1024.06" xlink:href="#linear-gradient-30"/><linearGradient id="linear-gradient-39" x1="423.59" y1="973.04" x2="570.65" y2="973.04" xlink:href="#linear-gradient-30"/><linearGradient id="linear-gradient-40" x1="423.59" y1="1000.58" x2="570.65" y2="1000.58" xlink:href="#linear-gradient-30"/><linearGradient id="linear-gradient-41" x1="423.59" y1="1024.07" x2="570.65" y2="1024.07" xlink:href="#linear-gradient-30"/><linearGradient id="linear-gradient-42" x1="795.26" y1="546.86" x2="916.18" y2="546.86" xlink:href="#linear-gradient-30"/><linearGradient id="linear-gradient-43" x1="795.26" y1="606.15" x2="916.18" y2="606.15" xlink:href="#linear-gradient-30"/><linearGradient id="linear-gradient-44" x1="795.26" y1="662.39" x2="916.18" y2="662.39" xlink:href="#linear-gradient-30"/><linearGradient id="linear-gradient-45" x1="889.14" y1="546.73" x2="1073.86" y2="546.73" xlink:href="#linear-gradient-30"/><linearGradient id="linear-gradient-46" x1="889.14" y1="605.79" x2="1073.86" y2="605.79" xlink:href="#linear-gradient-30"/><linearGradient id="linear-gradient-47" x1="889.14" y1="662.48" x2="1073.86" y2="662.48" xlink:href="#linear-gradient-30"/><linearGradient id="linear-gradient-48" x1="796.26" y1="758.4" x2="796.26" y2="675.91" xlink:href="#linear-gradient"/><linearGradient id="linear-gradient-49" x1="796.26" y1="747.65" x2="796.26" y2="773.18" xlink:href="#linear-gradient"/><linearGradient id="linear-gradient-50" x1="702.19" y1="757.63" x2="702.19" y2="675.14" xlink:href="#linear-gradient"/><linearGradient id="linear-gradient-51" x1="702.19" y1="746.89" x2="702.19" y2="772.41" xlink:href="#linear-gradient"/><linearGradient id="linear-gradient-52" x1="651.67" y1="807.23" x2="651.67" y2="724.74" xlink:href="#linear-gradient"/><linearGradient id="linear-gradient-53" x1="651.67" y1="796.48" x2="651.67" y2="822.01" xlink:href="#linear-gradient"/><linearGradient id="linear-gradient-54" x1="588.02" y1="853.19" x2="588.02" y2="770.7" xlink:href="#linear-gradient"/><linearGradient id="linear-gradient-55" x1="588.02" y1="842.45" x2="588.02" y2="867.97" xlink:href="#linear-gradient"/><linearGradient id="linear-gradient-56" x1="424.6" y1="950.55" x2="424.6" y2="868.06" xlink:href="#linear-gradient"/><linearGradient id="linear-gradient-57" x1="424.6" y1="939.8" x2="424.6" y2="965.33" xlink:href="#linear-gradient"/><linearGradient id="linear-gradient-58" x1="84.44" y1="1333.79" x2="1075.1" y2="1363.96" gradientUnits="userSpaceOnUse"><stop offset="0" stop-color="#00b8ed"/><stop offset="1" stop-color="#f4a89e" stop-opacity="0.5"/></linearGradient><linearGradient id="linear-gradient-59" x1="-4.16" y1="1348.8" x2="1375.58" y2="1390.81" xlink:href="#linear-gradient-58"/><linearGradient id="linear-gradient-60" x1="1.51" y1="1417.04" x2="1405.51" y2="1417.04" gradientUnits="userSpaceOnUse"><stop offset="0" stop-color="#f4a89e"/><stop offset="1" stop-color="#00b8ed"/></linearGradient><linearGradient id="linear-gradient-61" x1="1.51" y1="1469.38" x2="1405.51" y2="1469.38" xlink:href="#linear-gradient-60"/><linearGradient id="linear-gradient-62" x1="1.51" y1="1521.71" x2="1405.51" y2="1521.71" xlink:href="#linear-gradient-60"/><linearGradient id="linear-gradient-63" x1="1.51" y1="1574.05" x2="1405.51" y2="1574.05" xlink:href="#linear-gradient-60"/><linearGradient id="linear-gradient-64" x1="1.51" y1="1639.11" x2="1405.51" y2="1639.11" xlink:href="#linear-gradient-60"/><linearGradient id="linear-gradient-65" x1="1.51" y1="1703.96" x2="1405.51" y2="1703.96" xlink:href="#linear-gradient-60"/></defs><g id="Layer_2" data-name="Layer 2"><g id="Layer_1-2" data-name="Layer 1"><text class="cls-1" transform="translate(117.31 67.35)">With a network that counts <tspan class="cls-2"><tspan x="95.98" y="108.6">+300 branches</tspan></tspan><tspan x="207.54" y="204.09">in the kingdom </tspan></text><path class="cls-3" d="M782.35,637.14a32.75,32.75,0,0,0-5.69-17.51,29.42,29.42,0,0,0-14.2-11.13,32,32,0,0,0-20.08,0,29.38,29.38,0,0,0-14.22,11.14,32.62,32.62,0,0,0-5.69,17.53,31.53,31.53,0,0,0,1.87,11.59c2.26,6.28,11.36,19.5,18.23,29.5,2.33,3.36,4.39,6.37,5.83,8.58l.16.24.16.26,0,0c1.41,2.1,2.68,2.9,4.17,2.63s2.28-1.28,3.38-3c1.42-2.17,3.48-5.17,5.81-8.57,6.9-10,16.09-23.36,18.38-29.68A32.31,32.31,0,0,0,782.35,637.14Zm-15.7,14.92a20.23,20.23,0,1,1,5.9-14.29A20.08,20.08,0,0,1,766.65,652.06Z"/><path class="cls-4" d="M727.75,695.66c-7-2.12-11.35-5.33-11.35-9.13s4.34-7,11.35-9.12c.31-.09.63-.19,1-.27a2,2,0,0,1,1.58,3.49h0l-1.44.4c-5.34,1.62-8.64,3.59-8.64,5.5s3.3,3.88,8.64,5.51c13,4,34.1,4,47.12,0,5.34-1.63,8.64-3.58,8.64-5.51s-3.3-3.88-8.64-5.5l-1.42-.4h0a1.95,1.95,0,0,1,1.57-3.49l1,.27c7,2.13,11.34,5.33,11.34,9.12s-4.34,7-11.34,9.13c-13.81,4.18-35.53,4.18-49.32,0Z"/><path class="cls-5" d="M762.47,647.87a14.28,14.28,0,1,1,4.17-10.09A14.17,14.17,0,0,1,762.47,647.87Z"/><polyline class="cls-6" points="741.71 698.8 741.07 699.13 741.04 699.11 740.85 699.34 740.04 699.38 738.11 700.37 737.01 700.49 736.6 700.64 735.39 700.8 734.09 700.68 732.98 700.92 731.36 700.61 730.57 700.83 730.37 700.81 730.32 700.88 729.28 700.99 729.3 701.34 727.44 702.13 725.13 701.93 725.08 701.7 723.91 701.52 723.2 701.62 721.29 701.5 720.91 701.62 721 702.05 720.53 702.11 719.4 704.29 718.52 706.82 718.29 707.03 718.18 707.94 717.15 709.4 716.15 709.82 715.8 710.57 714.94 711.24 712.48 715.77 711.82 716.3 711.28 716.39 708.49 720.91 711.87 721.05 715.09 720.97 721.99 721.5 724.92 721.98 727.8 722.08 728.97 722.63 731.13 722.77 732.22 723.26 734.17 723.64 736.09 724.78 736.54 724.9 738.41 724.86 739.75 724.98 741.29 724.48 742.38 724.64 743.17 725.1 744.64 725.42 746.77 726.75 748.89 727.26 753.8 727.7 757.82 726.93 760.92 727.28 761.96 726.71 765.34 725.99 766.4 725.99 767.28 725.73 767.34 725.73 767.36 725.73 768.8 725.92 772.13 725.53 772.2 725.53 772.21 725.53 773.49 725.55 775.23 725.15 775.96 725.11 776.66 724.5 777.75 724.09 778.77 724.07 783.45 722.17 788.3 721.8 790.95 721.01 791.73 719.9 791.33 718.85 790.34 718.44 790.44 717.42 791.16 717.02 790.65 716.92 789.29 716.95 785.98 716.53 784.75 716.6 783.46 716.38 782.77 716.04 781.51 716.24 776.01 715.31 775.33 714.98 773.46 714.53 771.79 713.77 770.52 713.7 768.71 713.3 764.43 711.34 764.1 711.4 761.91 711.13 760.76 710.37 760.64 710.23 759.43 709.33 757.12 708.66 756.1 708.02 755.32 707.87 754.21 707.97 753.76 707.68 753.05 707.74 750.98 706.1 749.95 704.47 750.03 704.35 748.62 704.39 747.46 703.39 746.04 700.44 746.35 699.58 744.89 699.4 744.49 698.8 744.28 698.8 744.26 698.82 743.27 698.83 742.81 699.22 741.71 698.8"/><polyline class="cls-7" points="707.97 721.67 706.51 723.84 706.61 723.89 708.59 724.17 708.81 725.28 708.11 725.38 707.03 726.46 706.17 725.58 705.07 725.41 702.27 728.71 696.4 734.5 689.63 739.73 689.49 739.94 688.23 741.54 688.42 741.69 690.71 741.6 691.89 742.33 692.35 742.43 694.43 742.47 694.79 742.57 699.05 741.71 704.15 742.26 712.68 741.95 712.68 741.95 712.68 741.95 721.85 743.16 723.94 743.17 726.38 743.5 727.73 743.51 727.24 742.86 725.88 742.95 724.68 741.78 724.69 741.77 724.68 741.77 725.64 741.37 725.75 741.32 725.76 741.32 725.77 741.32 727.62 741.19 728.02 741.08 728.26 740.96 728.05 740.25 730.38 739.44 732.61 739.53 732.89 739.54 732.89 739.54 732.9 739.54 733.16 739.69 733.59 739.93 735.3 740.01 736.64 740.69 736.36 740.96 735.62 741.68 735.64 741.71 736.09 741.76 737.74 741.62 741.12 741.87 742.46 742.26 742.52 742.42 742.85 743.02 742.72 743.18 743.84 742.48 745.78 742.23 745.23 741.93 745.77 741.26 747.03 740.95 747.74 740.54 747.79 739.31 749.3 739.33 748.39 738.8 748.3 738.24 748.22 738.21 747.92 738.29 746.35 738.14 745.75 737.34 745.99 737.13 745.02 736.68 745.74 735.92 745.77 735.92 745.79 735.9 748.23 735.61 750.97 734.87 751.64 734.22 751.66 734.22 751.68 734.2 753.21 734.04 753.37 733.98 753.25 733.46 753.82 732.93 753.85 732.92 753.87 732.9 755.83 732.71 756.41 732.51 756.7 732.38 756.9 731.82 756.95 731.81 756.95 731.79 759.18 731.38 759.79 731.43 759.79 731.42 759.56 730.86 760.06 729.42 759.91 728.5 760.18 727.99 758.1 727.76 754.12 728.52 748.36 728 745.57 727.33 743.46 726.02 742.01 725.7 741.53 725.41 740.29 725.82 738.38 725.65 736.15 725.69 734.88 725.34 733.04 724.26 731.21 723.9 730.32 723.5 728.14 723.36 727.01 722.83 724.61 722.75 721.6 722.25 715.08 721.75 711.93 721.83 707.97 721.67"/><path class="cls-8" d="M748.14,737.08l-.29.26.32-.09,0-.17M816.3,715l-1.12.38-2.14.16-.26-.14-.56.11-.16,0-.06,0-4.18.78-1.08.11-.64-.12-1.62.2-.22.23-2.06-.1-1,.19-.36.17-1.14.11-.49.26-.8,0-.79.29-2.64-.3-1.06.12-.93-.13-.73.39,0,.44.83.34.57,1.5-1.05,1.5-3.41,1-4.72.36-4.77,1.94-1.06,0-.41.15-.94.81-1.29.09-1.89.44-1.57,0-3.61.42-1.14-.16-.64.2h-1.2l-2.69.57-1.08.58-.36.69.14.89-.48,1.4h0l1,.21-.43.82-1,.4-1.5-.12-.9.17-.15.42-.83.34-.91.31-1.53.16,0,0,.15.68-1.13.46-1.16.12-.56.54-3.4.93-1.78.21,1,.44,0,0,.33.14,1.79.35-.15.36,1.45.63,1.71-.29h0l.09,0,.91.52,1.63-.28h.1l1.38,0,.54-.2h0l0,0,1,.14.68-.32,2.37-.41h.08l2.85.21,1.18.37v0l.59-.2h.05l0,0,1.58.07.61,0h0l4.14.16.85.55.16-.07h.11l1.45.08L778,740l-1.26.08,0,.21h1.12l1.27-.32h.13l1.56.23.54.63,0,.41,1.44-.21v0h.09l.85,1.21-.12.42.89.64,1.66.16.51.22,1.86,0,1.46.49,1.78,0,1.43.43-.08.45,1,.5.32.5.3,1.7,1.13.47,1.55.29,1.85.1,2,.65h0l3.21-1.1h1.9l1.46.43h1.44l.76.32.78,1,.41,0,.6.21,3.1-.07H815l2.16.6-3.39,1-.81.7.13,1.58.76.49,1-.33,1.22-.08,1,0h.35l2.11.54-.05.79-1.28,1,1.44.72,4.4-.18,1.46-.47,3.77-.77.86-.74.32-.08.14-.76,1.94-.59,1.39-.74.38-.52h0l1.39-.23.6-.11,1.56-.61,2.18-2.14,1.11-.31.57-1,1.22-.15h0l1.32,0,.88.56,1.38.26.4.22,1.14.15,2.64,1.24.49.12,4.37.41,3.93,1.17,1.78.28,3.21.25-.23-.66-1.52-1.21-3.8-2-2.75-.86-.15-1.53.56-.59,4.86-.83.92-.28,1.24-1.58,0-.09-2.27-.77-1-2.57-2.1-.57-1.78-.72-1.15-.58-.53-.79.4-.19-.15-.18.54-.69,2.92-.67.56-.5,1-.11-.66-.84,2.12-.07.35-1-.5-1,3.63-.8.23,0,.56-.92-1.77-.25-.85-.42-2.12-.51-1.77,0-2.15-1.08-.71-.17-5.59,0,.18.57-.74.85-3.09.82-1.52.88-1.18-.16v.32l-1.05.2-.77,1.72-1.7.05-2.95-.48-.82-.39-.21-.54-.23-.11-2.57.41-1-.76,1.25-.56.05-.15-.88-1.18.83-.42h1.12l-.13,0-1-.63,1.08-1v-.56l-.83-.58.21-.16-1.47.08h0l-2.08-.54-2.74.15-1.13-.61-.66,0-1.26-.23-.22-.49-.78-.18-.54-3.14-.42-.22-.33-1.38-.69-.92.28-1.59-.22-.27-1.43.1-2.9-.38-1.73-.79.05-.14-.41-.1"/><polyline class="cls-9" points="861.28 710.81 860.87 711.09 860.87 711.14 860.93 711.65 858.76 713.85 856.44 714.61 855.28 714.34 854.71 714.87 852.79 715.78 851.5 715.66 851.13 715.81 850.51 715.76 849.77 715.98 847.65 716.17 846.07 716.69 841.15 716.49 840.08 716.19 838.34 716.36 835.86 715.87 833.14 715.63 828.93 714.48 828.43 714.15 827.67 714.12 826.31 714.36 825.63 715.62 824.36 716.02 824.77 716.55 824.49 718.14 825.13 718.99 825.42 720.21 825.86 720.45 826.37 723.37 827.02 723.52 827.2 723.9 829.51 723.78 830.3 724.41 831.67 724.33 833.74 724.87 835.94 724.75 837.41 725.39 836.88 725.81 837.42 726.19 837.42 727.14 836.62 727.87 836.68 727.91 838.16 728.22 838.54 729 837.09 729.32 835.82 729.31 836.43 730.13 836.35 730.39 837.18 730.26 838.77 730.97 838.99 731.53 839.05 731.56 841.14 731.9 841.19 731.9 841.89 730.34 842.75 730.18 842.75 729.38 844.93 729.66 845.95 729.07 848.83 728.31 849.23 727.85 848.97 727.03 850.16 726.66 856.81 726.71 858.29 727.05 860.05 727.94 861.4 727.92 864.32 728.62 865.04 728.97 867.3 729.3 867.82 729.89 867.36 730.64 868.99 730.99 869.55 731.85 868.13 732.14 865.36 731.64 863.53 732.04 863.82 732.63 863.24 734.38 861.94 734.42 862.11 734.64 861.59 735.22 860.5 735.33 860.03 735.75 857.21 736.4 857.07 736.57 857.38 736.91 856.91 737.14 857.04 737.33 857.85 737.74 859.35 738.35 862.1 739.09 863.09 741.71 865.34 742.48 865.6 743.11 864.04 745.09 862.55 745.55 858.14 746.3 857.98 746.47 858.07 747.39 860.2 748.06 864.33 750.23 866.12 751.66 866.47 752.65 866.76 752.68 866.05 754.86 864.79 755.94 861.99 757.49 861.19 758.56 861.27 758.92 862.18 759.6 865.44 760.44 869.5 761.93 871.94 763.46 876.51 765.59 877.66 766.67 877.51 767.96 876.38 768.88 872.99 769.45 870.8 769.62 865.43 770.65 862.45 770.95 862.33 770.96 862.33 770.96 862.31 770.96 858.61 771.04 856.5 770.89 853.69 770.7 848.68 770.67 842.7 770.96 840.58 771.56 837.18 773.26 835.09 775.05 831.49 778.91 828.82 780.39 826.69 782.2 826.73 782.26 828.3 782.56 830.44 783.6 830.5 783.65 837.7 789.17 839.24 791.39 839.98 791.55 842.38 791.54 842.38 791.54 842.42 791.54 843.76 791.77 843.79 791.78 843.79 791.78 843.83 791.79 845.57 792.48 846.84 792.65 847.49 792.73 847.49 792.73 847.53 792.74 849.17 793.58 848.36 794.61 848.4 794.69 848.65 794.76 850.2 794.83 853.89 794.52 853.92 794.53 853.94 794.52 859.02 794.76 868.17 795.4 870.63 795.75 871.62 796.84 869.93 798.82 869.9 801.32 870.39 802.81 873.18 807.66 884.57 806.49 884.5 806.33 892.92 805.39 891.72 804.82 891.83 804.08 891.47 803.52 889.27 802.12 888.78 801.24 885.81 799.34 885.79 797.31 887.06 796.22 889.24 796.57 892.2 796.46 896.9 796.58 900.19 796.39 903.23 796.51 905.6 795.66 910.03 795.23 918.11 795.32 919.46 794.95 924.42 795.69 925.13 795.7 928.4 795.42 932.87 794.58 934.85 794.89 935.84 795.28 936.9 795.26 937.16 795.31 937.26 795.16 939.36 795.16 940.73 795.59 943.06 795.61 949.01 796.49 950.43 796.44 955.98 797.09 959.84 796.76 961.17 797.03 964.11 797.21 966.03 797.26 967.15 797.1 969.13 797.36 972.03 797.24 972.95 797.5 974.71 797.33 975.49 796.86 976.33 796.74 975.91 796.64 975.12 795.9 974.02 795.7 970.37 796.17 968.1 795.47 971.23 794.2 970.66 793.13 970.68 791.63 969.45 790.96 971.04 790.32 971.3 789.08 971.94 788.58 974.71 788.11 975.97 788.19 976.55 787.84 978.14 787.36 978.92 786.66 980.53 785.91 965.96 781.36 959.77 780.14 948.78 773.72 951.55 773.16 952.09 773.2 952.11 773.2 952.42 772.64 952.01 772.12 952.57 771.59 952.11 771.13 951.48 770.84 950.17 770.65 948.82 770.22 946.19 769.02 944.43 767.56 942.82 767.02 940.12 765.37 940.38 764.63 939.6 762.59 940.22 761.23 940.82 761.01 940.96 760.77 940.79 759.56 941.93 758.65 940.92 757.92 941.11 757.79 940.97 757.77 941.09 756.74 941.08 756.73 939.41 756.31 938.04 755.13 935.43 755.24 934.96 754.83 933.23 754.44 933.44 753.08 935.81 752.17 933.73 749.8 934.29 743.7 930.08 740.32 929.88 738.54 928.58 737.8 926.57 737.08 925.25 736.31 928.82 733.9 926.43 733.48 926.07 733.14 925.43 733.03 925.13 732.62 923.85 732.16 923.75 731.84 922.51 731.16 921.78 730.96 919.32 731.11 923.34 728.35 923.31 727.64 923.99 727.41 921.16 726.8 921.16 726.77 919.2 726.25 917.26 726.09 916.69 725.14 912.63 724.24 912.12 723.01 909.68 723.21 906.58 722.34 904.59 721.54 904.45 721.34 902.32 720.98 901.28 720.41 899.49 719.94 899.3 719.05 893.73 718.21 890.4 717.89 889.78 717.78 887.79 718.63 885.83 719.06 883.38 719.28 879.25 719.04 875.31 718.37 875.13 718.76 871.3 718.73 867.63 717.99 866.15 717.5 865.85 717.07 864.68 716.48 864.41 715.84 864.79 715.63 864.46 715.48 863.76 714.41 863.97 714.38 862.25 713.9 862.04 712.39 861.1 711.89 861.61 710.95 861.28 710.81"/><polyline class="cls-10" points="762.51 738.43 760.94 738.71 759.75 739.26 758.56 739.1 758.28 739.21 756.55 739.24 753.78 739.72 752.87 739.2 751.76 739.39 752.15 739.56 752.91 740.51 753.39 741.76 753.41 743.44 753.9 744.32 755.24 744.03 757.08 744.2 758.11 744.54 759.14 745.47 759.5 745.64 760.67 745.63 764.27 746.06 765.68 747.89 766.74 748.15 768.86 749.48 769.46 750.97 767.64 753.62 767.72 754.03 768.11 754.34 768.86 754.54 773.72 754.83 777.02 755.95 779.52 757.03 780.13 758.11 779.77 758.85 775.25 762.15 775.09 762.45 775.26 762.81 776.15 763.48 779.45 764.71 781.73 766.67 784.93 770.31 790.2 772.76 790.08 773.53 789.54 773.97 789.52 774.4 789.88 774.73 791.67 775.32 793.64 775.67 799.49 775.27 803.24 775.4 804.34 775.72 805.44 776.22 806.87 777.38 808.88 777.93 814.3 780.2 814.88 782.17 815.03 782.28 815.67 782.38 817.07 782.25 819.1 782.48 822.65 782.51 823.92 782.47 824.81 782.3 824.63 782.04 827.19 779.87 829.81 778.41 833.37 774.61 835.58 772.73 839.26 770.89 841.89 770.14 848.39 769.82 853.76 769.86 858.51 770.19 861.93 770.12 864.67 769.84 870.07 768.8 872.3 768.63 874.97 768.18 875.64 767.64 875.75 766.75 874.97 766.02 870.54 763.95 868.17 762.46 864.48 761.11 860.88 760.17 859.45 759.11 859.28 758.38 860.29 757.03 863.18 755.44 864.24 754.53 864.63 753.33 860.99 753.04 858.87 752.71 855.05 751.57 850.79 751.17 849.73 750.92 847.24 749.75 846 749.59 845.52 749.32 844.09 749.05 843.43 748.64 843.38 748.65 842.88 749.51 841.63 749.86 839.51 751.95 837.48 752.75 835.92 753.01 835.68 753.34 833.96 754.26 832.47 754.72 832.33 755.52 831.69 755.69 830.78 756.46 826.67 757.31 824.96 757.86 819.05 758.08 815.97 756.54 817.69 755.2 817.69 755.13 817.11 754.98 816.41 754.97 815.79 755.01 813.53 755.75 811.24 754.26 811.07 752.23 812.28 751.19 812.7 751.06 811.35 751.09 810.63 750.83 809.5 750.78 808.51 749.52 807.41 749.51 805.97 749.09 805.35 749.09 801.93 750.27 800.59 750.14 798.69 749.51 797.09 749.42 794.96 749.02 792.97 748.2 792.63 746.24 792.49 746.02 791.22 745.4 791.28 745.08 789.45 745.03 787.99 744.54 786 744.5 785.36 744.23 783.42 744.04 781.7 742.81 781.86 742.27 781.74 742.1 781.34 742.15 779.46 742.02 779.52 740.93 779.49 740.89 778.59 741.11 775.11 741.12 774.96 740.5 773.93 740.22 774.05 739.95 772.76 740.11 771.62 739.37 772.27 739.02 769.23 738.91 768.8 739.23 767.15 739.3 766.89 739.05 766.07 739.34 764.43 739.13 764.4 738.57 762.51 738.43"/><polyline class="cls-11" points="750.67 740.1 750.56 740.15 749.66 740.14 749.64 740.87 748.39 741.6 747.4 741.85 748.95 742.7 745.11 743.2 743.23 744.38 741.46 744.13 740.58 743.37 740.93 742.92 740.82 742.72 740.53 742.64 737.88 742.44 736.11 742.59 734.3 742.36 733.62 741.61 734.47 740.78 734.46 740.77 732.7 740.7 732 740.31 731.05 740.27 730.01 740.63 730.2 741.26 729.29 741.71 728.38 741.97 727.53 742.02 728.74 742.31 729.65 743.53 729.82 743.54 730.26 745.1 730.72 745.37 734.21 746.59 735 747.92 732.43 749.06 732.44 749.21 732.87 749.14 734.84 749.53 734.31 750.3 734.24 750.39 734.35 750.73 734.58 750.94 735.84 751.28 736.74 751.84 737.04 752.97 736.78 756.32 736.08 757.89 735.96 760.69 736.39 762.58 737.33 763.53 737.35 764.46 737.34 764.47 737.34 764.47 736.29 765.49 734.55 765.78 728.19 764.96 726.85 765.16 725.07 766.15 724.93 766.18 723.63 766.48 721.99 766.35 721.42 766.03 719.4 765.94 718.18 765.23 718.11 764.95 717.84 763.95 717.34 763.68 717.31 763.36 716.66 763.4 716.53 763.41 715.36 763.18 714.87 762.76 714.57 762.92 714.57 762.92 714.56 762.93 713.2 763.07 711.5 762.63 710.54 762.63 707.85 762.91 707.52 763.04 707.14 763.78 707.77 764.22 706.87 765.27 707.57 765.82 708.43 765.61 708.22 766.35 708.52 766.58 708.13 766.68 708.02 767.06 706.99 767.42 706.64 767.74 706.6 767.97 706.77 768.1 711.84 768.86 712.5 769.57 714.3 769.84 716.79 770.87 719.99 771.54 720.54 772.51 722.56 772.89 723.48 773.38 723.4 774.13 722.1 774.59 720.37 774.75 720.38 775.23 720.5 775.27 720.81 775.27 723.28 774.77 725.15 775.09 725.65 775.98 728.12 777.36 728.11 777.36 728.12 777.37 726.79 777.77 727.11 777.97 727.11 777.98 727.11 777.99 726.95 778.77 727.11 778.88 730.26 778.65 733.16 779.39 734.14 780.21 734.42 780.27 735.69 780.15 737.14 780.94 738.3 781.2 739.12 781.86 739.85 783.16 740.06 783.16 741.7 782.5 743.88 782.67 746.45 783.45 746.79 783.68 749.98 783.82 750.82 784.92 752.81 786.1 754.6 787.71 753.44 788.57 753.38 789.22 752.74 789.71 753.37 790.17 752.46 791.3 753.74 791.77 753.48 792.88 752.02 793.37 749.17 793.06 746.42 793.3 745.53 793.51 745.48 793.53 745.33 794.32 744.4 794.92 743.21 795.47 741.38 795.51 740.82 795.78 740.92 796.78 739.72 797.19 740.15 798.21 738.72 798.51 738.69 798.56 738.81 798.67 740.09 798.86 740.83 799.9 741.15 799.86 744.49 798.71 746.37 798.75 754.11 801.08 755.26 801.71 755.25 801.72 755.26 801.72 753.82 803.36 753.72 803.41 742.93 809.12 742.64 809.63 745.88 809.85 749.59 809.43 757.4 810.41 758.6 810.83 758.6 810.83 758.61 810.84 760.11 811.97 762.43 812.61 763.69 812.95 767.83 813.53 767.84 813.53 767.86 813.54 768.65 813.76 769.43 813.98 769.44 813.99 769.45 813.99 769.75 814.13 771.34 814.89 771.35 814.9 771.36 814.91 772.24 815.71 772.8 816.69 772.84 818.48 771.88 820.75 770.13 823.1 769.65 827.41 768.68 831 768.9 831.78 770.19 833.9 773.25 836.14 775.07 837.12 775.44 837.72 778.45 839.48 779.34 844.5 778.99 846.02 779.75 849.72 779.75 849.72 779.75 849.72 779.75 849.74 779.79 851.85 780.53 852.44 781.23 853.66 782.5 854.43 783.17 854.59 783.42 854.65 785.3 856.77 793.44 853.2 810.26 848.99 824.13 841.72 833.39 840 841.41 839.78 849.07 838.77 858.94 836.68 859.36 835.98 859.63 835.91 859.27 835.52 859.17 835.5 857.8 835.78 856.75 834.06 857.35 833.78 857.29 832.67 858.59 831.64 859.19 831.76 859.54 830.98 860.33 830.99 859.88 830.45 860.66 830.32 860.53 829.66 861.04 829.75 861.15 829.68 861.15 829.68 861.16 829.68 862.29 829.01 861.91 827.93 861.87 827.91 861.83 828.12 858.96 826.93 858.93 826.78 858.44 826.79 858.12 826.01 857.89 825.97 857.87 825.99 857.86 825.98 857.19 826.29 856.71 826.18 853.91 826.63 854.4 824.92 854.19 824.28 853.52 824.41 853.56 824.43 852.92 825.84 851.35 825.28 850.97 825.27 849.42 825.71 848.58 824.1 849.11 823.4 849.05 823.38 848.63 822.54 848.37 822.56 846.99 821.46 847.56 821.29 847.36 821.11 848.14 820.84 846.98 819.91 848.23 819.32 847.96 818.61 848.25 818.51 848.2 818.47 849.04 817.52 850.63 817.75 850.63 817.7 852.4 817.43 852.78 816.79 851.19 810 871.32 807.86 868.47 802.87 867.95 801.28 867.99 798.55 869.53 796.75 869.26 796.45 867.95 796.27 858.96 795.63 854.23 795.42 850.54 795.73 848.24 795.62 846.72 795.22 846.35 794.46 846.95 793.7 846.57 793.5 844.76 793.26 842.95 792.54 842.26 792.42 839.76 792.43 837.7 792 835.94 789.46 828.94 784.08 827.28 783.27 826.06 783.03 824.54 783.33 822.87 783.37 819.02 783.34 817.2 783.14 815.72 783.27 813.86 782.99 813.04 782.41 812.51 780.56 807.82 778.6 805.5 777.97 803.93 776.69 803.23 776.37 802.76 776.24 799.72 776.13 793.57 776.55 790.85 776.06 788.41 775.26 787.61 774.53 787.65 773.68 788.22 773.23 788.25 773.02 783.33 770.73 780 766.95 777.99 765.21 774.74 764.01 773.49 763.06 773.16 762.38 773.49 761.77 778 758.49 778.21 758.05 777.85 757.42 775.82 756.53 773.09 755.61 768.35 755.33 766.76 754.91 765.91 754.22 765.75 753.47 767.56 750.86 767.11 749.75 765.52 748.75 764.18 748.42 762.87 746.72 760.59 746.44 758.8 746.47 757.62 745.89 756.67 745.04 756.39 744.95 755.62 744.88 754.02 745.23 752.41 745 751.57 743.48 751.55 741.77 751.12 740.66 750.67 740.1"/><polyline class="cls-12" points="687.24 742.37 684.57 744.36 682.1 745.63 678.53 747.63 676.63 748.38 676.2 748.76 675.61 748.85 675.49 749.09 674.65 749.23 674.66 749.28 672.88 749.95 671.24 750.25 670.86 750.21 668.92 750.94 668.96 750.98 671.14 751.05 672.69 752.14 673.25 752.93 673.38 754.02 675.11 755.24 675.06 755.31 675.41 755.31 677.67 755.74 678.76 756.47 679.74 756.67 680.11 756.93 682.85 756.86 683.63 756.62 686.29 756.72 685.73 758.23 685.72 758.24 685.72 758.24 682.88 760.3 682.97 760.7 683.54 761.31 685.46 762.44 685.16 763.42 685.15 763.42 685.15 763.43 683.98 764.14 683.9 764.34 684.63 766.03 684.31 766.45 685.92 766.78 687.66 766.38 690.16 766.88 691 766.74 695.37 766.59 697.84 767.34 699.57 768.35 700.64 767.39 703.08 766.66 704.15 766.69 705.96 766.23 704.79 765.32 705.66 764.29 705.13 763.92 705.81 762.56 706.9 762.14 710.21 761.8 711.91 761.79 713.41 762.18 713.45 762.17 714.38 761.66 716.08 762.03 716.68 762.55 718.05 762.45 719.14 762.89 719.19 763.4 719.63 763.64 719.98 764.94 720.33 765.14 722.32 765.23 722.95 765.57 723.25 765.6 723.81 765.47 725.69 764.42 728.06 764.08 734.37 764.89 734.88 764.8 735.47 764.23 735.46 763.66 734.56 762.74 734.09 760.67 734.22 757.75 734.93 756.15 735.18 752.95 734.96 752.11 734.58 751.88 733.17 751.49 732.56 750.93 732.35 750.27 732.48 750.08 731.46 750.23 730.62 749.52 730.54 748.71 732.95 747.64 732.59 747.03 729.41 745.92 728.48 745.36 728.2 744.32 726.19 744.3 723.76 743.98 721.67 743.97 712.58 742.76 704.1 743.07 699.32 742.56 694.73 743.49 693.94 743.27 691.95 743.23 690.69 742.95 689.87 742.44 687.46 742.54 687.24 742.37"/><path class="cls-13" d="M647.51,762.64l-1.06.15-1,.23.56.81h.38l.84-.72.23-.47m7.59-8.2h-.48l-.23.15-1.09.35-.16.13L649,756.6l-1.64.14-1.43.38,0,.82-1.29-.66-.88-.18-.47-.05-.8.3-.27-.15,0,0-.9.09-.85.44-.22,0-.09.14-2.54.69-1.87.43-.52.16-1.66,0h0l-2.16.59.05.09.14.06.34.15,1.2-.22,1.07.17,1-.11.65.29.16.07.86-.17.59.2,1.21-.19,0,0h0l.83.53,1.68.31h0l.1.23,1.73-.34,0,0h0l.63.33.46-.14,2.17.07,2.48.43.07,0,1.77-.66.87-.08.07-.32,1.73-.11-.62-.54,1.58-.25.53-.49-.4-.11h0l-.74-.9.44-.58-.69-.31.19-.55-.41-.17.65-.66-.86-.53,2.06-.23-.44-.4.44-.23"/><polyline class="cls-14" points="666.84 751.47 666.54 751.6 666.05 751.62 665.34 751.9 663.78 751.92 663.82 752.14 662.79 752.13 662.48 752.31 661.5 752.46 659.21 753.45 658.09 753.73 657.94 753.94 657.99 754.28 656.91 754.83 657.81 755.63 656 755.85 655.52 756.33 655.7 756.41 655.5 756.96 656.34 757.33 655.74 758.13 656.02 758.47 656.97 758.73 657.68 759.93 656.1 760.27 655.87 760.22 655.77 760.31 655.43 760.37 656.27 761.11 653.44 761.28 653.37 761.57 651.64 761.71 650.6 762.1 650.84 762.18 650.14 762.28 649.56 762.49 649.1 763.43 647.68 764.66 645.79 764.71 644.51 764.41 643.27 762.61 645.67 762.01 646 761.97 644.86 761.93 643.52 762.34 642.67 761.88 640.06 762.39 639.67 761.56 638.38 761.32 638.05 761.11 637.25 761.24 636.71 761.06 635.69 761.25 634.73 760.83 634.18 760.88 633.28 760.74 631.58 761.05 629.79 760.26 629.74 760.17 628.64 760.41 627.19 760.49 626.24 760.73 627.66 761.54 627.66 761.55 627.68 761.55 627.88 761.93 628.95 762.26 628.93 762.27 628.96 762.28 627.87 763.09 629 763.59 628.98 763.6 629.01 763.61 627.93 763.94 628.13 764.39 630.21 764.73 630.19 764.74 630.23 764.74 627.81 766.25 627.45 766.32 627.68 766.37 627.67 766.38 627.7 766.39 626.15 767.45 623.7 767.54 622.66 767.39 622.55 767.41 622.37 767.93 621.41 768.71 622.19 768.78 622.2 768.8 622.21 768.8 622.34 769.4 623.66 769.84 623.87 769.79 624.88 770.37 624.87 770.38 624.89 770.39 624.53 771.62 625.51 772.11 625.51 772.12 625.52 772.13 625.45 772.9 625.26 772.89 625.51 773.03 625.5 773.03 625.52 773.04 624.55 773.48 624.79 773.87 624.64 773.92 625.3 774.59 625.29 774.6 625.31 774.61 624.8 774.72 625.67 775.08 625.66 775.08 625.69 775.09 624.82 775.54 624.72 775.9 625.51 776.1 625.61 776.06 627.33 776.24 628.71 776.85 628.69 776.86 628.72 776.87 628.03 777.05 628.19 777.36 628.26 777.36 629.3 778.62 631.61 780.07 631.62 780.08 631.63 780.09 631.84 780.58 636.15 781.18 637.52 781.71 639.16 781.8 640.25 782.13 641.18 782.63 643.04 784.47 644.39 784.71 645.34 785.37 646.8 786.93 647.7 787.58 648.06 787.32 649.7 787.82 650.81 787.77 652.44 787.3 652.35 786.81 653.84 786.34 654.57 786.6 655.69 786.31 660.33 786.2 662.79 787.7 665.91 787.87 667.8 788.6 669.46 788.86 670.37 789.44 672.33 789.54 672.67 789.75 674.5 788.85 676.52 786.06 676.63 783.6 677.1 782.94 676.38 782 679.53 782.41 680.61 782.92 681.14 782.92 683.22 782.58 684.89 781.88 686.77 781.77 687.13 781.41 688.43 781.29 690.2 781.65 692.75 781.7 694.25 782.04 694.69 782.06 694.66 782.05 695.51 781.36 696.31 781.28 697.07 780.91 700.07 780.67 703.22 780.94 705.18 781.34 707.9 781.21 708.91 781.34 713.99 781.29 717.58 780.66 722.47 780.43 723.86 780.03 724.42 779.48 725.25 779.12 724.99 778.93 725.15 778.19 724.63 777.87 724.86 777.3 725.36 777.15 723.93 776.35 723.57 775.72 723.43 775.7 721.33 776.13 719.94 776.14 718.49 775.61 718.47 774.05 721.2 773.79 721.54 773.67 721.55 773.63 721.47 773.59 718.96 773.12 718.4 772.12 715.79 771.57 713.38 770.58 711.13 770.24 710.46 769.53 705.56 768.79 704.66 768.14 704.79 767.52 704.68 767.55 703.67 767.52 702.12 767.99 700.89 769.08 699.29 769.54 696.56 767.95 694.93 767.45 691.49 767.57 690.18 767.79 687.79 767.31 686.04 767.72 681.96 766.88 682.69 765.93 682 764.32 682.19 763.78 683.37 763.07 683.5 762.64 681.92 761.71 681.13 760.87 680.97 760.07 683.95 757.9 684.1 757.5 683.55 757.67 679.16 757.79 678.49 757.31 677.53 757.12 676.46 756.4 675.34 756.18 675.31 756.39 672.52 756.32 673.1 755.34 671.55 754.25 671.41 753.05 670.99 752.46 670.1 751.83 667.89 751.76 667.62 751.56 667.35 751.71 666.84 751.47"/><polyline class="cls-15" points="624.54 761.09 619.03 762.18 616.59 762.41 615.07 762.91 610.81 763.4 609.25 764.62 608.32 764.81 606.19 765.73 603.51 766.45 600.74 766.68 599.55 766.25 598.8 766.49 598.55 766.63 598.82 767 596.73 767.5 595.04 768.38 595.25 768.52 596.12 768.34 595.72 768.84 596.34 769.25 595.28 769.39 595.15 769.55 594.99 769.71 594.78 769.95 592.25 771.25 591.37 771.94 591.31 772.27 590.26 772.52 589.15 773.54 589.12 773.67 588.99 773.68 588.86 773.8 588.09 773.8 587.27 774.2 586.7 774.6 581.14 777.38 575.38 779.54 573.51 780.67 573.23 780.49 570.03 782.21 562.32 785.19 562.55 785.32 563.01 785.98 564.79 786.84 563.73 788.8 561.81 789.88 561.69 790.06 562.01 790.66 563.5 790.94 563.91 791.52 564.04 791.83 562.97 793.1 563.62 793.82 563.53 794.6 563.01 795.45 559.93 797.15 559.57 798.44 559.16 798.68 558.83 799.32 558.61 799.52 557.94 799.78 554.85 801.44 558.36 802.03 560.92 802.14 564.52 801.86 571.49 802.16 574.62 802.67 575.72 803.61 576.41 805.02 579.14 805.75 579.47 806.12 582.87 806.49 582.83 807.07 584.09 806.84 585.92 807.58 587.02 806.78 587.03 806.79 587.05 806.77 587.75 807.31 588.36 806.93 588.37 806.93 588.39 806.92 589.77 806.78 590.89 807.05 591.42 806.92 596.26 806.58 598.31 807.13 599.26 807.85 601.27 808.16 605.17 807.39 607.17 808.05 607.38 808.07 607.41 808.07 606.69 807.62 605.65 807.51 604.34 805.56 604.36 805.54 604.36 805.54 604.4 805.52 606.83 804.09 607.03 803.67 608.24 802.95 608.52 802.04 610.54 800.32 612.94 799.33 614.49 798.89 614.69 797.42 614.75 797.43 614.75 797.41 615.29 797.45 614.31 797.08 611.4 796.35 609.52 796.19 607.16 795.25 604.82 793.79 603.1 791.9 602.87 791.21 603.36 789.98 607.48 789.37 608.5 788.6 610.45 788.21 610.48 788.21 610.51 788.21 612.21 788.21 612.14 787.3 613.56 786.75 613.61 786.75 613.62 786.75 616.64 786.72 617.17 786.43 618.64 786.12 619.31 785.65 620.6 785.22 622.68 783.82 622.73 783.83 622.75 783.82 623.14 783.9 623.27 783.58 623.04 783.08 621.42 781.98 621.75 781.51 621.22 781.07 623.29 780.33 623.28 779.95 623.57 779.79 623.04 779.25 623.4 778.32 624.92 777.53 625.09 777.5 625.13 777.35 620.86 777.39 623.17 776.48 622.67 776.36 622.99 775.15 623.02 775.13 621.39 774.47 622.41 774.26 621.11 773.94 622.6 773.49 622.41 773.19 622.95 772.96 622.3 772.61 623.03 772.12 622.53 771.87 622.78 771.04 622.75 771.05 620.96 770.59 621.55 770.18 620.55 769.85 620.52 769.73 619.12 769.57 619.1 769.21 618.36 768.89 618.6 768.17 620 768.07 620.55 767.62 620.84 766.82 622.48 766.47 623.87 766.67 624.61 766.64 622.82 766.26 626.56 765.55 627.24 765.13 626.49 765.01 626.35 764.68 626.14 764.71 624.71 763.9 626.09 763.47 625.49 763.2 626.44 762.49 626.22 762.42 625.94 761.89 624.54 761.09"/><polyline class="cls-16" points="626.65 778.19 626.09 778.27 625.24 778.71 625.08 779.15 625.83 779.92 625.26 780.25 625.28 780.74 623.72 781.3 623.88 781.43 623.58 781.85 624.9 782.74 625.28 783.58 624.88 784.58 623.89 785 623.46 784.9 622.07 785.84 620.79 786.26 620.01 786.8 618.45 787.13 617.63 787.59 614.36 787.61 614.15 787.7 614.21 788.56 613.48 789.09 610.93 789.08 609.9 789.28 608.82 790.1 605.11 790.65 604.88 791.22 605.02 791.66 606.57 793.35 608.64 794.64 610.43 795.36 612.1 795.5 615.44 796.34 617.87 797.27 618.2 797.88 618.03 799.7 616.52 798.74 616.43 799.41 614.18 800.04 612.15 800.88 610.46 802.33 610.15 803.31 608.9 804.06 608.69 804.49 606.52 805.74 607.19 806.74 607.84 806.8 610.53 808.49 607.58 809.01 606.4 808.9 604.95 808.42 601.38 809.13 597.98 808.6 596.91 807.8 595.89 807.52 592.06 807.79 590.93 808.07 589.51 807.73 589.51 807.73 588.49 808.36 587.06 808.54 586.99 808.49 586.77 808.65 585.28 808.52 583.71 807.88 582.37 808.12 580.85 807.59 580.87 807.2 578.06 806.89 577.6 806.37 574.7 805.61 573.89 803.92 573.27 803.4 571.07 803.04 564.59 802.76 560.98 803.04 557.92 802.91 553.49 802.16 549.53 804.21 547.54 805.52 546.07 806.12 543.5 807.92 541.49 808.66 541.65 810.31 540.85 811.43 537.97 813.31 536.9 813.73 536.42 815.25 535.77 815.09 534.77 815.97 533.07 816.78 533 816.91 533.54 816.95 534.32 817.34 535 818.15 535.18 819.17 534.93 820.43 533.67 821.68 533.57 822.49 534.16 822.81 533.09 823.68 533.23 823.86 532.68 824.45 532.95 824.88 532.68 825.17 533.89 825.52 533.4 826.51 533.62 826.58 533.63 827.54 534.21 828.21 533.2 829.19 533.12 829.38 533.24 829.51 537.19 831.43 538.33 832.89 540 832.91 541.43 832.69 544.04 833.21 544.92 833.02 547.3 831.43 547.3 831.43 547.31 831.43 549.21 832.08 548.83 832.73 550.04 832.87 551.68 833.29 552.56 833.23 553.53 832.91 557.7 832.7 559.02 833.27 561.26 833.38 562.86 832.92 565.55 832.89 568.39 832.3 573.19 832.65 573.96 832.48 575.21 831.48 575.22 831.48 575.23 831.47 581.14 830.23 582.43 829.81 584.49 828.66 584.67 828.55 586.34 828.48 587.91 828.65 588.48 829.29 590.36 829.52 591.74 830.19 592.99 832.27 593.68 832.23 594.97 831.65 595.46 831.42 597.4 831.22 605.65 831.31 607.26 830.51 607.26 830.51 607.27 830.51 608.92 830.31 611.5 830.62 616.69 830.2 618.41 829.98 623.27 828.88 625.88 829.89 625.79 830.46 628.33 829.75 632.34 828.05 632.53 827.61 631.94 827.17 632.56 826.62 632.57 826.62 632.57 826.62 636.39 825.63 639.26 824.33 640.63 823.71 643.88 822.96 647.05 822.94 648.78 822.72 649.93 822.38 654.07 820.27 654.08 820.27 654.09 820.26 656.94 819.61 661.86 819.48 664.85 819.17 667.33 817.48 667.34 817.48 667.34 817.47 668.92 816.97 671.12 816.66 670.79 816.26 670.59 815.3 670.75 814.4 672.23 812.21 672.31 811.43 672.2 811.26 672 811.24 669.76 811.43 668.88 811.75 668.86 811.75 668.86 811.75 666.75 811.17 667.01 810.17 665.79 809.84 665.17 809.67 664.41 809.02 664.27 806.98 665.35 806.24 667.17 805.73 668.62 805.6 670.33 805.65 670.35 805.65 670.36 805.65 672.3 806.14 675.46 805.8 677.64 805.96 677.74 805.91 677.23 805.06 677.64 804.21 678.52 804.16 676.21 802.92 676.37 802.44 675.75 802.11 675.95 801.36 676.92 800.84 676.51 800.2 674.9 799.89 674.9 799.89 674.89 799.88 674.48 799.59 673.01 798.53 672.15 795.97 672.6 795.01 671.38 792.83 671.84 791.91 671.65 790.57 671.33 790.37 669.35 790.27 668.29 789.59 666.88 789.37 665.16 788.7 661.78 788.52 659.45 787.09 656.29 787.17 654.46 787.64 654.41 787.62 654.43 787.77 651.49 788.62 649.24 788.71 648.66 788.54 648.51 788.65 646.96 788.65 645.08 787.29 643.65 785.76 643.15 785.41 641.64 785.15 639.56 783.08 639 782.78 638.52 782.64 636.76 782.54 635.25 781.95 630.18 781.25 629.83 780.4 627.62 779.01 626.94 778.19 626.65 778.19"/><polyline class="cls-17" points="730.01 779.55 727 779.77 726.71 779.72 726.02 780.01 725.38 780.64 723.2 781.27 718.13 781.5 714.47 782.15 708.77 782.21 707.83 782.09 704.96 782.22 702.73 781.76 700.15 781.55 698.08 781.72 697.38 782.05 697.64 782.16 697.07 783.05 693.77 782.88 692.35 782.55 689.83 782.51 688.44 782.23 688.1 782.57 685.79 782.7 684.29 783.33 681.56 783.79 679.85 783.79 678.86 783.32 678.53 783.78 678.42 786.24 676.2 789.33 673.58 790.61 673.77 792.02 673.36 792.85 674.58 795.02 674.11 796.03 674.85 798.24 676.17 799.18 678.1 799.55 679.07 801.08 677.81 801.76 677.79 801.85 678.44 802.19 678.28 802.68 681.2 804.25 680.18 804.98 679.26 805.03 679.24 805.07 679.95 806.21 678.38 806.92 675.62 806.72 672.13 807.1 669.88 806.54 668.85 806.51 667.97 806.59 666.78 806.93 666.26 807.28 666.38 808.82 666.64 809.04 669.14 809.72 668.91 810.58 671.93 810.32 673.72 810.47 674.31 811.37 674.2 812.41 672.71 814.63 672.59 815.34 672.75 816.1 673.09 816.51 676.16 816.53 684.51 817.68 685.76 817.38 689.1 817.19 689.68 817.58 690.4 817.44 690.92 817.49 691.59 816.44 691.69 816.28 691.69 816.28 691.7 816.26 692.11 816.08 691.34 815.19 691.56 814.49 691.58 814.48 691.58 814.47 693.35 813.36 696.06 813.18 697.81 812.79 700.53 813.11 703.3 812.67 710.85 810.41 718.79 808.93 719.9 808.14 722.29 807.41 724.56 807.61 725.45 807.45 726.91 807.45 727.12 807.18 727.09 805.81 727.1 805.81 727.1 805.79 732.17 804.72 734.07 803.46 736.38 803.5 736.44 803.36 736.44 803.36 736.45 803.35 738.94 802.42 739.2 802.2 739.16 801.9 738.67 801.44 738.67 801.41 738.66 801.41 738.65 800.15 738.84 800.13 738.91 800.02 738.58 799.55 737.51 799.39 736.58 798.58 737.14 797.84 737.97 797.67 737.59 796.77 738.94 796.32 738.85 795.4 740.44 794.65 742.28 794.61 742.93 794.3 743.45 793.96 743.61 793.13 744.26 792.79 745.68 792.46 749.08 792.16 751.49 792.42 751.64 792.36 751.71 792.11 750.17 791.55 751.24 790.22 750.49 789.67 751.48 788.91 751.54 788.26 752.41 787.62 751.2 786.53 749.12 785.29 748.61 784.62 745.78 784.5 745.12 784.05 743.25 783.49 742.38 783.42 740.82 784.05 738.38 783.97 737.33 782.14 736.97 781.84 735.99 781.62 735.05 781.1 734.29 781.17 732.8 780.85 731.78 780 730.01 779.55"/><polyline class="cls-18" points="745.2 799.61 742.09 800.69 740.6 800.86 740.6 801.25 741.09 801.7 741.18 802.45 740.48 803.03 738.23 803.87 737.99 804.43 735.13 804.37 733.51 805.45 729.06 806.39 729.07 807.37 728.32 808.35 725.93 808.35 724.85 808.55 722.8 808.37 721.35 808.81 720.13 809.67 711.82 811.22 704.23 813.5 700.71 814.06 698.1 813.75 696.72 814.06 694.49 814.21 693.45 814.87 693.37 815.1 694.44 816.32 693.45 816.77 692.31 818.58 690.66 818.4 689.02 818.72 688.21 818.17 686.42 818.27 684.8 818.67 675.94 817.45 672.6 817.42 669.83 817.81 668.77 818.15 666.07 819.99 662.11 820.4 657.5 820.52 655.32 821.02 651.23 823.1 649.63 823.58 647.38 823.86 644.4 823.88 641.8 824.49 637.6 826.39 634.36 827.23 634.66 827.44 634.16 828.55 629.53 830.51 625.57 831.62 623.64 831.37 623.82 830.29 623.03 829.98 619.14 830.86 617.11 831.12 611.45 831.58 608.95 831.28 608.33 831.35 606.5 832.26 597.61 832.16 596.44 832.28 594.59 833.13 591.55 833.3 589.98 830.67 589.34 830.37 587.03 830.09 586.48 829.46 586.22 829.43 585.67 829.45 583.79 830.5 582.12 831.05 576.61 832.21 575.37 833.2 573.51 833.63 568.66 833.28 565.99 833.83 563.42 833.86 561.71 834.35 558.16 834.17 557.02 833.68 554.23 833.83 553.29 834.13 551.3 834.27 549.32 833.75 547.29 833.53 546.95 833.28 546.23 833.77 544.06 834.24 541.33 833.69 540.27 833.86 535.53 833.79 536.39 833.12 535.47 831.95 533.66 831.07 534.14 831.49 533.25 832.57 534.03 833 534.09 833.86 531.59 836.2 531.69 836.61 530.08 837.56 529.59 838.84 529.77 838.87 532.05 838.76 534.69 839.36 536.91 840.59 537.15 841.1 539.14 841.39 539.91 842.47 540.48 842.74 541.35 844.32 542.14 844.6 542.18 844.82 542.22 844.83 542.88 844.32 544.47 845.43 544.83 846.14 544.35 846.61 545.12 847.33 544.12 847.44 542.24 851.76 542.2 852.84 540.77 855.14 540.62 855.72 540.2 855.88 539.16 856.53 535.58 860.09 535.47 860.6 534.02 861.62 534.1 861.98 531.96 863.37 531.56 863.91 523.22 867.84 522.64 868.59 520.84 869.64 520.1 870.5 519.53 870.68 519.48 871.17 519.25 871.22 519.42 871.52 518.74 871.72 518.8 872 518.33 872.15 518.45 872.53 517.81 873.16 516.63 873.75 515.39 875.05 513.37 875.95 512 876.91 510.02 878.92 507.71 879.99 505.25 880.6 503.56 881.31 502.97 881.87 499.58 883.72 499.31 884.39 498.17 884.66 497.72 885.19 499.47 885.88 500.03 885.94 501.84 885.75 505.54 885.97 507.85 886.11 510.56 885.84 510.58 885.84 510.61 885.84 512.58 886.13 513.26 886.74 513.47 886.79 514.45 886.73 520.28 884.64 522.8 884.24 522.8 884.24 522.86 884.23 525 884.53 526.54 884.22 526.88 884.06 529.23 880.96 531.26 879.79 533.13 879.51 533.13 879.51 533.18 879.51 535.76 879.62 537.9 880.55 539.18 881.71 541.22 881.56 542 881.75 542.13 881.73 544.95 881.36 548.45 880.46 550.93 880.23 552.59 880.08 554.25 879.41 555.49 878.22 555.53 878.22 555.54 878.21 558.59 877.82 560.22 878.17 562.64 878.13 565.24 878.83 566.17 880 566.85 880.43 568.36 877.33 570.39 875.31 571.99 874.76 573.06 874.47 576.77 874.74 580.18 874.71 581.58 874.35 593.27 872.65 593.53 872.41 593.35 872.2 591.58 871.57 591.58 871.57 591.55 871.56 590.23 870.05 590.36 866.26 590.96 865.1 592.72 863.75 594.58 862.8 594.7 862.35 594.23 862.33 591.64 862.82 591.6 862.81 591.59 862.81 589.83 862.07 589.67 860.15 592.09 859.09 594.35 858.8 596.98 858.85 598.65 859.07 598.66 859.07 598.69 859.08 607.39 861.14 608.56 861.12 609.2 860.93 610.17 860.28 611.87 858.16 613.94 857.29 615.58 857.12 615.59 857.12 615.61 857.11 617.53 857.32 623.8 859.45 627.31 860.17 628.85 860.31 629.43 860.1 629.45 860.1 629.46 860.1 631.95 859.79 635.35 858.03 637.91 857.21 637.91 857.21 637.93 857.2 640.44 857.03 644.5 857.61 647.08 857.66 647.52 857.54 648.18 857.14 648.22 856.92 646.39 853.16 646.56 852.43 648.21 850.78 650.34 849.87 650.49 849.81 651.52 849.52 653.41 849 653.42 849 653.43 849 657.73 850.31 658.35 850.5 658.51 850.59 659.39 851.09 659.98 851.63 660.03 851.68 660.05 851.72 660.64 853.22 661.79 853.76 664.13 853.96 671.92 854.13 672.57 853.9 673.25 851.83 675.53 849.06 677.85 847.8 678.15 847.64 678.38 847.6 679.38 847.42 682 847.61 687.1 848.71 689.27 848.71 691.82 847.99 693.08 847.81 695.39 846.16 696.95 845.46 697.13 845.37 697.14 845.37 697.15 845.37 698.61 845.1 700.46 845.05 703.56 845.83 706.17 847.1 715.16 853.4 717.77 856.02 718.6 860.6 717.76 863.17 718.32 865.63 717.89 868.3 718.67 870.25 718.66 870.38 723.4 870.29 725.57 870.43 726.08 870.35 726.05 870.11 730.13 869.92 735.6 870.5 736.83 870.2 738.04 870.22 741.16 869.7 745.16 869.53 745.99 869.17 749.93 868.94 753.33 869.42 755.25 870.08 755.25 870.86 754.26 871.66 754.24 871.85 754.53 871.84 756.29 871.04 758.99 872.33 760 872.41 761.26 872.77 762.78 872.75 762.23 872.37 763.95 872 773.55 864.54 774.03 863.83 773.46 862.61 775.68 860.53 777.37 859.99 777.92 859.46 783.37 857.33 783.62 857.29 781.89 855.34 781.25 855.18 779.39 854.06 778.65 852.76 777.77 852.05 777.73 849.69 776.96 845.94 777.3 844.42 776.49 839.79 773.63 838.11 773.28 837.53 771.63 836.63 768.35 834.24 766.93 831.86 766.66 830.93 767.66 827.23 768.15 822.84 769.97 820.41 770.85 818.32 770.82 816.73 770.38 815.97 769.75 815.39 768.27 814.68 767.14 814.37 763.02 813.78 758.73 812.62 757.16 811.42 756.62 811.23 749.69 810.37 746.1 810.77 741.83 810.49 740.44 809.87 741.13 808.64 752.11 802.84 753.02 801.82 752.86 801.73 745.86 799.63 745.2 799.61"/><polyline class="cls-19" points="418.83 913.82 414 914.82 412.41 915.11 401.89 917.8 392.98 918.9 391.62 918.89 373.69 920.78 359.4 921.7 356.92 922.06 354.16 922.13 353.79 922.28 353.31 922.75 352.05 923.04 351.68 923.47 350.64 923.99 348.7 926.62 347.47 927.09 345.95 928.51 344.33 929.17 341.77 929.66 338.91 930.54 336.93 932.58 334.39 936.48 330.63 940.76 329.32 941.79 329.01 942.47 322.02 947.78 321.23 949.54 320.94 949.86 321.13 950.28 320.17 951.21 320.15 951.37 316.98 954.64 314.88 957.64 312.47 960.16 309.41 962.59 306.37 964.14 302.39 965.68 287.34 970.13 283.53 971.71 276.86 973.03 271.23 973.34 269.84 974.56 266.98 976.23 261.26 978.47 256.84 978.95 251.72 982.08 250.6 983.12 251.19 984.2 250.52 986.46 249.45 988.23 244.03 993.28 240.51 995.6 239.16 996.13 236.66 999.72 235.1 1001.26 234.85 1002.46 233.67 1004.02 231.72 1005.67 227.17 1008.55 226.46 1010.09 223.64 1012.89 223.41 1014.43 221.8 1016.15 221.94 1017.68 221.09 1018.96 221.39 1019.87 221.12 1020.29 221.52 1020.45 222.02 1021.68 220.95 1024.59 220.13 1025.7 220.13 1027.03 215.42 1032.3 214.91 1033.19 214.86 1034.88 209.88 1037.06 207.63 1037.65 207.19 1038.4 210.73 1038.72 217.53 1040.33 218.87 1040.65 219.21 1040.79 220.9 1041.47 223.83 1044.4 225.27 1044.89 226.8 1045.08 234.61 1044.39 248.19 1042.53 249.13 1042.5 261.89 1042.12 278.12 1044.26 282.56 1045.32 284.97 1045.65 295.85 1044.04 300.88 1042.82 310.08 1041.06 321.33 1040.5 339.61 1042.55 352.44 1045.07 357.59 1045.08 372.42 1043.34 382.96 1043.34 386.08 1043.77 388.76 1043.45 395.87 988.35 369.73 988.41 369.32 984.76 368.51 982.99 368.25 980.83 367.54 978.86 366.35 977.76 366.23 976.18 364.6 973.07 364.25 971.72 364.65 970.21 366.28 967.7 369.78 964.49 375.51 961.2 381.68 958.26 385.39 956.02 390.08 950.74 393.44 947.88 396.81 942.16 399.65 938.95 408.12 933.08 412.93 931.01 416.34 929.99 427.27 930.01 426.68 927.66 429.75 927.25 432.4 927.27 429.22 925.2 426.75 922.96 425.21 920.14 421.5 918.07 418.83 913.82"/><polyline class="cls-20" points="700.11 846.02 699.13 846.05 698.3 846.2 696.96 846.81 694.39 848.64 692.7 848.88 689.9 849.68 686.75 849.68 681.5 848.54 679.68 848.41 679.36 848.47 677.29 849.59 675.21 852.12 674.45 854.47 672.62 855.12 663.87 854.93 660.85 854.66 658.76 853.68 658.11 851.98 657.71 851.62 657.03 851.23 653.42 850.13 651.7 850.61 649.87 851.39 648.53 852.73 648.44 853.13 650.26 856.87 650.16 857.54 648.88 858.31 647.63 858.65 644.18 858.59 640.31 858.03 638.69 858.15 636.69 858.79 633.04 860.68 630.35 861.01 629.35 861.37 626.73 861.12 622.81 860.32 616.7 858.23 615.61 858.12 614.9 858.19 613.59 858.75 611.97 860.76 610.63 861.67 609.19 862.1 606.96 862.13 597.95 859.99 596.68 859.83 594.59 859.79 593.11 859.98 591.74 860.58 591.82 861.61 591.98 861.67 593.85 861.32 596.03 861.38 596.86 861.96 596.51 863.25 594.34 864.37 592.85 865.5 592.4 866.39 592.29 869.86 593.21 870.91 595.02 871.56 595.78 872.48 594.68 873.5 582.36 875.29 580.71 875.71 576.64 875.75 573.44 875.52 573.03 875.63 572 875.98 570.31 877.68 568.23 881.97 566.22 881.97 566.04 881.61 564.31 880.5 563.56 879.55 562.11 879.16 559.78 879.19 558.37 878.89 556.9 879.08 555.89 880.05 553.47 881.03 549.12 881.43 545.69 882.32 541.72 882.84 540.83 882.62 538.69 882.78 537.61 882.5 536.19 881.21 534.82 880.62 533.3 880.54 532.41 880.68 531.03 881.48 528.64 884.63 527.66 885.09 525.07 885.62 522.8 885.31 521.2 885.56 515.21 887.71 512.95 887.86 511.64 887.49 511.11 887 510.42 886.9 507.86 887.15 501.87 886.79 499.97 886.98 498.48 886.83 496.32 885.97 493.12 887.82 486.41 890.07 477.36 892.63 464.77 895.89 462.87 896.21 461.48 896.67 461.44 896.91 458.79 898.54 457.65 898.82 455.75 899.84 453.19 900.74 450.76 902.23 447.69 903.42 445.32 904.82 445.34 905.18 442.87 906.28 441.74 907.37 439.66 908.25 438.37 909.56 434.96 910.65 436.9 912.01 432.31 911.32 432.3 911.27 428.24 912.13 427.85 912.17 425.81 912.47 420.86 913.44 423.4 917.48 427.14 919.57 428.74 922.5 431.06 924.6 436.94 928.4 429.89 928.35 429.06 928.46 429.72 931.11 416.8 931.09 414.1 931.9 409.66 933.82 401.51 939.47 398.84 942.5 395.44 948.28 391.96 951.24 387.23 956.6 383.14 959.06 376.97 962 371.54 965.12 368.3 968.11 366.82 970.39 366.49 971.63 366.8 972.78 368.45 975.9 368.56 977.35 369.67 978.37 370.48 980.62 370.73 982.72 371.55 984.49 371.86 987.21 397.14 987.15 594.28 987.09 593.23 896.95 605.17 894.24 612.71 890.55 620.79 887.33 622.28 887.3 626.05 885.84 631.99 884.08 632.32 883.65 633.83 882.81 638.67 881.39 641.84 879.99 647.59 878.64 649.08 878.45 649.31 878.49 650.08 877.88 649.93 877.06 652.12 876.18 658.12 876.55 662.6 876.05 663.48 876.08 664.14 875.79 666.28 875.48 671.25 872.95 676.43 871.73 679.15 871.74 683.7 872.59 685.5 872.27 687 872.58 689.76 872.49 691.2 872.89 693.17 872.96 694.45 873.42 697.08 873.58 697.67 873.49 699.48 872.34 701.25 871.97 704.51 871.84 705.25 871.5 710.13 871.76 710.57 871.46 713.67 870.57 715.13 870.41 716.58 870.52 716.61 870.26 715.83 868.3 716.26 865.59 715.7 863.09 716.54 860.51 715.78 856.23 713.38 853.82 704.63 847.69 702.4 846.6 700.11 846.02"/><path class="cls-21" d="M137.49,1072l-.1,0-.09.2.19-.24m68.55-32.4-.42.61-1.57.69-6.81,1.43-2.64.78-5.35,2.69-6.67,4.3-6,2.35-6.33,3.32-1,.32-1.14,1-2.71.94-.28.23.39.45-1.93,1.27-5.15,1.85-1.93.51-1.8,2,.38,1.1L153,1066.9l.51-.19.56,1.7-1.9.65-1.06,1.16-2.52,1-1.73,1.57-2.42,1.4-1.23,1.11-1.26.72-.88.17-2.61,2.39-1.16.36-1.56,1.14-1.51.44.86,1.1-3,2.76-2.43,1.56-3.68,1.65.17.61-4.63,3.19-.18.9-1.15,1-3.37,2-1.69.57-.28.26h0l1.65.71.85,1,.12,1.25-1,1.84-2.45,1.81-3.47,1.66-5,1.07-.11,0-.42.53.5.08-.11,1.29-4.29,3.27-.76,1.14-.93,3.17-1.16,1-1,2-2.57,1.5-2.92,1-.69.56-.2.78-1.2,1-1.4,2.83-1.91,1.51-1,.41-.31,1.07-4.67,1.65-4.56.88-2.84.15-.79-1.1-.75,0-.8.34-1.48,1.09-3.84,1.53-.2.2.21.64-1,1-2.33.59-6.55,7.07-2.15,1.8-.06.84-1,1.2-4.84,3-.77,1.48.79.13-.37,1.21L44.46,1154l-.29,2.31-1.54,2.26-.51,2.12-6.85,10-.24,1.59-3.16,4.62.11,1-2.76,3.75-.17.52,2.5-2,8-10.12,2.37-.26H42l132.3-.59,130.68.56.85-58.33.94-2.39,5-8.48,3.34-3.72,6.63-5.24.06,0,7.71-4.67,6.57-2.47,48-2.6,4.54-37-2.72.32-3.36-.46h-10l-14.85,1.74h-5.79l-13.12-2.59-17.76-2-10.62.53-8.87,1.69-5.16,1.25L284.74,1047l-3.23-.45-4.43-1-15.67-2.07-13.14.4-13.52,1.85-8.33.74-2.29-.3-2.15-.73-3-3-1.51-.61-7.71-1.83-3.75-.33"/><path class="cls-22" d="M920.08,705.07a32.66,32.66,0,0,0-5.68-17.52,29.39,29.39,0,0,0-14.2-11.12,27,27,0,0,0-10.05-1.62,27.24,27.24,0,0,0-10,1.6,29.42,29.42,0,0,0-14.21,11.14,32.74,32.74,0,0,0-5.7,17.53,32,32,0,0,0,1.87,11.6c2.27,6.28,11.36,19.49,18.23,29.49,2.33,3.37,4.39,6.37,5.83,8.58l.17.25.16.25v0c1.42,2.1,2.68,2.89,4.18,2.62,1.33-.22,2.27-1.28,3.38-3,1.41-2.17,3.47-5.18,5.8-8.57,6.9-10,16.09-23.36,18.38-29.68A32.13,32.13,0,0,0,920.08,705.07ZM904.39,720a20.22,20.22,0,1,1,5.9-14.28A20,20,0,0,1,904.39,720Z"/><path class="cls-23" d="M865.48,763.59c-7-2.13-11.34-5.33-11.34-9.13s4.34-7,11.34-9.12q.46-.15,1-.27a1.95,1.95,0,0,1,1.57,3.49h0l-1.44.4c-5.33,1.62-8.63,3.58-8.63,5.5s3.3,3.88,8.63,5.51c13,3.94,34.1,3.94,47.13,0,5.33-1.63,8.63-3.59,8.63-5.51s-3.3-3.88-8.63-5.5c-.46-.14-1-.27-1.43-.4h0a2,2,0,0,1,1.58-3.49c.32.08.64.17.95.27,7,2.12,11.35,5.33,11.35,9.12s-4.34,7-11.35,9.13c-13.81,4.18-35.52,4.18-49.32,0Z"/><path class="cls-5" d="M900.21,715.79a14.28,14.28,0,1,1,4.17-10.09A14.18,14.18,0,0,1,900.21,715.79Z"/><path class="cls-24" d="M86.22,542.82c0,1.41,0,2.8.1,4.17"/><path class="cls-25" d="M87.22,555.32c26.42,159.5,567.43,53.83,612.22,105.61"/><path class="cls-26" d="M701.63,664.49a11,11,0,0,1,.76,4.07"/><path class="cls-27" d="M330.89,542.82a23.64,23.64,0,0,0,.37,4.15"/><path class="cls-28" d="M334,554.64C368.47,616,674.88,603,700.66,660.53"/><path class="cls-29" d="M702,664.42a19.52,19.52,0,0,1,.44,4.14"/><path class="cls-30" d="M569.17,542.82a35.37,35.37,0,0,0,.24,4.16"/><path class="cls-31" d="M571.3,554.82c16.35,43.66,121.35,48,130.46,105.55"/><path class="cls-32" d="M702.23,664.39c.11,1.36.16,2.75.16,4.17"/><path class="cls-33" d="M775.59,542.82a20,20,0,0,1-.45,4.14"/><path class="cls-34" d="M772.67,553.84c-5.32,11-16.37,22-19.84,34.89"/><path class="cls-35" d="M752.07,592.31a28.56,28.56,0,0,0-.31,4.15"/><path class="cls-36" d="M654.07,832.77c0,1.42,0,2.81.16,4.17"/><path class="cls-37" d="M655.57,845.31c20.17,80.9,237.83,63.17,248.41,172.42"/><path class="cls-38" d="M904.29,1022q.09,2.06.09,4.17"/><path class="cls-39" d="M589.83,874.58q0,2.11.06,4.17"/><path class="cls-40" d="M590.46,887.31c9.68,92.19,126.85,44.4,133.93,130.39"/><path class="cls-41" d="M724.65,1022c.05,1.36.08,2.75.08,4.17"/><path class="cls-42" d="M424.59,971c0,1.44.05,2.83.16,4.17"/><path class="cls-43" d="M426.15,983.06c14.73,50.74,128.75-1.71,142.21,35"/><path class="cls-44" d="M569.35,1022a27.08,27.08,0,0,1,.3,4.15"/><path class="cls-45" d="M915.18,544.91a8.51,8.51,0,0,1-1.34,3.9"/><path class="cls-46" d="M908.73,555.61c-22,24.92-93.36,77.12-109.3,101.08"/><path class="cls-47" d="M797.32,660.39a10,10,0,0,0-1.06,4"/><path class="cls-48" d="M1072.86,544.91a6.27,6.27,0,0,1-1.84,3.65"/><path class="cls-49" d="M1064.75,554.25C1033,578.8,918,633.23,894.38,657.32"/><path class="cls-50" d="M891.64,660.56a7.17,7.17,0,0,0-1.5,3.83"/><path class="cls-51" d="M911.5,1035.36a10.08,10.08,0,0,0-17.2,7.14,10.09,10.09,0,0,0,10.08,10.11,10.11,10.11,0,0,0,7.12-17.25Zm-3.15,11.13a5.61,5.61,0,0,1-8,0,5.66,5.66,0,0,1,0-8,5.62,5.62,0,0,1,9.59,4A5.66,5.66,0,0,1,908.35,1046.49Z"/><path class="cls-51" d="M731.84,1035.36a10,10,0,0,0-7.11-3,10.11,10.11,0,1,0,7.11,3Zm-3.15,11.13a5.6,5.6,0,0,1-7.94,0,5.64,5.64,0,0,1,4-9.62,5.63,5.63,0,0,1,5.61,5.63A5.62,5.62,0,0,1,728.69,1046.49Z"/><path class="cls-51" d="M576.78,1035.36a10.09,10.09,0,0,0-17.21,7.14,10.11,10.11,0,0,0,10.09,10.11,10.11,10.11,0,0,0,7.12-17.25Zm-3.16,11.13a5.6,5.6,0,0,1-7.94,0,5.66,5.66,0,0,1,0-8,5.63,5.63,0,0,1,7.94,8Z"/><text class="cls-52" transform="translate(981.27 493.88)">Oriental region</text><text class="cls-53" transform="translate(1032.02 457.53)">24</text><path class="cls-51" d="M1080,517.23a10.08,10.08,0,0,0-17.2,7.14,10.09,10.09,0,0,0,10.08,10.11,10.11,10.11,0,0,0,10.07-10.11A10.09,10.09,0,0,0,1080,517.23Zm-3.15,11.13a5.66,5.66,0,1,1,1.64-4A5.66,5.66,0,0,1,1076.84,528.36Z"/><text class="cls-52" transform="translate(882.85 493.88)">Saiss</text><text class="cls-53" transform="translate(874.33 457.53)">32</text><path class="cls-51" d="M922.29,517.23a10.1,10.1,0,1,0,3,7.14A10,10,0,0,0,922.29,517.23Zm-3.15,11.13a5.64,5.64,0,1,1,0-8,5.66,5.66,0,0,1,0,8Z"/><text class="cls-52" transform="translate(739.7 493.88)">North</text><text class="cls-53" transform="translate(734.75 457.53)">25</text><path class="cls-51" d="M782.71,517.23a10.1,10.1,0,1,0,3,7.14A10,10,0,0,0,782.71,517.23Zm-3.15,11.13a5.64,5.64,0,1,1,0-8,5.66,5.66,0,0,1,0,8Z"/><path class="cls-51" d="M576.28,517.23a10,10,0,0,0-14.24,0,10.11,10.11,0,0,0,7.13,17.25,10.1,10.1,0,0,0,7.11-17.25Zm-3.15,11.13a5.64,5.64,0,1,1,1.65-4A5.62,5.62,0,0,1,573.13,528.36Z"/><path class="cls-51" d="M338,517.23a10.08,10.08,0,0,0-17.2,7.14,10.09,10.09,0,0,0,10.08,10.11,10,10,0,0,0,7.12-3,10.09,10.09,0,0,0,0-14.28Zm-3.15,11.13a5.66,5.66,0,1,1,1.64-4A5.59,5.59,0,0,1,334.87,528.36Z"/><text class="cls-52" transform="translate(817.32 1155.8)">Rabat-Kenitra</text><text class="cls-53" transform="translate(863.54 1119.44)">44</text><text class="cls-52" transform="translate(694.37 1155.8)">Sous</text><text class="cls-53" transform="translate(683.89 1119.44)">31</text><text class="cls-52" transform="translate(476.65 1155.8)">South  Center<tspan x="6.14" y="25.53">of the country</tspan></text><text class="cls-53" transform="translate(528.82 1119.44)">34</text><path class="cls-51" d="M93.33,517.23a10.1,10.1,0,1,0,3,7.14A10,10,0,0,0,93.33,517.23Zm-3.15,11.13a5.64,5.64,0,1,1,0-8,5.66,5.66,0,0,1,0,8Z"/><text class="cls-52" transform="translate(509.03 494.41)">Casa East</text><text class="cls-53" transform="translate(528.33 458.05)">47</text><text class="cls-52" transform="translate(257.36 494.41)">Casa Center</text><text class="cls-53" transform="translate(290.06 458.05)">33</text><text class="cls-52" transform="translate(16.92 494.41)">Casa South</text><text class="cls-53" transform="translate(45.38 458.05)">37</text><path class="cls-54" d="M826.2,706a32.65,32.65,0,0,0-5.68-17.51,29.46,29.46,0,0,0-14.2-11.13,32,32,0,0,0-20.09,0A29.36,29.36,0,0,0,772,688.46a32.71,32.71,0,0,0-5.7,17.53,32,32,0,0,0,1.87,11.6c2.27,6.27,11.36,19.49,18.23,29.49,2.33,3.36,4.39,6.37,5.83,8.58l.17.24.16.26v0c1.42,2.1,2.68,2.9,4.18,2.63,1.33-.23,2.27-1.28,3.38-3,1.41-2.17,3.47-5.17,5.8-8.57,6.9-10,16.09-23.36,18.38-29.67A32.18,32.18,0,0,0,826.2,706Zm-15.69,14.92a20.21,20.21,0,1,1,5.9-14.28A20.08,20.08,0,0,1,810.51,720.89Z"/><path class="cls-55" d="M771.6,764.5c-7-2.13-11.34-5.34-11.34-9.14s4.34-7,11.34-9.12c.31-.09.63-.19,1-.27a1.95,1.95,0,0,1,1.57,3.49h0l-1.44.41c-5.33,1.61-8.63,3.58-8.63,5.49s3.3,3.88,8.63,5.51c13,4,34.1,4,47.13,0,5.33-1.63,8.63-3.58,8.63-5.51s-3.3-3.88-8.63-5.49l-1.43-.41h0A2,2,0,0,1,820,746c.32.08.64.18.95.27,7,2.13,11.35,5.34,11.35,9.12s-4.34,7-11.35,9.14c-13.81,4.17-35.52,4.17-49.32,0Z"/><path class="cls-5" d="M806.33,716.7a14.3,14.3,0,1,1,4.16-10.09A14.18,14.18,0,0,1,806.33,716.7Z"/><path class="cls-56" d="M732.14,705.2a32.75,32.75,0,0,0-5.69-17.51,29.46,29.46,0,0,0-14.2-11.13,32.24,32.24,0,0,0-20.09,0A29.46,29.46,0,0,0,678,687.69a32.74,32.74,0,0,0-5.7,17.53,32,32,0,0,0,1.87,11.6c2.27,6.28,11.36,19.49,18.23,29.49,2.33,3.37,4.39,6.37,5.84,8.58l.16.24.16.26v0c1.42,2.11,2.68,2.9,4.18,2.63,1.33-.23,2.28-1.28,3.38-3,1.42-2.16,3.48-5.17,5.81-8.56,6.89-10,16.08-23.36,18.37-29.68A32.2,32.2,0,0,0,732.14,705.2Zm-15.7,14.92a20.22,20.22,0,1,1,5.9-14.28A20.08,20.08,0,0,1,716.44,720.12Z"/><path class="cls-57" d="M677.53,763.73c-7-2.13-11.34-5.34-11.34-9.14s4.34-7,11.34-9.12c.31-.09.64-.19,1-.27a2,2,0,0,1,1.58,3.49h0l-1.45.41c-5.33,1.61-8.63,3.58-8.63,5.49s3.3,3.88,8.63,5.51c13,3.95,34.1,3.95,47.13,0,5.33-1.63,8.64-3.58,8.64-5.51s-3.31-3.88-8.64-5.49l-1.43-.41h0a1.93,1.93,0,0,1-.64-2.4,2,2,0,0,1,2.22-1.09c.32.08.64.18,1,.27,7,2.13,11.35,5.34,11.35,9.12s-4.34,7-11.35,9.14c-13.8,4.17-35.52,4.17-49.32,0Z"/><path class="cls-5" d="M712.26,715.93a14.28,14.28,0,1,1,4.17-10.09A14.17,14.17,0,0,1,712.26,715.93Z"/><path class="cls-58" d="M681.61,754.8a32.75,32.75,0,0,0-5.69-17.51,29.42,29.42,0,0,0-14.2-11.13,32,32,0,0,0-20.08,0,29.38,29.38,0,0,0-14.22,11.14,32.62,32.62,0,0,0-5.69,17.53,31.62,31.62,0,0,0,1.87,11.6c2.26,6.27,11.36,19.49,18.23,29.49,2.33,3.36,4.39,6.37,5.83,8.58l.16.24.16.26,0,0c1.41,2.1,2.68,2.9,4.17,2.63s2.28-1.28,3.38-3c1.42-2.17,3.48-5.17,5.81-8.57,6.9-10,16.09-23.36,18.38-29.67A32.4,32.4,0,0,0,681.61,754.8Zm-15.7,14.92a20.22,20.22,0,1,1,5.9-14.28A20.08,20.08,0,0,1,665.91,769.72Z"/><path class="cls-59" d="M627,813.33c-7-2.13-11.35-5.34-11.35-9.14s4.34-7,11.35-9.12c.31-.09.63-.19,1-.27a2,2,0,0,1,1.58,3.49h0l-1.44.41c-5.34,1.61-8.64,3.58-8.64,5.49s3.3,3.88,8.64,5.51c13,3.95,34.1,3.95,47.12,0,5.34-1.63,8.64-3.58,8.64-5.51s-3.3-3.88-8.64-5.49c-.45-.14-.94-.27-1.42-.41h0a1.95,1.95,0,0,1,1.57-3.49c.33.08.65.18,1,.27,7,2.13,11.34,5.34,11.34,9.12s-4.34,7-11.34,9.14c-13.81,4.17-35.53,4.17-49.32,0Z"/><path class="cls-5" d="M661.73,765.53a14.28,14.28,0,1,1,4.17-10.09A14.17,14.17,0,0,1,661.73,765.53Z"/><path class="cls-60" d="M618,800.76a32.65,32.65,0,0,0-5.68-17.51,29.46,29.46,0,0,0-14.2-11.13,32.24,32.24,0,0,0-20.09,0,29.46,29.46,0,0,0-14.21,11.14,32.74,32.74,0,0,0-5.7,17.53,32,32,0,0,0,1.87,11.6c2.27,6.28,11.36,19.49,18.23,29.49,2.33,3.37,4.39,6.37,5.83,8.58l.17.24.16.26v0c1.42,2.1,2.68,2.89,4.18,2.62,1.33-.23,2.28-1.28,3.38-3,1.41-2.16,3.48-5.17,5.81-8.56,6.89-10,16.08-23.36,18.37-29.68A32,32,0,0,0,618,800.76Zm-15.69,14.92a20.22,20.22,0,1,1,5.9-14.28A20.08,20.08,0,0,1,602.27,815.68Z"/><path class="cls-61" d="M563.36,859.29c-7-2.13-11.34-5.34-11.34-9.14s4.34-7,11.34-9.12l1-.27a2,2,0,0,1,1.58,3.49h0l-1.45.41c-5.33,1.61-8.63,3.58-8.63,5.49s3.3,3.88,8.63,5.51c13,4,34.1,4,47.13,0,5.33-1.63,8.63-3.58,8.63-5.51s-3.3-3.88-8.63-5.49l-1.43-.41h0a1.94,1.94,0,0,1-.65-2.4,2,2,0,0,1,2.23-1.09c.32.08.64.18.95.27,7,2.13,11.35,5.34,11.35,9.12s-4.34,7-11.35,9.14c-13.81,4.17-35.52,4.17-49.32,0Z"/><path class="cls-5" d="M598.09,811.49a14.28,14.28,0,1,1,4.17-10.09A14.17,14.17,0,0,1,598.09,811.49Z"/><path class="cls-62" d="M454.54,898.12a32.75,32.75,0,0,0-5.69-17.51,29.42,29.42,0,0,0-14.2-11.13,32,32,0,0,0-20.08,0,29.38,29.38,0,0,0-14.22,11.14,32.71,32.71,0,0,0-5.7,17.53,31.84,31.84,0,0,0,1.88,11.6c2.26,6.27,11.35,19.49,18.22,29.49,2.34,3.36,4.4,6.37,5.84,8.58l.16.24.16.26v0c1.42,2.1,2.69,2.9,4.18,2.63,1.34-.23,2.28-1.28,3.38-3,1.42-2.17,3.48-5.17,5.81-8.57,6.9-10,16.08-23.36,18.38-29.67A32.4,32.4,0,0,0,454.54,898.12ZM438.84,913a20.22,20.22,0,1,1,5.9-14.28A20.08,20.08,0,0,1,438.84,913Z"/><path class="cls-63" d="M399.94,956.65c-7-2.13-11.35-5.34-11.35-9.14s4.34-7,11.35-9.12c.31-.09.63-.19.95-.27a2,2,0,0,1,1.58,3.49h0L401,942c-5.34,1.61-8.64,3.58-8.64,5.49s3.3,3.88,8.64,5.51c13,4,34.09,4,47.12,0,5.34-1.63,8.64-3.58,8.64-5.51s-3.3-3.88-8.64-5.49l-1.43-.41h0a2,2,0,0,1,1.58-3.49l1,.27c7,2.13,11.34,5.34,11.34,9.12s-4.34,7-11.34,9.14c-13.81,4.17-35.53,4.17-49.32,0Z"/><path class="cls-5" d="M434.66,908.85a14.28,14.28,0,1,1,4.17-10.09A14.17,14.17,0,0,1,434.66,908.85Z"/><path class="cls-64" d="M1161.05,1338v52.63H316.3v-53.36c.06-2.27,0-3.71-.8-5.07h0a6.26,6.26,0,0,0-1.46-2,.45.45,0,0,0,0,.11,6.69,6.69,0,0,0-.88-.79c-1.13-.8-11.93-7.47-21.84-13.57h841.87c8.63,5.31,24.14,14.61,25.13,15.3a5.57,5.57,0,0,1,.76.69s0-.06,0-.09a5.34,5.34,0,0,1,1.27,1.74h0C1161.09,1334.77,1161.11,1336,1161.05,1338Z"/><path class="cls-65" d="M313.9,1333.59h0a5.34,5.34,0,0,0-1.27-1.74s0,.06,0,.09a5.57,5.57,0,0,0-.76-.69c-1-.69-16.5-10-25.13-15.3H4.12c3.18,2,7.09,4.36,7.46,4.63a3,3,0,0,1,.27.23s0,0,0,0l.1.12a.39.39,0,0,1,.08.1,1.56,1.56,0,0,1,.25.38h0a2.27,2.27,0,0,1,.24,1.3v.21h0v3.55a2.2,2.2,0,0,1-.93,2.16c-.64.44-11.44,7.08-11.57,7.16v54.86H314.59V1338C314.65,1336,314.63,1334.77,313.9,1333.59Z"/><path class="cls-66" d="M9,1321.49c-.5-.35-9-5.54-9-5.54v5.27l9.48,5.86a2.62,2.62,0,0,0,.19-1.18c0-.43,0-2.74,0-2.74A1.84,1.84,0,0,0,9,1321.49Z"/><path class="cls-51" d="M9.49,1322.11h0a1.39,1.39,0,0,0-.34-.46c.15.45.07.57-.13.74l-.89.55L8,1323,0,1328v5.28s8.46-5.2,9-5.54a1.7,1.7,0,0,0,.72-1.67v-2.75a2,2,0,0,0-.19-1.17"/><g class="cls-67"><path class="cls-68" d="M.06,1424.88a4.59,4.59,0,0,0,.43,2.75h0a3.3,3.3,0,0,0,.79,1.09.15.15,0,0,1,0-.06,4.9,4.9,0,0,0,.47.43c.56.39,8.51,5.16,14,8.52h1147v-41.14H0Z"/></g><g class="cls-67"><path class="cls-69" d="M.06,1477.21A4.62,4.62,0,0,0,.49,1480h0a3.29,3.29,0,0,0,.79,1.08.11.11,0,0,1,0-.06,3.2,3.2,0,0,0,.47.43c.56.39,8.51,5.17,14,8.53h1147v-41.14H0Z"/></g><g class="cls-67"><path class="cls-70" d="M.06,1529.55a4.57,4.57,0,0,0,.43,2.75h0a3.3,3.3,0,0,0,.79,1.09.15.15,0,0,1,0-.06,3.87,3.87,0,0,0,.47.43c.56.39,8.51,5.16,14,8.52h1147v-41.14H0Z"/></g><g class="cls-67"><path class="cls-71" d="M.06,1581.88a4.61,4.61,0,0,0,.43,2.76h0a3.29,3.29,0,0,0,.79,1.08.11.11,0,0,1,0-.06,3.2,3.2,0,0,0,.47.43c.56.4,8.51,5.17,14,8.53h1147v-41.14H0Z"/></g><g class="cls-67"><path class="cls-72" d="M.06,1659.46a4.59,4.59,0,0,0,.43,2.75h0a3.41,3.41,0,0,0,.79,1.09.15.15,0,0,1,0-.06,4.9,4.9,0,0,0,.47.43c.56.39,8.51,5.16,14,8.52h1147V1606H0Z"/></g><g class="cls-67"><path class="cls-73" d="M.06,1711.79a4.62,4.62,0,0,0,.43,2.76h0a3.29,3.29,0,0,0,.79,1.08.13.13,0,0,1,0-.06,3.2,3.2,0,0,0,.47.43c.56.39,8.51,5.16,14,8.53h1147v-41.14H0Z"/></g><text class="cls-74" transform="translate(24.45 1358.63)"><tspan xml:space="preserve">BRANCH NAME 	ADDRESS 	</tspan><tspan class="cls-75"><tspan x="0" y="62.53">CASA AL MASSIRA	ANGLE RUES IBNOU YAALA EL IFRANI ETAMINA BINT OUAHBE, CASABLANCA</tspan><tspan x="0" y="115.55" xml:space="preserve">CASA SAAD EL KHEIR 	LOTISSEMENT SAAD EL KHEIR, LOT 162,OULFA, CASABLANCA</tspan><tspan x="0" y="168.58" xml:space="preserve">CASA LA GIRONDE 	ANGLE RUE DIFNI ET RUE RABIAA EL ADAOUIA, LA GIRONDE, CASABLANCA</tspan><tspan x="0" y="221.6" xml:space="preserve">DAR BOUAZZA 	CENTRE COMMERCIAL MERCATO, ROUTE DAZEMMOUR, DAR BOUAZZA</tspan><tspan x="0" y="274.63" xml:space="preserve">FS ROUTE  	FS ARRONDISSEMENT AGDAL, LOT N1 ROUTE IMOUZZER (EN FACE DE CARREFOUR MARKET) </tspan><tspan x="0" y="298.65">DIMOUZZER	</tspan><tspan x="0" y="351.67" xml:space="preserve">TANGER DRADEB 	36, AVENUE IMAM MOUSLIM, QUARTIER DRADEB, TANGER </tspan></tspan></text><text class="cls-76" transform="translate(0 1286.92)">New openings in 2020 </text><text class="cls-77" transform="translate(0 1796.84)">Head office number : <tspan class="cls-78" x="255.62" y="0">05 22 47 91 11 / 05 22 47 90 00</tspan><tspan x="0" y="39.9">Customer Relations Centre number : </tspan><tspan class="cls-78" x="441.17" y="39.9">47 47</tspan></text></g></g></svg>