<svg xmlns="http://www.w3.org/2000/svg" viewBox="0 0 18.82 33.61"><defs><style>.cls-1{fill:#e43d30;}.cls-2{fill:#00afef;}</style></defs><g id="Layer_2" data-name="Layer 2"><g id="Layer_1-2" data-name="Layer 1"><path class="cls-1" d="M17.42,10.77C16.45,10.1,0,0,0,0V10.25l18.44,11.4a5.31,5.31,0,0,0,.36-2.29c0-.85,0-5.34,0-5.34A3.56,3.56,0,0,0,17.42,10.77Z"/><path class="cls-2" d="M18.45,12h0a2.71,2.71,0,0,0-.65-.9c.28.88.13,1.12-.27,1.45L15.8,13.6l-.26.17L0,23.36V33.61s16.44-10.1,17.41-10.77,1.4-1.44,1.4-3.24V14.26A3.83,3.83,0,0,0,18.45,12"/></g></g></svg>