<svg xmlns="http://www.w3.org/2000/svg" xmlns:xlink="http://www.w3.org/1999/xlink" viewBox="0 0 178.87 35.82"><defs><style>.cls-1,.cls-2{stroke:#fff;stroke-miterlimit:10;stroke-width:0.5px;}.cls-1{fill:url(#linear-gradient);}.cls-2{fill:none;}.cls-3,.cls-6{fill:#fff;}.cls-4{fill:#e43d30;}.cls-5{fill:#00afef;}.cls-6{font-size:20px;font-family:Cairo-Bold, Cairo Bold;font-weight:700;}</style><linearGradient id="linear-gradient" x1="-109.35" y1="17.91" x2="279.93" y2="17.91" gradientUnits="userSpaceOnUse"><stop offset="0" stop-color="#3b1c61"/><stop offset="1" stop-color="#001e40"/></linearGradient></defs><g id="Layer_2" data-name="Layer 2"><g id="Layer_1-2" data-name="Layer 1"><path class="cls-1" d="M161.05,35.57a17.57,17.57,0,1,0,0-35.13L17.81.25a17.57,17.57,0,0,0,0,35.13Z"/><circle class="cls-2" cx="17.97" cy="17.76" r="14.12"/><circle class="cls-3" cx="17.97" cy="17.76" r="12.54"/><path class="cls-4" d="M23.12,14.68c-.62-.35-11.21-5.51-11.21-5.51v5.24l11.87,5.83A2.15,2.15,0,0,0,24,19.07c0-.44,0-2.73,0-2.73A1.69,1.69,0,0,0,23.12,14.68Z"/><path class="cls-5" d="M23.79,15.29h0a1.38,1.38,0,0,0-.42-.46c.18.44.09.57-.18.74l-1.11.55-.17.08-10,4.9v5.25s10.59-5.17,11.21-5.51a1.57,1.57,0,0,0,.9-1.66V16.46a1.66,1.66,0,0,0-.23-1.17"/><text class="cls-6" transform="translate(43.08 22.21)">en savoir plus</text></g></g></svg>