<svg xmlns="http://www.w3.org/2000/svg" xmlns:xlink="http://www.w3.org/1999/xlink" viewBox="0 0 1162.75 1850.16"><defs><style>.cls-1{font-size:79.61px;}.cls-1,.cls-15,.cls-76,.cls-77{fill:#575756;}.cls-1,.cls-77{font-family:Cairo-Regular, Cairo;}.cls-2{font-size:114.63px;}.cls-2,.cls-6,.cls-64,.cls-65{fill:#00a1e4;}.cls-2,.cls-65,.cls-76{font-family:Cairo-Bold, Cairo;font-weight:700;}.cls-3{fill:url(#linear-gradient);}.cls-4{fill:url(#linear-gradient-2);}.cls-5{fill:#e43d30;}.cls-7{opacity:0.4;}.cls-8{fill:url(#linear-gradient-3);}.cls-9{fill:url(#linear-gradient-4);}.cls-10{fill:url(#linear-gradient-5);}.cls-11{fill:url(#linear-gradient-6);}.cls-12{fill:url(#linear-gradient-7);}.cls-13{fill:url(#linear-gradient-8);}.cls-14{font-size:18.76px;}.cls-14,.cls-18{fill:#fff;}.cls-14,.cls-64,.cls-78{font-family:Cairo-SemiBold, Cairo;font-weight:600;}.cls-16{fill:url(#linear-gradient-9);}.cls-17{fill:url(#linear-gradient-10);}.cls-19{fill:url(#linear-gradient-11);}.cls-20{fill:url(#linear-gradient-12);}.cls-21{fill:url(#linear-gradient-13);}.cls-22{fill:url(#linear-gradient-14);}.cls-23{fill:url(#linear-gradient-15);}.cls-24{fill:url(#linear-gradient-16);}.cls-25{fill:url(#linear-gradient-17);}.cls-26{fill:url(#linear-gradient-18);}.cls-27{fill:url(#linear-gradient-19);}.cls-28{fill:url(#linear-gradient-20);}.cls-29{fill:url(#linear-gradient-21);}.cls-30{fill:url(#linear-gradient-22);}.cls-31{fill:url(#linear-gradient-23);}.cls-32{fill:url(#linear-gradient-24);}.cls-33{fill:url(#linear-gradient-25);}.cls-34{fill:url(#linear-gradient-26);}.cls-35{fill:url(#linear-gradient-27);}.cls-36{fill:url(#linear-gradient-28);}.cls-37,.cls-38,.cls-39,.cls-40,.cls-41,.cls-42,.cls-43,.cls-44,.cls-45,.cls-46,.cls-47,.cls-48,.cls-49,.cls-50,.cls-51,.cls-52,.cls-53,.cls-54,.cls-55,.cls-56,.cls-57,.cls-58,.cls-59,.cls-60,.cls-61,.cls-62,.cls-63{fill:none;stroke-linecap:round;stroke-linejoin:round;stroke-width:2px;}.cls-37{stroke:url(#linear-gradient-29);}.cls-38{stroke-dasharray:8.38 8.38;stroke:url(#linear-gradient-30);}.cls-39{stroke:url(#linear-gradient-31);}.cls-40{stroke:url(#linear-gradient-32);}.cls-41{stroke-dasharray:8.2 8.2;stroke:url(#linear-gradient-33);}.cls-42{stroke:url(#linear-gradient-34);}.cls-43{stroke:url(#linear-gradient-35);}.cls-44{stroke-dasharray:8.08 8.08;stroke:url(#linear-gradient-36);}.cls-45{stroke:url(#linear-gradient-37);}.cls-46{stroke:url(#linear-gradient-38);}.cls-47{stroke-dasharray:8.26 8.26;stroke:url(#linear-gradient-39);}.cls-48{stroke:url(#linear-gradient-40);}.cls-49{stroke:url(#linear-gradient-41);}.cls-50{stroke-dasharray:8.49 8.49;stroke:url(#linear-gradient-42);}.cls-51{stroke:url(#linear-gradient-43);}.cls-52{stroke:url(#linear-gradient-44);}.cls-53{stroke-dasharray:8.58 8.58;stroke:url(#linear-gradient-45);}.cls-54{stroke:url(#linear-gradient-46);}.cls-55{stroke:url(#linear-gradient-47);}.cls-56{stroke-dasharray:8.07 8.07;stroke:url(#linear-gradient-48);}.cls-57{stroke:url(#linear-gradient-49);}.cls-58{stroke:url(#linear-gradient-50);}.cls-59{stroke-dasharray:8.13 8.13;stroke:url(#linear-gradient-51);}.cls-60{stroke:url(#linear-gradient-52);}.cls-61{stroke:url(#linear-gradient-53);}.cls-62{stroke-dasharray:8.28 8.28;stroke:url(#linear-gradient-54);}.cls-63{stroke:url(#linear-gradient-55);}.cls-64{font-size:29.18px;}.cls-65{font-size:72.94px;}.cls-66{fill:url(#linear-gradient-56);}.cls-67{fill:url(#linear-gradient-57);}.cls-68{fill:url(#linear-gradient-58);}.cls-69{fill:url(#linear-gradient-59);}.cls-70{fill:url(#linear-gradient-60);}.cls-71{fill:url(#linear-gradient-61);}.cls-72{fill:url(#linear-gradient-62);}.cls-73{fill:url(#linear-gradient-63);}.cls-74{fill:url(#linear-gradient-64);}.cls-75{fill:url(#linear-gradient-65);}.cls-76{font-size:33.87px;}.cls-77{font-size:28.66px;}</style><linearGradient id="linear-gradient" x1="84.48" y1="1333.32" x2="1075.15" y2="1363.48" gradientUnits="userSpaceOnUse"><stop offset="0" stop-color="#00b8ed"/><stop offset="1" stop-color="#f4a89e" stop-opacity="0.5"/></linearGradient><linearGradient id="linear-gradient-2" x1="-4.12" y1="1348.32" x2="1375.63" y2="1390.33" xlink:href="#linear-gradient"/><linearGradient id="linear-gradient-3" x1="1.55" y1="1416.56" x2="1405.55" y2="1416.56" gradientUnits="userSpaceOnUse"><stop offset="0" stop-color="#f4a89e"/><stop offset="1" stop-color="#00b8ed"/></linearGradient><linearGradient id="linear-gradient-4" x1="1.55" y1="1468.9" x2="1405.55" y2="1468.9" xlink:href="#linear-gradient-3"/><linearGradient id="linear-gradient-5" x1="1.55" y1="1521.23" x2="1405.55" y2="1521.23" xlink:href="#linear-gradient-3"/><linearGradient id="linear-gradient-6" x1="1.55" y1="1573.57" x2="1405.55" y2="1573.57" xlink:href="#linear-gradient-3"/><linearGradient id="linear-gradient-7" x1="1.55" y1="1638.64" x2="1405.55" y2="1638.64" xlink:href="#linear-gradient-3"/><linearGradient id="linear-gradient-8" x1="1.55" y1="1703.48" x2="1405.55" y2="1703.48" xlink:href="#linear-gradient-3"/><linearGradient id="linear-gradient-9" x1="752.45" y1="689.57" x2="752.45" y2="607.08" gradientUnits="userSpaceOnUse"><stop offset="0" stop-color="#fff"/><stop offset="1" stop-color="#f4a89e"/></linearGradient><linearGradient id="linear-gradient-10" x1="752.45" y1="678.82" x2="752.45" y2="704.35" xlink:href="#linear-gradient-9"/><linearGradient id="linear-gradient-11" x1="996.24" y1="585.71" x2="-107.47" y2="1162.69" gradientUnits="userSpaceOnUse"><stop offset="0" stop-color="#00b8ed"/><stop offset="1" stop-color="#f4a89e"/></linearGradient><linearGradient id="linear-gradient-12" x1="998.48" y1="589.99" x2="-105.23" y2="1166.97" xlink:href="#linear-gradient-11"/><linearGradient id="linear-gradient-13" x1="1020.43" y1="631.97" x2="-83.29" y2="1208.95" xlink:href="#linear-gradient-11"/><linearGradient id="linear-gradient-14" x1="1045.61" y1="680.14" x2="-58.1" y2="1257.12" xlink:href="#linear-gradient-11"/><linearGradient id="linear-gradient-15" x1="1026.01" y1="642.65" x2="-77.7" y2="1219.63" xlink:href="#linear-gradient-11"/><linearGradient id="linear-gradient-16" x1="1036.27" y1="662.28" x2="-67.44" y2="1239.26" xlink:href="#linear-gradient-11"/><linearGradient id="linear-gradient-17" x1="1003.76" y1="600.09" x2="-99.95" y2="1177.07" xlink:href="#linear-gradient-11"/><linearGradient id="linear-gradient-18" x1="991.9" y1="577.4" x2="-111.81" y2="1154.38" xlink:href="#linear-gradient-11"/><linearGradient id="linear-gradient-19" x1="1003.13" y1="598.89" x2="-100.58" y2="1175.87" xlink:href="#linear-gradient-11"/><linearGradient id="linear-gradient-20" x1="994.55" y1="582.48" x2="-109.16" y2="1159.46" xlink:href="#linear-gradient-11"/><linearGradient id="linear-gradient-21" x1="1005.69" y1="603.78" x2="-98.02" y2="1180.76" xlink:href="#linear-gradient-11"/><linearGradient id="linear-gradient-22" x1="1019.63" y1="630.45" x2="-84.08" y2="1207.43" xlink:href="#linear-gradient-11"/><linearGradient id="linear-gradient-23" x1="1030.85" y1="651.91" x2="-72.86" y2="1228.89" xlink:href="#linear-gradient-11"/><linearGradient id="linear-gradient-24" x1="1025.14" y1="640.99" x2="-78.57" y2="1217.97" xlink:href="#linear-gradient-11"/><linearGradient id="linear-gradient-25" x1="1041.04" y1="671.41" x2="-62.67" y2="1248.39" xlink:href="#linear-gradient-11"/><linearGradient id="linear-gradient-26" x1="1049.63" y1="687.85" x2="-54.08" y2="1264.83" xlink:href="#linear-gradient-11"/><linearGradient id="linear-gradient-27" x1="890.19" y1="757.5" x2="890.19" y2="675" xlink:href="#linear-gradient-9"/><linearGradient id="linear-gradient-28" x1="890.19" y1="746.75" x2="890.19" y2="772.28" xlink:href="#linear-gradient-9"/><linearGradient id="linear-gradient-29" x1="85.26" y1="544.9" x2="703.43" y2="544.9" gradientUnits="userSpaceOnUse"><stop offset="0" stop-color="#00a1e4"/><stop offset="1" stop-color="#f4a89e"/></linearGradient><linearGradient id="linear-gradient-30" x1="85.26" y1="608.12" x2="703.43" y2="608.12" xlink:href="#linear-gradient-29"/><linearGradient id="linear-gradient-31" x1="85.26" y1="666.52" x2="703.43" y2="666.52" xlink:href="#linear-gradient-29"/><linearGradient id="linear-gradient-32" x1="329.94" y1="544.89" x2="703.43" y2="544.89" xlink:href="#linear-gradient-29"/><linearGradient id="linear-gradient-33" x1="329.94" y1="607.59" x2="703.43" y2="607.59" xlink:href="#linear-gradient-29"/><linearGradient id="linear-gradient-34" x1="329.94" y1="666.49" x2="703.43" y2="666.49" xlink:href="#linear-gradient-29"/><linearGradient id="linear-gradient-35" x1="568.21" y1="544.9" x2="703.43" y2="544.9" xlink:href="#linear-gradient-29"/><linearGradient id="linear-gradient-36" x1="568.21" y1="607.59" x2="703.43" y2="607.59" xlink:href="#linear-gradient-29"/><linearGradient id="linear-gradient-37" x1="568.21" y1="666.47" x2="703.43" y2="666.47" xlink:href="#linear-gradient-29"/><linearGradient id="linear-gradient-38" x1="750.8" y1="544.87" x2="788.63" y2="544.87" gradientUnits="userSpaceOnUse"><stop offset="0" stop-color="#f4a89e"/><stop offset="1" stop-color="#00a1e4"/></linearGradient><linearGradient id="linear-gradient-39" x1="750.8" y1="571.27" x2="788.63" y2="571.27" xlink:href="#linear-gradient-38"/><linearGradient id="linear-gradient-40" x1="750.8" y1="594.4" x2="788.63" y2="594.4" xlink:href="#linear-gradient-38"/><linearGradient id="linear-gradient-41" x1="653.12" y1="834.86" x2="905.43" y2="834.86" xlink:href="#linear-gradient-38"/><linearGradient id="linear-gradient-42" x1="653.12" y1="931.52" x2="905.43" y2="931.52" xlink:href="#linear-gradient-38"/><linearGradient id="linear-gradient-43" x1="653.12" y1="1024.06" x2="905.43" y2="1024.06" xlink:href="#linear-gradient-38"/><linearGradient id="linear-gradient-44" x1="588.87" y1="876.66" x2="725.77" y2="876.66" xlink:href="#linear-gradient-38"/><linearGradient id="linear-gradient-45" x1="588.87" y1="952.5" x2="725.77" y2="952.5" xlink:href="#linear-gradient-38"/><linearGradient id="linear-gradient-46" x1="588.87" y1="1024.06" x2="725.77" y2="1024.06" xlink:href="#linear-gradient-38"/><linearGradient id="linear-gradient-47" x1="423.63" y1="973.04" x2="570.7" y2="973.04" xlink:href="#linear-gradient-38"/><linearGradient id="linear-gradient-48" x1="423.63" y1="1000.58" x2="570.7" y2="1000.58" xlink:href="#linear-gradient-38"/><linearGradient id="linear-gradient-49" x1="423.63" y1="1024.07" x2="570.7" y2="1024.07" xlink:href="#linear-gradient-38"/><linearGradient id="linear-gradient-50" x1="795.31" y1="546.83" x2="928.22" y2="546.83" xlink:href="#linear-gradient-38"/><linearGradient id="linear-gradient-51" x1="795.31" y1="606.01" x2="928.22" y2="606.01" xlink:href="#linear-gradient-38"/><linearGradient id="linear-gradient-52" x1="795.31" y1="662.4" x2="928.22" y2="662.4" xlink:href="#linear-gradient-38"/><linearGradient id="linear-gradient-53" x1="889.18" y1="546.75" x2="1067.91" y2="546.75" xlink:href="#linear-gradient-38"/><linearGradient id="linear-gradient-54" x1="889.18" y1="605.79" x2="1067.91" y2="605.79" xlink:href="#linear-gradient-38"/><linearGradient id="linear-gradient-55" x1="889.18" y1="662.47" x2="1067.91" y2="662.47" xlink:href="#linear-gradient-38"/><linearGradient id="linear-gradient-56" x1="796.31" y1="758.4" x2="796.31" y2="675.91" xlink:href="#linear-gradient-9"/><linearGradient id="linear-gradient-57" x1="796.31" y1="747.65" x2="796.31" y2="773.18" xlink:href="#linear-gradient-9"/><linearGradient id="linear-gradient-58" x1="702.24" y1="757.63" x2="702.24" y2="675.14" xlink:href="#linear-gradient-9"/><linearGradient id="linear-gradient-59" x1="702.24" y1="746.89" x2="702.24" y2="772.41" xlink:href="#linear-gradient-9"/><linearGradient id="linear-gradient-60" x1="651.71" y1="807.23" x2="651.71" y2="724.74" xlink:href="#linear-gradient-9"/><linearGradient id="linear-gradient-61" x1="651.71" y1="796.48" x2="651.71" y2="822.01" xlink:href="#linear-gradient-9"/><linearGradient id="linear-gradient-62" x1="588.07" y1="853.19" x2="588.07" y2="770.7" xlink:href="#linear-gradient-9"/><linearGradient id="linear-gradient-63" x1="588.07" y1="842.45" x2="588.07" y2="867.97" xlink:href="#linear-gradient-9"/><linearGradient id="linear-gradient-64" x1="424.64" y1="950.55" x2="424.64" y2="868.06" xlink:href="#linear-gradient-9"/><linearGradient id="linear-gradient-65" x1="424.64" y1="939.8" x2="424.64" y2="965.33" xlink:href="#linear-gradient-9"/></defs><g id="Layer_2" data-name="Layer 2"><g id="Layer_1-2" data-name="Layer 1"><text class="cls-1" transform="translate(134.31 67.35)">Avec un réseau qui compte<tspan class="cls-2"><tspan x="103.61" y="108.6">+300 agences</tspan></tspan><tspan x="152.72" y="204.09">ans le Royaume </tspan></text><path class="cls-3" d="M1161.1,1337.53v52.62H316.34v-53.36c.07-2.27.05-3.71-.8-5.07h0a6.6,6.6,0,0,0-1.46-2s0,.07,0,.11a7.29,7.29,0,0,0-.87-.79c-1.14-.8-11.94-7.47-21.85-13.57h841.88c8.63,5.31,24.13,14.61,25.12,15.3a7.39,7.39,0,0,1,.77.69.24.24,0,0,1,0-.09,5.67,5.67,0,0,1,1.28,1.74h0C1161.14,1334.29,1161.16,1335.55,1161.1,1337.53Z"/><path class="cls-4" d="M313.94,1333.11h0a5.67,5.67,0,0,0-1.28-1.74.24.24,0,0,0,0,.09,7.39,7.39,0,0,0-.77-.69c-1-.69-16.49-10-25.12-15.3H4.17c3.17,2,7.08,4.37,7.46,4.63a2,2,0,0,1,.26.24.06.06,0,0,0,0,0l.11.12.08.1a3.11,3.11,0,0,1,.25.38h0a2.29,2.29,0,0,1,.23,1.3s0,0,0,.06v.15h0V1326a2.21,2.21,0,0,1-.93,2.16c-.64.44-11.45,7.08-11.57,7.16v54.86H314.64v-52.62C314.7,1335.55,314.68,1334.29,313.94,1333.11Z"/><path class="cls-5" d="M9,1321c-.49-.35-9-5.54-9-5.54v5.27l9.49,5.86a2.59,2.59,0,0,0,.18-1.17c0-.44,0-2.75,0-2.75A1.82,1.82,0,0,0,9,1321Z"/><path class="cls-6" d="M9.54,1321.63h0a1.39,1.39,0,0,0-.34-.46c.14.45.07.58-.14.74l-.89.56-.13.08-8,4.94v5.27s8.46-5.2,9-5.54a1.69,1.69,0,0,0,.72-1.67v-2.75a2,2,0,0,0-.18-1.17"/><g class="cls-7"><path class="cls-8" d="M.1,1424.4a4.65,4.65,0,0,0,.43,2.75h0a3.53,3.53,0,0,0,.8,1.09l0-.06a3.34,3.34,0,0,0,.48.43c.55.39,8.5,5.16,14,8.52h1147V1396H.09Z"/></g><g class="cls-7"><path class="cls-9" d="M.1,1476.73a4.68,4.68,0,0,0,.43,2.76h0a3.51,3.51,0,0,0,.8,1.08l0-.06a3.39,3.39,0,0,0,.48.44c.55.39,8.5,5.16,14,8.52h1147v-41.14H.09Z"/></g><g class="cls-7"><path class="cls-10" d="M.1,1529.07a4.65,4.65,0,0,0,.43,2.75h0a3.42,3.42,0,0,0,.8,1.09s0,0,0-.06a3.34,3.34,0,0,0,.48.43c.55.39,8.5,5.16,14,8.52h1147v-41.14H.09Z"/></g><g class="cls-7"><path class="cls-11" d="M.1,1581.41a4.66,4.66,0,0,0,.43,2.75h0a3.65,3.65,0,0,0,.8,1.09l0-.06a4.06,4.06,0,0,0,.48.43c.55.39,8.5,5.16,14,8.52h1147V1553H.09Z"/></g><g class="cls-7"><path class="cls-12" d="M.1,1659a4.65,4.65,0,0,0,.43,2.75h0a3.53,3.53,0,0,0,.8,1.09l0-.06a3.34,3.34,0,0,0,.48.43c.55.39,8.5,5.16,14,8.52h1147v-66.15H.09Z"/></g><g class="cls-7"><path class="cls-13" d="M.1,1711.31a4.68,4.68,0,0,0,.43,2.76h0a3.51,3.51,0,0,0,.8,1.08.42.42,0,0,1,0-.06,3.39,3.39,0,0,0,.48.44c.55.39,8.5,5.16,14,8.52h1147v-41.14H.09Z"/></g><text class="cls-14" transform="translate(24.44 1358.14)"><tspan xml:space="preserve">INTITULÉS AGENCES 	ADRESSE	</tspan><tspan class="cls-15"><tspan x="0" y="62.53">CASA AL MASSIRA	ANGLE RUES IBNOU YAALA EL IFRANI ETAMINA BINT OUAHBE, CASABLANCA</tspan><tspan x="0" y="115.55" xml:space="preserve">CASA SAAD EL KHEIR 	LOTISSEMENT SAAD EL KHEIR, LOT 162,OULFA, CASABLANCA</tspan><tspan x="0" y="168.58" xml:space="preserve">CASA LA GIRONDE 	ANGLE RUE D’IFNI ET RUE RABIAA EL ADAOUIA, LA GIRONDE, CASABLANCA</tspan><tspan x="0" y="221.6" xml:space="preserve">DAR BOUAZZA 	CENTRE COMMERCIAL MERCATO, ROUTE D’AZEMMOUR, DAR BOUAZZA</tspan><tspan x="0" y="274.63" xml:space="preserve">FÈS ROUTE    	FÈS ARRONDISSEMENT AGDAL, LOT N°1 ROUTE IMOUZZER (EN FACE DE CARREFOUR MARKET)  </tspan><tspan x="0" y="298.65">D’IMOUZZER	</tspan><tspan x="0" y="351.67" xml:space="preserve">TANGER DRADEB 	36, AVENUE IMAM MOUSLIM, QUARTIER DRADEB, TANGER</tspan></tspan></text><path class="cls-16" d="M782.39,637.14a32.65,32.65,0,0,0-5.68-17.51,29.46,29.46,0,0,0-14.2-11.13,32,32,0,0,0-20.09,0,29.36,29.36,0,0,0-14.21,11.14,32.71,32.71,0,0,0-5.7,17.53,32,32,0,0,0,1.87,11.59c2.27,6.28,11.36,19.5,18.23,29.5,2.33,3.36,4.39,6.37,5.83,8.58l.17.24.16.26v0c1.42,2.1,2.68,2.9,4.18,2.63,1.33-.23,2.27-1.28,3.38-3,1.41-2.17,3.47-5.17,5.8-8.57,6.9-10,16.09-23.36,18.38-29.68A32.1,32.1,0,0,0,782.39,637.14ZM766.7,652.06a20.22,20.22,0,1,1,5.9-14.29A20.08,20.08,0,0,1,766.7,652.06Z"/><path class="cls-17" d="M727.79,695.66c-7-2.12-11.34-5.33-11.34-9.13s4.34-7,11.34-9.12c.31-.09.63-.19,1-.27a1.95,1.95,0,0,1,1.57,3.49h0l-1.44.4c-5.33,1.62-8.63,3.59-8.63,5.5s3.3,3.88,8.63,5.51c13,4,34.1,4,47.13,0,5.33-1.63,8.63-3.58,8.63-5.51s-3.3-3.88-8.63-5.5l-1.43-.4h0a2,2,0,0,1,1.58-3.49c.32.08.64.18,1,.27,7,2.13,11.35,5.33,11.35,9.12s-4.34,7-11.35,9.13c-13.81,4.18-35.52,4.18-49.32,0Z"/><path class="cls-18" d="M762.52,647.87a14.3,14.3,0,1,1,4.16-10.09A14.18,14.18,0,0,1,762.52,647.87Z"/><polyline class="cls-19" points="741.75 698.8 741.12 699.13 741.08 699.11 740.89 699.34 740.09 699.38 738.15 700.37 737.06 700.49 736.64 700.64 735.44 700.8 734.14 700.68 733.02 700.92 731.4 700.61 730.61 700.83 730.41 700.81 730.36 700.88 729.32 700.99 729.34 701.34 727.48 702.13 725.17 701.93 725.13 701.7 723.96 701.52 723.24 701.62 721.34 701.5 720.96 701.62 721.05 702.05 720.58 702.11 719.44 704.29 718.57 706.82 718.33 707.03 718.22 707.94 717.2 709.4 716.2 709.82 715.84 710.57 714.98 711.24 712.52 715.77 711.86 716.3 711.33 716.39 708.53 720.91 711.91 721.05 715.13 720.97 722.03 721.5 724.96 721.98 727.84 722.08 729.02 722.63 731.17 722.77 732.26 723.26 734.21 723.64 736.14 724.78 736.59 724.9 738.45 724.86 739.8 724.98 741.34 724.48 742.43 724.64 743.22 725.1 744.69 725.42 746.82 726.75 748.94 727.26 753.84 727.7 757.87 726.93 760.96 727.28 762.01 726.71 765.39 725.99 766.45 725.99 767.33 725.73 767.38 725.73 767.41 725.73 768.85 725.92 772.18 725.53 772.25 725.53 772.26 725.53 773.54 725.55 775.27 725.15 776 725.11 776.71 724.5 777.79 724.09 778.82 724.07 783.5 722.17 788.34 721.8 791 721.01 791.77 719.9 791.37 718.85 790.39 718.44 790.49 717.42 791.21 717.02 790.69 716.92 789.33 716.95 786.03 716.53 784.8 716.6 783.5 716.38 782.81 716.04 781.55 716.24 776.06 715.31 775.38 714.98 773.5 714.53 771.83 713.77 770.57 713.7 768.75 713.3 764.48 711.34 764.14 711.4 761.96 711.13 760.8 710.37 760.68 710.23 759.48 709.33 757.16 708.66 756.14 708.02 755.36 707.87 754.25 707.97 753.8 707.68 753.09 707.74 751.03 706.1 749.99 704.47 750.08 704.35 748.66 704.39 747.5 703.39 746.09 700.44 746.39 699.58 744.93 699.4 744.54 698.8 744.33 698.8 744.3 698.82 743.31 698.83 742.85 699.22 741.75 698.8"/><polyline class="cls-20" points="708.01 721.67 706.56 723.84 706.66 723.89 708.64 724.17 708.86 725.28 708.15 725.38 707.08 726.46 706.21 725.58 705.12 725.41 702.31 728.71 696.44 734.5 689.68 739.73 689.53 739.94 688.27 741.54 688.47 741.69 690.75 741.6 691.94 742.33 692.39 742.43 694.47 742.47 694.83 742.57 699.1 741.71 704.2 742.26 712.73 741.95 712.73 741.95 712.73 741.95 721.89 743.16 723.98 743.17 726.43 743.5 727.77 743.51 727.28 742.86 725.92 742.95 724.73 741.78 724.73 741.77 724.72 741.77 725.69 741.37 725.8 741.32 725.8 741.32 725.82 741.32 727.67 741.19 728.07 741.08 728.3 740.96 728.1 740.25 730.42 739.44 732.66 739.53 732.94 739.54 732.94 739.54 732.95 739.54 733.21 739.69 733.64 739.93 735.34 740.01 736.68 740.69 736.4 740.96 735.66 741.68 735.69 741.71 736.14 741.76 737.79 741.62 741.16 741.87 742.5 742.26 742.57 742.42 742.9 743.02 742.77 743.18 743.88 742.48 745.82 742.23 745.27 741.93 745.82 741.26 747.08 740.95 747.78 740.54 747.83 739.31 749.35 739.33 748.43 738.8 748.35 738.24 748.27 738.21 747.96 738.29 746.4 738.14 745.8 737.34 746.03 737.13 745.06 736.68 745.79 735.92 745.82 735.92 745.83 735.9 748.27 735.61 751.01 734.87 751.68 734.22 751.71 734.22 751.73 734.2 753.25 734.04 753.41 733.98 753.3 733.46 753.87 732.93 753.89 732.92 753.91 732.9 755.87 732.71 756.45 732.51 756.75 732.38 756.95 731.82 756.99 731.81 756.99 731.79 759.23 731.38 759.84 731.43 759.83 731.42 759.61 730.86 760.1 729.42 759.96 728.5 760.23 727.99 758.14 727.76 754.17 728.52 748.4 728 745.61 727.33 743.5 726.02 742.06 725.7 741.58 725.41 740.34 725.82 738.42 725.65 736.19 725.69 734.92 725.34 733.08 724.26 731.25 723.9 730.37 723.5 728.19 723.36 727.06 722.83 724.66 722.75 721.64 722.25 715.12 721.75 711.97 721.83 708.01 721.67"/><path class="cls-21" d="M748.18,737.08l-.29.26.33-.09,0-.17M816.35,715l-1.13.38-2.13.16-.26-.14-.57.11-.16,0-.05,0-4.19.78-1.08.11-.64-.12-1.62.2-.22.23-2.06-.1-1,.19-.37.17-1.13.11-.5.26-.79,0-.79.29-2.64-.3-1.06.12-.94-.13-.72.39,0,.44.82.34.57,1.5-1,1.5-3.4,1-4.72.36-4.77,1.94-1.07,0-.41.15-.93.81-1.3.09-1.89.44-1.56,0-3.61.42-1.15-.16-.63.2h-1.2l-2.69.57-1.08.58-.37.69.14.89-.47,1.4h0l1,.21-.43.82-1,.4-1.49-.12-.91.17-.14.42-.84.34-.9.31-1.54.16,0,0,.16.68-1.14.46-1.16.12-.55.54-3.41.93-1.78.21,1,.44v0l.33.14,1.79.35-.15.36,1.44.63,1.72-.29h0l.08,0,.91.52,1.64-.28h.1l1.37,0,.54-.2h0l0,0,1,.14.68-.32,2.37-.41h.09l2.85.21,1.18.37v0l.58-.2h0l.05,0,1.59.07.61,0h0l4.14.16.85.55.16-.07h.11l1.46.08L778,740l-1.25.08,0,.21h1.12l1.27-.32h.12l1.56.23.55.63,0,.41,1.44-.21v0h.08l.86,1.21-.13.42.9.64,1.65.16.51.22,1.87,0,1.46.49,1.77,0,1.43.43-.08.45,1,.5.31.5.3,1.7,1.14.47,1.54.29,1.86.1,2,.65h0l3.22-1.1h1.89l1.46.43h1.44l.76.32.78,1,.42,0,.59.21,3.11-.07H815l2.16.6-3.4,1-.81.7.14,1.58.75.49,1-.33,1.22-.08,1,0h.35l2.11.54,0,.79-1.29,1,1.44.72,4.4-.18,1.46-.47,3.77-.77.86-.74.32-.08.15-.76,1.93-.59,1.4-.74.37-.52h0l1.4-.23.6-.11,1.56-.61,2.17-2.14,1.11-.31.57-1,1.23-.15h0l1.31,0,.89.56,1.38.26.39.22,1.14.15,2.64,1.24.5.12,4.37.41,3.92,1.17,1.78.28,3.21.25-.23-.66-1.51-1.21-3.81-2-2.75-.86-.14-1.53.55-.59,4.87-.83.92-.28,1.24-1.58,0-.09-2.26-.77-1-2.57-2.1-.57-1.77-.72-1.15-.58-.53-.79.4-.19-.16-.18.55-.69,2.92-.67.56-.5,1-.11-.66-.84,2.11-.07.35-1-.5-1,3.64-.8.22,0,.56-.92-1.77-.25-.85-.42-2.12-.51-1.76,0-2.16-1.08-.7-.17-5.6,0,.19.57-.75.85-3.08.82-1.52.88-1.18-.16v.32l-1,.2-.77,1.72-1.7.05-3-.48-.82-.39-.2-.54-.24-.11-2.57.41-1-.76,1.26-.56,0-.15-.88-1.18.83-.42h1.13l-.13,0-1-.63,1.08-1v-.56l-.82-.58.2-.16-1.46.08h0l-2.08-.54-2.74.15-1.12-.61-.66,0-1.27-.23-.21-.49-.79-.18-.53-3.14-.43-.22-.32-1.38-.7-.92.28-1.59-.21-.27-1.44.1-2.9-.38-1.72-.79,0-.14-.4-.1"/><polyline class="cls-22" points="861.32 710.81 860.92 711.09 860.91 711.14 860.97 711.65 858.8 713.85 856.48 714.61 855.33 714.34 854.75 714.87 852.83 715.78 851.55 715.66 851.17 715.81 850.55 715.76 849.81 715.98 847.7 716.17 846.11 716.69 841.2 716.49 840.12 716.19 838.38 716.36 835.91 715.87 833.18 715.63 828.98 714.48 828.47 714.15 827.71 714.12 826.36 714.36 825.67 715.62 824.4 716.02 824.81 716.55 824.53 718.14 825.18 718.99 825.47 720.21 825.91 720.45 826.41 723.37 827.07 723.52 827.24 723.9 829.56 723.78 830.35 724.41 831.71 724.33 833.79 724.87 835.98 724.75 837.46 725.39 836.92 725.81 837.47 726.19 837.47 727.14 836.67 727.87 836.72 727.91 838.2 728.22 838.59 729 837.14 729.32 835.87 729.31 836.47 730.13 836.4 730.39 837.23 730.26 838.82 730.97 839.03 731.53 839.1 731.56 841.19 731.9 841.23 731.9 841.93 730.34 842.79 730.18 842.79 729.38 844.98 729.66 845.99 729.07 848.88 728.31 849.28 727.85 849.01 727.03 850.2 726.66 856.85 726.71 858.33 727.05 860.09 727.94 861.44 727.92 864.36 728.62 865.09 728.97 867.34 729.3 867.87 729.89 867.41 730.64 869.03 730.99 869.59 731.85 868.17 732.14 865.4 731.64 863.57 732.04 863.87 732.63 863.29 734.38 861.98 734.42 862.15 734.64 861.64 735.22 860.54 735.33 860.08 735.75 857.25 736.4 857.12 736.57 857.43 736.91 856.96 737.14 857.09 737.33 857.9 737.74 859.4 738.35 862.14 739.09 863.13 741.71 865.39 742.48 865.64 743.11 864.09 745.09 862.6 745.55 858.18 746.3 858.03 746.47 858.12 747.39 860.25 748.06 864.37 750.23 866.16 751.66 866.51 752.65 866.81 752.68 866.1 754.86 864.84 755.94 862.03 757.49 861.23 758.56 861.32 758.92 862.22 759.6 865.48 760.44 869.54 761.93 871.99 763.46 876.56 765.59 877.71 766.67 877.55 767.96 876.42 768.88 873.04 769.45 870.85 769.62 865.48 770.65 862.49 770.95 862.37 770.96 862.37 770.96 862.35 770.96 858.66 771.04 856.54 770.89 853.73 770.7 848.73 770.67 842.74 770.96 840.63 771.56 837.23 773.26 835.13 775.05 831.53 778.91 828.87 780.39 826.73 782.2 826.77 782.26 828.35 782.56 830.49 783.6 830.55 783.65 837.74 789.17 839.29 791.39 840.03 791.55 842.42 791.54 842.42 791.54 842.47 791.54 843.8 791.77 843.83 791.78 843.83 791.78 843.88 791.79 845.62 792.48 846.89 792.65 847.53 792.73 847.54 792.73 847.58 792.74 849.22 793.58 848.4 794.61 848.45 794.69 848.7 794.76 850.25 794.83 853.93 794.52 853.97 794.53 853.99 794.52 859.06 794.76 868.21 795.4 870.67 795.75 871.67 796.84 869.97 798.82 869.94 801.32 870.44 802.81 873.22 807.66 884.62 806.49 884.55 806.33 892.97 805.39 891.76 804.82 891.88 804.08 891.52 803.52 889.32 802.12 888.82 801.24 885.85 799.34 885.84 797.31 887.11 796.22 889.28 796.57 892.25 796.46 896.94 796.58 900.24 796.39 903.27 796.51 905.64 795.66 910.07 795.23 918.16 795.32 919.5 794.95 924.47 795.69 925.18 795.7 928.45 795.42 932.91 794.58 934.89 794.89 935.89 795.28 936.95 795.26 937.2 795.31 937.31 795.16 939.41 795.16 940.78 795.59 943.1 795.61 949.05 796.49 950.48 796.44 956.02 797.09 959.89 796.76 961.21 797.03 964.16 797.21 966.08 797.26 967.19 797.1 969.17 797.36 972.07 797.24 972.99 797.5 974.76 797.33 975.53 796.86 976.38 796.74 975.95 796.64 975.16 795.9 974.06 795.7 970.41 796.17 968.14 795.47 971.27 794.2 970.7 793.13 970.73 791.63 969.49 790.96 971.09 790.32 971.34 789.08 971.98 788.58 974.76 788.11 976.01 788.19 976.6 787.84 978.19 787.36 978.97 786.66 980.58 785.91 966 781.36 959.82 780.14 948.82 773.72 951.59 773.16 952.14 773.2 952.15 773.2 952.47 772.64 952.05 772.12 952.61 771.59 952.16 771.13 951.53 770.84 950.21 770.65 948.87 770.22 946.24 769.02 944.48 767.56 942.86 767.02 940.16 765.37 940.42 764.63 939.65 762.59 940.26 761.23 940.86 761.01 941 760.77 940.83 759.56 941.98 758.65 940.96 757.92 941.16 757.79 941.01 757.77 941.13 756.74 941.13 756.73 939.45 756.31 938.08 755.13 935.48 755.24 935.01 754.83 933.27 754.44 933.48 753.08 935.85 752.17 933.78 749.8 934.33 743.7 930.13 740.32 929.93 738.54 928.62 737.8 926.61 737.08 925.29 736.31 928.86 733.9 926.48 733.48 926.11 733.14 925.47 733.03 925.18 732.62 923.9 732.16 923.8 731.84 922.55 731.16 921.83 730.96 919.37 731.11 923.38 728.35 923.35 727.64 924.03 727.41 921.21 726.8 921.21 726.77 919.24 726.25 917.3 726.09 916.73 725.14 912.68 724.24 912.16 723.01 909.73 723.21 906.63 722.34 904.64 721.54 904.49 721.34 902.37 720.98 901.33 720.41 899.54 719.94 899.34 719.05 893.78 718.21 890.44 717.89 889.83 717.78 887.84 718.63 885.88 719.06 883.43 719.28 879.3 719.04 875.36 718.37 875.17 718.76 871.35 718.73 867.68 717.99 866.19 717.5 865.89 717.07 864.72 716.48 864.46 715.84 864.83 715.63 864.5 715.48 863.8 714.41 864.02 714.38 862.29 713.9 862.08 712.39 861.14 711.89 861.66 710.95 861.32 710.81"/><polyline class="cls-23" points="762.56 738.43 760.99 738.71 759.8 739.26 758.61 739.1 758.33 739.21 756.59 739.24 753.83 739.72 752.91 739.2 751.8 739.39 752.19 739.56 752.95 740.51 753.44 741.76 753.46 743.44 753.95 744.32 755.29 744.03 757.13 744.2 758.16 744.54 759.18 745.47 759.55 745.64 760.72 745.63 764.32 746.06 765.72 747.89 766.79 748.15 768.91 749.48 769.51 750.97 767.68 753.62 767.77 754.03 768.15 754.34 768.91 754.54 773.76 754.83 777.07 755.95 779.57 757.03 780.17 758.11 779.81 758.85 775.3 762.15 775.13 762.45 775.3 762.81 776.2 763.48 779.5 764.71 781.77 766.67 784.97 770.31 790.25 772.76 790.12 773.53 789.58 773.97 789.57 774.4 789.92 774.73 791.71 775.32 793.68 775.67 799.54 775.27 803.28 775.4 804.39 775.72 805.49 776.22 806.91 777.38 808.92 777.93 814.34 780.2 814.92 782.17 815.07 782.28 815.72 782.38 817.11 782.25 819.14 782.48 822.69 782.51 823.97 782.47 824.86 782.3 824.67 782.04 827.24 779.87 829.85 778.41 833.41 774.61 835.62 772.73 839.3 770.89 841.94 770.14 848.44 769.82 853.81 769.86 858.55 770.19 861.97 770.12 864.71 769.84 870.12 768.8 872.34 768.63 875.02 768.18 875.68 767.64 875.79 766.75 875.02 766.02 870.58 763.95 868.21 762.46 864.52 761.11 860.93 760.17 859.49 759.11 859.33 758.38 860.34 757.03 863.22 755.44 864.29 754.53 864.68 753.33 861.04 753.04 858.92 752.71 855.1 751.57 850.84 751.17 849.77 750.92 847.29 749.75 846.05 749.59 845.57 749.32 844.13 749.05 843.48 748.64 843.42 748.65 842.92 749.51 841.67 749.86 839.56 751.95 837.52 752.75 835.96 753.01 835.73 753.34 834.01 754.26 832.52 754.72 832.37 755.52 831.74 755.69 830.82 756.46 826.71 757.31 825 757.86 819.09 758.08 816.01 756.54 817.73 755.2 817.74 755.13 817.15 754.98 816.46 754.97 815.83 755.01 813.57 755.75 811.28 754.26 811.12 752.23 812.33 751.19 812.75 751.06 811.39 751.09 810.67 750.83 809.55 750.78 808.56 749.52 807.45 749.51 806.02 749.09 805.39 749.09 801.97 750.27 800.63 750.14 798.74 749.51 797.14 749.42 795 749.02 793.01 748.2 792.67 746.24 792.53 746.02 791.27 745.4 791.32 745.08 789.5 745.03 788.04 744.54 786.04 744.5 785.41 744.23 783.47 744.04 781.75 742.81 781.9 742.27 781.78 742.1 781.39 742.15 779.5 742.02 779.57 740.93 779.53 740.89 778.64 741.11 775.15 741.12 775.01 740.5 773.98 740.22 774.1 739.95 772.81 740.11 771.67 739.37 772.31 739.02 769.27 738.91 768.85 739.23 767.2 739.3 766.94 739.05 766.12 739.34 764.48 739.13 764.45 738.57 762.56 738.43"/><polyline class="cls-24" points="750.72 740.1 750.6 740.15 749.71 740.14 749.68 740.87 748.43 741.6 747.44 741.85 748.99 742.7 745.16 743.2 743.27 744.38 741.5 744.13 740.62 743.37 740.98 742.92 740.87 742.72 740.57 742.64 737.93 742.44 736.16 742.59 734.34 742.36 733.67 741.61 734.52 740.78 734.5 740.77 732.74 740.7 732.04 740.31 731.09 740.27 730.06 740.63 730.24 741.26 729.34 741.71 728.42 741.97 727.58 742.02 728.78 742.31 729.7 743.53 729.87 743.54 730.3 745.1 730.76 745.37 734.26 746.59 735.05 747.92 732.47 749.06 732.48 749.21 732.91 749.14 734.88 749.53 734.35 750.3 734.29 750.39 734.4 750.73 734.62 750.94 735.88 751.28 736.79 751.84 737.09 752.97 736.82 756.32 736.13 757.89 736 760.69 736.44 762.58 737.38 763.53 737.39 764.46 737.39 764.47 737.39 764.47 736.33 765.49 734.59 765.78 728.23 764.96 726.9 765.16 725.12 766.15 724.98 766.18 723.68 766.48 722.03 766.35 721.46 766.03 719.44 765.94 718.23 765.23 718.15 764.95 717.88 763.95 717.39 763.68 717.36 763.36 716.7 763.4 716.57 763.41 715.41 763.18 714.91 762.76 714.62 762.92 714.61 762.92 714.6 762.93 713.24 763.07 711.55 762.63 710.58 762.63 707.89 762.91 707.57 763.04 707.19 763.78 707.82 764.22 706.92 765.27 707.61 765.82 708.48 765.61 708.26 766.35 708.56 766.58 708.17 766.68 708.06 767.06 707.04 767.42 706.69 767.74 706.64 767.97 706.81 768.1 711.88 768.86 712.55 769.57 714.34 769.84 716.84 770.87 720.03 771.54 720.59 772.51 722.61 772.89 723.52 773.38 723.44 774.13 722.14 774.59 720.42 774.75 720.42 775.23 720.54 775.27 720.86 775.27 723.32 774.77 725.19 775.09 725.7 775.98 728.16 777.36 728.15 777.36 728.16 777.37 726.83 777.77 727.15 777.97 727.15 777.98 727.16 777.99 726.99 778.77 727.15 778.88 730.3 778.65 733.21 779.39 734.18 780.21 734.47 780.27 735.74 780.15 737.18 780.94 738.35 781.2 739.16 781.86 739.9 783.16 740.1 783.16 741.75 782.5 743.92 782.67 746.5 783.45 746.84 783.68 750.03 783.82 750.86 784.92 752.86 786.1 754.64 787.71 753.48 788.57 753.42 789.22 752.78 789.71 753.42 790.17 752.51 791.3 753.78 791.77 753.52 792.88 752.07 793.37 749.22 793.06 746.47 793.3 745.58 793.51 745.52 793.53 745.38 794.32 744.44 794.92 743.26 795.47 741.42 795.51 740.86 795.78 740.96 796.78 739.76 797.19 740.19 798.21 738.77 798.51 738.73 798.56 738.86 798.67 740.13 798.86 740.87 799.9 741.2 799.86 744.53 798.71 746.42 798.75 754.15 801.08 755.3 801.71 755.3 801.72 755.3 801.72 753.86 803.36 753.77 803.41 742.97 809.12 742.68 809.63 745.92 809.85 749.63 809.43 757.45 810.41 758.64 810.83 758.64 810.83 758.65 810.84 760.15 811.97 762.47 812.61 763.74 812.95 767.87 813.53 767.88 813.53 767.9 813.54 768.7 813.76 769.47 813.98 769.49 813.99 769.49 813.99 769.8 814.13 771.38 814.89 771.39 814.9 771.4 814.91 772.28 815.71 772.85 816.69 772.88 818.48 771.92 820.75 770.17 823.1 769.7 827.41 768.72 831 768.95 831.78 770.23 833.9 773.3 836.14 775.12 837.12 775.49 837.72 778.49 839.48 779.38 844.5 779.03 846.02 779.79 849.72 779.79 849.72 779.79 849.72 779.79 849.74 779.83 851.85 780.57 852.44 781.27 853.66 782.55 854.43 783.21 854.59 783.47 854.65 785.35 856.77 793.48 853.2 810.3 848.99 824.17 841.72 833.43 840 841.45 839.78 849.11 838.77 858.98 836.68 859.4 835.98 859.67 835.91 859.31 835.52 859.22 835.5 857.85 835.78 856.79 834.06 857.39 833.78 857.33 832.67 858.63 831.64 859.23 831.76 859.59 830.98 860.38 830.99 859.92 830.45 860.71 830.32 860.58 829.66 861.09 829.75 861.2 829.68 861.2 829.68 861.2 829.68 862.34 829.01 861.96 827.93 861.91 827.91 861.88 828.12 859 826.93 858.98 826.78 858.48 826.79 858.16 826.01 857.94 825.97 857.91 825.99 857.9 825.98 857.24 826.29 856.76 826.18 853.96 826.63 854.45 824.92 854.24 824.28 853.57 824.41 853.61 824.43 852.97 825.84 851.4 825.28 851.01 825.27 849.47 825.71 848.63 824.1 849.16 823.4 849.1 823.38 848.67 822.54 848.42 822.56 847.03 821.46 847.6 821.29 847.4 821.11 848.18 820.84 847.02 819.91 848.27 819.32 848.01 818.61 848.29 818.51 848.24 818.47 849.09 817.52 850.67 817.75 850.67 817.7 852.45 817.43 852.83 816.79 851.24 810 871.37 807.86 868.51 802.87 867.99 801.28 868.03 798.55 869.58 796.75 869.3 796.45 867.99 796.27 859 795.63 854.27 795.42 850.59 795.73 848.28 795.62 846.77 795.22 846.4 794.46 847 793.7 846.62 793.5 844.81 793.26 842.99 792.54 842.3 792.42 839.8 792.43 837.75 792 835.99 789.46 828.98 784.08 827.33 783.27 826.1 783.03 824.58 783.33 822.92 783.37 819.07 783.34 817.25 783.14 815.77 783.27 813.9 782.99 813.09 782.41 812.55 780.56 807.86 778.6 805.54 777.97 803.98 776.69 803.27 776.37 802.8 776.24 799.77 776.13 793.62 776.55 790.9 776.06 788.46 775.26 787.66 774.53 787.7 773.68 788.26 773.23 788.29 773.02 783.37 770.73 780.04 766.95 778.03 765.21 774.79 764.01 773.54 763.06 773.21 762.38 773.54 761.77 778.04 758.49 778.25 758.05 777.89 757.42 775.86 756.53 773.14 755.61 768.39 755.33 766.8 754.91 765.95 754.22 765.79 753.47 767.6 750.86 767.16 749.75 765.56 748.75 764.22 748.42 762.91 746.72 760.63 746.44 758.84 746.47 757.66 745.89 756.72 745.04 756.44 744.95 755.66 744.88 754.07 745.23 752.46 745 751.61 743.48 751.6 741.77 751.17 740.66 750.72 740.1"/><polyline class="cls-25" points="687.28 742.37 684.61 744.36 682.14 745.63 678.58 747.63 676.67 748.38 676.24 748.76 675.65 748.85 675.54 749.09 674.69 749.23 674.71 749.28 672.92 749.95 671.29 750.25 670.91 750.21 668.96 750.94 669 750.98 671.19 751.05 672.73 752.14 673.29 752.93 673.43 754.02 675.15 755.24 675.11 755.31 675.45 755.31 677.72 755.74 678.81 756.47 679.79 756.67 680.16 756.93 682.89 756.86 683.67 756.62 686.33 756.72 685.78 758.23 685.77 758.24 685.77 758.24 682.93 760.3 683.01 760.7 683.59 761.31 685.51 762.44 685.2 763.42 685.19 763.42 685.19 763.43 684.02 764.14 683.95 764.34 684.67 766.03 684.35 766.45 685.96 766.78 687.71 766.38 690.21 766.88 691.04 766.74 695.41 766.59 697.88 767.34 699.61 768.35 700.68 767.39 703.12 766.66 704.2 766.69 706 766.23 704.83 765.32 705.71 764.29 705.17 763.92 705.85 762.56 706.95 762.14 710.26 761.8 711.96 761.79 713.46 762.18 713.5 762.17 714.43 761.66 716.13 762.03 716.73 762.55 718.09 762.45 719.18 762.89 719.24 763.4 719.68 763.64 720.03 764.94 720.37 765.14 722.36 765.23 723 765.57 723.3 765.6 723.86 765.47 725.74 764.42 728.1 764.08 734.41 764.89 734.93 764.8 735.51 764.23 735.5 763.66 734.6 762.74 734.13 760.67 734.26 757.75 734.98 756.15 735.22 752.95 735 752.11 734.63 751.88 733.21 751.49 732.6 750.93 732.39 750.27 732.53 750.08 731.51 750.23 730.66 749.52 730.59 748.71 733 747.64 732.64 747.03 729.45 745.92 728.53 745.36 728.24 744.32 726.24 744.3 723.8 743.98 721.71 743.97 712.63 742.76 704.14 743.07 699.37 742.56 694.77 743.49 693.99 743.27 691.99 743.23 690.73 742.95 689.91 742.44 687.5 742.54 687.28 742.37"/><path class="cls-26" d="M647.55,762.64l-1.06.15-1,.23.56.81h.39l.84-.72.22-.47m7.59-8.2h-.48l-.22.15-1.1.35-.16.13-4.11,1.53-1.64.14-1.43.38,0,.82-1.29-.66-.88-.18-.46-.05-.8.3-.28-.15,0,0-.9.09-.86.44-.22,0-.09.14-2.53.69-1.88.43-.51.16-1.67,0h0l-2.16.59.06.09.14.06.34.15,1.2-.22,1.07.17,1-.11.64.29.16.07.87-.17.59.2,1.21-.19,0,0h0l.82.53,1.68.31h0l.11.23,1.73-.34,0,0h0l.63.33.46-.14,2.16.07,2.49.43.06,0,1.77-.66.87-.08.07-.32,1.73-.11-.61-.54,1.57-.25.54-.49-.4-.11h0l-.75-.9.45-.58-.7-.31.2-.55-.42-.17.66-.66-.87-.53,2.07-.23-.44-.4.43-.23"/><polyline class="cls-27" points="666.89 751.47 666.58 751.6 666.09 751.62 665.38 751.9 663.83 751.92 663.86 752.14 662.84 752.13 662.53 752.31 661.55 752.46 659.26 753.45 658.14 753.73 657.98 753.94 658.03 754.28 656.96 754.83 657.85 755.63 656.04 755.85 655.56 756.33 655.74 756.41 655.54 756.96 656.39 757.33 655.78 758.13 656.06 758.47 657.02 758.73 657.72 759.93 656.14 760.27 655.91 760.22 655.82 760.31 655.48 760.37 656.32 761.11 653.48 761.28 653.42 761.57 651.69 761.71 650.64 762.1 650.88 762.18 650.18 762.28 649.6 762.49 649.15 763.43 647.72 764.66 645.83 764.71 644.56 764.41 643.31 762.61 645.71 762.01 646.05 761.97 644.9 761.93 643.57 762.34 642.71 761.88 640.1 762.39 639.71 761.56 638.42 761.32 638.1 761.11 637.29 761.24 636.76 761.06 635.74 761.25 634.77 760.83 634.23 760.88 633.32 760.74 631.62 761.05 629.84 760.26 629.78 760.17 628.68 760.41 627.24 760.49 626.28 760.73 627.7 761.54 627.71 761.55 627.72 761.55 627.92 761.93 628.99 762.26 628.98 762.27 629 762.28 627.92 763.09 629.04 763.59 629.03 763.6 629.06 763.61 627.98 763.94 628.17 764.39 630.26 764.73 630.24 764.74 630.27 764.74 627.86 766.25 627.5 766.32 627.73 766.37 627.71 766.38 627.74 766.39 626.2 767.45 623.75 767.54 622.71 767.39 622.6 767.41 622.42 767.93 621.46 768.71 622.24 768.78 622.24 768.8 622.25 768.8 622.39 769.4 623.71 769.84 623.91 769.79 624.92 770.37 624.92 770.38 624.94 770.39 624.58 771.62 625.55 772.11 625.55 772.12 625.57 772.13 625.49 772.9 625.3 772.89 625.55 773.03 625.54 773.03 625.57 773.04 624.59 773.48 624.84 773.87 624.68 773.92 625.34 774.59 625.34 774.6 625.36 774.61 624.85 774.72 625.72 775.08 625.71 775.08 625.74 775.09 624.86 775.54 624.77 775.9 625.55 776.1 625.66 776.06 627.38 776.24 628.76 776.85 628.74 776.86 628.77 776.87 628.07 777.05 628.23 777.36 628.3 777.36 629.35 778.62 631.66 780.07 631.66 780.08 631.67 780.09 631.88 780.58 636.2 781.18 637.57 781.71 639.2 781.8 640.3 782.13 641.22 782.63 643.08 784.47 644.43 784.71 645.38 785.37 646.85 786.93 647.75 787.58 648.1 787.32 649.74 787.82 650.85 787.77 652.48 787.3 652.4 786.81 653.88 786.34 654.61 786.6 655.73 786.31 660.37 786.2 662.83 787.7 665.96 787.87 667.84 788.6 669.5 788.86 670.42 789.44 672.38 789.54 672.71 789.75 674.54 788.85 676.56 786.06 676.67 783.6 677.14 782.94 676.42 782 679.58 782.41 680.66 782.92 681.19 782.92 683.27 782.58 684.94 781.88 686.82 781.77 687.18 781.41 688.47 781.29 690.24 781.65 692.8 781.7 694.29 782.04 694.74 782.06 694.71 782.05 695.56 781.36 696.35 781.28 697.12 780.91 700.11 780.67 703.26 780.94 705.23 781.34 707.95 781.21 708.96 781.34 714.03 781.29 717.62 780.66 722.52 780.43 723.9 780.03 724.47 779.48 725.29 779.12 725.03 778.93 725.19 778.19 724.68 777.87 724.91 777.3 725.4 777.15 723.97 776.35 723.62 775.72 723.48 775.7 721.38 776.13 719.99 776.14 718.53 775.61 718.52 774.05 721.24 773.79 721.59 773.67 721.59 773.63 721.51 773.59 719.01 773.12 718.44 772.12 715.83 771.57 713.43 770.58 711.17 770.24 710.5 769.53 705.6 768.79 704.71 768.14 704.84 767.52 704.72 767.55 703.72 767.52 702.17 767.99 700.94 769.08 699.34 769.54 696.61 767.95 694.98 767.45 691.54 767.57 690.23 767.79 687.84 767.31 686.08 767.72 682.01 766.88 682.74 765.93 682.04 764.32 682.24 763.78 683.41 763.07 683.54 762.64 681.96 761.71 681.18 760.87 681.01 760.07 683.99 757.9 684.14 757.5 683.59 757.67 679.2 757.79 678.54 757.31 677.58 757.12 676.5 756.4 675.39 756.18 675.36 756.39 672.56 756.32 673.14 755.34 671.6 754.25 671.45 753.05 671.03 752.46 670.15 751.83 667.93 751.76 667.67 751.56 667.4 751.71 666.89 751.47"/><polyline class="cls-28" points="624.58 761.09 619.07 762.18 616.63 762.41 615.11 762.91 610.85 763.4 609.3 764.62 608.36 764.81 606.23 765.73 603.55 766.45 600.78 766.68 599.59 766.25 598.84 766.49 598.6 766.63 598.87 767 596.77 767.5 595.09 768.38 595.3 768.52 596.16 768.34 595.77 768.84 596.39 769.25 595.33 769.39 595.2 769.55 595.03 769.71 594.83 769.95 592.3 771.25 591.42 771.94 591.36 772.27 590.31 772.52 589.19 773.54 589.16 773.67 589.04 773.68 588.9 773.8 588.13 773.8 587.31 774.2 586.74 774.6 581.18 777.38 575.43 779.54 573.55 780.67 573.27 780.49 570.08 782.21 562.36 785.19 562.59 785.32 563.06 785.98 564.84 786.84 563.78 788.8 561.86 789.88 561.74 790.06 562.05 790.66 563.54 790.94 563.95 791.52 564.09 791.83 563.01 793.1 563.66 793.82 563.58 794.6 563.06 795.45 559.97 797.15 559.61 798.44 559.21 798.68 558.87 799.32 558.65 799.52 557.99 799.78 554.9 801.44 558.4 802.03 560.96 802.14 564.57 801.86 571.53 802.16 574.66 802.67 575.76 803.61 576.45 805.02 579.18 805.75 579.52 806.12 582.91 806.49 582.87 807.07 584.14 806.84 585.97 807.58 587.06 806.78 587.07 806.79 587.1 806.77 587.79 807.31 588.41 806.93 588.42 806.93 588.44 806.92 589.82 806.78 590.94 807.05 591.47 806.92 596.31 806.58 598.35 807.13 599.3 807.85 601.32 808.16 605.21 807.39 607.22 808.05 607.43 808.07 607.45 808.07 606.74 807.62 605.7 807.51 604.38 805.56 604.41 805.54 604.4 805.54 604.45 805.52 606.87 804.09 607.08 803.67 608.28 802.95 608.56 802.04 610.59 800.32 612.99 799.33 614.54 798.89 614.73 797.42 614.8 797.43 614.8 797.41 615.33 797.45 614.35 797.08 611.44 796.35 609.56 796.19 607.21 795.25 604.86 793.79 603.14 791.9 602.91 791.21 603.41 789.98 607.52 789.37 608.54 788.6 610.49 788.21 610.53 788.21 610.56 788.21 612.25 788.21 612.18 787.3 613.6 786.75 613.65 786.75 613.67 786.75 616.68 786.72 617.22 786.43 618.68 786.12 619.35 785.65 620.64 785.22 622.73 783.82 622.77 783.83 622.8 783.82 623.19 783.9 623.32 783.58 623.09 783.08 621.46 781.98 621.79 781.51 621.26 781.07 623.34 780.33 623.32 779.95 623.61 779.79 623.08 779.25 623.44 778.32 624.96 777.53 625.13 777.5 625.17 777.35 620.9 777.39 623.22 776.48 622.72 776.36 623.03 775.15 623.06 775.13 621.44 774.47 622.46 774.26 621.15 773.94 622.64 773.49 622.46 773.19 622.99 772.96 622.35 772.61 623.08 772.12 622.58 771.87 622.82 771.04 622.79 771.05 621 770.59 621.59 770.18 620.59 769.85 620.57 769.73 619.16 769.57 619.14 769.21 618.4 768.89 618.65 768.17 620.05 768.07 620.6 767.62 620.88 766.82 622.52 766.47 623.91 766.67 624.65 766.64 622.86 766.26 626.61 765.55 627.28 765.13 626.54 765.01 626.39 764.68 626.19 764.71 624.75 763.9 626.13 763.47 625.53 763.2 626.49 762.49 626.26 762.42 625.98 761.89 624.58 761.09"/><polyline class="cls-29" points="626.69 778.19 626.13 778.27 625.29 778.71 625.12 779.15 625.87 779.92 625.3 780.25 625.33 780.74 623.77 781.3 623.92 781.43 623.62 781.85 624.94 782.74 625.33 783.58 624.92 784.58 623.94 785 623.5 784.9 622.11 785.84 620.84 786.26 620.06 786.8 618.5 787.13 617.68 787.59 614.41 787.61 614.19 787.7 614.26 788.56 613.52 789.09 610.98 789.08 609.95 789.28 608.87 790.1 605.15 790.65 604.92 791.22 605.07 791.66 606.61 793.35 608.69 794.64 610.48 795.36 612.14 795.5 615.49 796.34 617.92 797.27 618.25 797.88 618.07 799.7 616.56 798.74 616.47 799.41 614.23 800.04 612.2 800.88 610.5 802.33 610.19 803.31 608.94 804.06 608.74 804.49 606.57 805.74 607.24 806.74 607.88 806.8 610.58 808.49 607.63 809.01 606.45 808.9 604.99 808.42 601.42 809.13 598.03 808.6 596.96 807.8 595.94 807.52 592.11 807.79 590.98 808.07 589.56 807.73 589.56 807.73 588.53 808.36 587.11 808.54 587.04 808.49 586.82 808.65 585.33 808.52 583.75 807.88 582.41 808.12 580.89 807.59 580.92 807.2 578.1 806.89 577.64 806.37 574.75 805.61 573.93 803.92 573.32 803.4 571.11 803.04 564.63 802.76 561.02 803.04 557.97 802.91 553.53 802.16 549.58 804.21 547.59 805.52 546.12 806.12 543.54 807.92 541.53 808.66 541.69 810.31 540.89 811.43 538.01 813.31 536.94 813.73 536.47 815.25 535.82 815.09 534.82 815.97 533.12 816.78 533.04 816.91 533.59 816.95 534.37 817.34 535.04 818.15 535.22 819.17 534.97 820.43 533.72 821.68 533.62 822.49 534.21 822.81 533.13 823.68 533.27 823.86 532.73 824.45 532.99 824.88 532.72 825.17 533.93 825.52 533.45 826.51 533.66 826.58 533.68 827.54 534.25 828.21 533.25 829.19 533.17 829.38 533.28 829.51 537.24 831.43 538.38 832.89 540.04 832.91 541.47 832.69 544.09 833.21 544.96 833.02 547.34 831.43 547.34 831.43 547.35 831.43 549.25 832.08 548.88 832.73 550.09 832.87 551.73 833.29 552.61 833.23 553.57 832.91 557.74 832.7 559.06 833.27 561.3 833.38 562.9 832.92 565.6 832.89 568.44 832.3 573.24 832.65 574 832.48 575.26 831.48 575.26 831.48 575.27 831.47 581.19 830.23 582.48 829.81 584.53 828.66 584.72 828.55 586.39 828.48 587.95 828.65 588.52 829.29 590.41 829.52 591.79 830.19 593.04 832.27 593.72 832.23 595.01 831.65 595.5 831.42 597.44 831.22 605.7 831.31 607.3 830.51 607.3 830.51 607.32 830.51 608.97 830.31 611.54 830.62 616.74 830.2 618.46 829.98 623.32 828.88 625.93 829.89 625.83 830.46 628.38 829.75 632.38 828.05 632.58 827.61 631.99 827.17 632.6 826.62 632.61 826.62 632.61 826.62 636.43 825.63 639.3 824.33 640.67 823.71 643.93 822.96 647.1 822.94 648.83 822.72 649.97 822.38 654.12 820.27 654.12 820.27 654.13 820.26 656.98 819.61 661.9 819.48 664.9 819.17 667.37 817.48 667.38 817.48 667.39 817.47 668.96 816.97 671.16 816.66 670.84 816.26 670.63 815.3 670.79 814.4 672.27 812.21 672.36 811.43 672.25 811.26 672.04 811.24 669.8 811.43 668.93 811.75 668.9 811.75 668.9 811.75 666.8 811.17 667.06 810.17 665.84 809.84 665.22 809.67 664.45 809.02 664.31 806.98 665.4 806.24 667.21 805.73 668.66 805.6 670.37 805.65 670.4 805.65 670.4 805.65 672.35 806.14 675.5 805.8 677.69 805.96 677.79 805.91 677.27 805.06 677.68 804.21 678.56 804.16 676.26 802.92 676.42 802.44 675.79 802.11 675.99 801.36 676.97 800.84 676.56 800.2 674.94 799.89 674.94 799.89 674.94 799.88 674.53 799.59 673.05 798.53 672.2 795.97 672.64 795.01 671.42 792.83 671.88 791.91 671.7 790.57 671.37 790.37 669.4 790.27 668.33 789.59 666.92 789.37 665.21 788.7 661.83 788.52 659.49 787.09 656.33 787.17 654.51 787.64 654.45 787.62 654.48 787.77 651.53 788.62 649.28 788.71 648.71 788.54 648.55 788.65 647 788.65 645.12 787.29 643.7 785.76 643.19 785.41 641.69 785.15 639.61 783.08 639.04 782.78 638.57 782.64 636.8 782.54 635.29 781.95 630.23 781.25 629.87 780.4 627.66 779.01 626.98 778.19 626.69 778.19"/><polyline class="cls-30" points="730.05 779.55 727.04 779.77 726.75 779.72 726.06 780.01 725.43 780.64 723.25 781.27 718.17 781.5 714.51 782.15 708.81 782.21 707.87 782.09 705.01 782.22 702.77 781.76 700.2 781.55 698.13 781.72 697.43 782.05 697.69 782.16 697.12 783.05 693.82 782.88 692.39 782.55 689.88 782.51 688.48 782.23 688.14 782.57 685.84 782.7 684.33 783.33 681.6 783.79 679.9 783.79 678.9 783.32 678.58 783.78 678.47 786.24 676.24 789.33 673.62 790.61 673.82 792.02 673.4 792.85 674.62 795.02 674.16 796.03 674.9 798.24 676.21 799.18 678.14 799.55 679.12 801.08 677.86 801.76 677.83 801.85 678.49 802.19 678.32 802.68 681.24 804.25 680.23 804.98 679.31 805.03 679.29 805.07 680 806.21 678.43 806.92 675.66 806.72 672.17 807.1 669.93 806.54 668.9 806.51 668.01 806.59 666.82 806.93 666.31 807.28 666.43 808.82 666.68 809.04 669.18 809.72 668.96 810.58 671.98 810.32 673.76 810.47 674.36 811.37 674.24 812.41 672.75 814.63 672.63 815.34 672.79 816.1 673.13 816.51 676.2 816.53 684.55 817.68 685.8 817.38 689.15 817.19 689.72 817.58 690.45 817.44 690.97 817.49 691.64 816.44 691.74 816.28 691.74 816.28 691.75 816.26 692.16 816.08 691.38 815.19 691.6 814.49 691.63 814.48 691.63 814.47 693.39 813.36 696.11 813.18 697.85 812.79 700.57 813.11 703.34 812.67 710.89 810.41 718.84 808.93 719.95 808.14 722.33 807.41 724.6 807.61 725.5 807.45 726.95 807.45 727.16 807.18 727.14 805.81 727.15 805.81 727.15 805.79 732.22 804.72 734.11 803.46 736.42 803.5 736.48 803.36 736.48 803.36 736.49 803.35 738.98 802.42 739.24 802.2 739.21 801.9 738.72 801.44 738.72 801.41 738.71 801.41 738.7 800.15 738.88 800.13 738.96 800.02 738.62 799.55 737.55 799.39 736.63 798.58 737.19 797.84 738.02 797.67 737.64 796.77 738.99 796.32 738.9 795.4 740.48 794.65 742.33 794.61 742.98 794.3 743.5 793.96 743.65 793.13 744.3 792.79 745.73 792.46 749.13 792.16 751.53 792.42 751.69 792.36 751.75 792.11 750.21 791.55 751.29 790.22 750.53 789.67 751.53 788.91 751.59 788.26 752.45 787.62 751.25 786.53 749.16 785.29 748.66 784.62 745.83 784.5 745.16 784.05 743.3 783.49 742.43 783.42 740.87 784.05 738.42 783.97 737.38 782.14 737.01 781.84 736.03 781.62 735.09 781.1 734.34 781.17 732.84 780.85 731.83 780 730.05 779.55"/><polyline class="cls-31" points="745.24 799.61 742.14 800.69 740.64 800.86 740.65 801.25 741.13 801.7 741.22 802.45 740.53 803.03 738.27 803.87 738.03 804.43 735.17 804.37 733.56 805.45 729.11 806.39 729.12 807.37 728.36 808.35 725.97 808.35 724.9 808.55 722.85 808.37 721.4 808.81 720.18 809.67 711.87 811.22 704.27 813.5 700.75 814.06 698.15 813.75 696.76 814.06 694.53 814.21 693.49 814.87 693.41 815.1 694.48 816.32 693.5 816.77 692.36 818.58 690.71 818.4 689.06 818.72 688.25 818.17 686.47 818.27 684.84 818.67 675.98 817.45 672.64 817.42 669.87 817.81 668.82 818.15 666.12 819.99 662.16 820.4 657.55 820.52 655.36 821.02 651.28 823.1 649.67 823.58 647.43 823.86 644.45 823.88 641.85 824.49 637.65 826.39 634.41 827.23 634.7 827.44 634.2 828.55 629.58 830.51 625.62 831.62 623.69 831.37 623.87 830.29 623.07 829.98 619.18 830.86 617.15 831.12 611.49 831.58 608.99 831.28 608.38 831.35 606.55 832.26 597.66 832.16 596.49 832.28 594.63 833.13 591.6 833.3 590.02 830.67 589.39 830.37 587.08 830.09 586.52 829.46 586.26 829.43 585.71 829.45 583.83 830.5 582.17 831.05 576.66 832.21 575.42 833.2 573.55 833.63 568.7 833.28 566.03 833.83 563.47 833.86 561.75 834.35 558.2 834.17 557.06 833.68 554.27 833.83 553.34 834.13 551.34 834.27 549.36 833.75 547.34 833.53 547 833.28 546.27 833.77 544.1 834.24 541.37 833.69 540.31 833.86 535.58 833.79 536.43 833.12 535.52 831.95 533.71 831.07 534.18 831.49 533.29 832.57 534.08 833 534.13 833.86 531.64 836.2 531.74 836.61 530.12 837.56 529.64 838.84 529.81 838.87 532.1 838.76 534.74 839.36 536.95 840.59 537.2 841.1 539.18 841.39 539.96 842.47 540.53 842.74 541.39 844.32 542.19 844.6 542.23 844.82 542.27 844.83 542.93 844.32 544.52 845.43 544.88 846.14 544.39 846.61 545.17 847.33 544.17 847.44 542.29 851.76 542.25 852.84 540.81 855.14 540.66 855.72 540.24 855.88 539.21 856.53 535.62 860.09 535.51 860.6 534.07 861.62 534.14 861.98 532 863.37 531.6 863.91 523.27 867.84 522.69 868.59 520.88 869.64 520.14 870.5 519.58 870.68 519.53 871.17 519.3 871.22 519.47 871.52 518.79 871.72 518.85 872 518.37 872.15 518.5 872.53 517.85 873.16 516.67 873.75 515.44 875.05 513.41 875.95 512.04 876.91 510.06 878.92 507.75 879.99 505.3 880.6 503.6 881.31 503.01 881.87 499.62 883.72 499.36 884.39 498.21 884.66 497.77 885.19 499.51 885.88 500.07 885.94 501.88 885.75 505.58 885.97 507.89 886.11 510.6 885.84 510.62 885.84 510.66 885.84 512.63 886.13 513.3 886.74 513.51 886.79 514.5 886.73 520.33 884.64 522.84 884.24 522.85 884.24 522.9 884.23 525.04 884.53 526.58 884.22 526.92 884.06 529.27 880.96 531.3 879.79 533.17 879.51 533.18 879.51 533.23 879.51 535.81 879.62 537.94 880.55 539.22 881.71 541.27 881.56 542.05 881.75 542.17 881.73 545 881.36 548.49 880.46 550.98 880.23 552.63 880.08 554.3 879.41 555.54 878.22 555.58 878.22 555.58 878.21 558.63 877.82 560.27 878.17 562.68 878.13 565.29 878.83 566.22 880 566.9 880.43 568.4 877.33 570.43 875.31 572.04 874.76 573.11 874.47 576.81 874.74 580.22 874.71 581.62 874.35 593.31 872.65 593.57 872.41 593.39 872.2 591.63 871.57 591.63 871.57 591.6 871.56 590.28 870.05 590.4 866.26 591 865.1 592.76 863.75 594.62 862.8 594.75 862.35 594.27 862.33 591.68 862.82 591.65 862.81 591.64 862.81 589.87 862.07 589.72 860.15 592.14 859.09 594.39 858.8 597.02 858.85 598.69 859.07 598.7 859.07 598.73 859.08 607.43 861.14 608.6 861.12 609.25 860.93 610.21 860.28 611.91 858.16 613.98 857.29 615.62 857.12 615.63 857.12 615.66 857.11 617.58 857.32 623.85 859.45 627.35 860.17 628.89 860.31 629.48 860.1 629.49 860.1 629.5 860.1 631.99 859.79 635.39 858.03 637.95 857.21 637.95 857.21 637.98 857.2 640.48 857.03 644.55 857.61 647.12 857.66 647.56 857.54 648.23 857.14 648.27 856.92 646.43 853.16 646.61 852.43 648.26 850.78 650.39 849.87 650.53 849.81 651.56 849.52 653.45 849 653.46 849 653.47 849 657.77 850.31 658.39 850.5 658.56 850.59 659.44 851.09 660.02 851.63 660.08 851.68 660.09 851.72 660.68 853.22 661.84 853.76 664.17 853.96 671.97 854.13 672.62 853.9 673.3 851.83 675.58 849.06 677.89 847.8 678.19 847.64 678.43 847.6 679.42 847.42 682.05 847.61 687.15 848.71 689.32 848.71 691.86 847.99 693.12 847.81 695.44 846.16 697 845.46 697.18 845.37 697.19 845.37 697.19 845.37 698.65 845.1 700.5 845.05 703.61 845.83 706.21 847.1 715.21 853.4 717.81 856.02 718.64 860.6 717.8 863.17 718.36 865.63 717.93 868.3 718.72 870.25 718.7 870.38 723.45 870.29 725.61 870.43 726.12 870.35 726.09 870.11 730.17 869.92 735.64 870.5 736.88 870.2 738.08 870.22 741.21 869.7 745.21 869.53 746.03 869.17 749.98 868.94 753.37 869.42 755.3 870.08 755.29 870.86 754.31 871.66 754.28 871.85 754.57 871.84 756.33 871.04 759.03 872.33 760.05 872.41 761.31 872.77 762.82 872.75 762.27 872.37 763.99 872 773.59 864.54 774.08 863.83 773.5 862.61 775.72 860.53 777.42 859.99 777.96 859.46 783.42 857.33 783.66 857.29 781.93 855.34 781.3 855.18 779.44 854.06 778.7 852.76 777.81 852.05 777.77 849.69 777.01 845.94 777.34 844.42 776.53 839.79 773.68 838.11 773.32 837.53 771.67 836.63 768.39 834.24 766.97 831.86 766.7 830.93 767.71 827.23 768.2 822.84 770.02 820.41 770.9 818.32 770.87 816.73 770.43 815.97 769.8 815.39 768.31 814.68 767.18 814.37 763.06 813.78 758.77 812.62 757.2 811.42 756.67 811.23 749.74 810.37 746.14 810.77 741.87 810.49 740.48 809.87 741.17 808.64 752.15 802.84 753.06 801.82 752.9 801.73 745.9 799.63 745.24 799.61"/><polyline class="cls-32" points="418.87 913.82 414.05 914.82 412.46 915.11 401.94 917.8 393.02 918.9 391.66 918.89 373.73 920.78 359.44 921.7 356.97 922.06 354.2 922.13 353.83 922.28 353.35 922.75 352.09 923.04 351.72 923.47 350.68 923.99 348.74 926.62 347.52 927.09 345.99 928.51 344.38 929.17 341.81 929.66 338.96 930.54 336.98 932.58 334.44 936.48 330.68 940.76 329.36 941.79 329.05 942.47 322.07 947.78 321.27 949.54 320.98 949.86 321.18 950.28 320.21 951.21 320.2 951.37 317.02 954.64 314.92 957.64 312.51 960.16 309.46 962.59 306.42 964.14 302.44 965.68 287.39 970.13 283.57 971.71 276.9 973.03 271.28 973.34 269.88 974.56 267.03 976.23 261.31 978.47 256.88 978.95 251.76 982.08 250.64 983.12 251.23 984.2 250.56 986.46 249.49 988.23 244.08 993.28 240.55 995.6 239.2 996.13 236.71 999.72 235.14 1001.26 234.9 1002.46 233.71 1004.02 231.77 1005.67 227.22 1008.55 226.5 1010.09 223.69 1012.89 223.46 1014.43 221.84 1016.15 221.98 1017.68 221.13 1018.96 221.43 1019.87 221.16 1020.29 221.56 1020.45 222.06 1021.68 220.99 1024.59 220.18 1025.7 220.17 1027.03 215.46 1032.3 214.96 1033.19 214.91 1034.88 209.92 1037.06 207.67 1037.65 207.24 1038.4 210.77 1038.72 217.57 1040.33 218.92 1040.65 219.25 1040.79 220.95 1041.47 223.87 1044.4 225.31 1044.89 226.85 1045.08 234.65 1044.39 248.23 1042.53 249.17 1042.5 261.94 1042.12 278.17 1044.26 282.6 1045.32 285.02 1045.65 295.9 1044.04 300.92 1042.82 310.13 1041.06 321.37 1040.5 339.65 1042.55 352.49 1045.07 357.64 1045.08 372.47 1043.34 383.01 1043.34 386.12 1043.77 388.81 1043.45 395.91 988.35 369.78 988.41 369.37 984.76 368.55 982.99 368.3 980.83 367.58 978.86 366.39 977.76 366.28 976.18 364.64 973.07 364.29 971.72 364.69 970.21 366.33 967.7 369.82 964.49 375.56 961.2 381.72 958.26 385.43 956.02 390.12 950.74 393.49 947.88 396.85 942.16 399.69 938.95 408.17 933.08 412.97 931.01 416.38 929.99 427.31 930.01 426.73 927.66 429.79 927.25 432.44 927.27 429.27 925.2 426.79 922.96 425.25 920.14 421.54 918.07 418.87 913.82"/><polyline class="cls-33" points="700.15 846.02 699.17 846.05 698.34 846.2 697.01 846.81 694.43 848.64 692.75 848.88 689.95 849.68 686.79 849.68 681.55 848.54 679.73 848.41 679.41 848.47 677.33 849.59 675.26 852.12 674.49 854.47 672.66 855.12 663.92 854.93 660.9 854.66 658.8 853.68 658.15 851.98 657.75 851.62 657.08 851.23 653.46 850.13 651.74 850.61 649.91 851.39 648.58 852.73 648.48 853.13 650.31 856.87 650.2 857.54 648.92 858.31 647.67 858.65 644.23 858.59 640.35 858.03 638.73 858.15 636.74 858.79 633.09 860.68 630.39 861.01 629.39 861.37 626.77 861.12 622.85 860.32 616.74 858.23 615.66 858.12 614.95 858.19 613.63 858.75 612.02 860.76 610.67 861.67 609.23 862.1 607 862.13 597.99 859.99 596.73 859.83 594.63 859.79 593.15 859.98 591.78 860.58 591.87 861.61 592.03 861.67 593.89 861.32 596.07 861.38 596.9 861.96 596.56 863.25 594.38 864.37 592.9 865.5 592.44 866.39 592.33 869.86 593.26 870.91 595.07 871.56 595.83 872.48 594.73 873.5 582.4 875.29 580.75 875.71 576.68 875.75 573.49 875.52 573.08 875.63 572.04 875.98 570.35 877.68 568.27 881.97 566.26 881.97 566.08 881.61 564.36 880.5 563.61 879.55 562.15 879.16 559.82 879.19 558.41 878.89 556.95 879.08 555.93 880.05 553.51 881.03 549.16 881.43 545.74 882.32 541.77 882.84 540.87 882.62 538.74 882.78 537.65 882.5 536.24 881.21 534.87 880.62 533.35 880.54 532.46 880.68 531.07 881.48 528.69 884.63 527.7 885.09 525.12 885.62 522.85 885.31 521.25 885.56 515.25 887.71 513 887.86 511.69 887.49 511.15 887 510.46 886.9 507.9 887.15 501.92 886.79 500.02 886.98 498.53 886.83 496.36 885.97 493.16 887.82 486.46 890.07 477.41 892.63 464.81 895.89 462.91 896.21 461.52 896.67 461.48 896.91 458.84 898.54 457.69 898.82 455.8 899.84 453.23 900.74 450.8 902.23 447.74 903.42 445.37 904.82 445.38 905.18 442.92 906.28 441.78 907.37 439.71 908.25 438.42 909.56 435.01 910.65 436.94 912.01 432.35 911.32 432.35 911.27 428.29 912.13 427.9 912.17 425.85 912.47 420.9 913.44 423.44 917.48 427.18 919.57 428.78 922.5 431.11 924.6 436.99 928.4 429.93 928.35 429.1 928.46 429.77 931.11 416.85 931.09 414.14 931.9 409.7 933.82 401.55 939.47 398.88 942.5 395.49 948.28 392 951.24 387.27 956.6 383.19 959.06 377.01 962 371.59 965.12 368.35 968.11 366.86 970.39 366.53 971.63 366.84 972.78 368.49 975.9 368.61 977.35 369.71 978.37 370.52 980.62 370.78 982.72 371.6 984.49 371.9 987.21 397.18 987.15 594.32 987.09 593.28 896.95 605.22 894.24 612.75 890.55 620.83 887.33 622.32 887.3 626.1 885.84 632.03 884.08 632.36 883.65 633.87 882.81 638.71 881.39 641.88 879.99 647.64 878.64 649.13 878.45 649.35 878.49 650.12 877.88 649.98 877.06 652.16 876.18 658.17 876.55 662.65 876.05 663.53 876.08 664.18 875.79 666.33 875.48 671.29 872.95 676.48 871.73 679.2 871.74 683.74 872.59 685.54 872.27 687.05 872.58 689.8 872.49 691.25 872.89 693.21 872.96 694.5 873.42 697.12 873.58 697.71 873.49 699.52 872.34 701.29 871.97 704.55 871.84 705.29 871.5 710.18 871.76 710.62 871.46 713.72 870.57 715.18 870.41 716.62 870.52 716.65 870.26 715.87 868.3 716.31 865.59 715.75 863.09 716.59 860.51 715.82 856.23 713.43 853.82 704.68 847.69 702.44 846.6 700.15 846.02"/><path class="cls-34" d="M137.53,1072l-.09,0-.1.2.19-.24m68.56-32.4-.42.61-1.57.69-6.81,1.43-2.65.78-5.35,2.69-6.66,4.3-6,2.35-6.33,3.32-1,.32-1.15,1-2.7.94-.28.23.39.45-1.94,1.27-5.15,1.85-1.92.51-1.8,2,.37,1.1L153,1066.9l.52-.19.56,1.7-1.91.65-1.06,1.16-2.52,1-1.72,1.57-2.43,1.4-1.23,1.11-1.25.72-.89.17-2.61,2.39-1.16.36-1.55,1.14-1.52.44.86,1.1-3,2.76-2.43,1.56-3.68,1.65.18.61-4.64,3.19-.18.9-1.14,1-3.38,2-1.69.57-.28.26h0l1.64.71.85,1,.12,1.25-1,1.84-2.46,1.81-3.47,1.66-5,1.07-.11,0-.41.53.49.08-.1,1.29-4.3,3.27-.76,1.14-.93,3.17-1.16,1-1,2-2.57,1.5-2.91,1-.7.56-.2.78-1.19,1-1.41,2.83-1.9,1.51-1,.41-.31,1.07-4.67,1.65-4.57.88-2.83.15-.8-1.1-.74,0-.81.34-1.48,1.09-3.83,1.53-.2.2.2.64-1,1-2.34.59-6.55,7.07-2.14,1.8-.06.84-1,1.2-4.84,3-.77,1.48.78.13-.36,1.21L44.5,1154l-.29,2.31-1.54,2.26-.5,2.12-6.85,10-.25,1.59-3.15,4.62.1,1-2.75,3.75-.18.52,2.5-2,8-10.12,2.38-.26H42l132.31-.59,130.68.56.84-58.33.95-2.39,4.95-8.48,3.34-3.72,6.63-5.24.06,0,7.7-4.67,6.57-2.47,48-2.6,4.55-37-2.72.32-3.36-.46h-10l-14.85,1.74h-5.79l-13.12-2.59-17.75-2-10.62.53-8.88,1.69-5.16,1.25L284.79,1047l-3.24-.45-4.43-1-15.67-2.07-13.14.4-13.52,1.85-8.32.74-2.3-.3-2.15-.73-3-3-1.52-.61-7.71-1.83-3.74-.33"/><path class="cls-35" d="M920.13,705.07a32.75,32.75,0,0,0-5.69-17.52,29.34,29.34,0,0,0-14.2-11.12,26.92,26.92,0,0,0-10-1.62,27.22,27.22,0,0,0-10,1.6,29.44,29.44,0,0,0-14.22,11.14,32.74,32.74,0,0,0-5.7,17.53,31.81,31.81,0,0,0,1.88,11.6c2.26,6.28,11.35,19.49,18.22,29.49,2.34,3.37,4.4,6.37,5.84,8.58l.16.25.16.25,0,0c1.41,2.1,2.68,2.89,4.17,2.62,1.34-.22,2.28-1.28,3.38-3,1.42-2.17,3.48-5.18,5.81-8.57,6.9-10,16.09-23.36,18.38-29.68A32.35,32.35,0,0,0,920.13,705.07ZM904.43,720a20.22,20.22,0,1,1,5.9-14.28A20,20,0,0,1,904.43,720Z"/><path class="cls-36" d="M865.53,763.59c-7-2.13-11.35-5.33-11.35-9.13s4.34-7,11.35-9.12c.31-.1.63-.19,1-.27a2,2,0,0,1,1.58,3.49h0l-1.44.4c-5.34,1.62-8.64,3.58-8.64,5.5s3.3,3.88,8.64,5.51c13,3.94,34.09,3.94,47.12,0,5.34-1.63,8.64-3.59,8.64-5.51s-3.3-3.88-8.64-5.5c-.46-.14-.94-.27-1.43-.4h0a2,2,0,0,1,1.58-3.49c.32.08.65.17,1,.27,7,2.12,11.34,5.33,11.34,9.12s-4.34,7-11.34,9.13c-13.81,4.18-35.53,4.18-49.32,0Z"/><path class="cls-18" d="M900.25,715.79a14.28,14.28,0,1,1,4.17-10.09A14.17,14.17,0,0,1,900.25,715.79Z"/><path class="cls-37" d="M86.26,542.82c0,1.41,0,2.8.11,4.17"/><path class="cls-38" d="M87.26,555.32c26.42,159.5,567.44,53.83,612.23,105.61"/><path class="cls-39" d="M701.68,664.49a11,11,0,0,1,.75,4.07"/><path class="cls-40" d="M330.94,542.82a23.64,23.64,0,0,0,.36,4.15"/><path class="cls-41" d="M334.08,554.64C368.52,616,674.92,603,700.71,660.53"/><path class="cls-42" d="M702,664.42a19.52,19.52,0,0,1,.44,4.14"/><path class="cls-43" d="M569.21,542.82a37.66,37.66,0,0,0,.24,4.16"/><path class="cls-44" d="M571.35,554.82c16.34,43.66,121.35,48,130.45,105.55"/><path class="cls-45" d="M702.27,664.39c.11,1.36.16,2.75.16,4.17"/><path class="cls-46" d="M787.63,542.82a13.28,13.28,0,0,1-.67,4.1"/><path class="cls-47" d="M783,554.14c-8,10.78-24.18,21.69-29.49,34.27"/><path class="cls-48" d="M752.27,592.33a19.09,19.09,0,0,0-.47,4.13"/><path class="cls-49" d="M654.12,832.77q0,2.13.15,4.17"/><path class="cls-50" d="M655.61,845.31c20.18,80.9,237.84,63.17,248.42,172.42"/><path class="cls-51" d="M904.33,1022c.06,1.37.1,2.76.1,4.17"/><path class="cls-52" d="M589.87,874.58c0,1.41,0,2.8.07,4.17"/><path class="cls-53" d="M590.51,887.31c9.67,92.19,126.85,44.4,133.93,130.39"/><path class="cls-54" d="M724.7,1022c0,1.36.07,2.75.07,4.17"/><path class="cls-55" d="M424.63,971c0,1.44.06,2.83.16,4.17"/><path class="cls-56" d="M426.2,983.06c14.72,50.74,128.74-1.71,142.2,35"/><path class="cls-57" d="M569.39,1022a27,27,0,0,1,.31,4.15"/><path class="cls-58" d="M927.22,544.91a7.85,7.85,0,0,1-1.44,3.85"/><path class="cls-59" d="M920.65,555.05C897,579.84,816.86,633,799.6,657"/><path class="cls-60" d="M797.45,660.42a9.1,9.1,0,0,0-1.14,4"/><path class="cls-61" d="M1066.91,544.91a6.51,6.51,0,0,1-1.8,3.68"/><path class="cls-62" d="M1059.08,554.24c-30.67,24.55-142,79-164.82,103.1"/><path class="cls-63" d="M891.65,660.55a7.29,7.29,0,0,0-1.47,3.84"/><path class="cls-6" d="M911.54,1035.36a10.1,10.1,0,1,0,3,7.14A10,10,0,0,0,911.54,1035.36Zm-3.15,11.13a5.66,5.66,0,1,1,1.64-4A5.58,5.58,0,0,1,908.39,1046.49Z"/><path class="cls-6" d="M731.89,1035.36a10.1,10.1,0,1,0,3,7.14A10,10,0,0,0,731.89,1035.36Zm-3.15,11.13a5.66,5.66,0,1,1,1.64-4A5.59,5.59,0,0,1,728.74,1046.49Z"/><path class="cls-6" d="M576.82,1035.36a10.1,10.1,0,1,0,3,7.14A10,10,0,0,0,576.82,1035.36Zm-3.15,11.13a5.66,5.66,0,1,1,1.64-4A5.58,5.58,0,0,1,573.67,1046.49Z"/><text class="cls-64" transform="translate(1017.46 493.88)">Oriental</text><text class="cls-65" transform="translate(1026.07 457.53)">24</text><path class="cls-6" d="M1074,517.23a10.1,10.1,0,1,0,3,7.14A10,10,0,0,0,1074,517.23Zm-3.15,11.13a5.64,5.64,0,1,1,0-8,5.66,5.66,0,0,1,0,8Z"/><text class="cls-64" transform="translate(894.9 493.88)">Saiss</text><text class="cls-65" transform="translate(886.37 457.53)">32</text><path class="cls-6" d="M934.34,517.23a10.08,10.08,0,0,0-17.2,7.14,10.09,10.09,0,0,0,10.08,10.11,10.11,10.11,0,0,0,10.07-10.11A10.09,10.09,0,0,0,934.34,517.23Zm-3.15,11.13a5.66,5.66,0,1,1,1.64-4A5.66,5.66,0,0,1,931.19,528.36Z"/><text class="cls-64" transform="translate(757.15 493.88)">Nord</text><text class="cls-65" transform="translate(746.8 457.53)">25</text><path class="cls-6" d="M794.76,517.23a10.08,10.08,0,0,0-17.2,7.14,10.09,10.09,0,0,0,10.08,10.11,10.11,10.11,0,0,0,10.07-10.11A10.09,10.09,0,0,0,794.76,517.23Zm-3.16,11.13a5.6,5.6,0,0,1-7.94,0,5.64,5.64,0,0,1,4-9.62,5.63,5.63,0,0,1,5.61,5.63A5.62,5.62,0,0,1,791.6,528.36Z"/><path class="cls-6" d="M576.33,517.23a10.1,10.1,0,1,0,3,7.14A10,10,0,0,0,576.33,517.23Zm-3.15,11.13a5.66,5.66,0,1,1,1.64-4A5.59,5.59,0,0,1,573.18,528.36Z"/><path class="cls-6" d="M338.06,517.23a10.1,10.1,0,1,0,3,7.14A10,10,0,0,0,338.06,517.23Zm-3.15,11.13a5.66,5.66,0,1,1,1.64-4A5.61,5.61,0,0,1,334.91,528.36Z"/><text class="cls-64" transform="translate(817.37 1155.8)">Rabat-Kénitra</text><text class="cls-65" transform="translate(863.58 1119.44)">44</text><text class="cls-64" transform="translate(694.41 1155.8)">Sous</text><text class="cls-65" transform="translate(683.94 1119.44)">31</text><text class="cls-64" transform="translate(502.14 1155.8)">Centre Sud</text><text class="cls-65" transform="translate(528.86 1119.44)">34</text><path class="cls-6" d="M93.38,517.23a10.08,10.08,0,0,0-17.2,7.14,10.09,10.09,0,0,0,10.08,10.11,10.11,10.11,0,0,0,10.07-10.11A10.09,10.09,0,0,0,93.38,517.23Zm-3.15,11.13a5.66,5.66,0,1,1,1.64-4A5.66,5.66,0,0,1,90.23,528.36Z"/><text class="cls-64" transform="translate(516.43 494.41)">Casa Est</text><text class="cls-65" transform="translate(528.38 458.05)">47</text><text class="cls-64" transform="translate(257.5 494.41)">Casa Centre</text><text class="cls-65" transform="translate(290.11 458.05)">33</text><text class="cls-64" transform="translate(29.96 494.41)">Casa Sud</text><text class="cls-65" transform="translate(45.43 458.05)">37</text><path class="cls-66" d="M826.25,706a32.75,32.75,0,0,0-5.69-17.51,29.42,29.42,0,0,0-14.2-11.13,32,32,0,0,0-20.08,0,29.38,29.38,0,0,0-14.22,11.14,32.71,32.71,0,0,0-5.7,17.53,31.84,31.84,0,0,0,1.88,11.6c2.26,6.27,11.35,19.49,18.22,29.49,2.34,3.36,4.4,6.37,5.84,8.58l.16.24.16.26,0,0c1.41,2.1,2.68,2.9,4.17,2.63s2.28-1.28,3.38-3c1.42-2.17,3.48-5.17,5.81-8.57,6.9-10,16.09-23.36,18.38-29.67A32.4,32.4,0,0,0,826.25,706Zm-15.7,14.92a20.22,20.22,0,1,1,5.9-14.28A20.08,20.08,0,0,1,810.55,720.89Z"/><path class="cls-67" d="M771.65,764.5c-7-2.13-11.35-5.34-11.35-9.14s4.34-7,11.35-9.12c.31-.09.63-.19,1-.27a2,2,0,0,1,1.58,3.49h0l-1.44.41c-5.34,1.61-8.64,3.58-8.64,5.49s3.3,3.88,8.64,5.51c13,4,34.09,4,47.12,0,5.34-1.63,8.64-3.58,8.64-5.51s-3.3-3.88-8.64-5.49l-1.43-.41h0A2,2,0,0,1,820,746c.32.08.65.18,1,.27,7,2.13,11.34,5.34,11.34,9.12s-4.34,7-11.34,9.14c-13.81,4.17-35.53,4.17-49.32,0Z"/><path class="cls-18" d="M806.37,716.7a14.28,14.28,0,1,1,4.17-10.09A14.17,14.17,0,0,1,806.37,716.7Z"/><path class="cls-68" d="M732.18,705.2a32.75,32.75,0,0,0-5.69-17.51,29.44,29.44,0,0,0-14.19-11.13,32.24,32.24,0,0,0-20.09,0A29.42,29.42,0,0,0,678,687.69a32.57,32.57,0,0,0-5.7,17.53,31.62,31.62,0,0,0,1.87,11.6c2.26,6.28,11.36,19.49,18.23,29.49,2.33,3.37,4.39,6.37,5.83,8.58l.16.24.16.26,0,0c1.41,2.11,2.68,2.9,4.17,2.63s2.28-1.28,3.39-3c1.41-2.16,3.47-5.17,5.8-8.56,6.9-10,16.09-23.36,18.38-29.68A32.4,32.4,0,0,0,732.18,705.2Zm-15.7,14.92a20.19,20.19,0,1,1,5.91-14.28A20.05,20.05,0,0,1,716.48,720.12Z"/><path class="cls-69" d="M677.58,763.73c-7-2.13-11.35-5.34-11.35-9.14s4.34-7,11.35-9.12c.31-.09.63-.19.95-.27a2,2,0,0,1,2.23,1.09,1.94,1.94,0,0,1-.65,2.4h0l-1.44.41c-5.34,1.61-8.64,3.58-8.64,5.49s3.3,3.88,8.64,5.51c13,3.95,34.1,3.95,47.12,0,5.34-1.63,8.64-3.58,8.64-5.51s-3.3-3.88-8.64-5.49c-.45-.14-.94-.27-1.42-.41h0a1.95,1.95,0,0,1,1.57-3.49c.33.08.65.18,1,.27,7,2.13,11.34,5.34,11.34,9.12s-4.34,7-11.34,9.14c-13.81,4.17-35.53,4.17-49.32,0Z"/><path class="cls-18" d="M712.3,715.93a14.28,14.28,0,1,1,4.17-10.09A14.17,14.17,0,0,1,712.3,715.93Z"/><path class="cls-70" d="M681.65,754.8A32.65,32.65,0,0,0,676,737.29a29.46,29.46,0,0,0-14.2-11.13,32,32,0,0,0-20.09,0,29.41,29.41,0,0,0-14.21,11.14,32.71,32.71,0,0,0-5.7,17.53,32,32,0,0,0,1.87,11.6c2.27,6.27,11.36,19.49,18.23,29.49,2.33,3.36,4.39,6.37,5.83,8.58l.17.24.16.26v0c1.42,2.1,2.68,2.9,4.18,2.63,1.33-.23,2.27-1.28,3.38-3,1.41-2.17,3.47-5.17,5.8-8.57,6.9-10,16.09-23.36,18.38-29.67A32.18,32.18,0,0,0,681.65,754.8ZM666,769.72a20.22,20.22,0,1,1,5.9-14.28A20.08,20.08,0,0,1,666,769.72Z"/><path class="cls-71" d="M627.05,813.33c-7-2.13-11.34-5.34-11.34-9.14s4.34-7,11.34-9.12c.31-.09.63-.19,1-.27a1.95,1.95,0,0,1,1.57,3.49h0l-1.44.41c-5.33,1.61-8.63,3.58-8.63,5.49s3.3,3.88,8.63,5.51c13,3.95,34.1,3.95,47.13,0,5.33-1.63,8.63-3.58,8.63-5.51s-3.3-3.88-8.63-5.49l-1.43-.41h0a2,2,0,0,1,1.58-3.49c.32.08.64.18,1,.27,7,2.13,11.35,5.34,11.35,9.12s-4.34,7-11.35,9.14c-13.81,4.17-35.52,4.17-49.32,0Z"/><path class="cls-18" d="M661.78,765.53A14.28,14.28,0,1,1,666,755.44,14.18,14.18,0,0,1,661.78,765.53Z"/><path class="cls-72" d="M618,800.76a32.75,32.75,0,0,0-5.69-17.51,29.42,29.42,0,0,0-14.2-11.13,32.2,32.2,0,0,0-20.08,0,29.44,29.44,0,0,0-14.22,11.14,32.65,32.65,0,0,0-5.69,17.53,31.62,31.62,0,0,0,1.87,11.6c2.26,6.28,11.36,19.49,18.23,29.49,2.33,3.37,4.39,6.37,5.83,8.58l.16.24.16.26,0,0c1.41,2.1,2.68,2.89,4.17,2.62,1.34-.23,2.28-1.28,3.38-3,1.42-2.16,3.48-5.17,5.81-8.56,6.9-10,16.09-23.36,18.38-29.68A32.4,32.4,0,0,0,618,800.76Zm-15.7,14.92a20.22,20.22,0,1,1,5.9-14.28A20.08,20.08,0,0,1,602.31,815.68Z"/><path class="cls-73" d="M563.41,859.29c-7-2.13-11.35-5.34-11.35-9.14s4.34-7,11.35-9.12c.31-.09.63-.19,1-.27a2,2,0,0,1,2.23,1.09,1.94,1.94,0,0,1-.65,2.4h0l-1.44.41c-5.34,1.61-8.64,3.58-8.64,5.49s3.3,3.88,8.64,5.51c13,4,34.1,4,47.12,0,5.34-1.63,8.64-3.58,8.64-5.51s-3.3-3.88-8.64-5.49c-.45-.14-.94-.27-1.42-.41h0a1.95,1.95,0,0,1,1.57-3.49l1,.27c7,2.13,11.34,5.34,11.34,9.12s-4.34,7-11.34,9.14c-13.81,4.17-35.53,4.17-49.32,0Z"/><path class="cls-18" d="M598.13,811.49a14.28,14.28,0,1,1,4.17-10.09A14.17,14.17,0,0,1,598.13,811.49Z"/><path class="cls-74" d="M454.58,898.12a32.65,32.65,0,0,0-5.68-17.51,29.46,29.46,0,0,0-14.2-11.13,32,32,0,0,0-20.09,0,29.36,29.36,0,0,0-14.21,11.14,32.63,32.63,0,0,0-5.7,17.53,31.83,31.83,0,0,0,1.87,11.6c2.27,6.27,11.36,19.49,18.23,29.49,2.33,3.36,4.39,6.37,5.83,8.58l.16.24.17.26v0c1.41,2.1,2.68,2.9,4.18,2.63,1.33-.23,2.27-1.28,3.38-3,1.41-2.17,3.47-5.17,5.8-8.57,6.9-10,16.09-23.36,18.38-29.67A32.18,32.18,0,0,0,454.58,898.12ZM438.89,913a20.21,20.21,0,1,1,5.9-14.28A20.08,20.08,0,0,1,438.89,913Z"/><path class="cls-75" d="M400,956.65c-7-2.13-11.34-5.34-11.34-9.14s4.33-7,11.34-9.12c.31-.09.63-.19,1-.27a1.95,1.95,0,0,1,1.57,3.49h0l-1.44.41c-5.33,1.61-8.63,3.58-8.63,5.49s3.3,3.88,8.63,5.51c13,4,34.1,4,47.13,0,5.33-1.63,8.63-3.58,8.63-5.51s-3.3-3.88-8.63-5.49l-1.43-.41h0a1.95,1.95,0,0,1,1.57-3.49c.33.08.65.18,1,.27,7,2.13,11.34,5.34,11.34,9.12s-4.33,7-11.34,9.14c-13.81,4.17-35.52,4.17-49.32,0Z"/><path class="cls-18" d="M434.7,908.85a14.24,14.24,0,0,1-24.31-10.09,14.25,14.25,0,0,1,14.25-14.27,14.27,14.27,0,0,1,14.23,14.27A14.26,14.26,0,0,1,434.7,908.85Z"/><text class="cls-76" transform="translate(0 1286.44)">Nouvelles ouvertures en 2020</text><text class="cls-77" transform="translate(0 1796.36)">Numéros du siège social : <tspan class="cls-78" x="310.47" y="0">05 22 47 91 11 / 05 22 47 90 00</tspan><tspan x="0" y="39.9">Numéro du Centre de Relation Clientèle : </tspan><tspan class="cls-78" x="490.2" y="39.9">47 47</tspan></text></g></g></svg>