<svg xmlns="http://www.w3.org/2000/svg" width="20px" height="auto" xmlns:xlink="http://www.w3.org/1999/xlink" viewBox="0 0 170.48 304.46"><defs><style>.cls-1{opacity:0.5;}.cls-2{fill:url(#linear-gradient);}.cls-3{fill:url(#linear-gradient-2);}</style><linearGradient id="linear-gradient" x1="139.51" y1="98.03" x2="-47.79" y2="98.03" gradientUnits="userSpaceOnUse"><stop offset="0" stop-color="#00b8ed" stop-opacity="0"/><stop offset="1" stop-color="#f4a89e"/></linearGradient><linearGradient id="linear-gradient-2" x1="297.44" y1="50.79" x2="-117.65" y2="351.72" gradientUnits="userSpaceOnUse"><stop offset="0" stop-color="#00b8ed"/><stop offset="1" stop-color="#f4a89e" stop-opacity="0"/></linearGradient></defs><g id="Layer_2" data-name="Layer 2"><g id="Layer_1-2" data-name="Layer 1"><g class="cls-1"><path class="cls-2" d="M157.74,97.55C149,91.44,0,0,0,0V92.88L167,196.06c2.74-5.74,3.1-11.41,3.23-20.74.11-7.7.15-48.36.15-48.36C170.39,112.39,166.3,103.54,157.74,97.55Z"/><path class="cls-3" d="M167.13,108.46l0,0a25.64,25.64,0,0,0-6-8.14c2.54,8,1.25,10.18-2.42,13.14l-15.69,9.7c-.73.53-1.51,1-2.37,1.56L0,211.58v92.88S148.94,213,157.73,206.9s12.66-13,12.66-29.4V129.13c.26-9.25.17-15.13-3.26-20.66"/></g></g></g></svg>