<svg xmlns="http://www.w3.org/2000/svg" xmlns:xlink="http://www.w3.org/1999/xlink" viewBox="0 0 1154.88 821.38"><defs><style>.cls-1{font-size:61.45px;fill:#666;font-family:Cairo-Bold, Cairo;font-weight:700;}.cls-2{font-size:34.14px;font-family:Cairo-Regular, Cairo;font-weight:400;}.cls-3{fill:url(#linear-gradient);}.cls-4{fill:#fff;}.cls-5{fill:url(#linear-gradient-2);}.cls-6{fill:url(#linear-gradient-3);}.cls-7{fill:url(#linear-gradient-4);}.cls-10,.cls-11,.cls-12,.cls-8,.cls-9{fill:none;stroke-linecap:round;stroke-linejoin:round;stroke-width:2px;}.cls-8{stroke:url(#linear-gradient-5);}.cls-9{stroke:url(#linear-gradient-6);}.cls-10{stroke:url(#linear-gradient-7);}.cls-11{stroke:url(#linear-gradient-8);}.cls-12{stroke:url(#linear-gradient-9);}</style><linearGradient id="linear-gradient" x1="-33.37" y1="-21.54" x2="280.12" y2="239.7" gradientUnits="userSpaceOnUse"><stop offset="0" stop-color="#00b8ed"/><stop offset="1" stop-color="#f4a89e"/></linearGradient><linearGradient id="linear-gradient-2" x1="-33.37" y1="181.45" x2="280.12" y2="442.7" xlink:href="#linear-gradient"/><linearGradient id="linear-gradient-3" x1="-33.37" y1="384.45" x2="280.12" y2="645.69" xlink:href="#linear-gradient"/><linearGradient id="linear-gradient-4" x1="-33.37" y1="587.45" x2="280.12" y2="848.69" xlink:href="#linear-gradient"/><linearGradient id="linear-gradient-5" x1="0" y1="1" x2="1154.88" y2="1" xlink:href="#linear-gradient"/><linearGradient id="linear-gradient-6" x1="0" y1="205.85" x2="1154.88" y2="205.85" xlink:href="#linear-gradient"/><linearGradient id="linear-gradient-7" x1="0" y1="410.69" x2="1154.88" y2="410.69" xlink:href="#linear-gradient"/><linearGradient id="linear-gradient-8" x1="0" y1="615.54" x2="1154.88" y2="615.54" xlink:href="#linear-gradient"/><linearGradient id="linear-gradient-9" x1="0" y1="820.38" x2="1154.88" y2="820.38" xlink:href="#linear-gradient"/></defs><g id="Layer_2" data-name="Layer 2"><g id="Layer_1-2" data-name="Layer 1"><text class="cls-1" transform="translate(248.77 75.04)">AXE 1<tspan class="cls-2"><tspan x="0" y="38.01">Développer des services qualitatifs basés sur la </tspan><tspan x="0" y="76.01">technologie et créateurs de valeur pour nos clients</tspan></tspan></text><rect class="cls-3" x="24.02" y="23.43" width="190" height="164.03"/><path class="cls-4" d="M133.92,136.79l5.18-11.26a2.82,2.82,0,0,0-.77-3.35l-5.93-4.88a36.37,36.37,0,0,0,.26-6.68l6.28-4.41a2.81,2.81,0,0,0,1-3.29l-4.3-11.61a2.81,2.81,0,0,0-2.92-1.83l-7.64.74a36.4,36.4,0,0,0-4.54-4.91l1.33-7.55a2.83,2.83,0,0,0-1.6-3.05h0L109,69.53a2.84,2.84,0,0,0-3.36.77l-4.87,5.93A36.37,36.37,0,0,0,94.12,76l-4.41-6.29a2.83,2.83,0,0,0-3.29-1L74.8,73A2.8,2.8,0,0,0,73,75.89l.74,7.64a36.4,36.4,0,0,0-4.91,4.54l-7.55-1.33a2.81,2.81,0,0,0-3,1.61L53,99.6A2.84,2.84,0,0,0,53.8,103l5.93,4.87a36.37,36.37,0,0,0-.26,6.68l-6.28,4.41a2.81,2.81,0,0,0-1,3.29l4.3,11.62a2.82,2.82,0,0,0,2.92,1.83l7.64-.75a36.4,36.4,0,0,0,4.54,4.91l-1.33,7.56a2.83,2.83,0,0,0,1.6,3.05L83.1,155.6h0a2.83,2.83,0,0,0,3.36-.77l4.87-5.93a36.37,36.37,0,0,0,6.68.26l4.41,6.28a2.82,2.82,0,0,0,2.31,1.2,2.78,2.78,0,0,0,1-.18l11.62-4.3a2.8,2.8,0,0,0,1.82-2.91l-.74-7.65a37,37,0,0,0,4.91-4.53l7.55,1.32A2.82,2.82,0,0,0,133.92,136.79Zm-11-3.31a1.73,1.73,0,0,0-1.62.59,33.13,33.13,0,0,1-5.76,5.33,1.73,1.73,0,0,0-.7,1.57l.78,8.11L105,153l-4.68-6.68a1.75,1.75,0,0,0-1.56-.73,33.26,33.26,0,0,1-7.85-.3,1.75,1.75,0,0,0-1.61.62l-5.18,6.29-10.34-4.76,1.4-8a1.75,1.75,0,0,0-.58-1.62,32.37,32.37,0,0,1-5.33-5.76,1.76,1.76,0,0,0-1.58-.7l-8.11.78-4-10.68,6.68-4.68a1.75,1.75,0,0,0,.73-1.56,33.15,33.15,0,0,1,.3-7.84,1.76,1.76,0,0,0-.61-1.61l-6.3-5.18,4.76-10.35,8,1.4a1.75,1.75,0,0,0,1.62-.58,32.37,32.37,0,0,1,5.76-5.33,1.76,1.76,0,0,0,.7-1.58l-.78-8.11,10.68-4,4.68,6.68a1.75,1.75,0,0,0,1.56.73,33.26,33.26,0,0,1,7.85.3,1.76,1.76,0,0,0,1.61-.61l5.18-6.3,10.34,4.76-1.4,8a1.75,1.75,0,0,0,.58,1.62,32.37,32.37,0,0,1,5.33,5.76,1.77,1.77,0,0,0,1.58.71l8.11-.79,4,10.68-6.68,4.68a1.76,1.76,0,0,0-.73,1.57,33.19,33.19,0,0,1-.3,7.84,1.75,1.75,0,0,0,.62,1.61l6.29,5.18L131,134.89Z"/><path class="cls-4" d="M113.34,96.79a23.53,23.53,0,0,0-17.26-7.62,23.4,23.4,0,0,0-17.29,39.17,23.4,23.4,0,0,0,40.66-15,23.49,23.49,0,0,0-6.11-16.51Zm.82,24.1a20,20,0,0,1-18.11,11.6,19.6,19.6,0,0,1-8.3-1.83,19.92,19.92,0,1,1,26.41-9.77Z"/><path class="cls-4" d="M185,89,179.84,85a30.73,30.73,0,0,0,0-5.51l5.14-3.9a2.69,2.69,0,0,0,.85-3.15l-4.06-9.82A2.67,2.67,0,0,0,179,61l-6.4.87a30.5,30.5,0,0,0-3.89-3.9l.87-6.4a2.66,2.66,0,0,0-1.62-2.82h0l-9.81-4.08a2.69,2.69,0,0,0-3.15.85l-3.91,5.13a31.69,31.69,0,0,0-5.51,0l-3.9-5.14a2.68,2.68,0,0,0-3.15-.86l-9.82,4.06A2.69,2.69,0,0,0,127,51.57l.87,6.39a31.16,31.16,0,0,0-3.9,3.89l-6.4-.87a1.74,1.74,0,0,0-.47,3.44l7.36,1,.24,0a1.74,1.74,0,0,0,1.36-.66,28.16,28.16,0,0,1,4.73-4.72,1.73,1.73,0,0,0,.64-1.6l-.91-6.75,8.69-3.58,4.12,5.42a1.7,1.7,0,0,0,1.58.67,28.16,28.16,0,0,1,6.68,0,1.77,1.77,0,0,0,1.59-.67l4.12-5.42L166,51.75l-.92,6.74a1.73,1.73,0,0,0,.65,1.6,28.42,28.42,0,0,1,4.71,4.72,1.71,1.71,0,0,0,1.6.65l6.75-.91,3.59,8.69L177,77.36a1.73,1.73,0,0,0-.67,1.58,28.7,28.7,0,0,1,0,6.68,1.73,1.73,0,0,0,.67,1.59l5.41,4.12-3.6,8.68L172,99.09a1.74,1.74,0,0,0-1.6.65,28,28,0,0,1-4.72,4.71,1.74,1.74,0,0,0-.3,2.44,1.76,1.76,0,0,0,1.37.66,1.74,1.74,0,0,0,1.07-.37,31.76,31.76,0,0,0,4.68-4.52l6.39.87a2.19,2.19,0,0,0,.36,0,2.65,2.65,0,0,0,2.46-1.65l4.08-9.82A2.66,2.66,0,0,0,185,89Z"/><path class="cls-4" d="M147.23,97a1.73,1.73,0,1,0-.25,3.46c.44,0,.87,0,1.3,0A18.17,18.17,0,1,0,130.1,81.19a1.74,1.74,0,1,0,3.47.21,14.41,14.41,0,0,1,1.1-4.79A14.72,14.72,0,1,1,147.23,97Z"/><path class="cls-4" d="M179.8,131.86l-2.69-7.28a2.43,2.43,0,0,0-2.5-1.57l-4.44.44a22.58,22.58,0,0,0-2.44-2.64l.77-4.39a2.41,2.41,0,0,0-1.36-2.6h0l-7-3.24a2.42,2.42,0,0,0-2.88.66l-2.83,3.44a23.82,23.82,0,0,0-3.58-.14l-2.57-3.64a2.41,2.41,0,0,0-2.81-.88,1.73,1.73,0,0,0,.3,3.33l2.79,4a1.75,1.75,0,0,0,1.56.73,19.93,19.93,0,0,1,4.76.18l.28,0a1.76,1.76,0,0,0,1.34-.63l2.93-3.56,5.58,2.57-.8,4.54a1.75,1.75,0,0,0,.59,1.62,19.8,19.8,0,0,1,3.23,3.49,1.73,1.73,0,0,0,1.57.71l4.6-.44,2.13,5.76L172.49,135a1.73,1.73,0,0,0-.73,1.56,20,20,0,0,1-.18,4.76,1.73,1.73,0,0,0,.61,1.61l3.56,2.93-2.56,5.58-4.55-.8a1.75,1.75,0,0,0-1.62.59,19.88,19.88,0,0,1-3.49,3.24,1.73,1.73,0,0,0-.71,1.57l.45,4.59-5.76,2.13L154.85,159a1.72,1.72,0,0,0-1.56-.74,20,20,0,0,1-4.76-.18,1.76,1.76,0,0,0-1.61.61L144,162.21l-5.58-2.57.8-4.54a1.75,1.75,0,0,0-.59-1.62,20.3,20.3,0,0,1-3.24-3.5,1.72,1.72,0,0,0-1.57-.71l-4.83.47a1.74,1.74,0,0,0-2.73,1.94,2.41,2.41,0,0,0,2.5,1.57l4.44-.43a23.3,23.3,0,0,0,2.43,2.63l-.77,4.39a2.43,2.43,0,0,0,1.38,2.61l7.05,3.25h0a2.45,2.45,0,0,0,2.88-.66L149,161.6a23.72,23.72,0,0,0,3.58.13l2.56,3.65a2.43,2.43,0,0,0,2,1,2.48,2.48,0,0,0,.84-.15l7.28-2.7a2.43,2.43,0,0,0,1.57-2.5l-.43-4.43a23.39,23.39,0,0,0,2.63-2.44l4.39.77a2.44,2.44,0,0,0,2.61-1.37l3.24-7.06a2.4,2.4,0,0,0-.66-2.87l-3.44-2.83a23.9,23.9,0,0,0,.14-3.59l3.65-2.56A2.43,2.43,0,0,0,179.8,131.86Z"/><path class="cls-4" d="M147.07,148.15a11,11,0,1,0-5.41-14.62A11,11,0,0,0,147.07,148.15ZM144.81,135a7.58,7.58,0,0,1,6.87-4.41,7.56,7.56,0,0,1,6.87,10.72,7.58,7.58,0,0,1-6.88,4.4,7.48,7.48,0,0,1-3.15-.69A7.56,7.56,0,0,1,144.81,135Z"/><text class="cls-1" transform="translate(248.77 278.11)">AXE 2<tspan class="cls-2"><tspan x="0" y="38.01">Améliorer en permanence notre qualité de service et en faire </tspan><tspan x="0" y="76.01">un axe de différenciation et de fidélisation de nos clients</tspan></tspan></text><text class="cls-1" transform="translate(248.77 481.04)">AXE 3<tspan class="cls-2"><tspan x="0" y="38.01">Améliorer notre efficacité opérationnelle par le reengineering </tspan><tspan x="0" y="76.01">des processus et l’allocation optimisée des ressources</tspan></tspan></text><text class="cls-1" transform="translate(248.77 684.04)">AXE 4<tspan class="cls-2"><tspan x="0" y="38.01">Fidéliser et faire évoluer notre capital humain en développant </tspan><tspan x="0" y="76.01">notre “Marque employeur”, notre “Responsabilité Sociale”</tspan><tspan x="0" y="114.02">et nos compétences</tspan></tspan></text><rect class="cls-5" x="24.02" y="226.43" width="190" height="164.03"/><path class="cls-4" d="M186,334.3H167.5a1.16,1.16,0,0,1-1.15-1.15V284a1.15,1.15,0,0,1,1.15-1.14H186a1.15,1.15,0,0,1,0,2.29h-17.4V332H186a1.15,1.15,0,0,1,0,2.29Z"/><path class="cls-4" d="M73.59,317.38h-3a1.15,1.15,0,0,1-1.14-1.15V278.56a1.14,1.14,0,0,1,1.14-1.14H80.78A19.54,19.54,0,0,1,98,267h17.35a1.14,1.14,0,1,1,0,2.28H98a17.26,17.26,0,0,0-15.5,9.81,1.15,1.15,0,0,1-1,.66H71.73v35.38h1.86a1.15,1.15,0,1,1,0,2.29Z"/><path class="cls-4" d="M167.54,331.42h-8.35a1.15,1.15,0,0,1,0-2.29h7.2V288.52H155.1a1.15,1.15,0,0,1-1.14-1c-1.26-9.72-9.83-15.08-24.12-15.08a1.14,1.14,0,0,1,0-2.28c20,0,25.06,9.64,26.23,16.07h11.47a1.14,1.14,0,0,1,1.14,1.14v42.9A1.15,1.15,0,0,1,167.54,331.42Z"/><path class="cls-4" d="M126.09,346.69a5.33,5.33,0,0,1-4.1-1.76l-1.57-1.78a1.15,1.15,0,0,1,.1-1.62,1.14,1.14,0,0,1,1.61.11l1.57,1.78a3.11,3.11,0,0,0,2.58,1,5.37,5.37,0,0,0,3.3-1.4,5.29,5.29,0,0,0,1.87-3.54,3.06,3.06,0,0,0-.7-2.25l-10.26-11.56a1.14,1.14,0,1,1,1.7-1.53l14.52,16.14c1.3,1.49,3.94,1.29,5.89-.41a5.42,5.42,0,0,0,1.81-3.1,3.17,3.17,0,0,0-.64-2.69l-21.59-24.32a1.14,1.14,0,0,1-.09-1.41l.09-.13a1.15,1.15,0,0,1,1.8-.11l20.84,23.68c1.3,1.48,3.94,1.28,5.89-.43a5.42,5.42,0,0,0,1.81-3.1,3.12,3.12,0,0,0-.65-2.67L129,299.72a1.13,1.13,0,0,1-.09-1.4,1.26,1.26,0,0,1,.91-.55,1.19,1.19,0,0,1,1,.33l22.39,25.43a3.14,3.14,0,0,0,2.58,1,5.41,5.41,0,0,0,3.3-1.41c2-1.71,2.47-4.3,1.17-5.78l-16.51-18.83a1.14,1.14,0,0,1,1.72-1.51l16.51,18.83c2.13,2.42,1.51,6.47-1.38,9a7.7,7.7,0,0,1-4.71,2,6.45,6.45,0,0,1-1,0,5.9,5.9,0,0,1,0,1.87,7.72,7.72,0,0,1-2.55,4.43,7.49,7.49,0,0,1-5.55,1.95,6.28,6.28,0,0,1,0,2.12,7.76,7.76,0,0,1-2.56,4.43c-2.89,2.55-7,2.64-9.11.22l-1.35-1.49a8,8,0,0,1-7.27,6.4Z"/><path class="cls-4" d="M84,328.1a7.65,7.65,0,0,1-4.43-1.43,7.56,7.56,0,0,1-3.07-4.55,6.44,6.44,0,0,1,1-5.19l5.18-7.33a7.06,7.06,0,0,1,9.88-1.29,7.59,7.59,0,0,1,3.07,4.55,6.46,6.46,0,0,1-1,5.2l-5.19,7.33A6.59,6.59,0,0,1,84,328.1Zm4.13-18.94a4.29,4.29,0,0,0-3.57,1.76l-5.19,7.33a4.2,4.2,0,0,0-.63,3.38,5.3,5.3,0,0,0,2.15,3.18,4.78,4.78,0,0,0,6.69-.74l5.19-7.34h0a4.17,4.17,0,0,0,.64-3.37,5.31,5.31,0,0,0-2.16-3.19A5.41,5.41,0,0,0,88.08,309.16Z"/><path class="cls-4" d="M94.6,335.58a7.88,7.88,0,0,1-6.42-12.43l7.79-11a7.88,7.88,0,1,1,12.86,9.11l-7.78,11a7.86,7.86,0,0,1-5.11,3.22A7.65,7.65,0,0,1,94.6,335.58Zm7.81-24.47a5.59,5.59,0,0,0-4.58,2.36l-7.78,11h0a5.59,5.59,0,1,0,9.13,6.46l7.79-11a5.6,5.6,0,0,0-4.56-8.83Zm-13.29,12.7h0Z"/><path class="cls-4" d="M105.6,343.36a7.87,7.87,0,0,1-6.42-12.43h0L107.62,319a7.76,7.76,0,0,1,5.1-3.21,7.88,7.88,0,0,1,7.76,12.32L112.05,340A7.89,7.89,0,0,1,105.6,343.36Zm-4.55-11.11a5.6,5.6,0,0,0,9.13,6.47l8.43-11.91a5.6,5.6,0,1,0-9.13-6.47Z"/><path class="cls-4" d="M114.4,349.93a6.43,6.43,0,0,1-3.72-1.2,6.36,6.36,0,0,1-2.58-3.88,5.6,5.6,0,0,1,.88-4.44l7.2-10.16a5.56,5.56,0,0,1,3.9-2.32,6.35,6.35,0,0,1,4.51,1.15,6,6,0,0,1,1.7,8.33l-7.19,10.16A5.72,5.72,0,0,1,114.4,349.93Zm6.48-19.76-.51,0a3.34,3.34,0,0,0-2.33,1.37l-7.19,10.16h0a3.31,3.31,0,0,0-.52,2.65,4.06,4.06,0,0,0,1.67,2.48,3.74,3.74,0,0,0,5.23-.61l7.2-10.16a3.74,3.74,0,0,0-1.16-5.14A4.16,4.16,0,0,0,120.88,330.17Zm-11,10.9h0Z"/><path class="cls-4" d="M104,301.09c-4.59,0-9.07-1.91-10.78-3.93-1.33-1.57-.93-3-.1-3.8L112.48,274a16.27,16.27,0,0,1,7.86-3.79c1.5-.21,12.22,0,13.44.06a1.14,1.14,0,0,1,1.11,1.17,1.17,1.17,0,0,1-1.17,1.12c-4.52-.11-12.07-.23-13-.08a13.83,13.83,0,0,0-6.59,3.15L94.72,295c-.07.07-.2.2.23.7,1.93,2.28,10.11,5,15.13,1.37l12.65-12.58.26-.27a1.18,1.18,0,0,1,1.1-.39,1.12,1.12,0,0,1,.87.74c1.34,4.05,6,10.18,15,7.53l.64-.2a14.75,14.75,0,0,0,3.32-1.53,1.14,1.14,0,0,1,1.25,1.91,16.55,16.55,0,0,1-3.84,1.78l-.72.23c-9.51,2.8-14.94-2.68-17.16-7.32l-11.84,11.78a.74.74,0,0,1-.13.12A12.65,12.65,0,0,1,104,301.09Z"/><path class="cls-4" d="M70.54,322.61H52a1.15,1.15,0,1,1,0-2.29H69.39V274.47H52a1.14,1.14,0,1,1,0-2.28H70.54a1.14,1.14,0,0,1,1.14,1.14v48.13A1.14,1.14,0,0,1,70.54,322.61Z"/><rect class="cls-6" x="24.02" y="429.42" width="190" height="164.03"/><path class="cls-4" d="M135,550.49h-.17a1.82,1.82,0,0,1-1.64-2l.2-2.09a27,27,0,0,1,7.92-15.63A30.07,30.07,0,0,0,140,487a30.5,30.5,0,0,0-50.56,18.6,30,30,0,0,0,9.08,25.6,25.07,25.07,0,0,1,7.6,16.69l0,.61a1.81,1.81,0,0,1-1.67,1.94,1.83,1.83,0,0,1-2-1.67l0-.63a21.58,21.58,0,0,0-6.49-14.32,33.57,33.57,0,0,1-10.17-28.67,34.07,34.07,0,0,1,67.84,4.3,33.51,33.51,0,0,1-9.91,23.85,23.4,23.4,0,0,0-6.88,13.48l-.19,2A1.81,1.81,0,0,1,135,550.49Z"/><path class="cls-4" d="M119,468.57a1.82,1.82,0,0,1-1.81-1.82V454.33a1.81,1.81,0,1,1,3.62,0v12.42A1.82,1.82,0,0,1,119,468.57Z"/><path class="cls-4" d="M177,518.25H164.31a1.81,1.81,0,0,1,0-3.62H177a1.81,1.81,0,0,1,0,3.62Z"/><path class="cls-4" d="M158.36,481a1.82,1.82,0,0,1-1.28-3.1l8.28-8.28a1.81,1.81,0,1,1,2.56,2.56l-8.28,8.29A1.82,1.82,0,0,1,158.36,481Z"/><path class="cls-4" d="M79.68,481a1.82,1.82,0,0,1-1.28-.53l-8.28-8.29a1.81,1.81,0,1,1,2.56-2.56L81,477.89a1.82,1.82,0,0,1-1.28,3.1Z"/><path class="cls-4" d="M73.73,518.25H61a1.81,1.81,0,0,1,0-3.62H73.73a1.81,1.81,0,0,1,0,3.62Z"/><path class="cls-4" d="M135.45,560.42h-32a1.81,1.81,0,0,1,0-3.62h32a1.81,1.81,0,1,1,0,3.62Z"/><path class="cls-4" d="M129.45,570.36h-20a1.81,1.81,0,1,1,0-3.62h20a1.81,1.81,0,1,1,0,3.62Z"/><path class="cls-4" d="M123.07,551a1.81,1.81,0,0,1-1.81-1.81V510a1.82,1.82,0,0,1,3.63,0v39.24A1.81,1.81,0,0,1,123.07,551Z"/><path class="cls-4" d="M114.79,544.91A1.81,1.81,0,0,1,113,543.1V541a1.81,1.81,0,0,1,3.62,0v2.07A1.81,1.81,0,0,1,114.79,544.91Z"/><path class="cls-4" d="M114.79,534.56a1.81,1.81,0,0,1-1.81-1.81v-2.07a1.81,1.81,0,1,1,3.62,0v2.07A1.81,1.81,0,0,1,114.79,534.56Z"/><path class="cls-4" d="M114.79,524.21a1.81,1.81,0,0,1-1.81-1.82v-10.6h-6.47a1.82,1.82,0,0,1-1.45-2.91l12.42-16.56a1.88,1.88,0,0,1,2.9,0l12.43,16.56a1.82,1.82,0,0,1-1.45,2.91h-8.29a1.82,1.82,0,0,1,0-3.63h4.66l-8.8-11.73-8.79,11.73h4.65A1.81,1.81,0,0,1,116.6,510v12.42A1.81,1.81,0,0,1,114.79,524.21Z"/><rect class="cls-7" x="24.02" y="632.42" width="190" height="164.03"/><polygon class="cls-4" points="148.03 724.03 148.03 724.03 148.03 724.03 148.03 724.03"/><polygon class="cls-4" points="168.9 728.46 168.91 728.46 168.9 728.46 168.9 728.46"/><path class="cls-4" d="M171.68,727.61,162.1,699.9c-1.45-16.57-14.15-29.7-30.28-31.26-.83-.09-1.65-.1-2.48-.12a37.54,37.54,0,0,1,3,3.32c14.31,1.78,25.48,13.63,26.69,28.51a1.8,1.8,0,0,0,.08.39l9.59,27.72h-8a1.55,1.55,0,0,0-1.55,1.55v14.63a5.77,5.77,0,0,1-5.77,5.76H137.28a1.55,1.55,0,0,0-1.55,1.56v17.56a1.55,1.55,0,1,0,3.1,0v-16h14.54a8.88,8.88,0,0,0,8.87-8.87V731.57h6.66a3,3,0,0,0,2.78-4Zm-2.78.85Z"/><path class="cls-4" d="M113.12,771.07a1.72,1.72,0,0,1-1.72-1.72V750a1.71,1.71,0,0,1,1.72-1.71h17.76a6.37,6.37,0,0,0,6.36-6.37V725.74A1.72,1.72,0,0,1,139,724h8.82L137.2,693.42a1.58,1.58,0,0,1-.09-.42c-1.37-16.74-14.13-30-30.36-31.6a33.5,33.5,0,0,0-26,8.63,33.87,33.87,0,0,0-11.14,25v74.3a1.72,1.72,0,1,1-3.43,0v-74.3a37.33,37.33,0,0,1,12.26-27.56A36.85,36.85,0,0,1,107.09,658c17.8,1.73,31.83,16.23,33.42,34.52l10.58,30.59a3.26,3.26,0,0,1-3.06,4.37h-7.36v14.43a9.81,9.81,0,0,1-9.79,9.8h-16v17.66A1.72,1.72,0,0,1,113.12,771.07ZM148,724Z"/><path class="cls-4" d="M121.27,723.53a1.69,1.69,0,0,1-1-.29,30.41,30.41,0,0,1-13.37-25.15v-13a1.72,1.72,0,0,1,1.72-1.72H112l-8.69-9.92-8.68,9.92H98a1.72,1.72,0,0,1,1.72,1.72l0,12.84a30.39,30.39,0,0,1-13.4,25.26,1.72,1.72,0,0,1-1.92-2.85A26.93,26.93,0,0,0,96.27,698l0-11.14H90.84A1.71,1.71,0,0,1,89.55,684L102,669.76a1.78,1.78,0,0,1,2.58,0L117.06,684a1.71,1.71,0,0,1-1.29,2.84h-5.41v11.23a27,27,0,0,0,11.86,22.32,1.71,1.71,0,0,1-1,3.13Z"/><path class="cls-4" d="M78.82,719.61a1.7,1.7,0,0,1-1.42-.75,1.73,1.73,0,0,1,.46-2.39c7.21-4.86,12-14.32,12-23.52a1.72,1.72,0,0,1,1.72-1.72h0a1.72,1.72,0,0,1,1.72,1.71c0,10.46-5.3,20.81-13.54,26.38A1.69,1.69,0,0,1,78.82,719.61Z"/><path class="cls-4" d="M128.31,719.61a1.71,1.71,0,0,1-1-.29c-8.24-5.57-13.55-15.92-13.53-26.38a1.71,1.71,0,0,1,1.71-1.71h0a1.71,1.71,0,0,1,1.71,1.72c0,9.2,4.82,18.66,12,23.52a1.72,1.72,0,0,1-1,3.14Z"/><line class="cls-8" x1="1" y1="1" x2="1153.88" y2="1"/><line class="cls-9" x1="1" y1="205.85" x2="1153.88" y2="205.85"/><line class="cls-10" x1="1" y1="410.69" x2="1153.88" y2="410.69"/><line class="cls-11" x1="1" y1="615.54" x2="1153.88" y2="615.54"/><line class="cls-12" x1="1" y1="820.38" x2="1153.88" y2="820.38"/></g></g></svg>