<svg xmlns="http://www.w3.org/2000/svg" xmlns:xlink="http://www.w3.org/1999/xlink" viewBox="0 0 1039.82 826.69"><defs><style>.cls-1{opacity:0.74;}.cls-2{fill:url(#linear-gradient);}.cls-3{fill:url(#linear-gradient-2);}.cls-4{fill:url(#linear-gradient-3);}.cls-5{fill:url(#linear-gradient-4);}.cls-6{opacity:0.46;}.cls-7{fill:url(#linear-gradient-5);}.cls-8{fill:url(#linear-gradient-6);}.cls-9{fill:url(#linear-gradient-7);}.cls-10{fill:url(#linear-gradient-8);}.cls-11{opacity:0.4;}.cls-12{fill:url(#linear-gradient-9);}.cls-13{fill:url(#linear-gradient-10);}.cls-14{fill:url(#linear-gradient-11);}.cls-15{fill:url(#linear-gradient-12);}.cls-16,.cls-23{fill:none;stroke-miterlimit:10;}.cls-16{stroke-width:3.85px;stroke:url(#linear-gradient-13);}.cls-17{fill:url(#linear-gradient-14);}.cls-18{fill:url(#linear-gradient-15);}.cls-19{fill:url(#linear-gradient-16);}.cls-20{fill:url(#linear-gradient-17);}.cls-21{fill:url(#linear-gradient-18);}.cls-22{fill:url(#linear-gradient-19);}.cls-23{stroke:#a3a9d3;stroke-width:0.61px;}.cls-24{fill:url(#linear-gradient-20);}.cls-25{fill:url(#linear-gradient-21);}.cls-26{fill:url(#linear-gradient-22);}.cls-27{fill:#e43d30;}.cls-28{fill:#00afef;}.cls-29{fill:url(#linear-gradient-23);}.cls-30{fill:url(#linear-gradient-24);}.cls-31{fill:url(#linear-gradient-25);}.cls-32{fill:url(#linear-gradient-26);}.cls-33{fill:url(#linear-gradient-27);}.cls-34{fill:url(#linear-gradient-28);}.cls-35{fill:url(#linear-gradient-29);}.cls-36{fill:url(#linear-gradient-30);}.cls-37{font-size:34.63px;fill:#fff;font-family:Cairo-SemiBold, Cairo SemiBold;font-weight:600;}.cls-38{fill:#7768aa;font-family:Cairo-Regular, Cairo Regular;font-weight:400;}</style><linearGradient id="linear-gradient" x1="142.15" y1="36.24" x2="123.63" y2="23.49" gradientUnits="userSpaceOnUse"><stop offset="0" stop-color="#fff" stop-opacity="0"/><stop offset="1" stop-color="#fff"/></linearGradient><linearGradient id="linear-gradient-2" x1="125.44" y1="50.02" x2="145.09" y2="32.73" xlink:href="#linear-gradient"/><linearGradient id="linear-gradient-3" x1="326.04" y1="48.8" x2="314.25" y2="40.68" xlink:href="#linear-gradient"/><linearGradient id="linear-gradient-4" x1="315.4" y1="57.57" x2="327.91" y2="46.57" xlink:href="#linear-gradient"/><linearGradient id="linear-gradient-5" x1="281.05" y1="22.73" x2="256.08" y2="5.53" xlink:href="#linear-gradient"/><linearGradient id="linear-gradient-6" x1="258.52" y1="41.31" x2="285.02" y2="17.99" xlink:href="#linear-gradient"/><linearGradient id="linear-gradient-7" x1="13.39" y1="41.68" x2="3.58" y2="34.92" xlink:href="#linear-gradient"/><linearGradient id="linear-gradient-8" x1="4.54" y1="48.98" x2="14.95" y2="39.81" xlink:href="#linear-gradient"/><linearGradient id="linear-gradient-9" x1="1161.52" y1="564.37" x2="370.6" y2="564.37" gradientUnits="userSpaceOnUse"><stop offset="0" stop-color="#f4a89e"/><stop offset="1" stop-color="#00b8ed"/></linearGradient><linearGradient id="linear-gradient-10" x1="0.54" y1="564.37" x2="464.06" y2="564.37" xlink:href="#linear-gradient-9"/><linearGradient id="linear-gradient-11" x1="1161.52" y1="714.39" x2="370.6" y2="714.39" xlink:href="#linear-gradient-9"/><linearGradient id="linear-gradient-12" x1="0.54" y1="714.39" x2="464.06" y2="714.39" xlink:href="#linear-gradient-9"/><linearGradient id="linear-gradient-13" x1="1039.8" y1="824.77" x2="0.06" y2="824.77" gradientUnits="userSpaceOnUse"><stop offset="0" stop-color="#00b8ed"/><stop offset="1" stop-color="#f4a89e"/></linearGradient><linearGradient id="linear-gradient-14" x1="1161.52" y1="114.29" x2="370.6" y2="114.29" xlink:href="#linear-gradient-9"/><linearGradient id="linear-gradient-15" x1="0.54" y1="114.29" x2="464.06" y2="114.29" xlink:href="#linear-gradient-9"/><linearGradient id="linear-gradient-16" x1="1161.52" y1="264.32" x2="370.6" y2="264.32" xlink:href="#linear-gradient-9"/><linearGradient id="linear-gradient-17" x1="0.54" y1="264.32" x2="464.06" y2="264.32" xlink:href="#linear-gradient-9"/><linearGradient id="linear-gradient-18" x1="1161.52" y1="414.34" x2="370.6" y2="414.34" xlink:href="#linear-gradient-9"/><linearGradient id="linear-gradient-19" x1="0.54" y1="414.34" x2="464.06" y2="414.34" xlink:href="#linear-gradient-9"/><linearGradient id="linear-gradient-20" x1="-250.94" y1="31.28" x2="1419.22" y2="31.28" xlink:href="#linear-gradient-13"/><linearGradient id="linear-gradient-21" x1="-54.51" y1="31.28" x2="1313.97" y2="31.28" xlink:href="#linear-gradient-13"/><linearGradient id="linear-gradient-22" x1="-10.36" y1="31.28" x2="984.42" y2="31.28" xlink:href="#linear-gradient-13"/><linearGradient id="linear-gradient-23" x1="142.15" y1="37.02" x2="123.63" y2="24.26" xlink:href="#linear-gradient"/><linearGradient id="linear-gradient-24" x1="125.44" y1="50.79" x2="145.09" y2="33.5" xlink:href="#linear-gradient"/><linearGradient id="linear-gradient-25" x1="326.04" y1="49.58" x2="314.25" y2="41.46" xlink:href="#linear-gradient"/><linearGradient id="linear-gradient-26" x1="315.4" y1="58.35" x2="327.91" y2="47.34" xlink:href="#linear-gradient"/><linearGradient id="linear-gradient-27" x1="281.05" y1="23.5" x2="256.08" y2="6.3" xlink:href="#linear-gradient"/><linearGradient id="linear-gradient-28" x1="258.52" y1="42.08" x2="285.02" y2="18.77" xlink:href="#linear-gradient"/><linearGradient id="linear-gradient-29" x1="13.39" y1="42.45" x2="3.58" y2="35.69" xlink:href="#linear-gradient"/><linearGradient id="linear-gradient-30" x1="4.54" y1="49.75" x2="14.95" y2="40.59" xlink:href="#linear-gradient"/></defs><g id="Layer_2" data-name="Layer 2"><g id="Layer_1-2" data-name="Layer 1"><g class="cls-1"><path class="cls-2" d="M142.05,32c-.71-.5-12.82-7.93-12.82-7.93v7.55L142.81,40a3.87,3.87,0,0,0,.26-1.69c0-.62,0-3.93,0-3.93A2.61,2.61,0,0,0,142.05,32Z"/><path class="cls-3" d="M142.82,32.84h0a2.06,2.06,0,0,0-.49-.66c.21.64.1.82-.19,1.07l-1.28.78-.19.13-11.44,7.06v7.55s12.11-7.44,12.82-7.93a2.42,2.42,0,0,0,1-2.39V34.52a2.93,2.93,0,0,0-.26-1.68"/></g><path class="cls-4" d="M326,46.07c-.46-.32-8.17-5-8.17-5v4.81l8.65,5.34a2.39,2.39,0,0,0,.16-1.08c0-.39,0-2.5,0-2.5A1.67,1.67,0,0,0,326,46.07Z"/><path class="cls-5" d="M326.46,46.63h0a1.21,1.21,0,0,0-.31-.43c.14.42.07.53-.12.68l-.81.51-.13.08L317.81,52v4.81S325.52,52,326,51.73a1.54,1.54,0,0,0,.66-1.52V47.7a1.83,1.83,0,0,0-.17-1.07"/><g class="cls-6"><path class="cls-7" d="M280.92,16.94c-1-.67-17.29-10.7-17.29-10.7V16.43l18.31,11.31a5.09,5.09,0,0,0,.35-2.27c0-.85,0-5.31,0-5.31A3.53,3.53,0,0,0,280.92,16.94Z"/><path class="cls-8" d="M282,18.14h0a2.7,2.7,0,0,0-.65-.89c.28.87.14,1.11-.26,1.44l-1.72,1.06-.26.17-15.43,9.52V39.63s16.33-10,17.29-10.7,1.39-1.43,1.39-3.22V20.4a3.76,3.76,0,0,0-.36-2.26"/></g><path class="cls-9" d="M13.34,39.4c-.37-.26-6.79-4.2-6.79-4.2v4l7.19,4.45a2,2,0,0,0,.14-.9c0-.33,0-2.08,0-2.08A1.39,1.39,0,0,0,13.34,39.4Z"/><path class="cls-10" d="M13.75,39.87h0a1.23,1.23,0,0,0-.26-.35c.11.34,0,.44-.1.57l-.68.41-.1.07L6.55,44.31v4s6.41-4,6.79-4.21a1.28,1.28,0,0,0,.55-1.26V40.76a1.58,1.58,0,0,0-.14-.89"/><g class="cls-11"><path class="cls-12" d="M1038.86,550.72h0a7.39,7.39,0,0,0-1.72-2.36.61.61,0,0,0,0,.13,9.27,9.27,0,0,0-1-.94c-1.34-.93-22.32-13.51-34-20.7H352.51c13.4,8.26,28,17.28,29.54,18.36a9.43,9.43,0,0,1,1.19,1.07s0-.09,0-.15a8.44,8.44,0,0,1,2,2.71h0c1.13,1.83,1.17,3.79,1.08,6.86v46.16H1039.8V556.7C1039.87,554,1039.85,552.32,1038.86,550.72Z"/><path class="cls-13" d="M.07,559v25.65c0,1.66,0,2.73.59,3.72h0a4.7,4.7,0,0,0,1.07,1.47l0-.08a5.17,5.17,0,0,0,.65.58c.75.53,11.51,7,18.94,11.53H383.88V556.7c.07-2.67.05-4.38-.94-6h0a7.39,7.39,0,0,0-1.72-2.36.61.61,0,0,0,0,.13,9.27,9.27,0,0,0-1-.94c-1.34-.93-22.32-13.51-34-20.7H.06Z"/></g><g class="cls-11"><path class="cls-14" d="M1038.86,700.75h0a7.37,7.37,0,0,0-1.72-2.35.79.79,0,0,0,0,.13,8.39,8.39,0,0,0-1-.94c-1.34-.94-22.32-13.51-34-20.7H352.51c13.4,8.25,28,17.28,29.54,18.35a9.5,9.5,0,0,1,1.19,1.08c0-.06,0-.09,0-.15a8.54,8.54,0,0,1,2,2.7h0c1.13,1.84,1.17,3.79,1.08,6.87V751.9H1039.8V706.73C1039.87,704.05,1039.85,702.35,1038.86,700.75Z"/><path class="cls-15" d="M.07,709v25.64c0,1.67,0,2.73.59,3.73h0a4.81,4.81,0,0,0,1.07,1.47l0-.08a5.17,5.17,0,0,0,.65.58c.75.53,11.51,7,18.94,11.53H383.88V706.73c.07-2.68.05-4.38-.94-6h0a7.37,7.37,0,0,0-1.72-2.35.79.79,0,0,0,0,.13,8.39,8.39,0,0,0-1-.94c-1.34-.94-22.32-13.51-34-20.7H.06Z"/><line class="cls-16" x1="0.06" y1="824.77" x2="1039.8" y2="824.77"/></g><g class="cls-11"><path class="cls-17" d="M1038.86,100.65h0a7.37,7.37,0,0,0-1.72-2.35.53.53,0,0,0,0,.12,9.2,9.2,0,0,0-1-.93c-1.34-.94-22.32-13.51-34-20.7H352.51c13.4,8.25,28,17.28,29.54,18.35a9.5,9.5,0,0,1,1.19,1.08c0-.06,0-.09,0-.15a8.54,8.54,0,0,1,2,2.7h0c1.13,1.84,1.17,3.79,1.08,6.87V151.8H1039.8V106.63C1039.87,104,1039.85,102.25,1038.86,100.65Z"/><path class="cls-18" d="M.07,108.93v25.64c0,1.67,0,2.73.59,3.73h0a4.81,4.81,0,0,0,1.07,1.47s0-.05,0-.08a5.17,5.17,0,0,0,.65.58c.75.53,11.51,7,18.94,11.53H383.88V106.63c.07-2.68.05-4.38-.94-6h0a7.37,7.37,0,0,0-1.72-2.35.79.79,0,0,0,0,.13,8.39,8.39,0,0,0-1-.94c-1.34-.94-22.32-13.51-34-20.7H.06Z"/></g><g class="cls-11"><path class="cls-19" d="M1038.86,250.67h0a7.39,7.39,0,0,0-1.72-2.36.61.61,0,0,0,0,.13,9.27,9.27,0,0,0-1-.94c-1.34-.93-22.32-13.51-34-20.7H352.51c13.4,8.26,28,17.28,29.54,18.36a9.43,9.43,0,0,1,1.19,1.07c0-.05,0-.09,0-.15a8.44,8.44,0,0,1,2,2.71h0c1.13,1.83,1.17,3.79,1.08,6.86v46.16H1039.8V256.65C1039.87,254,1039.85,252.27,1038.86,250.67Z"/><path class="cls-20" d="M.07,259V284.6c0,1.66,0,2.73.59,3.72h0a4.7,4.7,0,0,0,1.07,1.47l0-.08a5.17,5.17,0,0,0,.65.58c.75.53,11.51,7,18.94,11.53H383.88V256.65c.07-2.67.05-4.38-.94-6h0a7.39,7.39,0,0,0-1.72-2.36.61.61,0,0,0,0,.13,9.27,9.27,0,0,0-1-.94c-1.34-.93-22.32-13.51-34-20.7H.06Z"/></g><g class="cls-11"><path class="cls-21" d="M1038.86,400.7h0a7.37,7.37,0,0,0-1.72-2.35.79.79,0,0,0,0,.13,8.39,8.39,0,0,0-1-.94c-1.34-.94-22.32-13.51-34-20.7H352.51c13.4,8.25,28,17.28,29.54,18.35a9.5,9.5,0,0,1,1.19,1.08c0-.06,0-.09,0-.15a8.54,8.54,0,0,1,2,2.7h0c1.13,1.84,1.17,3.79,1.08,6.87v46.16H1039.8V406.68C1039.87,404,1039.85,402.3,1038.86,400.7Z"/><path class="cls-22" d="M.07,409v25.64c0,1.67,0,2.73.59,3.73h0a4.81,4.81,0,0,0,1.07,1.47l0-.08a5.17,5.17,0,0,0,.65.58c.75.53,11.51,7,18.94,11.53H383.88V406.68c.07-2.68.05-4.38-.94-6h0a7.37,7.37,0,0,0-1.72-2.35.79.79,0,0,0,0,.13,8.39,8.39,0,0,0-1-.94c-1.34-.94-22.32-13.51-34-20.7H.06Z"/></g><line class="cls-23" x1="749.26" y1="217.12" x2="749.26" y2="164.38"/><line class="cls-23" x1="749.26" y1="367.15" x2="749.26" y2="314.4"/><line class="cls-23" x1="749.26" y1="517.17" x2="749.26" y2="464.43"/><line class="cls-23" x1="749.26" y1="590.53" x2="749.26" y2="537.79"/><line class="cls-23" x1="749.26" y1="141.1" x2="749.26" y2="88.35"/><line class="cls-23" x1="749.26" y1="291.12" x2="749.26" y2="238.38"/><line class="cls-23" x1="749.26" y1="441.15" x2="749.26" y2="388.4"/><line class="cls-23" x1="749.26" y1="742.1" x2="749.26" y2="689.35"/><line class="cls-23" x1="749.26" y1="815.46" x2="749.26" y2="762.71"/><line class="cls-23" x1="749.26" y1="666.07" x2="749.26" y2="613.33"/><path class="cls-24" d="M747.19,23.86h0a7.44,7.44,0,0,0-1.73-2.35s0,.08,0,.13a9.27,9.27,0,0,0-1-.94c-1.34-.93-22.32-13.51-34-20.7h-359c13.4,8.25,28,17.28,29.55,18.36a9.26,9.26,0,0,1,1.18,1.07c0-.06,0-.09,0-.15a8.44,8.44,0,0,1,2,2.71h0c1.14,1.83,1.17,3.79,1.08,6.86V62.56h362.9V29.84C748.21,27.16,748.18,25.46,747.19,23.86Z"/><path class="cls-25" d="M1038.86,23.86h0a7.37,7.37,0,0,0-1.72-2.35.61.61,0,0,0,0,.13,9.27,9.27,0,0,0-1-.94c-1.34-.93-22.32-13.51-34-20.7H716.76c13.41,8.25,28,17.28,29.55,18.36a8.72,8.72,0,0,1,1.19,1.07c0-.06,0-.09,0-.15a8.6,8.6,0,0,1,2,2.71h0c1.14,1.83,1.17,3.79,1.08,6.86V62.56H1039.8V29.84C1039.87,27.16,1039.85,25.46,1038.86,23.86Z"/><path class="cls-26" d="M381.91,23.86h0a7.37,7.37,0,0,0-1.72-2.35.61.61,0,0,0,0,.13,9.27,9.27,0,0,0-1-.94c-1.34-.93-22.32-13.51-34-20.7H5.58c4.29,2.64,9.58,5.91,10.09,6.26a3.73,3.73,0,0,1,.36.32s0,0,0,0,.09.11.15.16a1.47,1.47,0,0,1,.1.13,3,3,0,0,1,.35.52h0a3.08,3.08,0,0,1,.32,1.76s0,.05,0,.07v.21h0v4.81c0,1.62-.38,2.32-1.26,2.92S.19,26.7,0,26.81V45.33C0,47,0,48.06.6,49.06h0a4.6,4.6,0,0,0,1.08,1.47s0-.05,0-.08A4.47,4.47,0,0,0,2.3,51c.75.53,11.51,7,18.94,11.53H382.85V29.84C382.93,27.16,382.9,25.46,381.91,23.86Z"/><path class="cls-27" d="M12.12,7.49C11.45,7,0,0,0,0V7.14l12.83,7.92a3.58,3.58,0,0,0,.25-1.59c0-.59,0-3.72,0-3.72A2.47,2.47,0,0,0,12.12,7.49Z"/><path class="cls-28" d="M12.84,8.33h0a2,2,0,0,0-.46-.62c.2.61.1.78-.18,1L11,9.46l-.18.12L0,16.25v7.14s11.44-7,12.12-7.49a2.32,2.32,0,0,0,1-2.26V9.92a2.73,2.73,0,0,0-.25-1.59"/><g class="cls-1"><path class="cls-29" d="M142.05,32.72c-.71-.49-12.82-7.93-12.82-7.93v7.55l13.58,8.39a3.82,3.82,0,0,0,.26-1.68c0-.63,0-3.94,0-3.94A2.61,2.61,0,0,0,142.05,32.72Z"/><path class="cls-30" d="M142.82,33.61h0a2.06,2.06,0,0,0-.49-.66c.21.65.1.83-.19,1.07l-1.28.79-.19.12L129.23,42v7.56s12.11-7.44,12.82-7.94a2.42,2.42,0,0,0,1-2.39V35.29a2.93,2.93,0,0,0-.26-1.68"/></g><path class="cls-31" d="M326,46.84c-.46-.31-8.17-5.05-8.17-5.05V46.6l8.65,5.34a2.37,2.37,0,0,0,.16-1.07c0-.4,0-2.5,0-2.5A1.68,1.68,0,0,0,326,46.84Z"/><path class="cls-32" d="M326.46,47.41h0a1.29,1.29,0,0,0-.31-.42c.14.41.07.52-.12.68l-.81.5-.13.08-7.28,4.5v4.8s7.71-4.73,8.16-5a1.53,1.53,0,0,0,.66-1.52v-2.5a1.8,1.8,0,0,0-.17-1.07"/><g class="cls-6"><path class="cls-33" d="M280.92,17.71C280,17,263.63,7,263.63,7V17.2l18.31,11.32a5.13,5.13,0,0,0,.35-2.28c0-.84,0-5.3,0-5.3A3.54,3.54,0,0,0,280.92,17.71Z"/><path class="cls-34" d="M282,18.91h0a2.7,2.7,0,0,0-.65-.89c.28.87.14,1.12-.26,1.44l-1.72,1.06-.26.18-15.43,9.52V40.4s16.33-10,17.29-10.7,1.39-1.42,1.39-3.22v-5.3a3.8,3.8,0,0,0-.36-2.27"/></g><path class="cls-35" d="M13.34,40.17C13,39.91,6.55,36,6.55,36v4l7.19,4.45a1.91,1.91,0,0,0,.14-.89c0-.34,0-2.09,0-2.09A1.39,1.39,0,0,0,13.34,40.17Z"/><path class="cls-36" d="M13.75,40.64h0a1.24,1.24,0,0,0-.26-.36c.11.35,0,.44-.1.57l-.68.42-.1.07L6.55,45.09v4s6.41-3.94,6.79-4.2a1.3,1.3,0,0,0,.55-1.27V41.54a1.61,1.61,0,0,0-.14-.9"/><text class="cls-37" transform="translate(19.02 40.96)">Société	Capitalisation	Part<tspan class="cls-38"><tspan x="0" y="75.41">Maroc Telecom	127 468 824 300	21,79 %</tspan><tspan x="0" y="151.59">Attijariwafa Bank	88 823 109 137	15,18%</tspan><tspan x="0" y="227.77">BCP	50 502 987 603	8,63 %</tspan><tspan x="0" y="303.95">LafargeHolcim Maroc	37 489 984 000	6,41 %</tspan><tspan x="0" y="380.13">BANK OF AFRICA	32 064 356 756	5,48%</tspan><tspan x="0" y="456.31">CIMENT DU MAROC	24 238 050 716	4,14 %</tspan><tspan x="0" y="532.49">TAQA MOROCCO	21 583 515 930	3,69 %</tspan><tspan x="0" y="608.67">COSUMAR	19 851 748 744	3,39 %</tspan><tspan x="0" y="684.85">SODEP-Marsa Maroc	15 413 076 000	2,63 %</tspan><tspan x="0" y="761.03">WAFA ASSURANCE	13 545 000 000	2,32 %</tspan></tspan></text></g></g></svg>