<?xml version="1.0" encoding="utf-8"?>
<!-- Generator: Adobe Illustrator 25.2.3, SVG Export Plug-In . SVG Version: 6.00 Build 0)  -->
<svg version="1.1" id="Layer_1" xmlns="http://www.w3.org/2000/svg" xmlns:xlink="http://www.w3.org/1999/xlink" x="0px" y="0px"
	 viewBox="0 0 8192 717.3" style="enable-background:new 0 0 8192 717.3;" xml:space="preserve">
<style type="text/css">
	.st0{fill:#00AFEF;}
	.st1{fill:#E43D30;}
	.st2{fill:none;stroke:#FFFFFF;stroke-width:0.7409;stroke-miterlimit:9.8787;}
	.st3{clip-path:url(#SVGID_2_);}
	.st4{fill:none;stroke:#6AC2C5;stroke-width:2.3017;stroke-miterlimit:9.8787;}
	.st5{fill:none;stroke:#6AC2C5;stroke-width:3.0624;stroke-miterlimit:9.8787;}
	.st6{fill:#6AC2C5;}
	.st7{fill:url(#SVGID_3_);}
	.st8{fill:url(#SVGID_4_);}
	.st9{fill:url(#SVGID_5_);}
	.st10{fill:url(#SVGID_6_);}
	.st11{fill:url(#SVGID_7_);}
	.st12{fill:url(#SVGID_8_);}
	.st13{fill:url(#SVGID_9_);}
	.st14{fill:url(#SVGID_10_);}
	.st15{fill:url(#SVGID_11_);}
	.st16{fill:url(#SVGID_12_);}
	.st17{fill:url(#SVGID_13_);}
	.st18{fill:url(#SVGID_14_);}
	.st19{fill:url(#SVGID_15_);}
	.st20{fill:url(#SVGID_16_);}
	.st21{fill:url(#SVGID_17_);}
	.st22{fill:url(#SVGID_18_);}
	.st23{fill:url(#SVGID_19_);}
	.st24{fill:url(#SVGID_20_);}
	.st25{fill:url(#SVGID_21_);}
	.st26{fill:url(#SVGID_22_);}
	.st27{fill:url(#SVGID_23_);}
	.st28{fill:url(#SVGID_24_);}
	.st29{fill:url(#SVGID_25_);}
</style>
<g id="Layer_2_1_">
	<g id="Layer_1-2">
		<path class="st0" d="M206.5,1084.9c-24.9,15.4-48.6,30-67.2,41.6h7750.9v-41.6H206.5z"/>
		<path class="st1" d="M1369,1084.9c-24.9,15.4-48.6,30-67.2,41.6H1894c18.6-11.5,42.3-26.2,67.2-41.6H1369z"/>
		<path class="st2" d="M224.4,1095.2c-15.7,9.7-22.5,13.8-34.2,21.2"/>
		<path class="st2" d="M235.2,1095.2c-15.6,9.7-22.5,13.8-34.2,21.2"/>
		<path class="st2" d="M246,1095.2c-15.6,9.7-22.5,13.9-34.2,21.2"/>
		<path class="st2" d="M256.8,1095.2c-15.6,9.6-22.5,13.9-34.2,21.2"/>
		<path class="st2" d="M267.6,1095.2c-15.5,9.6-22.6,13.9-34.2,21.2"/>
		<path class="st2" d="M278.4,1095.2c-15.5,9.6-22.6,13.9-34.2,21.2"/>
		<path class="st2" d="M289.2,1095.2c-15.5,9.6-22.6,13.9-34.2,21.2"/>
		<path class="st2" d="M300,1095.2c-15.5,9.5-22.6,14-34.2,21.2"/>
		<path class="st2" d="M310.9,1095.2c-15.4,9.5-22.6,14-34.2,21.2"/>
		<path class="st2" d="M321.7,1095.2c-15.4,9.5-22.7,14-34.2,21.2"/>
		<path class="st2" d="M332.5,1095.2c-15.4,9.5-22.7,14-34.2,21.2"/>
		<path class="st2" d="M343.3,1095.2c-15.3,9.5-22.7,14-34.2,21.2"/>
		<path class="st2" d="M354.1,1095.2c-15.3,9.4-22.7,14-34.2,21.2"/>
		<path class="st2" d="M364.9,1095.2c-15.3,9.4-22.7,14-34.2,21.2"/>
		<path class="st2" d="M375.7,1095.2c-15.3,9.4-22.8,14.1-34.2,21.2"/>
		<path class="st2" d="M386.5,1095.2c-15.2,9.4-22.8,14.1-34.2,21.2"/>
		<path class="st2" d="M397.4,1095.2c-15.2,9.4-22.8,14.1-34.2,21.2"/>
		<path class="st2" d="M408.2,1095.2c-15.2,9.4-22.8,14.1-34.2,21.2"/>
		<path class="st2" d="M419,1095.2c-15.1,9.3-22.9,14.1-34.2,21.2"/>
		<path class="st2" d="M429.8,1095.2c-15.1,9.3-22.9,14.1-34.2,21.2"/>
		<path class="st2" d="M440.6,1095.2c-15.1,9.3-22.9,14.1-34.2,21.2"/>
		<path class="st2" d="M451.4,1095.2c-15,9.3-22.9,14.2-34.2,21.2"/>
		<path class="st2" d="M462.2,1095.2c-15,9.3-23,14.2-34.2,21.2"/>
		<path class="st2" d="M473,1095.2c-15,9.2-23,14.2-34.2,21.2"/>
		<path class="st2" d="M483.9,1095.2c-15,9.2-23,14.2-34.2,21.2"/>
		<path class="st2" d="M494.7,1095.2c-14.9,9.2-23,14.2-34.2,21.2"/>
		<path class="st2" d="M505.5,1095.2c-14.9,9.2-23,14.2-34.2,21.2"/>
		<path class="st2" d="M516.3,1095.2c-14.9,9.2-23.1,14.2-34.2,21.2"/>
		<path class="st2" d="M527.1,1095.2c-14.8,9.2-23.1,14.3-34.2,21.2"/>
		<path class="st2" d="M537.9,1095.2c-14.8,9.1-23.1,14.3-34.2,21.2"/>
		<path class="st2" d="M548.7,1095.2c-14.8,9.1-23.1,14.3-34.2,21.2"/>
		<path class="st2" d="M559.5,1095.2c-14.8,9.1-23.2,14.3-34.2,21.2"/>
		<path class="st2" d="M570.3,1095.2c-14.7,9.1-23.2,14.3-34.2,21.2"/>
		<path class="st2" d="M581.1,1095.2c-14.7,9.1-23.2,14.3-34.2,21.2"/>
		<path class="st2" d="M592,1095.2c-14.7,9-23.2,14.3-34.2,21.2"/>
		<path class="st2" d="M602.8,1095.2c-14.6,9-23.2,14.4-34.2,21.2"/>
		<path class="st2" d="M613.6,1095.2c-14.6,9-23.3,14.4-34.2,21.2"/>
		<path class="st2" d="M624.4,1095.2c-14.6,9-23.3,14.4-34.2,21.2"/>
		<path class="st2" d="M635.2,1095.2c-14.6,9-23.3,14.4-34.2,21.2"/>
		<path class="st2" d="M646,1095.2c-14.5,9-23.3,14.4-34.2,21.2"/>
		<path class="st2" d="M656.8,1095.2c-14.5,8.9-23.4,14.4-34.2,21.2"/>
		<path class="st2" d="M667.6,1095.2c-14.5,8.9-23.4,14.4-34.2,21.2"/>
		<path class="st2" d="M678.5,1095.2c-14.4,8.9-23.4,14.5-34.2,21.2"/>
		<path class="st2" d="M689.3,1095.2c-14.4,8.9-23.4,14.5-34.2,21.2"/>
		<path class="st2" d="M700.1,1095.2c-14.4,8.9-23.5,14.5-34.2,21.2"/>
		<path class="st2" d="M710.9,1095.2c-14.3,8.8-23.5,14.5-34.2,21.2"/>
		<path class="st2" d="M721.7,1095.2c-14.3,8.8-23.5,14.5-34.2,21.2"/>
		<path class="st2" d="M732.5,1095.2c-14.3,8.8-23.5,14.5-34.2,21.2"/>
		<path class="st2" d="M743.3,1095.2c-14.3,8.8-23.5,14.5-34.2,21.2"/>
		<path class="st2" d="M754.1,1095.2c-14.2,8.8-23.6,14.6-34.2,21.2"/>
		<path class="st2" d="M764.9,1095.2c-14.2,8.8-23.6,14.6-34.2,21.2"/>
		<path class="st2" d="M775.8,1095.2c-14.2,8.7-23.6,14.6-34.2,21.2"/>
		<path class="st2" d="M786.6,1095.2c-14.1,8.7-23.6,14.6-34.2,21.2"/>
		<path class="st2" d="M797.4,1095.2c-14.1,8.7-23.7,14.6-34.2,21.2"/>
		<path class="st2" d="M808.2,1095.2c-14.1,8.7-23.7,14.6-34.2,21.2"/>
		<path class="st2" d="M819,1095.2c-14,8.7-23.7,14.6-34.2,21.2"/>
		<path class="st2" d="M829.8,1095.2c-14,8.6-23.7,14.7-34.2,21.2"/>
		<path class="st2" d="M840.6,1095.2c-14,8.6-23.7,14.7-34.2,21.2"/>
		<path class="st2" d="M851.4,1095.2c-14,8.6-23.8,14.7-34.2,21.2"/>
		<path class="st2" d="M862.2,1095.2c-13.9,8.6-23.8,14.7-34.2,21.2"/>
		<path class="st2" d="M873.1,1095.2c-13.9,8.6-23.8,14.7-34.2,21.2"/>
		<path class="st2" d="M883.9,1095.2c-13.8,8.6-23.8,14.7-34.2,21.2"/>
		<path class="st2" d="M894.7,1095.2c-13.8,8.5-23.9,14.7-34.2,21.2"/>
		<path class="st2" d="M905.5,1095.2c-13.8,8.5-23.9,14.7-34.2,21.2"/>
		<path class="st2" d="M916.3,1095.2c-13.8,8.5-23.9,14.8-34.2,21.2"/>
		<path class="st2" d="M927.1,1095.2c-13.8,8.5-23.9,14.8-34.2,21.2"/>
		<path class="st2" d="M937.9,1095.2c-13.7,8.5-23.9,14.8-34.2,21.2"/>
		<path class="st2" d="M948.7,1095.2c-13.7,8.4-24,14.8-34.2,21.2"/>
		<path class="st2" d="M959.5,1095.2c-13.7,8.4-24,14.8-34.2,21.2"/>
		<path class="st2" d="M970.4,1095.2c-13.6,8.4-24,14.8-34.2,21.2"/>
		<path class="st2" d="M981.2,1095.2c-13.6,8.4-24,14.8-34.2,21.2"/>
		<path class="st2" d="M992,1095.2c-13.6,8.4-24.1,14.8-34.2,21.2"/>
		<path class="st2" d="M1002.8,1095.2c-13.5,8.4-24.1,14.8-34.2,21.2"/>
		<path class="st2" d="M1013.6,1095.2c-13.5,8.3-24.1,14.9-34.2,21.2"/>
		<path class="st2" d="M1024.4,1095.2c-13.5,8.3-24.1,14.9-34.2,21.2"/>
		<path class="st2" d="M1035.2,1095.2c-13.5,8.3-24.1,14.9-34.2,21.2"/>
		<path class="st2" d="M1046,1095.2c-13.4,8.3-24.2,14.9-34.2,21.2"/>
		<path class="st2" d="M1056.9,1095.2c-13.4,8.3-24.2,14.9-34.2,21.2"/>
		<path class="st2" d="M1067.7,1095.2c-13.4,8.2-24.2,15-34.2,21.2"/>
		<path class="st2" d="M1078.5,1095.2c-13.3,8.2-24.2,15-34.2,21.2"/>
		<path class="st2" d="M1089.3,1095.2c-13.3,8.2-24.3,15-34.2,21.2"/>
		<path class="st2" d="M1100.1,1095.2c-13.3,8.2-24.3,15-34.2,21.2"/>
		<path class="st2" d="M1110.9,1095.2c-13.2,8.2-24.3,15-34.2,21.2"/>
		<path class="st2" d="M1121.7,1095.2c-13.2,8.1-24.3,15-34.2,21.2"/>
		<path class="st2" d="M1132.5,1095.2c-13.2,8.1-24.4,15-34.2,21.2"/>
		<path class="st2" d="M1143.3,1095.2c-13.2,8.1-24.4,15.1-34.2,21.2"/>
		<path class="st2" d="M1154.2,1095.2c-13.1,8.1-24.4,15.1-34.2,21.2"/>
		<path class="st2" d="M1165,1095.2c-13.1,8.1-24.4,15.1-34.2,21.2"/>
		<path class="st2" d="M1175.8,1095.2c-13.1,8.1-24.5,15.1-34.2,21.2"/>
		<path class="st2" d="M1186.6,1095.2c-13,8-24.4,15.1-34.2,21.2"/>
		<path class="st2" d="M1197.4,1095.2c-13,8-24.5,15.1-34.2,21.2"/>
		<path class="st2" d="M1208.2,1095.2c-13,8-24.5,15.1-34.2,21.2"/>
		<path class="st2" d="M1219.1,1095.2c-12.9,8-24.5,15.1-34.2,21.2"/>
		<path class="st2" d="M1229.8,1095.2c-12.9,8-24.5,15.2-34.2,21.2"/>
		<path class="st2" d="M1240.6,1095.2c-12.8,7.9-24.6,15.2-34.2,21.2"/>
		<path class="st2" d="M1251.5,1095.2c-12.8,7.9-24.6,15.2-34.2,21.2"/>
		<path class="st2" d="M1262.3,1095.2c-12.8,7.9-24.6,15.2-34.2,21.2"/>
		<path class="st2" d="M1273.1,1095.2c-12.8,7.9-24.7,15.2-34.2,21.2"/>
		<path class="st2" d="M1283.9,1095.2c-12.8,7.9-24.7,15.2-34.2,21.2"/>
		<path class="st2" d="M1294.7,1095.2c-12.7,7.9-24.7,15.2-34.2,21.2"/>
		<path class="st2" d="M1305.5,1095.2c-12.7,7.8-24.7,15.3-34.2,21.2"/>
		<path class="st2" d="M1316.3,1095.2c-12.7,7.8-24.7,15.3-34.2,21.2"/>
		<path class="st1" d="M3117.7,1084.9c-24.9,15.4-48.6,30-67.2,41.6h592.2c18.6-11.5,42.3-26.2,67.2-41.6H3117.7z"/>
		<path class="st2" d="M1973,1095.2c-15.7,9.7-22.5,13.8-34.2,21.2"/>
		<path class="st2" d="M1983.9,1095.2c-15.6,9.7-22.5,13.8-34.2,21.2"/>
		<path class="st2" d="M1994.7,1095.2c-15.6,9.6-22.5,13.9-34.2,21.2"/>
		<path class="st2" d="M2005.5,1095.2c-15.6,9.6-22.5,13.9-34.2,21.2"/>
		<path class="st2" d="M2016.3,1095.2c-15.6,9.6-22.6,13.9-34.2,21.2"/>
		<path class="st2" d="M2027.1,1095.2c-15.5,9.6-22.6,13.9-34.2,21.2"/>
		<path class="st2" d="M2037.9,1095.2c-15.5,9.6-22.6,13.9-34.2,21.2"/>
		<path class="st2" d="M2048.7,1095.2c-15.5,9.5-22.6,14-34.2,21.2"/>
		<path class="st2" d="M2059.5,1095.2c-15.4,9.5-22.6,14-34.2,21.2"/>
		<path class="st2" d="M2070.3,1095.2c-15.4,9.5-22.7,14-34.2,21.2"/>
		<path class="st2" d="M2081.2,1095.2c-15.4,9.5-22.7,14-34.2,21.2"/>
		<path class="st2" d="M2092,1095.2c-15.4,9.5-22.7,14-34.2,21.2"/>
		<path class="st2" d="M2102.8,1095.2c-15.3,9.4-22.7,14-34.2,21.2"/>
		<path class="st2" d="M2113.6,1095.2c-15.3,9.4-22.7,14-34.2,21.2"/>
		<path class="st2" d="M2124.4,1095.2c-15.3,9.4-22.8,14.1-34.2,21.2"/>
		<path class="st2" d="M2135.2,1095.2c-15.2,9.4-22.8,14.1-34.2,21.2"/>
		<path class="st2" d="M2146,1095.2c-15.2,9.4-22.8,14.1-34.2,21.2"/>
		<path class="st2" d="M2156.8,1095.2c-15.2,9.4-22.8,14.1-34.2,21.2"/>
		<path class="st2" d="M2167.6,1095.2c-15.1,9.3-22.9,14.1-34.2,21.2"/>
		<path class="st2" d="M2178.5,1095.2c-15.1,9.3-22.9,14.1-34.2,21.2"/>
		<path class="st2" d="M2189.3,1095.2c-15.1,9.3-22.9,14.1-34.2,21.2"/>
		<path class="st2" d="M2200.1,1095.2c-15,9.3-22.9,14.2-34.2,21.2"/>
		<path class="st2" d="M2210.9,1095.2c-15,9.3-23,14.2-34.2,21.2"/>
		<path class="st2" d="M2221.7,1095.2c-15,9.2-23,14.2-34.2,21.2"/>
		<path class="st2" d="M2232.5,1095.2c-15,9.2-23,14.2-34.2,21.2"/>
		<path class="st2" d="M2243.3,1095.2c-14.9,9.2-23,14.2-34.2,21.2"/>
		<path class="st2" d="M2254.1,1095.2c-14.9,9.2-23,14.2-34.2,21.2"/>
		<path class="st2" d="M2265,1095.2c-14.9,9.2-23.1,14.2-34.2,21.2"/>
		<path class="st2" d="M2275.8,1095.2c-14.8,9.2-23.1,14.3-34.2,21.2"/>
		<path class="st2" d="M2286.6,1095.2c-14.8,9.1-23.1,14.3-34.2,21.2"/>
		<path class="st2" d="M2297.4,1095.2c-14.8,9.1-23.1,14.3-34.2,21.2"/>
		<path class="st2" d="M2308.2,1095.2c-14.7,9.1-23.2,14.3-34.2,21.2"/>
		<path class="st2" d="M2319,1095.2c-14.7,9.1-23.2,14.3-34.2,21.2"/>
		<path class="st2" d="M2329.8,1095.2c-14.7,9.1-23.2,14.3-34.2,21.2"/>
		<path class="st2" d="M2340.6,1095.2c-14.7,9-23.2,14.3-34.2,21.2"/>
		<path class="st2" d="M2351.4,1095.2c-14.6,9-23.3,14.4-34.2,21.2"/>
		<path class="st2" d="M2362.2,1095.2c-14.6,9-23.3,14.4-34.2,21.2"/>
		<path class="st2" d="M2373.1,1095.2c-14.6,9-23.3,14.4-34.2,21.2"/>
		<path class="st2" d="M2383.9,1095.2c-14.5,9-23.3,14.4-34.2,21.2"/>
		<path class="st2" d="M2394.7,1095.2c-14.5,9-23.3,14.4-34.2,21.2"/>
		<path class="st2" d="M2405.5,1095.2c-14.5,8.9-23.4,14.4-34.2,21.2"/>
		<path class="st2" d="M2416.3,1095.2c-14.5,8.9-23.4,14.4-34.2,21.2"/>
		<path class="st2" d="M2427.1,1095.2c-14.4,8.9-23.4,14.5-34.2,21.2"/>
		<path class="st2" d="M2437.9,1095.2c-14.4,8.9-23.4,14.5-34.2,21.2"/>
		<path class="st2" d="M2448.7,1095.2c-14.4,8.9-23.5,14.5-34.2,21.2"/>
		<path class="st2" d="M2459.6,1095.2c-14.3,8.8-23.5,14.5-34.2,21.2"/>
		<path class="st2" d="M2470.4,1095.2c-14.3,8.8-23.5,14.5-34.2,21.2"/>
		<path class="st2" d="M2481.2,1095.2c-14.3,8.8-23.5,14.5-34.2,21.2"/>
		<path class="st2" d="M2492,1095.2c-14.2,8.8-23.5,14.5-34.2,21.2"/>
		<path class="st2" d="M2502.8,1095.2c-14.2,8.8-23.6,14.6-34.2,21.2"/>
		<path class="st2" d="M2513.6,1095.2c-14.2,8.8-23.6,14.6-34.2,21.2"/>
		<path class="st2" d="M2524.4,1095.2c-14.2,8.7-23.6,14.6-34.2,21.2"/>
		<path class="st2" d="M2535.2,1095.2c-14.1,8.7-23.6,14.6-34.2,21.2"/>
		<path class="st2" d="M2546,1095.2c-14.1,8.7-23.7,14.6-34.2,21.2"/>
		<path class="st2" d="M2556.9,1095.2c-14.1,8.7-23.7,14.6-34.2,21.2"/>
		<path class="st2" d="M2567.7,1095.2c-14,8.7-23.7,14.6-34.2,21.2"/>
		<path class="st2" d="M2578.5,1095.2c-14,8.6-23.7,14.7-34.2,21.2"/>
		<path class="st2" d="M2589.3,1095.2c-14,8.6-23.7,14.7-34.2,21.2"/>
		<path class="st2" d="M2600.1,1095.2c-14,8.6-23.8,14.7-34.2,21.2"/>
		<path class="st2" d="M2611,1095.2c-13.9,8.6-23.8,14.7-34.2,21.2"/>
		<path class="st2" d="M2621.7,1095.2c-13.9,8.6-23.8,14.7-34.2,21.2"/>
		<path class="st2" d="M2632.5,1095.2c-13.8,8.6-23.8,14.7-34.2,21.2"/>
		<path class="st2" d="M2643.3,1095.2c-13.8,8.5-23.9,14.7-34.2,21.2"/>
		<path class="st2" d="M2654.2,1095.2c-13.8,8.5-23.9,14.7-34.2,21.2"/>
		<path class="st2" d="M2665,1095.2c-13.8,8.5-23.9,14.8-34.2,21.2"/>
		<path class="st2" d="M2675.8,1095.2c-13.8,8.5-23.9,14.8-34.2,21.2"/>
		<path class="st2" d="M2686.6,1095.2c-13.7,8.5-23.9,14.8-34.2,21.2"/>
		<path class="st2" d="M2697.4,1095.2c-13.7,8.4-24,14.8-34.2,21.2"/>
		<path class="st2" d="M2708.2,1095.2c-13.7,8.4-24,14.8-34.2,21.2"/>
		<path class="st2" d="M2719,1095.2c-13.6,8.4-24,14.8-34.2,21.2"/>
		<path class="st2" d="M2729.8,1095.2c-13.6,8.4-24,14.8-34.2,21.2"/>
		<path class="st2" d="M2740.6,1095.2c-13.6,8.4-24.1,14.8-34.2,21.2"/>
		<path class="st2" d="M2751.5,1095.2c-13.5,8.4-24.1,14.8-34.2,21.2"/>
		<path class="st2" d="M2762.3,1095.2c-13.5,8.3-24.1,14.9-34.2,21.2"/>
		<path class="st2" d="M2773.1,1095.2c-13.5,8.3-24.1,14.9-34.2,21.2"/>
		<path class="st2" d="M2783.9,1095.2c-13.5,8.3-24.2,14.9-34.2,21.2"/>
		<path class="st2" d="M2794.7,1095.2c-13.4,8.3-24.2,14.9-34.2,21.2"/>
		<path class="st2" d="M2805.6,1095.2c-13.4,8.3-24.2,14.9-34.2,21.2"/>
		<path class="st2" d="M2816.3,1095.2c-13.4,8.2-24.2,15-34.2,21.2"/>
		<path class="st2" d="M2827.1,1095.2c-13.3,8.2-24.2,15-34.2,21.2"/>
		<path class="st2" d="M2838,1095.2c-13.3,8.2-24.3,15-34.2,21.2"/>
		<path class="st2" d="M2848.8,1095.2c-13.3,8.2-24.3,15-34.2,21.2"/>
		<path class="st2" d="M2859.6,1095.2c-13.2,8.2-24.3,15-34.2,21.2"/>
		<path class="st2" d="M2870.4,1095.2c-13.2,8.1-24.3,15-34.2,21.2"/>
		<path class="st2" d="M2881.2,1095.2c-13.2,8.1-24.4,15-34.2,21.2"/>
		<path class="st2" d="M2892,1095.2c-13.2,8.1-24.4,15.1-34.2,21.2"/>
		<path class="st2" d="M2902.8,1095.2c-13.1,8.1-24.4,15.1-34.2,21.2"/>
		<path class="st2" d="M2913.6,1095.2c-13.1,8.1-24.4,15.1-34.2,21.2"/>
		<path class="st2" d="M2924.4,1095.2c-13.1,8.1-24.4,15.1-34.2,21.2"/>
		<path class="st2" d="M2935.3,1095.2c-13,8-24.4,15.1-34.2,21.2"/>
		<path class="st2" d="M2946.1,1095.2c-13,8-24.5,15.1-34.2,21.2"/>
		<path class="st2" d="M2956.9,1095.2c-13,8-24.5,15.1-34.2,21.2"/>
		<path class="st2" d="M2967.7,1095.2c-13,8-24.5,15.1-34.2,21.2"/>
		<path class="st2" d="M2978.5,1095.2c-12.9,8-24.6,15.2-34.2,21.2"/>
		<path class="st2" d="M2989.3,1095.2c-12.9,7.9-24.6,15.2-34.2,21.2"/>
		<path class="st2" d="M3000.2,1095.2c-12.8,7.9-24.6,15.2-34.2,21.2"/>
		<path class="st2" d="M3010.9,1095.2c-12.8,7.9-24.6,15.2-34.2,21.2"/>
		<path class="st2" d="M3021.7,1095.2c-12.8,7.9-24.6,15.2-34.2,21.2"/>
		<path class="st2" d="M3032.6,1095.2c-12.8,7.9-24.7,15.2-34.2,21.2"/>
		<path class="st2" d="M3043.4,1095.2c-12.7,7.9-24.7,15.2-34.2,21.2"/>
		<path class="st2" d="M3054.2,1095.2c-12.7,7.8-24.7,15.3-34.2,21.2"/>
		<path class="st2" d="M3065,1095.2c-12.7,7.8-24.7,15.3-34.2,21.2"/>
		<path class="st1" d="M4873,1084.9c-24.9,15.4-48.6,30-67.2,41.6h592.2c18.6-11.5,42.3-26.2,67.2-41.6H4873z"/>
		<path class="st2" d="M3728.4,1095.2c-15.7,9.7-22.5,13.8-34.2,21.2"/>
		<path class="st2" d="M3739.2,1095.2c-15.6,9.7-22.5,13.8-34.2,21.2"/>
		<path class="st2" d="M3750,1095.2c-15.6,9.6-22.5,13.9-34.2,21.2"/>
		<path class="st2" d="M3760.8,1095.2c-15.6,9.6-22.5,13.9-34.2,21.2"/>
		<path class="st2" d="M3771.7,1095.2c-15.6,9.6-22.6,13.9-34.2,21.2"/>
		<path class="st2" d="M3782.5,1095.2c-15.5,9.6-22.6,13.9-34.2,21.2"/>
		<path class="st2" d="M3793.3,1095.2c-15.5,9.6-22.6,13.9-34.2,21.2"/>
		<path class="st2" d="M3804.1,1095.2c-15.5,9.5-22.6,14-34.2,21.2"/>
		<path class="st2" d="M3814.9,1095.2c-15.4,9.5-22.6,14-34.2,21.2"/>
		<path class="st2" d="M3825.7,1095.2c-15.4,9.5-22.7,14-34.2,21.2"/>
		<path class="st2" d="M3836.5,1095.2c-15.4,9.5-22.7,14-34.2,21.2"/>
		<path class="st2" d="M3847.3,1095.2c-15.4,9.5-22.7,14-34.2,21.2"/>
		<path class="st2" d="M3858.2,1095.2c-15.3,9.4-22.7,14-34.2,21.2"/>
		<path class="st2" d="M3869,1095.2c-15.3,9.4-22.7,14-34.2,21.2"/>
		<path class="st2" d="M3879.8,1095.2c-15.3,9.4-22.8,14.1-34.2,21.2"/>
		<path class="st2" d="M3890.6,1095.2c-15.2,9.4-22.8,14.1-34.2,21.2"/>
		<path class="st2" d="M3901.4,1095.2c-15.2,9.4-22.8,14.1-34.2,21.2"/>
		<path class="st2" d="M3912.2,1095.2c-15.2,9.4-22.8,14.1-34.2,21.2"/>
		<path class="st2" d="M3923,1095.2c-15.1,9.3-22.9,14.1-34.2,21.2"/>
		<path class="st2" d="M3933.8,1095.2c-15.1,9.3-22.9,14.1-34.2,21.2"/>
		<path class="st2" d="M3944.6,1095.2c-15.1,9.3-22.9,14.1-34.2,21.2"/>
		<path class="st2" d="M3955.4,1095.2c-15.1,9.3-22.9,14.2-34.2,21.2"/>
		<path class="st2" d="M3966.3,1095.2c-15,9.3-23,14.2-34.2,21.2"/>
		<path class="st2" d="M3977.1,1095.2c-15,9.2-23,14.2-34.2,21.2"/>
		<path class="st2" d="M3987.9,1095.2c-15,9.2-23,14.2-34.2,21.2"/>
		<path class="st2" d="M3998.7,1095.2c-14.9,9.2-23,14.2-34.2,21.2"/>
		<path class="st2" d="M4009.5,1095.2c-14.9,9.2-23,14.2-34.2,21.2"/>
		<path class="st2" d="M4020.3,1095.2c-14.8,9.2-23.1,14.2-34.2,21.2"/>
		<path class="st2" d="M4031.1,1095.2c-14.8,9.2-23.1,14.3-34.2,21.2"/>
		<path class="st2" d="M4041.9,1095.2c-14.8,9.1-23.1,14.3-34.2,21.2"/>
		<path class="st2" d="M4052.8,1095.2c-14.8,9.1-23.1,14.3-34.2,21.2"/>
		<path class="st2" d="M4063.6,1095.2c-14.8,9.1-23.2,14.3-34.2,21.2"/>
		<path class="st2" d="M4074.4,1095.2c-14.7,9.1-23.2,14.3-34.2,21.2"/>
		<path class="st2" d="M4085.2,1095.2c-14.7,9.1-23.2,14.3-34.2,21.2"/>
		<path class="st2" d="M4096,1095.2c-14.7,9-23.2,14.3-34.2,21.2"/>
		<path class="st2" d="M4106.8,1095.2c-14.6,9-23.3,14.4-34.2,21.2"/>
		<path class="st2" d="M4117.6,1095.2c-14.6,9-23.3,14.4-34.2,21.2"/>
		<path class="st2" d="M4128.4,1095.2c-14.6,9-23.3,14.4-34.2,21.2"/>
		<path class="st2" d="M4139.2,1095.2c-14.6,9-23.3,14.4-34.2,21.2"/>
		<path class="st2" d="M4150,1095.2c-14.5,9-23.3,14.4-34.2,21.2"/>
		<path class="st2" d="M4160.9,1095.2c-14.5,8.9-23.4,14.4-34.2,21.2"/>
		<path class="st2" d="M4171.7,1095.2c-14.5,8.9-23.4,14.4-34.2,21.2"/>
		<path class="st2" d="M4182.5,1095.2c-14.4,8.9-23.4,14.5-34.2,21.2"/>
		<path class="st2" d="M4193.3,1095.2c-14.4,8.9-23.4,14.5-34.2,21.2"/>
		<path class="st2" d="M4204.1,1095.2c-14.4,8.9-23.5,14.5-34.2,21.2"/>
		<path class="st2" d="M4214.9,1095.2c-14.3,8.8-23.5,14.5-34.2,21.2"/>
		<path class="st2" d="M4225.7,1095.2c-14.3,8.8-23.5,14.5-34.2,21.2"/>
		<path class="st2" d="M4236.6,1095.2c-14.3,8.8-23.5,14.5-34.2,21.2"/>
		<path class="st2" d="M4247.4,1095.2c-14.2,8.8-23.5,14.5-34.2,21.2"/>
		<path class="st2" d="M4258.2,1095.2c-14.2,8.8-23.6,14.6-34.2,21.2"/>
		<path class="st2" d="M4269,1095.2c-14.2,8.8-23.6,14.6-34.2,21.2"/>
		<path class="st2" d="M4279.8,1095.2c-14.2,8.7-23.6,14.6-34.2,21.2"/>
		<path class="st2" d="M4290.6,1095.2c-14.1,8.7-23.6,14.6-34.2,21.2"/>
		<path class="st2" d="M4301.4,1095.2c-14.1,8.7-23.6,14.6-34.2,21.2"/>
		<path class="st2" d="M4312.2,1095.2c-14.1,8.7-23.7,14.6-34.2,21.2"/>
		<path class="st2" d="M4323,1095.2c-14,8.7-23.7,14.6-34.2,21.2"/>
		<path class="st2" d="M4333.9,1095.2c-14,8.6-23.7,14.7-34.2,21.2"/>
		<path class="st2" d="M4344.7,1095.2c-14,8.6-23.7,14.7-34.2,21.2"/>
		<path class="st2" d="M4355.5,1095.2c-13.9,8.6-23.8,14.7-34.2,21.2"/>
		<path class="st2" d="M4366.3,1095.2c-13.9,8.6-23.8,14.7-34.2,21.2"/>
		<path class="st2" d="M4377.1,1095.2c-13.9,8.6-23.8,14.7-34.2,21.2"/>
		<path class="st2" d="M4387.9,1095.2c-13.8,8.6-23.8,14.7-34.2,21.2"/>
		<path class="st2" d="M4398.7,1095.2c-13.8,8.5-23.9,14.7-34.2,21.2"/>
		<path class="st2" d="M4409.5,1095.2c-13.8,8.5-23.9,14.7-34.2,21.2"/>
		<path class="st2" d="M4420.3,1095.2c-13.8,8.5-23.9,14.8-34.2,21.2"/>
		<path class="st2" d="M4431.2,1095.2c-13.7,8.5-23.9,14.8-34.2,21.2"/>
		<path class="st2" d="M4442,1095.2c-13.7,8.5-23.9,14.8-34.2,21.2"/>
		<path class="st2" d="M4452.8,1095.2c-13.7,8.4-24,14.8-34.2,21.2"/>
		<path class="st2" d="M4463.6,1095.2c-13.7,8.4-24,14.8-34.2,21.2"/>
		<path class="st2" d="M4474.4,1095.2c-13.6,8.4-24,14.8-34.2,21.2"/>
		<path class="st2" d="M4485.2,1095.2c-13.6,8.4-24,14.8-34.2,21.2"/>
		<path class="st2" d="M4496,1095.2c-13.6,8.4-24.1,14.8-34.2,21.2"/>
		<path class="st2" d="M4506.8,1095.2c-13.5,8.4-24.1,14.8-34.2,21.2"/>
		<path class="st2" d="M4517.7,1095.2c-13.5,8.3-24.1,14.9-34.2,21.2"/>
		<path class="st2" d="M4528.5,1095.2c-13.5,8.3-24.1,14.9-34.2,21.2"/>
		<path class="st2" d="M4539.3,1095.2c-13.5,8.3-24.2,14.9-34.2,21.2"/>
		<path class="st2" d="M4550.1,1095.2c-13.4,8.3-24.2,14.9-34.2,21.2"/>
		<path class="st2" d="M4560.9,1095.2c-13.4,8.3-24.2,14.9-34.2,21.2"/>
		<path class="st2" d="M4571.7,1095.2c-13.4,8.2-24.2,15-34.2,21.2"/>
		<path class="st2" d="M4582.5,1095.2c-13.3,8.2-24.2,15-34.2,21.2"/>
		<path class="st2" d="M4593.3,1095.2c-13.3,8.2-24.3,15-34.2,21.2"/>
		<path class="st2" d="M4604.1,1095.2c-13.3,8.2-24.3,15-34.2,21.2"/>
		<path class="st2" d="M4615,1095.2c-13.2,8.2-24.3,15-34.2,21.2"/>
		<path class="st2" d="M4625.8,1095.2c-13.2,8.1-24.3,15-34.2,21.2"/>
		<path class="st2" d="M4636.6,1095.2c-13.2,8.1-24.4,15-34.2,21.2"/>
		<path class="st2" d="M4647.4,1095.2c-13.2,8.1-24.4,15.1-34.2,21.2"/>
		<path class="st2" d="M4658.2,1095.2c-13.1,8.1-24.4,15.1-34.2,21.2"/>
		<path class="st2" d="M4669,1095.2c-13.1,8.1-24.4,15.1-34.2,21.2"/>
		<path class="st2" d="M4679.8,1095.2c-13.1,8.1-24.5,15.1-34.2,21.2"/>
		<path class="st2" d="M4690.6,1095.2c-13,8-24.5,15.1-34.2,21.2"/>
		<path class="st2" d="M4701.4,1095.2c-13,8-24.5,15.1-34.2,21.2"/>
		<path class="st2" d="M4712.2,1095.2c-13,8-24.5,15.1-34.2,21.2"/>
		<path class="st2" d="M4723.1,1095.2c-13,8-24.5,15.1-34.2,21.2"/>
		<path class="st2" d="M4733.9,1095.2c-12.9,8-24.5,15.2-34.2,21.2"/>
		<path class="st2" d="M4744.7,1095.2c-12.9,7.9-24.6,15.2-34.2,21.2"/>
		<path class="st2" d="M4755.5,1095.2c-12.8,7.9-24.6,15.2-34.2,21.2"/>
		<path class="st2" d="M4766.3,1095.2c-12.8,7.9-24.6,15.2-34.2,21.2"/>
		<path class="st2" d="M4777.1,1095.2c-12.8,7.9-24.6,15.2-34.2,21.2"/>
		<path class="st2" d="M4787.9,1095.2c-12.8,7.9-24.7,15.2-34.2,21.2"/>
		<path class="st2" d="M4798.7,1095.2c-12.7,7.9-24.7,15.2-34.2,21.2"/>
		<path class="st2" d="M4809.6,1095.2c-12.7,7.8-24.7,15.3-34.2,21.2"/>
		<path class="st2" d="M4820.4,1095.2c-12.7,7.8-24.7,15.3-34.2,21.2"/>
		<path class="st1" d="M6628.4,1084.9c-24.9,15.4-48.6,30-67.2,41.6h592.2c18.6-11.5,42.3-26.2,67.2-41.6H6628.4z"/>
		<path class="st2" d="M5483.8,1095.2c-15.7,9.7-22.5,13.8-34.2,21.2"/>
		<path class="st2" d="M5494.6,1095.2c-15.6,9.7-22.5,13.8-34.2,21.2"/>
		<path class="st2" d="M5505.4,1095.2c-15.6,9.6-22.5,13.9-34.2,21.2"/>
		<path class="st2" d="M5516.3,1095.2c-15.6,9.6-22.5,13.9-34.2,21.2"/>
		<path class="st2" d="M5527,1095.2c-15.5,9.6-22.6,13.9-34.2,21.2"/>
		<path class="st2" d="M5537.8,1095.2c-15.5,9.6-22.6,13.9-34.2,21.2"/>
		<path class="st2" d="M5548.7,1095.2c-15.5,9.6-22.6,13.9-34.2,21.2"/>
		<path class="st2" d="M5559.5,1095.2c-15.5,9.5-22.6,14-34.2,21.2"/>
		<path class="st2" d="M5570.3,1095.2c-15.4,9.5-22.6,14-34.2,21.2"/>
		<path class="st2" d="M5581.1,1095.2c-15.4,9.5-22.7,14-34.2,21.2"/>
		<path class="st2" d="M5591.9,1095.2c-15.4,9.5-22.7,14-34.2,21.2"/>
		<path class="st2" d="M5602.7,1095.2c-15.3,9.5-22.7,14-34.2,21.2"/>
		<path class="st2" d="M5613.5,1095.2c-15.3,9.4-22.7,14-34.2,21.2"/>
		<path class="st2" d="M5624.3,1095.2c-15.3,9.4-22.7,14-34.2,21.2"/>
		<path class="st2" d="M5635.2,1095.2c-15.3,9.4-22.8,14.1-34.2,21.2"/>
		<path class="st2" d="M5646,1095.2c-15.2,9.4-22.8,14.1-34.2,21.2"/>
		<path class="st2" d="M5656.8,1095.2c-15.2,9.4-22.8,14.1-34.2,21.2"/>
		<path class="st2" d="M5667.6,1095.2c-15.2,9.4-22.8,14.1-34.2,21.2"/>
		<path class="st2" d="M5678.4,1095.2c-15.1,9.3-22.9,14.1-34.2,21.2"/>
		<path class="st2" d="M5689.2,1095.2c-15.1,9.3-22.9,14.1-34.2,21.2"/>
		<path class="st2" d="M5700,1095.2c-15.1,9.3-22.9,14.1-34.2,21.2"/>
		<path class="st2" d="M5710.9,1095.2c-15.1,9.3-22.9,14.2-34.2,21.2"/>
		<path class="st2" d="M5721.6,1095.2c-15,9.3-23,14.2-34.2,21.2"/>
		<path class="st2" d="M5732.4,1095.2c-15,9.2-23,14.2-34.2,21.2"/>
		<path class="st2" d="M5743.3,1095.2c-15,9.2-23,14.2-34.2,21.2"/>
		<path class="st2" d="M5754.1,1095.2c-14.9,9.2-23,14.2-34.2,21.2"/>
		<path class="st2" d="M5764.9,1095.2c-14.9,9.2-23,14.2-34.2,21.2"/>
		<path class="st2" d="M5775.7,1095.2c-14.9,9.2-23.1,14.2-34.2,21.2"/>
		<path class="st2" d="M5786.5,1095.2c-14.8,9.2-23.1,14.3-34.2,21.2"/>
		<path class="st2" d="M5797.3,1095.2c-14.8,9.1-23.1,14.3-34.2,21.2"/>
		<path class="st2" d="M5808.1,1095.2c-14.8,9.1-23.1,14.3-34.2,21.2"/>
		<path class="st2" d="M5818.9,1095.2c-14.8,9.1-23.2,14.3-34.2,21.2"/>
		<path class="st2" d="M5829.8,1095.2c-14.7,9.1-23.2,14.3-34.2,21.2"/>
		<path class="st2" d="M5840.6,1095.2c-14.7,9.1-23.2,14.3-34.2,21.2"/>
		<path class="st2" d="M5851.4,1095.2c-14.7,9-23.2,14.3-34.2,21.2"/>
		<path class="st2" d="M5862.2,1095.2c-14.6,9-23.3,14.4-34.2,21.2"/>
		<path class="st2" d="M5873,1095.2c-14.6,9-23.3,14.4-34.2,21.2"/>
		<path class="st2" d="M5883.8,1095.2c-14.6,9-23.3,14.4-34.2,21.2"/>
		<path class="st2" d="M5894.6,1095.2c-14.6,9-23.3,14.4-34.2,21.2"/>
		<path class="st2" d="M5905.5,1095.2c-14.5,9-23.3,14.4-34.2,21.2"/>
		<path class="st2" d="M5916.2,1095.2c-14.5,8.9-23.4,14.4-34.2,21.2"/>
		<path class="st2" d="M5927.1,1095.2c-14.5,8.9-23.4,14.4-34.2,21.2"/>
		<path class="st2" d="M5937.9,1095.2c-14.4,8.9-23.4,14.5-34.2,21.2"/>
		<path class="st2" d="M5948.7,1095.2c-14.4,8.9-23.4,14.5-34.2,21.2"/>
		<path class="st2" d="M5959.5,1095.2c-14.4,8.9-23.5,14.5-34.2,21.2"/>
		<path class="st2" d="M5970.3,1095.2c-14.3,8.8-23.5,14.5-34.2,21.2"/>
		<path class="st2" d="M5981.1,1095.2c-14.3,8.8-23.5,14.5-34.2,21.2"/>
		<path class="st2" d="M5991.9,1095.2c-14.3,8.8-23.5,14.5-34.2,21.2"/>
		<path class="st2" d="M6002.7,1095.2c-14.3,8.8-23.5,14.5-34.2,21.2"/>
		<path class="st2" d="M6013.5,1095.2c-14.2,8.8-23.6,14.6-34.2,21.2"/>
		<path class="st2" d="M6024.4,1095.2c-14.2,8.8-23.6,14.6-34.2,21.2"/>
		<path class="st2" d="M6035.2,1095.2c-14.2,8.7-23.6,14.6-34.2,21.2"/>
		<path class="st2" d="M6046,1095.2c-14.1,8.7-23.6,14.6-34.2,21.2"/>
		<path class="st2" d="M6056.8,1095.2c-14.1,8.7-23.6,14.6-34.2,21.2"/>
		<path class="st2" d="M6067.6,1095.2c-14.1,8.7-23.7,14.6-34.2,21.2"/>
		<path class="st2" d="M6078.4,1095.2c-14,8.7-23.7,14.6-34.2,21.2"/>
		<path class="st2" d="M6089.2,1095.2c-14,8.6-23.7,14.7-34.2,21.2"/>
		<path class="st2" d="M6100.1,1095.2c-14,8.6-23.7,14.7-34.2,21.2"/>
		<path class="st2" d="M6110.8,1095.2c-13.9,8.6-23.8,14.7-34.2,21.2"/>
		<path class="st2" d="M6121.7,1095.2c-13.9,8.6-23.8,14.7-34.2,21.2"/>
		<path class="st2" d="M6132.5,1095.2c-13.9,8.6-23.8,14.7-34.2,21.2"/>
		<path class="st2" d="M6143.3,1095.2c-13.8,8.6-23.8,14.7-34.2,21.2"/>
		<path class="st2" d="M6154.1,1095.2c-13.8,8.5-23.9,14.7-34.2,21.2"/>
		<path class="st2" d="M6164.9,1095.2c-13.8,8.5-23.9,14.7-34.2,21.2"/>
		<path class="st2" d="M6175.7,1095.2c-13.8,8.5-23.9,14.8-34.2,21.2"/>
		<path class="st2" d="M6186.5,1095.2c-13.7,8.5-23.9,14.8-34.2,21.2"/>
		<path class="st2" d="M6197.3,1095.2c-13.7,8.5-23.9,14.8-34.2,21.2"/>
		<path class="st2" d="M6208.2,1095.2c-13.7,8.4-24,14.8-34.2,21.2"/>
		<path class="st2" d="M6219,1095.2c-13.7,8.4-24,14.8-34.2,21.2"/>
		<path class="st2" d="M6229.8,1095.2c-13.6,8.4-24,14.8-34.2,21.2"/>
		<path class="st2" d="M6240.6,1095.2c-13.6,8.4-24,14.8-34.2,21.2"/>
		<path class="st2" d="M6251.4,1095.2c-13.6,8.4-24.1,14.8-34.2,21.2"/>
		<path class="st2" d="M6262.2,1095.2c-13.5,8.4-24.1,14.8-34.2,21.2"/>
		<path class="st2" d="M6273,1095.2c-13.5,8.3-24.1,14.9-34.2,21.2"/>
		<path class="st2" d="M6283.8,1095.2c-13.5,8.3-24.1,14.9-34.2,21.2"/>
		<path class="st2" d="M6294.6,1095.2c-13.4,8.3-24.1,14.9-34.2,21.2"/>
		<path class="st2" d="M6305.5,1095.2c-13.4,8.3-24.2,14.9-34.2,21.2"/>
		<path class="st2" d="M6316.3,1095.2c-13.4,8.3-24.2,14.9-34.2,21.2"/>
		<path class="st2" d="M6327.1,1095.2c-13.4,8.2-24.2,15-34.2,21.2"/>
		<path class="st2" d="M6337.9,1095.2c-13.3,8.2-24.2,15-34.2,21.2"/>
		<path class="st2" d="M6348.7,1095.2c-13.3,8.2-24.3,15-34.2,21.2"/>
		<path class="st2" d="M6359.5,1095.2c-13.3,8.2-24.3,15-34.2,21.2"/>
		<path class="st2" d="M6370.3,1095.2c-13.2,8.2-24.3,15-34.2,21.2"/>
		<path class="st2" d="M6381.1,1095.2c-13.2,8.1-24.3,15-34.2,21.2"/>
		<path class="st2" d="M6391.9,1095.2c-13.2,8.1-24.4,15-34.2,21.2"/>
		<path class="st2" d="M6402.8,1095.2c-13.2,8.1-24.4,15.1-34.2,21.2"/>
		<path class="st2" d="M6413.6,1095.2c-13.1,8.1-24.4,15.1-34.2,21.2"/>
		<path class="st2" d="M6424.4,1095.2c-13.1,8.1-24.4,15.1-34.2,21.2"/>
		<path class="st2" d="M6435.2,1095.2c-13.1,8.1-24.5,15.1-34.2,21.2"/>
		<path class="st2" d="M6446,1095.2c-13,8-24.5,15.1-34.2,21.2"/>
		<path class="st2" d="M6456.8,1095.2c-13,8-24.5,15.1-34.2,21.2"/>
		<path class="st2" d="M6467.6,1095.2c-13,8-24.5,15.1-34.2,21.2"/>
		<path class="st2" d="M6478.4,1095.2c-13,8-24.5,15.1-34.2,21.2"/>
		<path class="st2" d="M6489.3,1095.2c-12.9,8-24.5,15.2-34.2,21.2"/>
		<path class="st2" d="M6500.1,1095.2c-12.9,7.9-24.6,15.2-34.2,21.2"/>
		<path class="st2" d="M6510.9,1095.2c-12.8,7.9-24.6,15.2-34.2,21.2"/>
		<path class="st2" d="M6521.7,1095.2c-12.8,7.9-24.6,15.2-34.2,21.2"/>
		<path class="st2" d="M6532.5,1095.2c-12.8,7.9-24.6,15.2-34.2,21.2"/>
		<path class="st2" d="M6543.3,1095.2c-12.8,7.9-24.7,15.2-34.2,21.2"/>
		<path class="st2" d="M6554.1,1095.2c-12.7,7.9-24.7,15.2-34.2,21.2"/>
		<path class="st2" d="M6564.9,1095.2c-12.7,7.8-24.7,15.3-34.2,21.2"/>
		<path class="st2" d="M6575.7,1095.2c-12.7,7.8-24.7,15.3-34.2,21.2"/>
		<g>
			<defs>
				<path id="SVGID_1_" d="M7890.2,1084.9v41.6h-736.8c18.6-11.5,42.3-26.2,67.2-41.6L7890.2,1084.9z"/>
			</defs>
			<clipPath id="SVGID_2_">
				<use xlink:href="#SVGID_1_"  style="overflow:visible;"/>
			</clipPath>
			<g class="st3">
				<path class="st2" d="M7239.2,1095.2c-15.7,9.7-22.5,13.8-34.2,21.2"/>
				<path class="st2" d="M7250,1095.2c-15.6,9.7-22.5,13.8-34.2,21.2"/>
				<path class="st2" d="M7260.8,1095.2c-15.6,9.6-22.5,13.9-34.2,21.2"/>
				<path class="st2" d="M7271.6,1095.2c-15.6,9.6-22.5,13.9-34.2,21.2"/>
				<path class="st2" d="M7282.4,1095.2c-15.5,9.6-22.6,13.9-34.2,21.2"/>
				<path class="st2" d="M7293.2,1095.2c-15.5,9.6-22.6,13.9-34.2,21.2"/>
				<path class="st2" d="M7304,1095.2c-15.5,9.6-22.6,13.9-34.2,21.2"/>
				<path class="st2" d="M7314.8,1095.2c-15.5,9.5-22.6,14-34.2,21.2"/>
				<path class="st2" d="M7325.7,1095.2c-15.4,9.5-22.6,14-34.2,21.2"/>
				<path class="st2" d="M7336.5,1095.2c-15.4,9.5-22.7,14-34.2,21.2"/>
				<path class="st2" d="M7347.3,1095.2c-15.4,9.5-22.7,14-34.2,21.2"/>
				<path class="st2" d="M7358.1,1095.2c-15.3,9.5-22.7,14-34.2,21.2"/>
				<path class="st2" d="M7368.9,1095.2c-15.3,9.4-22.7,14-34.2,21.2"/>
				<path class="st2" d="M7379.7,1095.2c-15.3,9.4-22.7,14-34.2,21.2"/>
				<path class="st2" d="M7390.5,1095.2c-15.3,9.4-22.8,14.1-34.2,21.2"/>
				<path class="st2" d="M7401.3,1095.2c-15.2,9.4-22.8,14.1-34.2,21.2"/>
				<path class="st2" d="M7412.1,1095.2c-15.2,9.4-22.8,14.1-34.2,21.2"/>
				<path class="st2" d="M7423,1095.2c-15.2,9.4-22.8,14.1-34.2,21.2"/>
				<path class="st2" d="M7433.8,1095.2c-15.1,9.3-22.9,14.1-34.2,21.2"/>
				<path class="st2" d="M7444.6,1095.2c-15.1,9.3-22.9,14.1-34.2,21.2"/>
				<path class="st2" d="M7455.4,1095.2c-15.1,9.3-22.9,14.1-34.2,21.2"/>
				<path class="st2" d="M7466.2,1095.2c-15,9.3-22.9,14.2-34.2,21.2"/>
				<path class="st2" d="M7477,1095.2c-15,9.3-23,14.2-34.2,21.2"/>
				<path class="st2" d="M7487.8,1095.2c-15,9.2-23,14.2-34.2,21.2"/>
				<path class="st2" d="M7498.6,1095.2c-15,9.2-23,14.2-34.2,21.2"/>
				<path class="st2" d="M7509.4,1095.2c-14.9,9.2-23,14.2-34.2,21.2"/>
				<path class="st2" d="M7520.3,1095.2c-14.9,9.2-23,14.2-34.2,21.2"/>
				<path class="st2" d="M7531.1,1095.2c-14.9,9.2-23.1,14.2-34.2,21.2"/>
				<path class="st2" d="M7541.9,1095.2c-14.8,9.2-23.1,14.3-34.2,21.2"/>
				<path class="st2" d="M7552.7,1095.2c-14.8,9.1-23.1,14.3-34.2,21.2"/>
				<path class="st2" d="M7563.5,1095.2c-14.8,9.1-23.1,14.3-34.2,21.2"/>
				<path class="st2" d="M7574.3,1095.2c-14.8,9.1-23.2,14.3-34.2,21.2"/>
				<path class="st2" d="M7585.1,1095.2c-14.7,9.1-23.2,14.3-34.2,21.2"/>
				<path class="st2" d="M7595.9,1095.2c-14.7,9.1-23.2,14.3-34.2,21.2"/>
				<path class="st2" d="M7606.8,1095.2c-14.7,9-23.2,14.3-34.2,21.2"/>
				<path class="st2" d="M7617.6,1095.2c-14.6,9-23.2,14.4-34.2,21.2"/>
				<path class="st2" d="M7628.4,1095.2c-14.6,9-23.3,14.4-34.2,21.2"/>
				<path class="st2" d="M7639.2,1095.2c-14.6,9-23.3,14.4-34.2,21.2"/>
				<path class="st2" d="M7650.1,1095.2c-14.6,9-23.3,14.4-34.2,21.2"/>
				<path class="st2" d="M7660.8,1095.2c-14.5,9-23.3,14.4-34.2,21.2"/>
				<path class="st2" d="M7671.6,1095.2c-14.5,8.9-23.4,14.4-34.2,21.2"/>
				<path class="st2" d="M7682.4,1095.2c-14.5,8.9-23.4,14.4-34.2,21.2"/>
				<path class="st2" d="M7693.2,1095.2c-14.4,8.9-23.4,14.5-34.2,21.2"/>
				<path class="st2" d="M7704.1,1095.2c-14.4,8.9-23.4,14.5-34.2,21.2"/>
				<path class="st2" d="M7714.9,1095.2c-14.4,8.9-23.5,14.5-34.2,21.2"/>
				<path class="st2" d="M7725.7,1095.2c-14.3,8.8-23.5,14.5-34.2,21.2"/>
				<path class="st2" d="M7736.5,1095.2c-14.3,8.8-23.5,14.5-34.2,21.2"/>
				<path class="st2" d="M7747.3,1095.2c-14.3,8.8-23.5,14.5-34.2,21.2"/>
				<path class="st2" d="M7758.1,1095.2c-14.3,8.8-23.5,14.5-34.2,21.2"/>
				<path class="st2" d="M7768.9,1095.2c-14.2,8.8-23.6,14.6-34.2,21.2"/>
				<path class="st2" d="M7779.7,1095.2c-14.2,8.8-23.6,14.6-34.2,21.2"/>
				<path class="st2" d="M7790.5,1095.2c-14.2,8.7-23.6,14.6-34.2,21.2"/>
				<path class="st2" d="M7801.4,1095.2c-14.1,8.7-23.6,14.6-34.2,21.2"/>
				<path class="st2" d="M7812.2,1095.2c-14.1,8.7-23.7,14.6-34.2,21.2"/>
				<path class="st2" d="M7823,1095.2c-14.1,8.7-23.7,14.6-34.2,21.2"/>
				<path class="st2" d="M7833.8,1095.2c-14,8.7-23.7,14.6-34.2,21.2"/>
				<path class="st2" d="M7844.6,1095.2c-14,8.6-23.7,14.7-34.2,21.2"/>
				<path class="st2" d="M7855.4,1095.2c-14,8.6-23.7,14.7-34.2,21.2"/>
				<path class="st2" d="M7866.2,1095.2c-14,8.6-23.8,14.7-34.2,21.2"/>
				<path class="st2" d="M7877,1095.2c-13.9,8.6-23.8,14.7-34.2,21.2"/>
				<path class="st2" d="M7887.9,1095.2c-13.9,8.6-23.8,14.7-34.2,21.2"/>
				<path class="st2" d="M7898.7,1095.2c-13.8,8.6-23.8,14.7-34.2,21.2"/>
				<path class="st2" d="M7909.5,1095.2c-13.8,8.5-23.9,14.7-34.2,21.2"/>
				<path class="st2" d="M7920.3,1095.2c-13.8,8.5-23.9,14.7-34.2,21.2"/>
				<path class="st2" d="M7931.1,1095.2c-13.8,8.5-23.9,14.8-34.2,21.2"/>
				<path class="st2" d="M7941.9,1095.2c-13.8,8.5-23.9,14.8-34.2,21.2"/>
				<path class="st2" d="M7952.7,1095.2c-13.7,8.5-23.9,14.8-34.2,21.2"/>
				<path class="st2" d="M7963.5,1095.2c-13.7,8.4-24,14.8-34.2,21.2"/>
				<path class="st2" d="M7974.3,1095.2c-13.7,8.4-24,14.8-34.2,21.2"/>
				<path class="st2" d="M7985.2,1095.2c-13.6,8.4-24,14.8-34.2,21.2"/>
				<path class="st2" d="M7996,1095.2c-13.6,8.4-24,14.8-34.2,21.2"/>
				<path class="st2" d="M8006.8,1095.2c-13.6,8.4-24.1,14.8-34.2,21.2"/>
				<path class="st2" d="M8017.6,1095.2c-13.5,8.4-24.1,14.8-34.2,21.2"/>
				<path class="st2" d="M8028.4,1095.2c-13.5,8.3-24.1,14.9-34.2,21.2"/>
				<path class="st2" d="M8039.2,1095.2c-13.5,8.3-24.1,14.9-34.2,21.2"/>
				<path class="st2" d="M8050,1095.2c-13.5,8.3-24.1,14.9-34.2,21.2"/>
				<path class="st2" d="M8060.8,1095.2c-13.4,8.3-24.2,14.9-34.2,21.2"/>
				<path class="st2" d="M8071.6,1095.2c-13.4,8.3-24.2,14.9-34.2,21.2"/>
				<path class="st2" d="M8082.5,1095.2c-13.4,8.2-24.2,15-34.2,21.2"/>
				<path class="st2" d="M8093.3,1095.2c-13.3,8.2-24.2,15-34.2,21.2"/>
				<path class="st2" d="M8104.1,1095.2c-13.3,8.2-24.3,15-34.2,21.2"/>
				<path class="st2" d="M8114.9,1095.2c-13.3,8.2-24.3,15-34.2,21.2"/>
				<path class="st2" d="M8125.7,1095.2c-13.2,8.2-24.3,15-34.2,21.2"/>
				<path class="st2" d="M8136.5,1095.2c-13.2,8.1-24.3,15-34.2,21.2"/>
				<path class="st2" d="M8147.3,1095.2c-13.2,8.1-24.4,15-34.2,21.2"/>
				<path class="st2" d="M8158.1,1095.2c-13.2,8.1-24.4,15.1-34.2,21.2"/>
				<path class="st2" d="M8168.9,1095.2c-13.1,8.1-24.4,15.1-34.2,21.2"/>
				<path class="st2" d="M8179.8,1095.2c-13.1,8.1-24.4,15.1-34.2,21.2"/>
				<path class="st2" d="M8190.6,1095.2c-13.1,8.1-24.5,15.1-34.2,21.2"/>
				<path class="st2" d="M8201.4,1095.2c-13,8-24.4,15.1-34.2,21.2"/>
				<path class="st2" d="M8212.2,1095.2c-13,8-24.5,15.1-34.2,21.2"/>
				<path class="st2" d="M8223,1095.2c-13,8-24.5,15.1-34.2,21.2"/>
				<path class="st2" d="M8233.8,1095.2c-12.9,8-24.5,15.1-34.2,21.2"/>
				<path class="st2" d="M8244.6,1095.2c-12.9,8-24.5,15.2-34.2,21.2"/>
				<path class="st2" d="M8255.4,1095.2c-12.8,7.9-24.6,15.2-34.2,21.2"/>
				<path class="st2" d="M8266.3,1095.2c-12.8,7.9-24.6,15.2-34.2,21.2"/>
				<path class="st2" d="M8277.1,1095.2c-12.8,7.9-24.6,15.2-34.2,21.2"/>
				<path class="st2" d="M8287.9,1095.2c-12.8,7.9-24.7,15.2-34.2,21.2"/>
				<path class="st2" d="M8298.7,1095.2c-12.8,7.9-24.7,15.2-34.2,21.2"/>
				<path class="st2" d="M8309.5,1095.2c-12.7,7.9-24.7,15.2-34.2,21.2"/>
				<path class="st2" d="M8320.3,1095.2c-12.7,7.8-24.7,15.3-34.2,21.2"/>
				<path class="st2" d="M8331.1,1095.2c-12.7,7.8-24.7,15.3-34.2,21.2"/>
			</g>
		</g>
		<circle class="st4" cx="269.8" cy="937.4" r="56.1"/>
		<line class="st5" x1="269.8" y1="993.5" x2="269.8" y2="1073.9"/>
		
			<ellipse transform="matrix(7.088894e-02 -0.9975 0.9975 7.088894e-02 -825.6441 1271.6084)" class="st6" cx="269.8" cy="1079" rx="5.9" ry="5.9"/>
		
			<linearGradient id="SVGID_3_" gradientUnits="userSpaceOnUse" x1="177.752" y1="-254.6446" x2="294.852" y2="-197.0346" gradientTransform="matrix(0.9879 0 0 -0.9879 38.0549 713.431)">
			<stop  offset="0" style="stop-color:#E6809A"/>
			<stop  offset="1" style="stop-color:#6AC2C5"/>
		</linearGradient>
		<circle class="st7" cx="269.8" cy="937.4" r="46.2"/>
		<text transform="matrix(1 0 0 1 245.6572 933.2261)" style="fill:#FFFFFF; font-family:'Cairo-Bold'; font-size:43.0512px;">19</text>
		<text transform="matrix(1 0 0 1 245.6572 965.6577)" style="fill:#FFFFFF; font-family:'Cairo-Bold'; font-size:43.0512px;">20</text>
		<text transform="matrix(1 0 0 1 342.1025 931.4282)" style="fill:#FFFFFF; font-family:'Cairo-SemiBold'; font-size:21.733px;">Création de la Caisse de Prêts </text>
		<text transform="matrix(1 0 0 1 342.1025 958.0908)" style="fill:#FFFFFF; font-family:'Cairo-SemiBold'; font-size:21.733px;">Immobiliers du Maroc (CPIM).</text>
		<text transform="matrix(1 0 0 1 652.7563 1242.8032)" style="fill:#FFFFFF; font-family:'Cairo-SemiBold'; font-size:21.733px;">L’État autorise la CPIM à </text>
		<text transform="matrix(1 0 0 1 652.7563 1269.4658)" style="fill:#FFFFFF; font-family:'Cairo-SemiBold'; font-size:21.733px;">effectuer des opérations de </text>
		<text transform="matrix(1 0 0 1 652.7563 1296.1182)" style="fill:#FFFFFF; font-family:'Cairo-SemiBold'; font-size:21.733px;">crédit à long terme en vue de </text>
		<text transform="matrix(1 0 0 1 652.7563 1322.7808)" style="fill:#FFFFFF; font-family:'Cairo-SemiBold'; font-size:21.733px;">la construction, de la réfection </text>
		<text transform="matrix(1 0 0 1 652.7563 1349.4434)" style="fill:#FFFFFF; font-family:'Cairo-SemiBold'; font-size:21.733px;">et de l’aménagement d’hôtels </text>
		<text transform="matrix(1 0 0 1 652.7563 1376.0957)" style="fill:#FFFFFF; font-family:'Cairo-SemiBold'; font-size:21.733px;">de voyageurs.</text>
		<circle class="st6" cx="588.2" cy="1132.5" r="5.9"/>
		<circle class="st4" cx="588.2" cy="1274.1" r="56.1"/>
		<line class="st5" x1="588.2" y1="1217.9" x2="588.2" y2="1137.6"/>
		
			<linearGradient id="SVGID_4_" gradientUnits="userSpaceOnUse" x1="494.9011" y1="-608.6526" x2="612.0111" y2="-551.0427" gradientTransform="matrix(0.9879 0 0 -0.9879 43.1523 700.4307)">
			<stop  offset="0" style="stop-color:#E6809A"/>
			<stop  offset="1" style="stop-color:#6AC2C5"/>
		</linearGradient>
		<circle class="st8" cx="588.2" cy="1274.1" r="46.2"/>
		<text transform="matrix(1 0 0 1 564.0659 1269.9399)" style="fill:#FFFFFF; font-family:'Cairo-Bold'; font-size:43.0512px;">19</text>
		<text transform="matrix(1 0 0 1 564.0659 1302.3716)" style="fill:#FFFFFF; font-family:'Cairo-Bold'; font-size:43.0512px;">27</text>
		<circle class="st6" cx="1225.7" cy="1132.5" r="5.9"/>
		<circle class="st4" cx="1225.7" cy="1274.1" r="56.1"/>
		<line class="st5" x1="1225.7" y1="1217.9" x2="1225.7" y2="1137.6"/>
		
			<linearGradient id="SVGID_5_" gradientUnits="userSpaceOnUse" x1="1140.2621" y1="-608.6545" x2="1257.3619" y2="-551.0446" gradientTransform="matrix(0.9879 0 0 -0.9879 43.1523 700.4307)">
			<stop  offset="0" style="stop-color:#E6809A"/>
			<stop  offset="1" style="stop-color:#6AC2C5"/>
		</linearGradient>
		<circle class="st9" cx="1225.7" cy="1274.1" r="46.2"/>
		<text transform="matrix(1 0 0 1 1201.5947 1269.9399)" style="fill:#FFFFFF; font-family:'Cairo-Bold'; font-size:43.0512px;">19</text>
		<text transform="matrix(1 0 0 1 1201.5947 1302.3716)" style="fill:#FFFFFF; font-family:'Cairo-Bold'; font-size:43.0512px;">68</text>
		<text transform="matrix(1 0 0 1 1290.2852 1242.8032)" style="fill:#FFFFFF; font-family:'Cairo-SemiBold'; font-size:21.733px;">L’État confie au CIH la mission </text>
		<text transform="matrix(1 0 0 1 1290.2852 1269.4658)" style="fill:#FFFFFF; font-family:'Cairo-SemiBold'; font-size:21.733px;">de financer les secteurs </text>
		<text transform="matrix(1 0 0 1 1290.2852 1296.1182)" style="fill:#FFFFFF; font-family:'Cairo-SemiBold'; font-size:21.733px;">immobilier et hôtelier et lui </text>
		<text transform="matrix(1 0 0 1 1290.2852 1322.7808)" style="fill:#FFFFFF; font-family:'Cairo-SemiBold'; font-size:21.733px;">accorde dans ce cadre des </text>
		<text transform="matrix(1 0 0 1 1290.2852 1349.4434)" style="fill:#FFFFFF; font-family:'Cairo-SemiBold'; font-size:21.733px;">moyens supplémentaires ainsi </text>
		<text transform="matrix(1 0 0 1 1290.2852 1376.0957)" style="fill:#FFFFFF; font-family:'Cairo-SemiBold'; font-size:21.733px;">que le monopole dans ce </text>
		<text transform="matrix(1 0 0 1 1290.2852 1402.7588)" style="fill:#FFFFFF; font-family:'Cairo-SemiBold'; font-size:21.733px;">domaine.</text>
		<circle class="st6" cx="906.7" cy="1079" r="5.9"/>
		<circle class="st4" cx="906.7" cy="937.4" r="56.1"/>
		<line class="st5" x1="906.7" y1="993.5" x2="906.7" y2="1073.9"/>
		
			<linearGradient id="SVGID_6_" gradientUnits="userSpaceOnUse" x1="822.472" y1="-254.6446" x2="939.572" y2="-197.0346" gradientTransform="matrix(0.9879 0 0 -0.9879 38.0549 713.431)">
			<stop  offset="0" style="stop-color:#E6809A"/>
			<stop  offset="1" style="stop-color:#6AC2C5"/>
		</linearGradient>
		<circle class="st10" cx="906.7" cy="937.4" r="46.2"/>
		<text transform="matrix(1 0 0 1 882.356 933.0781)" style="fill:#FFFFFF; font-family:'Cairo-Bold'; font-size:43.0512px;">19</text>
		<text transform="matrix(1 0 0 1 882.356 965.5098)" style="fill:#FFFFFF; font-family:'Cairo-Bold'; font-size:43.0512px;">67</text>
		<text transform="matrix(1 0 0 1 978.999 919.1689)" style="fill:#FFFFFF; font-family:'Cairo-SemiBold'; font-size:21.733px;">La CPIM devient</text>
		<text transform="matrix(1 0 0 1 978.999 945.8311)" style="fill:#FFFFFF; font-family:'Cairo-SemiBold'; font-size:21.733px;">le Crédit Immobilier</text>
		<text transform="matrix(1 0 0 1 978.999 972.4839)" style="fill:#FFFFFF; font-family:'Cairo-SemiBold'; font-size:21.733px;">et Hôtelier (CIH)</text>
		<text transform="matrix(1 0 0 1 5113.5605 1236.876)" style="fill:#FFFFFF; font-family:'Cairo-SemiBold'; font-size:21.733px;">Lancement de nouvelles offres concernant</text>
		<text transform="matrix(1 0 0 1 5113.5605 1263.5386)" style="fill:#FFFFFF; font-family:'Cairo-SemiBold'; font-size:21.733px;">la bancassurance, l’assistance, la monétique, </text>
		<text transform="matrix(1 0 0 1 5113.5605 1290.1914)" style="fill:#FFFFFF; font-family:'Cairo-SemiBold'; font-size:21.733px;">les produits à l’international ou encore les </text>
		<text transform="matrix(1 0 0 1 5113.5605 1316.8535)" style="fill:#FFFFFF; font-family:'Cairo-SemiBold'; font-size:21.733px;">services à distance. Ces offres dédiées aux </text>
		<text transform="matrix(1 0 0 1 5113.5605 1343.5166)" style="fill:#FFFFFF; font-family:'Cairo-SemiBold'; font-size:21.733px;">particuliers et aux professionnels illustrent </text>
		<text transform="matrix(1 0 0 1 5113.5605 1370.1689)" style="fill:#FFFFFF; font-family:'Cairo-SemiBold'; font-size:21.733px;">la nouvelle approche de la banque qui place </text>
		<text transform="matrix(1 0 0 1 5113.5605 1396.8311)" style="fill:#FFFFFF; font-family:'Cairo-SemiBold'; font-size:21.733px;">désormais le client au cœur de sa stratégie.</text>
		<circle class="st6" cx="5049" cy="1132.5" r="5.9"/>
		<circle class="st4" cx="5049" cy="1274.1" r="56.1"/>
		<line class="st5" x1="5049" y1="1217.9" x2="5049" y2="1137.6"/>
		
			<linearGradient id="SVGID_7_" gradientUnits="userSpaceOnUse" x1="5010.502" y1="-608.6547" x2="5127.6021" y2="-551.0447" gradientTransform="matrix(0.9879 0 0 -0.9879 43.1523 700.4307)">
			<stop  offset="0" style="stop-color:#E6809A"/>
			<stop  offset="1" style="stop-color:#6AC2C5"/>
		</linearGradient>
		<circle class="st11" cx="5049" cy="1274.1" r="46.2"/>
		<text transform="matrix(1 0 0 1 5024.8604 1269.9399)" style="fill:#FFFFFF; font-family:'Cairo-Bold'; font-size:43.0512px;">20</text>
		<text transform="matrix(1 0 0 1 5024.8604 1302.3716)" style="fill:#FFFFFF; font-family:'Cairo-Bold'; font-size:43.0512px;">12</text>
		<circle class="st6" cx="1543.3" cy="1079" r="5.9"/>
		<circle class="st4" cx="1543.3" cy="937.4" r="56.1"/>
		<line class="st5" x1="1543.3" y1="993.5" x2="1543.3" y2="1073.9"/>
		
			<linearGradient id="SVGID_8_" gradientUnits="userSpaceOnUse" x1="1466.9419" y1="-254.6446" x2="1584.042" y2="-197.0346" gradientTransform="matrix(0.9879 0 0 -0.9879 38.0549 713.431)">
			<stop  offset="0" style="stop-color:#E6809A"/>
			<stop  offset="1" style="stop-color:#6AC2C5"/>
		</linearGradient>
		<circle class="st12" cx="1543.3" cy="937.4" r="46.2"/>
		<text transform="matrix(1 0 0 1 1519.2031 933.2261)" style="fill:#FFFFFF; font-family:'Cairo-Bold'; font-size:43.0512px;">19</text>
		<text transform="matrix(1 0 0 1 1519.2031 965.6577)" style="fill:#FFFFFF; font-family:'Cairo-Bold'; font-size:43.0512px;">80</text>
		<text transform="matrix(1 0 0 1 1615.6582 922.7744)" style="fill:#FFFFFF; font-family:'Cairo-SemiBold'; font-size:21.733px;">Passage du manuel au </text>
		<text transform="matrix(1 0 0 1 1615.6582 949.437)" style="fill:#FFFFFF; font-family:'Cairo-SemiBold'; font-size:21.733px;">système informatique </text>
		<text transform="matrix(1 0 0 1 1615.6582 976.0898)" style="fill:#FFFFFF; font-family:'Cairo-SemiBold'; font-size:21.733px;">au niveau central</text>
		<circle class="st6" cx="1862.1" cy="1132.5" r="5.9"/>
		<circle class="st4" cx="1862.1" cy="1274.1" r="56.1"/>
		<line class="st5" x1="1862.1" y1="1217.9" x2="1862.1" y2="1137.6"/>
		
			<linearGradient id="SVGID_9_" gradientUnits="userSpaceOnUse" x1="1784.5221" y1="-608.6545" x2="1901.6219" y2="-551.0446" gradientTransform="matrix(0.9879 0 0 -0.9879 43.1523 700.4307)">
			<stop  offset="0" style="stop-color:#E6809A"/>
			<stop  offset="1" style="stop-color:#6AC2C5"/>
		</linearGradient>
		<circle class="st13" cx="1862.1" cy="1274.1" r="46.2"/>
		<text transform="matrix(1 0 0 1 1836.8506 1269.9399)" style="fill:#FFFFFF; font-family:'Cairo-Bold'; font-size:43.0512px;">19</text>
		<text transform="matrix(1 0 0 1 1836.8506 1302.3716)" style="fill:#FFFFFF; font-family:'Cairo-Bold'; font-size:43.0512px;">88</text>
		<text transform="matrix(1 0 0 1 1926.7168 1242.8032)" style="fill:#FFFFFF; font-family:'Cairo-SemiBold'; font-size:21.733px;">Mise en place d’un </text>
		<text transform="matrix(1 0 0 1 1926.7168 1269.4658)" style="fill:#FFFFFF; font-family:'Cairo-SemiBold'; font-size:21.733px;">système informatique au </text>
		<text transform="matrix(1 0 0 1 1926.7168 1296.1182)" style="fill:#FFFFFF; font-family:'Cairo-SemiBold'; font-size:21.733px;">niveau des agences avec </text>
		<text transform="matrix(1 0 0 1 1926.7168 1322.7808)" style="fill:#FFFFFF; font-family:'Cairo-SemiBold'; font-size:21.733px;">le démarrage de l’activité </text>
		<text transform="matrix(1 0 0 1 1926.7168 1349.4434)" style="fill:#FFFFFF; font-family:'Cairo-SemiBold'; font-size:21.733px;">bancaire</text>
		<circle class="st6" cx="2181.3" cy="1079" r="5.9"/>
		
			<ellipse transform="matrix(0.2898 -0.9571 0.9571 0.2898 652.004 2753.3965)" class="st4" cx="2181.3" cy="937.4" rx="56.1" ry="56.1"/>
		<line class="st5" x1="2181.3" y1="993.5" x2="2181.3" y2="1073.9"/>
		
			<linearGradient id="SVGID_10_" gradientUnits="userSpaceOnUse" x1="2112.7119" y1="-254.6446" x2="2229.812" y2="-197.0346" gradientTransform="matrix(0.9879 0 0 -0.9879 38.0549 713.431)">
			<stop  offset="0" style="stop-color:#E6809A"/>
			<stop  offset="1" style="stop-color:#6AC2C5"/>
		</linearGradient>
		<circle class="st14" cx="2181.3" cy="937.4" r="46.2"/>
		<text transform="matrix(1 0 0 1 2157.1465 933.2261)" style="fill:#FFFFFF; font-family:'Cairo-Bold'; font-size:43.0512px;">19</text>
		<text transform="matrix(1 0 0 1 2157.1465 965.6577)" style="fill:#FFFFFF; font-family:'Cairo-Bold'; font-size:43.0512px;">93</text>
		<text transform="matrix(1 0 0 1 2253.5918 898.0581)" style="fill:#FFFFFF; font-family:'Cairo-SemiBold'; font-size:21.733px;">Décloisonnement des marchés sur le </text>
		<text transform="matrix(1 0 0 1 2253.5918 924.7207)" style="fill:#FFFFFF; font-family:'Cairo-SemiBold'; font-size:21.733px;">plan bancaire, désencadrement du </text>
		<text transform="matrix(1 0 0 1 2253.5918 951.373)" style="fill:#FFFFFF; font-family:'Cairo-SemiBold'; font-size:21.733px;">crédit et libéralisation des taux : le CIH </text>
		<text transform="matrix(1 0 0 1 2253.5918 978.0356)" style="fill:#FFFFFF; font-family:'Cairo-SemiBold'; font-size:21.733px;">est mis ainsi au même niveau que les </text>
		<text transform="matrix(1 0 0 1 2253.5918 1004.6982)" style="fill:#FFFFFF; font-family:'Cairo-SemiBold'; font-size:21.733px;">autres banques commerciales et perd </text>
		<text transform="matrix(1 0 0 1 2253.5918 1031.3506)" style="fill:#FFFFFF; font-family:'Cairo-SemiBold'; font-size:21.733px;">sa situation de monopole concernant le </text>
		<text transform="matrix(1 0 0 1 2253.5918 1058.0132)" style="fill:#FFFFFF; font-family:'Cairo-SemiBold'; font-size:21.733px;">logement et l’hôtellerie.</text>
		<circle class="st6" cx="2499.7" cy="1132.5" r="5.9"/>
		<circle class="st4" cx="2499.7" cy="1274.1" r="56.1"/>
		<line class="st5" x1="2499.7" y1="1217.9" x2="2499.7" y2="1137.6"/>
		
			<linearGradient id="SVGID_11_" gradientUnits="userSpaceOnUse" x1="2429.9019" y1="-608.6547" x2="2547.002" y2="-551.0447" gradientTransform="matrix(0.9879 0 0 -0.9879 43.1523 700.4307)">
			<stop  offset="0" style="stop-color:#E6809A"/>
			<stop  offset="1" style="stop-color:#6AC2C5"/>
		</linearGradient>
		<circle class="st15" cx="2499.7" cy="1274.1" r="46.2"/>
		<text transform="matrix(1 0 0 1 2474.3994 1269.9399)" style="fill:#FFFFFF; font-family:'Cairo-Bold'; font-size:43.0512px;">20</text>
		<text transform="matrix(1 0 0 1 2474.3994 1302.3716)" style="fill:#FFFFFF; font-family:'Cairo-Bold'; font-size:43.0512px;">00</text>
		<text transform="matrix(1 0 0 1 2564.2656 1197.4897)" style="fill:#FFFFFF; font-family:'Cairo-SemiBold'; font-size:21.733px;">Lancement du plan de redressement du CIH. La </text>
		<text transform="matrix(1 0 0 1 2564.2656 1224.1523)" style="fill:#FFFFFF; font-family:'Cairo-SemiBold'; font-size:21.733px;">banque est recapitalisée à hauteur de 2 milliards </text>
		<text transform="matrix(1 0 0 1 2564.2656 1250.8052)" style="fill:#FFFFFF; font-family:'Cairo-SemiBold'; font-size:21.733px;">de dirhams et bénéficie d’un prêt d’un milliard de </text>
		<text transform="matrix(1 0 0 1 2564.2656 1277.4673)" style="fill:#FFFFFF; font-family:'Cairo-SemiBold'; font-size:21.733px;">dirhams du Trésor public. Une partie des pertes </text>
		<text transform="matrix(1 0 0 1 2564.2656 1304.1299)" style="fill:#FFFFFF; font-family:'Cairo-SemiBold'; font-size:21.733px;">de change est prise en charge et les promoteurs </text>
		<text transform="matrix(1 0 0 1 2564.2656 1330.7822)" style="fill:#FFFFFF; font-family:'Cairo-SemiBold'; font-size:21.733px;">publics sont refinancés afin qu’ils puissent </text>
		<text transform="matrix(1 0 0 1 2564.2656 1357.4453)" style="fill:#FFFFFF; font-family:'Cairo-SemiBold'; font-size:21.733px;">eux-mêmes rembourser leurs dettes auprès du </text>
		<text transform="matrix(1 0 0 1 2564.2656 1384.1074)" style="fill:#FFFFFF; font-family:'Cairo-SemiBold'; font-size:21.733px;">CIH. Avec l’appui du ministère des Finances, la </text>
		<text transform="matrix(1 0 0 1 2564.2656 1410.7695)" style="fill:#FFFFFF; font-family:'Cairo-SemiBold'; font-size:21.733px;">CDG, va participer activement au redressement </text>
		<text transform="matrix(1 0 0 1 2564.2656 1437.4229)" style="fill:#FFFFFF; font-family:'Cairo-SemiBold'; font-size:21.733px;">de la Banque en prenant part à l’augmentation </text>
		<text transform="matrix(1 0 0 1 2564.2656 1464.085)" style="fill:#FFFFFF; font-family:'Cairo-SemiBold'; font-size:21.733px;">de capital et en se substituant aux actionnaires </text>
		<text transform="matrix(1 0 0 1 2564.2656 1490.748)" style="fill:#FFFFFF; font-family:'Cairo-SemiBold'; font-size:21.733px;">qui se sont retirés.</text>
		<circle class="st6" cx="4730.8" cy="1079" r="5.9"/>
		<circle class="st4" cx="4730.8" cy="937.4" r="56.1"/>
		<line class="st5" x1="4730.8" y1="993.5" x2="4730.8" y2="1073.9"/>
		
			<linearGradient id="SVGID_12_" gradientUnits="userSpaceOnUse" x1="4693.5508" y1="-254.6426" x2="4810.6611" y2="-197.0326" gradientTransform="matrix(0.9879 0 0 -0.9879 38.0549 713.431)">
			<stop  offset="0" style="stop-color:#E6809A"/>
			<stop  offset="1" style="stop-color:#6AC2C5"/>
		</linearGradient>
		<circle class="st16" cx="4730.8" cy="937.4" r="46.2"/>
		<text transform="matrix(1 0 0 1 4706.6689 933.2261)" style="fill:#FFFFFF; font-family:'Cairo-Bold'; font-size:43.0512px;">20</text>
		<text transform="matrix(1 0 0 1 4706.6689 965.6577)" style="fill:#FFFFFF; font-family:'Cairo-Bold'; font-size:43.0512px;">10</text>
		<text transform="matrix(1 0 0 1 4803.1143 810.9878)" style="fill:#FFFFFF; font-family:'Cairo-SemiBold'; font-size:21.733px;">Transformation du CIH en une banque </text>
		<text transform="matrix(1 0 0 1 4803.1143 837.6504)" style="fill:#FFFFFF; font-family:'Cairo-SemiBold'; font-size:21.733px;">universelle. Naissance de la banque de </text>
		<text transform="matrix(1 0 0 1 4803.1143 864.3027)" style="fill:#FFFFFF; font-family:'Cairo-SemiBold'; font-size:21.733px;">l’entreprise, la banque des particuliers et des </text>
		<text transform="matrix(1 0 0 1 4803.1143 890.9653)" style="fill:#FFFFFF; font-family:'Cairo-SemiBold'; font-size:21.733px;">professionnels, et la banque de l’immobilier. </text>
		<text transform="matrix(1 0 0 1 4803.1143 917.6279)" style="fill:#FFFFFF; font-family:'Cairo-SemiBold'; font-size:21.733px;">Les activités de la banque sont ainsi </text>
		<text transform="matrix(1 0 0 1 4803.1143 944.2803)" style="fill:#FFFFFF; font-family:'Cairo-SemiBold'; font-size:21.733px;">réorganisées pour permettre une gestion </text>
		<text transform="matrix(1 0 0 1 4803.1143 970.9429)" style="fill:#FFFFFF; font-family:'Cairo-SemiBold'; font-size:21.733px;">efficace et adaptée de chaque activité.</text>
		<text transform="matrix(1 0 0 1 4803.1143 997.6055)" style="fill:#FFFFFF; font-family:'Cairo-SemiBold'; font-size:21.733px;">CIH élargit en parallèle son activité en </text>
		<text transform="matrix(1 0 0 1 4803.1143 1024.2676)" style="fill:#FFFFFF; font-family:'Cairo-SemiBold'; font-size:21.733px;">s’adressant aux professions libérales, aux </text>
		<text transform="matrix(1 0 0 1 4803.1143 1050.9204)" style="fill:#FFFFFF; font-family:'Cairo-SemiBold'; font-size:21.733px;">entreprises individuelles, aux commerçants, </text>
		<text transform="matrix(1 0 0 1 4803.1143 1077.583)" style="fill:#FFFFFF; font-family:'Cairo-SemiBold'; font-size:21.733px;">aux artisans…</text>
		<circle class="st6" cx="5685.9" cy="1132.5" r="5.9"/>
		<circle class="st4" cx="5685.9" cy="1274.1" r="56.1"/>
		<line class="st5" x1="5685.9" y1="1217.9" x2="5685.9" y2="1137.6"/>
		
			<linearGradient id="SVGID_13_" gradientUnits="userSpaceOnUse" x1="5655.3018" y1="-608.6547" x2="5772.4019" y2="-551.0447" gradientTransform="matrix(0.9879 0 0 -0.9879 43.1523 700.4307)">
			<stop  offset="0" style="stop-color:#E6809A"/>
			<stop  offset="1" style="stop-color:#6AC2C5"/>
		</linearGradient>
		<circle class="st17" cx="5685.9" cy="1274.1" r="46.2"/>
		<text transform="matrix(1 0 0 1 5661.8447 1269.9399)" style="fill:#FFFFFF; font-family:'Cairo-Bold'; font-size:43.0512px;">20</text>
		<text transform="matrix(1 0 0 1 5661.8447 1302.3716)" style="fill:#FFFFFF; font-family:'Cairo-Bold'; font-size:43.0512px;">14</text>
		<text transform="matrix(1 0 0 1 5750.5361 1236.876)" style="fill:#FFFFFF; font-family:'Cairo-SemiBold'; font-size:21.733px;">CIH devient « CIH Bank ». Lancement du nouveau </text>
		<text transform="matrix(1 0 0 1 5750.5361 1263.5386)" style="fill:#FFFFFF; font-family:'Cairo-SemiBold'; font-size:21.733px;">logo et de la nouvelle identité visuelle, incarnant le </text>
		<text transform="matrix(1 0 0 1 5750.5361 1290.1914)" style="fill:#FFFFFF; font-family:'Cairo-SemiBold'; font-size:21.733px;">nouveau positionnement de la banque vers la </text>
		<text transform="matrix(1 0 0 1 5750.5361 1316.8535)" style="fill:#FFFFFF; font-family:'Cairo-SemiBold'; font-size:21.733px;">transformation digitale et les nouvelles </text>
		<text transform="matrix(1 0 0 1 5750.5361 1343.5166)" style="fill:#FFFFFF; font-family:'Cairo-SemiBold'; font-size:21.733px;">technologies. CIH BANK est la première banque </text>
		<text transform="matrix(1 0 0 1 5750.5361 1370.1689)" style="fill:#FFFFFF; font-family:'Cairo-SemiBold'; font-size:21.733px;">marocaine à décrocher simultanément une double </text>
		<text transform="matrix(1 0 0 1 5750.5361 1396.8311)" style="fill:#FFFFFF; font-family:'Cairo-SemiBold'; font-size:21.733px;">certification ISO 9001 version 2008, à la fois pour </text>
		<text transform="matrix(1 0 0 1 5750.5361 1423.4941)" style="fill:#FFFFFF; font-family:'Cairo-SemiBold'; font-size:21.733px;">les activités monétique et crédits amortissables</text>
		<text transform="matrix(1 0 0 1 5750.5361 1450.1562)" style="fill:#FFFFFF; font-family:'Cairo-SemiBold'; font-size:21.733px;">au logement.</text>
		<circle class="st6" cx="5367.4" cy="1079" r="5.9"/>
		<circle class="st4" cx="5367.4" cy="937.4" r="56.1"/>
		<line class="st5" x1="5367.4" y1="993.5" x2="5367.4" y2="1073.9"/>
		
			<linearGradient id="SVGID_14_" gradientUnits="userSpaceOnUse" x1="5338.0317" y1="-254.6446" x2="5455.1318" y2="-197.0346" gradientTransform="matrix(0.9879 0 0 -0.9879 38.0549 713.431)">
			<stop  offset="0" style="stop-color:#E6809A"/>
			<stop  offset="1" style="stop-color:#6AC2C5"/>
		</linearGradient>
		<circle class="st18" cx="5367.4" cy="937.4" r="46.2"/>
		<text transform="matrix(1 0 0 1 5343.3174 933.2261)" style="fill:#FFFFFF; font-family:'Cairo-Bold'; font-size:43.0512px;">20</text>
		<text transform="matrix(1 0 0 1 5343.3174 965.6577)" style="fill:#FFFFFF; font-family:'Cairo-Bold'; font-size:43.0512px;">13</text>
		<text transform="matrix(1 0 0 1 5439.7627 905.0029)" style="fill:#FFFFFF; font-family:'Cairo-SemiBold'; font-size:21.733px;">Lancement de la première carte </text>
		<text transform="matrix(1 0 0 1 5439.7627 931.665)" style="fill:#FFFFFF; font-family:'Cairo-SemiBold'; font-size:21.733px;">multiservices sur le marché </text>
		<text transform="matrix(1 0 0 1 5439.7627 958.3179)" style="fill:#FFFFFF; font-family:'Cairo-SemiBold'; font-size:21.733px;">marocain. Lancement de </text>
		<text transform="matrix(1 0 0 1 5439.7627 984.9805)" style="fill:#FFFFFF; font-family:'Cairo-SemiBold'; font-size:21.733px;">l’application mobile et du site de </text>
		<text transform="matrix(1 0 0 1 5439.7627 1011.6426)" style="fill:#FFFFFF; font-family:'Cairo-SemiBold'; font-size:21.733px;">banque à distance, CIH Online.</text>
		<circle class="st6" cx="6959.8" cy="1132.5" r="5.9"/>
		<circle class="st4" cx="6959.8" cy="1274.1" r="56.1"/>
		<line class="st5" x1="6959.8" y1="1217.9" x2="6959.8" y2="1137.6"/>
		
			<linearGradient id="SVGID_15_" gradientUnits="userSpaceOnUse" x1="6944.752" y1="-608.6547" x2="7061.8521" y2="-551.0447" gradientTransform="matrix(0.9879 0 0 -0.9879 43.1523 700.4307)">
			<stop  offset="0" style="stop-color:#E6809A"/>
			<stop  offset="1" style="stop-color:#6AC2C5"/>
		</linearGradient>
		<circle class="st19" cx="6959.8" cy="1274.1" r="46.2"/>
		<text transform="matrix(1 0 0 1 6935.6475 1269.9399)" style="fill:#FFFFFF; font-family:'Cairo-Bold'; font-size:43.0512px;">20</text>
		<text transform="matrix(1 0 0 1 6935.6475 1302.3716)" style="fill:#FFFFFF; font-family:'Cairo-Bold'; font-size:43.0512px;">19</text>
		<text transform="matrix(1 0 0 1 7024.3389 1236.8267)" style="fill:#FFFFFF; font-family:'Cairo-SemiBold'; font-size:21.733px;">Lancement de l’offre réservée aux </text>
		<text transform="matrix(1 0 0 1 7024.3389 1263.4893)" style="fill:#FFFFFF; font-family:'Cairo-SemiBold'; font-size:21.733px;">fonctionnaires. CIH BANK décroche une </text>
		<text transform="matrix(1 0 0 1 7024.3389 1290.1416)" style="fill:#FFFFFF; font-family:'Cairo-SemiBold'; font-size:21.733px;">quadruple certification ISO 9001 version </text>
		<text transform="matrix(1 0 0 1 7024.3389 1316.8042)" style="fill:#FFFFFF; font-family:'Cairo-SemiBold'; font-size:21.733px;">2015 couvrant les activités, monétique, </text>
		<text transform="matrix(1 0 0 1 7024.3389 1343.4668)" style="fill:#FFFFFF; font-family:'Cairo-SemiBold'; font-size:21.733px;">crédits immobiliers, bancassurance</text>
		<text transform="matrix(1 0 0 1 7024.3389 1370.1191)" style="fill:#FFFFFF; font-family:'Cairo-SemiBold'; font-size:21.733px;">et financement des entreprises</text>
		<circle class="st6" cx="6641" cy="1079" r="5.9"/>
		<circle class="st4" cx="6641" cy="937.4" r="56.1"/>
		<line class="st5" x1="6641" y1="993.5" x2="6641" y2="1073.9"/>
		
			<linearGradient id="SVGID_16_" gradientUnits="userSpaceOnUse" x1="6627.2222" y1="-254.6445" x2="6744.3218" y2="-197.0345" gradientTransform="matrix(0.9879 0 0 -0.9879 38.0549 713.431)">
			<stop  offset="0" style="stop-color:#E6809A"/>
			<stop  offset="1" style="stop-color:#6AC2C5"/>
		</linearGradient>
		<circle class="st20" cx="6641" cy="937.4" r="46.2"/>
		<text transform="matrix(1 0 0 1 6616.8643 933.2261)" style="fill:#FFFFFF; font-family:'Cairo-Bold'; font-size:43.0512px;">20</text>
		<text transform="matrix(1 0 0 1 6616.8643 965.6577)" style="fill:#FFFFFF; font-family:'Cairo-Bold'; font-size:43.0512px;">18</text>
		<text transform="matrix(1 0 0 1 6713.3193 927.9512)" style="fill:#FFFFFF; font-family:'Cairo-SemiBold'; font-size:21.733px;">Lancement du pack Sayidati, </text>
		<text transform="matrix(1 0 0 1 6713.3193 954.6133)" style="fill:#FFFFFF; font-family:'Cairo-SemiBold'; font-size:21.733px;">dédié aux femmes.</text>
		<circle class="st6" cx="7278.3" cy="1079" r="5.9"/>
		<circle class="st4" cx="7278.3" cy="937.4" r="56.1"/>
		<line class="st5" x1="7278.3" y1="993.5" x2="7278.3" y2="1073.9"/>
		
			<linearGradient id="SVGID_17_" gradientUnits="userSpaceOnUse" x1="7272.3618" y1="-254.6446" x2="7389.4619" y2="-197.0346" gradientTransform="matrix(0.9879 0 0 -0.9879 38.0549 713.431)">
			<stop  offset="0" style="stop-color:#E6809A"/>
			<stop  offset="1" style="stop-color:#6AC2C5"/>
		</linearGradient>
		<circle class="st21" cx="7278.3" cy="937.4" r="46.2"/>
		<text transform="matrix(1 0 0 1 7254.1748 933.2261)" style="fill:#FFFFFF; font-family:'Cairo-Bold'; font-size:43.0512px;">20</text>
		<text transform="matrix(1 0 0 1 7254.1748 965.6577)" style="fill:#FFFFFF; font-family:'Cairo-Bold'; font-size:43.0512px;">20</text>
		<text transform="matrix(1 0 0 1 7350.6299 904.9238)" style="fill:#FFFFFF; font-family:'Cairo-SemiBold'; font-size:21.733px;">Lancement de la banque gratuite pour </text>
		<text transform="matrix(1 0 0 1 7350.6299 931.5864)" style="fill:#FFFFFF; font-family:'Cairo-SemiBold'; font-size:21.733px;">tous les particuliers ouvrant leur compte </text>
		<text transform="matrix(1 0 0 1 7350.6299 958.2388)" style="fill:#FFFFFF; font-family:'Cairo-SemiBold'; font-size:21.733px;">en ligne. Maintient de la quadruple </text>
		<text transform="matrix(1 0 0 1 7350.6299 984.9014)" style="fill:#FFFFFF; font-family:'Cairo-SemiBold'; font-size:21.733px;">certification ISO 9001 version 2015 </text>
		<text transform="matrix(1 0 0 1 7350.6299 1011.564)" style="fill:#FFFFFF; font-family:'Cairo-SemiBold'; font-size:21.733px;">couvrant les activités, monétique, crédits </text>
		<text transform="matrix(1 0 0 1 7350.6299 1038.2163)" style="fill:#FFFFFF; font-family:'Cairo-SemiBold'; font-size:21.733px;">immobiliers, bancassurance et </text>
		<text transform="matrix(1 0 0 1 7350.6299 1064.8789)" style="fill:#FFFFFF; font-family:'Cairo-SemiBold'; font-size:21.733px;">financement des entreprises.</text>
		<circle class="st6" cx="6323" cy="1132.5" r="5.9"/>
		<circle class="st4" cx="6323" cy="1274.1" r="56.1"/>
		<line class="st5" x1="6323" y1="1217.9" x2="6323" y2="1137.6"/>
		
			<linearGradient id="SVGID_18_" gradientUnits="userSpaceOnUse" x1="6300.1602" y1="-608.6507" x2="6417.2598" y2="-551.0407" gradientTransform="matrix(0.9879 0 0 -0.9879 43.1523 700.4307)">
			<stop  offset="0" style="stop-color:#E6809A"/>
			<stop  offset="1" style="stop-color:#6AC2C5"/>
		</linearGradient>
		<circle class="st22" cx="6323" cy="1274.1" r="46.2"/>
		<text transform="matrix(1 0 0 1 6298.8701 1269.9399)" style="fill:#FFFFFF; font-family:'Cairo-Bold'; font-size:43.0512px;">20</text>
		<text transform="matrix(1 0 0 1 6298.8701 1302.3716)" style="fill:#FFFFFF; font-family:'Cairo-Bold'; font-size:43.0512px;">17</text>
		<text transform="matrix(1 0 0 1 6387.5605 1259.4487)" style="fill:#FFFFFF; font-family:'Cairo-SemiBold'; font-size:21.733px;">Lancement de l’offre </text>
		<text transform="matrix(1 0 0 1 6387.5605 1286.1113)" style="fill:#FFFFFF; font-family:'Cairo-SemiBold'; font-size:21.733px;">[CODE 18] dédiée aux </text>
		<text transform="matrix(1 0 0 1 6387.5605 1312.7637)" style="fill:#FFFFFF; font-family:'Cairo-SemiBold'; font-size:21.733px;">jeunes de moins de 18 ans.</text>
		<circle class="st6" cx="6004.4" cy="1079" r="5.9"/>
		<circle class="st4" cx="6004.4" cy="937.4" r="56.1"/>
		<line class="st5" x1="6004.4" y1="993.5" x2="6004.4" y2="1073.9"/>
		
			<linearGradient id="SVGID_19_" gradientUnits="userSpaceOnUse" x1="5982.832" y1="-254.6446" x2="6099.9321" y2="-197.0346" gradientTransform="matrix(0.9879 0 0 -0.9879 38.0549 713.431)">
			<stop  offset="0" style="stop-color:#E6809A"/>
			<stop  offset="1" style="stop-color:#6AC2C5"/>
		</linearGradient>
		<circle class="st23" cx="6004.4" cy="937.4" r="46.2"/>
		<text transform="matrix(1 0 0 1 5980.2939 933.2261)" style="fill:#FFFFFF; font-family:'Cairo-Bold'; font-size:43.0512px;">20</text>
		<text transform="matrix(1 0 0 1 5980.2939 965.6577)" style="fill:#FFFFFF; font-family:'Cairo-Bold'; font-size:43.0512px;">16</text>
		<text transform="matrix(1 0 0 1 6076.749 905.0029)" style="fill:#FFFFFF; font-family:'Cairo-SemiBold'; font-size:21.733px;">Lancement de l’offre  [CODE 30] </text>
		<text transform="matrix(1 0 0 1 6076.749 931.665)" style="fill:#FFFFFF; font-family:'Cairo-SemiBold'; font-size:21.733px;">dédiée aux jeunes de moins de 30 ans </text>
		<text transform="matrix(1 0 0 1 6076.749 958.3179)" style="fill:#FFFFFF; font-family:'Cairo-SemiBold'; font-size:21.733px;">et regroupant un ensemble de </text>
		<text transform="matrix(1 0 0 1 6076.749 984.9805)" style="fill:#FFFFFF; font-family:'Cairo-SemiBold'; font-size:21.733px;">services bancaires gratuits.</text>
		<text transform="matrix(1 0 0 1 4476.7725 1236.6685)" style="fill:#FFFFFF; font-family:'Cairo-SemiBold'; font-size:21.733px;">Le CIH devient une société anonyme </text>
		<text transform="matrix(1 0 0 1 4476.7725 1263.3311)" style="fill:#FFFFFF; font-family:'Cairo-SemiBold'; font-size:21.733px;">à conseil d’administration. Nommé</text>
		<text transform="matrix(1 0 0 1 4476.7725 1289.9839)" style="fill:#FFFFFF; font-family:'Cairo-SemiBold'; font-size:21.733px;">à la présidence, Ahmed Rahhou lance </text>
		<text transform="matrix(1 0 0 1 4476.7725 1316.6465)" style="fill:#FFFFFF; font-family:'Cairo-SemiBold'; font-size:21.733px;">le plan stratégique 2010-2014.</text>
		<circle class="st6" cx="4412.2" cy="1132.5" r="5.9"/>
		<circle class="st4" cx="4412.2" cy="1274.1" r="56.1"/>
		<line class="st5" x1="4412.2" y1="1217.9" x2="4412.2" y2="1137.6"/>
		
			<linearGradient id="SVGID_20_" gradientUnits="userSpaceOnUse" x1="4365.8921" y1="-608.6544" x2="4482.9922" y2="-551.0444" gradientTransform="matrix(0.9879 0 0 -0.9879 43.1523 700.4307)">
			<stop  offset="0" style="stop-color:#E6809A"/>
			<stop  offset="1" style="stop-color:#6AC2C5"/>
		</linearGradient>
		<circle class="st24" cx="4412.2" cy="1274.1" r="46.2"/>
		<text transform="matrix(1 0 0 1 4388.082 1269.9399)" style="fill:#FFFFFF; font-family:'Cairo-Bold'; font-size:43.0512px;">20</text>
		<text transform="matrix(1 0 0 1 4388.082 1302.3716)" style="fill:#FFFFFF; font-family:'Cairo-Bold'; font-size:43.0512px;">09</text>
		<circle class="st6" cx="4093.7" cy="1079" r="5.9"/>
		<circle class="st4" cx="4093.7" cy="937.4" r="56.1"/>
		<line class="st5" x1="4093.7" y1="993.5" x2="4093.7" y2="1073.9"/>
		
			<linearGradient id="SVGID_21_" gradientUnits="userSpaceOnUse" x1="4048.6619" y1="-254.6446" x2="4165.7622" y2="-197.0346" gradientTransform="matrix(0.9879 0 0 -0.9879 38.0549 713.431)">
			<stop  offset="0" style="stop-color:#E6809A"/>
			<stop  offset="1" style="stop-color:#6AC2C5"/>
		</linearGradient>
		<circle class="st25" cx="4093.7" cy="937.4" r="46.2"/>
		<text transform="matrix(1 0 0 1 4069.6045 933.2261)" style="fill:#FFFFFF; font-family:'Cairo-Bold'; font-size:43.0512px;">20</text>
		<text transform="matrix(1 0 0 1 4069.6045 965.6577)" style="fill:#FFFFFF; font-family:'Cairo-Bold'; font-size:43.0512px;">07</text>
		<text transform="matrix(1 0 0 1 4166.0498 914.6245)" style="fill:#FFFFFF; font-family:'Cairo-SemiBold'; font-size:21.733px;">Le CIH se transforme en </text>
		<text transform="matrix(1 0 0 1 4166.0498 941.2871)" style="fill:#FFFFFF; font-family:'Cairo-SemiBold'; font-size:21.733px;">société anonyme à directoire </text>
		<text transform="matrix(1 0 0 1 4166.0498 967.9395)" style="fill:#FFFFFF; font-family:'Cairo-SemiBold'; font-size:21.733px;">et conseil de surveillance.</text>
		<text transform="matrix(1 0 0 1 3839.1748 1263.894)" style="fill:#FFFFFF; font-family:'Cairo-SemiBold'; font-size:21.733px;">Fin du plan</text>
		<text transform="matrix(1 0 0 1 3839.1748 1290.5566)" style="fill:#FFFFFF; font-family:'Cairo-SemiBold'; font-size:21.733px;">de redressement</text>
		<circle class="st6" cx="3774.6" cy="1132.5" r="5.9"/>
		<circle class="st4" cx="3774.6" cy="1274.1" r="56.1"/>
		<line class="st5" x1="3774.6" y1="1217.9" x2="3774.6" y2="1137.6"/>
		
			<linearGradient id="SVGID_22_" gradientUnits="userSpaceOnUse" x1="3720.4619" y1="-608.6545" x2="3837.562" y2="-551.0446" gradientTransform="matrix(0.9879 0 0 -0.9879 43.1523 700.4307)">
			<stop  offset="0" style="stop-color:#E6809A"/>
			<stop  offset="1" style="stop-color:#6AC2C5"/>
		</linearGradient>
		<circle class="st26" cx="3774.6" cy="1274.1" r="46.2"/>
		<text transform="matrix(1 0 0 1 3750.4844 1269.9399)" style="fill:#FFFFFF; font-family:'Cairo-Bold'; font-size:43.0512px;">20</text>
		<text transform="matrix(1 0 0 1 3750.4844 1302.3716)" style="fill:#FFFFFF; font-family:'Cairo-Bold'; font-size:43.0512px;">06</text>
		<circle class="st6" cx="3455.6" cy="1079" r="5.9"/>
		<circle class="st4" cx="3455.6" cy="937.4" r="56.1"/>
		<line class="st5" x1="3455.6" y1="993.5" x2="3455.6" y2="1073.9"/>
		
			<linearGradient id="SVGID_23_" gradientUnits="userSpaceOnUse" x1="3402.7119" y1="-254.6446" x2="3519.812" y2="-197.0346" gradientTransform="matrix(0.9879 0 0 -0.9879 38.0549 713.431)">
			<stop  offset="0" style="stop-color:#E6809A"/>
			<stop  offset="1" style="stop-color:#6AC2C5"/>
		</linearGradient>
		<circle class="st27" cx="3455.6" cy="937.4" r="46.2"/>
		<text transform="matrix(1 0 0 1 3431.4834 933.2261)" style="fill:#FFFFFF; font-family:'Cairo-Bold'; font-size:43.0512px;">20</text>
		<text transform="matrix(1 0 0 1 3431.4834 965.6577)" style="fill:#FFFFFF; font-family:'Cairo-Bold'; font-size:43.0512px;">05</text>
		<text transform="matrix(1 0 0 1 3527.9277 929.9858)" style="fill:#FFFFFF; font-family:'Cairo-SemiBold'; font-size:21.733px;">La CDG détient 65 %</text>
		<text transform="matrix(1 0 0 1 3527.9277 956.6484)" style="fill:#FFFFFF; font-family:'Cairo-SemiBold'; font-size:21.733px;">du capital du CIH.</text>
		<circle class="st6" cx="3136.9" cy="1132.5" r="5.9"/>
		<circle class="st4" cx="3136.9" cy="1274.1" r="56.1"/>
		<line class="st5" x1="3136.9" y1="1217.9" x2="3136.9" y2="1137.6"/>
		
			<linearGradient id="SVGID_24_" gradientUnits="userSpaceOnUse" x1="3074.9219" y1="-608.6545" x2="3192.022" y2="-551.0446" gradientTransform="matrix(0.9879 0 0 -0.9879 43.1523 700.4307)">
			<stop  offset="0" style="stop-color:#E6809A"/>
			<stop  offset="1" style="stop-color:#6AC2C5"/>
		</linearGradient>
		<circle class="st28" cx="3136.9" cy="1274.1" r="46.2"/>
		<text transform="matrix(1 0 0 1 3112.7773 1269.9399)" style="fill:#FFFFFF; font-family:'Cairo-Bold'; font-size:43.0512px;">20</text>
		<text transform="matrix(1 0 0 1 3112.7773 1302.3716)" style="fill:#FFFFFF; font-family:'Cairo-Bold'; font-size:43.0512px;">04</text>
		<text transform="matrix(1 0 0 1 3201.4678 1251.3384)" style="fill:#FFFFFF; font-family:'Cairo-SemiBold'; font-size:21.733px;">CIH enregistre son </text>
		<text transform="matrix(1 0 0 1 3201.4678 1278.001)" style="fill:#FFFFFF; font-family:'Cairo-SemiBold'; font-size:21.733px;">premier exercice positif en </text>
		<text transform="matrix(1 0 0 1 3201.4678 1304.6533)" style="fill:#FFFFFF; font-family:'Cairo-SemiBold'; font-size:21.733px;">sept ans.</text>
		<circle class="st6" cx="2818.4" cy="1079" r="5.9"/>
		<circle class="st4" cx="2818.4" cy="937.4" r="56.1"/>
		<line class="st5" x1="2818.4" y1="993.5" x2="2818.4" y2="1073.9"/>
		
			<linearGradient id="SVGID_25_" gradientUnits="userSpaceOnUse" x1="2757.7119" y1="-254.6446" x2="2874.812" y2="-197.0346" gradientTransform="matrix(0.9879 0 0 -0.9879 38.0549 713.431)">
			<stop  offset="0" style="stop-color:#E6809A"/>
			<stop  offset="1" style="stop-color:#6AC2C5"/>
		</linearGradient>
		<circle class="st29" cx="2818.4" cy="937.4" r="46.2"/>
		<text transform="matrix(1 0 0 1 2794.3193 933.2261)" style="fill:#FFFFFF; font-family:'Cairo-Bold'; font-size:43.0512px;">20</text>
		<text transform="matrix(1 0 0 1 2794.3193 965.6577)" style="fill:#FFFFFF; font-family:'Cairo-Bold'; font-size:43.0512px;">02</text>
		<text transform="matrix(1 0 0 1 2890.7646 920.1567)" style="fill:#FFFFFF; font-family:'Cairo-SemiBold'; font-size:21.733px;">Lancement de la première </text>
		<text transform="matrix(1 0 0 1 2890.7646 946.8193)" style="fill:#FFFFFF; font-family:'Cairo-SemiBold'; font-size:21.733px;">opération de titrisation</text>
		<text transform="matrix(1 0 0 1 2890.7646 973.4717)" style="fill:#FFFFFF; font-family:'Cairo-SemiBold'; font-size:21.733px;">au Maroc.</text>
	</g>
</g>
</svg>
