<svg xmlns="http://www.w3.org/2000/svg" xmlns:xlink="http://www.w3.org/1999/xlink" viewBox="0 0 8292.63 717.34"><defs><style>.cls-1,.cls-4,.cls-6,.cls-7{fill:none;}.cls-2{fill:#00afef;}.cls-3{fill:#e43d30;}.cls-4{stroke:#fff;stroke-width:0.75px;}.cls-4,.cls-6,.cls-7{stroke-miterlimit:10;}.cls-5{clip-path:url(#clip-path);}.cls-6,.cls-7{stroke:#6ac2c5;}.cls-6{stroke-width:2.33px;}.cls-7{stroke-width:3.1px;}.cls-8{fill:#6ac2c5;}.cls-9{fill:url(#linear-gradient);}.cls-10{font-size:43.58px;font-family:Cairo-Bold, Cairo;font-weight:700;}.cls-10,.cls-11{fill:#fff;}.cls-11{font-size:22px;font-family:Cairo-SemiBold, Cairo;font-weight:600;}.cls-12{fill:url(#linear-gradient-2);}.cls-13{fill:url(#linear-gradient-3);}.cls-14{fill:url(#linear-gradient-4);}.cls-15{fill:url(#linear-gradient-5);}.cls-16{fill:url(#linear-gradient-6);}.cls-17{fill:url(#linear-gradient-7);}.cls-18{fill:url(#linear-gradient-8);}.cls-19{fill:url(#linear-gradient-9);}.cls-20{fill:url(#linear-gradient-10);}.cls-21{fill:url(#linear-gradient-11);}.cls-22{fill:url(#linear-gradient-12);}.cls-23{fill:url(#linear-gradient-13);}.cls-24{fill:url(#linear-gradient-14);}.cls-25{fill:url(#linear-gradient-15);}.cls-26{fill:url(#linear-gradient-16);}.cls-27{fill:url(#linear-gradient-17);}.cls-28{fill:url(#linear-gradient-18);}.cls-29{fill:url(#linear-gradient-19);}.cls-30{fill:url(#linear-gradient-20);}.cls-31{fill:url(#linear-gradient-21);}.cls-32{fill:url(#linear-gradient-22);}.cls-33{fill:url(#linear-gradient-23);}</style><clipPath id="clip-path"><path class="cls-1" d="M7846.1,295.89V338H7100.28c18.79-11.69,42.77-26.52,68-42.09Z"/></clipPath><linearGradient id="linear-gradient" x1="75.25" y1="174.46" x2="192.35" y2="116.85" gradientUnits="userSpaceOnUse"><stop offset="0" stop-color="#e6809a"/><stop offset="1" stop-color="#6ac2c5"/></linearGradient><linearGradient id="linear-gradient-2" x1="392.4" y1="528.47" x2="509.51" y2="470.86" gradientTransform="translate(5.16 -13.16)" xlink:href="#linear-gradient"/><linearGradient id="linear-gradient-3" x1="1037.76" y1="528.47" x2="1154.86" y2="470.86" gradientTransform="translate(5.16 -13.16)" xlink:href="#linear-gradient"/><linearGradient id="linear-gradient-4" x1="719.97" y1="174.46" x2="837.07" y2="116.85" xlink:href="#linear-gradient"/><linearGradient id="linear-gradient-5" x1="4908" y1="528.47" x2="5025.1" y2="470.86" gradientTransform="translate(5.16 -13.16)" xlink:href="#linear-gradient"/><linearGradient id="linear-gradient-6" x1="1364.44" y1="174.46" x2="1481.54" y2="116.85" xlink:href="#linear-gradient"/><linearGradient id="linear-gradient-7" x1="1682.02" y1="528.47" x2="1799.12" y2="470.86" gradientTransform="translate(5.16 -13.16)" xlink:href="#linear-gradient"/><linearGradient id="linear-gradient-8" x1="2010.21" y1="174.46" x2="2127.31" y2="116.85" xlink:href="#linear-gradient"/><linearGradient id="linear-gradient-9" x1="2327.4" y1="528.47" x2="2444.5" y2="470.86" gradientTransform="translate(5.16 -13.16)" xlink:href="#linear-gradient"/><linearGradient id="linear-gradient-10" x1="4591.05" y1="174.46" x2="4708.16" y2="116.85" xlink:href="#linear-gradient"/><linearGradient id="linear-gradient-11" x1="5552.8" y1="528.47" x2="5669.9" y2="470.86" gradientTransform="translate(5.16 -13.16)" xlink:href="#linear-gradient"/><linearGradient id="linear-gradient-12" x1="5235.53" y1="174.46" x2="5352.63" y2="116.85" xlink:href="#linear-gradient"/><linearGradient id="linear-gradient-13" x1="6842.25" y1="528.47" x2="6959.35" y2="470.86" gradientTransform="translate(5.16 -13.16)" xlink:href="#linear-gradient"/><linearGradient id="linear-gradient-14" x1="6524.72" y1="174.46" x2="6641.82" y2="116.85" xlink:href="#linear-gradient"/><linearGradient id="linear-gradient-15" x1="7169.86" y1="174.46" x2="7286.96" y2="116.85" xlink:href="#linear-gradient"/><linearGradient id="linear-gradient-16" x1="6197.66" y1="528.47" x2="6314.76" y2="470.86" gradientTransform="translate(5.16 -13.16)" xlink:href="#linear-gradient"/><linearGradient id="linear-gradient-17" x1="5880.33" y1="174.46" x2="5997.43" y2="116.85" xlink:href="#linear-gradient"/><linearGradient id="linear-gradient-18" x1="4263.39" y1="528.47" x2="4380.49" y2="470.86" gradientTransform="translate(5.16 -13.16)" xlink:href="#linear-gradient"/><linearGradient id="linear-gradient-19" x1="3946.16" y1="174.46" x2="4063.26" y2="116.85" xlink:href="#linear-gradient"/><linearGradient id="linear-gradient-20" x1="3617.96" y1="528.47" x2="3735.06" y2="470.86" gradientTransform="translate(5.16 -13.16)" xlink:href="#linear-gradient"/><linearGradient id="linear-gradient-21" x1="3300.21" y1="174.46" x2="3417.31" y2="116.85" xlink:href="#linear-gradient"/><linearGradient id="linear-gradient-22" x1="2972.42" y1="528.47" x2="3089.52" y2="470.86" gradientTransform="translate(5.16 -13.16)" xlink:href="#linear-gradient"/><linearGradient id="linear-gradient-23" x1="2655.21" y1="174.46" x2="2772.31" y2="116.85" xlink:href="#linear-gradient"/></defs><g id="Layer_2" data-name="Layer 2"><g id="Layer_1-2" data-name="Layer 1"><path class="cls-2" d="M68,295.89C42.77,311.46,18.79,326.29,0,338H7846.1V295.89Z"/><path class="cls-3" d="M1244.78,295.89c-25.24,15.57-49.22,30.4-68,42.09h599.49c18.79-11.69,42.77-26.52,68-42.09Z"/><path class="cls-4" d="M86.1,306.23c-15.86,9.79-22.74,14-34.59,21.41"/><path class="cls-4" d="M97.05,306.23c-15.84,9.77-22.77,14-34.59,21.41"/><path class="cls-4" d="M108,306.23C92.19,316,85.21,320.29,73.4,327.64"/><path class="cls-4" d="M118.94,306.23c-15.78,9.73-22.81,14.08-34.6,21.41"/><path class="cls-4" d="M129.88,306.23c-15.74,9.71-22.83,14.09-34.59,21.41"/><path class="cls-4" d="M140.83,306.23c-15.72,9.69-22.86,14.11-34.6,21.41"/><path class="cls-4" d="M151.77,306.23c-15.68,9.68-22.88,14.12-34.59,21.41"/><path class="cls-4" d="M162.71,306.23c-15.65,9.66-22.9,14.13-34.59,21.41"/><path class="cls-4" d="M173.66,306.23c-15.63,9.64-22.92,14.15-34.6,21.41"/><path class="cls-4" d="M184.6,306.23C169,315.85,161.66,320.39,150,327.64"/><path class="cls-4" d="M195.55,306.23c-15.57,9.6-23,14.18-34.6,21.41"/><path class="cls-4" d="M206.49,306.23c-15.53,9.58-23,14.19-34.59,21.41"/><path class="cls-4" d="M217.44,306.23c-15.51,9.56-23,14.2-34.6,21.41"/><path class="cls-4" d="M228.38,306.23c-15.48,9.55-23,14.22-34.59,21.41"/><path class="cls-4" d="M239.32,306.23c-15.44,9.53-23.06,14.23-34.59,21.41"/><path class="cls-4" d="M250.27,306.23c-15.42,9.51-23.08,14.25-34.6,21.41"/><path class="cls-4" d="M261.21,306.23c-15.38,9.49-23.1,14.26-34.59,21.41"/><path class="cls-4" d="M272.16,306.23c-15.36,9.47-23.13,14.28-34.6,21.41"/><path class="cls-4" d="M283.1,306.23c-15.32,9.45-23.15,14.29-34.59,21.41"/><path class="cls-4" d="M294.05,306.23c-15.3,9.44-23.18,14.3-34.6,21.41"/><path class="cls-4" d="M305,306.23c-15.27,9.42-23.2,14.32-34.59,21.41"/><path class="cls-4" d="M315.93,306.23c-15.23,9.4-23.21,14.33-34.59,21.41"/><path class="cls-4" d="M326.88,306.23c-15.21,9.38-23.24,14.35-34.6,21.41"/><path class="cls-4" d="M337.82,306.23c-15.17,9.36-23.26,14.36-34.59,21.41"/><path class="cls-4" d="M348.77,306.23c-15.15,9.34-23.29,14.37-34.6,21.41"/><path class="cls-4" d="M359.71,306.23c-15.11,9.32-23.31,14.39-34.59,21.41"/><path class="cls-4" d="M370.65,306.23c-15.08,9.31-23.33,14.4-34.59,21.41"/><path class="cls-4" d="M381.6,306.23c-15.06,9.29-23.36,14.42-34.59,21.41"/><path class="cls-4" d="M392.54,306.23c-15,9.27-23.37,14.43-34.59,21.41"/><path class="cls-4" d="M403.49,306.23c-15,9.25-23.4,14.45-34.6,21.41"/><path class="cls-4" d="M414.43,306.23c-15,9.23-23.42,14.46-34.59,21.41"/><path class="cls-4" d="M425.38,306.23c-14.94,9.21-23.45,14.47-34.6,21.41"/><path class="cls-4" d="M436.32,306.23c-14.91,9.19-23.47,14.49-34.59,21.41"/><path class="cls-4" d="M447.26,306.23c-14.87,9.18-23.49,14.5-34.59,21.41"/><path class="cls-4" d="M458.21,306.23c-14.85,9.16-23.51,14.52-34.59,21.41"/><path class="cls-4" d="M469.15,306.23c-14.81,9.14-23.53,14.53-34.59,21.41"/><path class="cls-4" d="M480.1,306.23c-14.79,9.12-23.56,14.54-34.6,21.41"/><path class="cls-4" d="M491,306.23c-14.75,9.1-23.58,14.56-34.59,21.41"/><path class="cls-4" d="M502,306.23c-14.73,9.08-23.61,14.57-34.6,21.41"/><path class="cls-4" d="M512.93,306.23c-14.7,9.07-23.63,14.59-34.59,21.41"/><path class="cls-4" d="M523.87,306.23c-14.66,9-23.65,14.6-34.59,21.41"/><path class="cls-4" d="M534.82,306.23c-14.64,9-23.67,14.61-34.6,21.41"/><path class="cls-4" d="M545.76,306.23c-14.6,9-23.69,14.63-34.59,21.41"/><path class="cls-4" d="M556.71,306.23c-14.58,9-23.72,14.64-34.6,21.41"/><path class="cls-4" d="M567.65,306.23c-14.55,9-23.74,14.66-34.59,21.41"/><path class="cls-4" d="M578.6,306.23c-14.52,8.95-23.77,14.67-34.6,21.41"/><path class="cls-4" d="M589.54,306.23c-14.49,8.94-23.79,14.69-34.59,21.41"/><path class="cls-4" d="M600.48,306.23c-14.45,8.92-23.8,14.7-34.59,21.41"/><path class="cls-4" d="M611.43,306.23c-14.43,8.9-23.83,14.71-34.6,21.41"/><path class="cls-4" d="M622.37,306.23C608,315.11,598.52,321,587.78,327.64"/><path class="cls-4" d="M633.32,306.23c-14.37,8.86-23.88,14.74-34.6,21.41"/><path class="cls-4" d="M644.26,306.23c-14.34,8.84-23.9,14.76-34.59,21.41"/><path class="cls-4" d="M655.21,306.23c-14.31,8.83-23.93,14.77-34.6,21.41"/><path class="cls-4" d="M666.15,306.23C651.87,315,642.2,321,631.56,327.64"/><path class="cls-4" d="M677.09,306.23c-14.24,8.79-24,14.8-34.59,21.41"/><path class="cls-4" d="M688,306.23c-14.22,8.77-24,14.81-34.6,21.41"/><path class="cls-4" d="M699,306.23c-14.18,8.75-24,14.83-34.59,21.41"/><path class="cls-4" d="M709.93,306.23c-14.16,8.73-24,14.84-34.6,21.41"/><path class="cls-4" d="M720.87,306.23c-14.13,8.71-24.06,14.85-34.59,21.41"/><path class="cls-4" d="M731.81,306.23c-14.09,8.7-24.08,14.87-34.59,21.41"/><path class="cls-4" d="M742.76,306.23c-14.07,8.68-24.1,14.88-34.59,21.41"/><path class="cls-4" d="M753.7,306.23c-14,8.66-24.12,14.9-34.59,21.41"/><path class="cls-4" d="M764.65,306.23c-14,8.64-24.15,14.91-34.6,21.41"/><path class="cls-4" d="M775.59,306.23c-14,8.62-24.17,14.93-34.59,21.41"/><path class="cls-4" d="M786.54,306.23c-13.95,8.6-24.2,14.94-34.6,21.41"/><path class="cls-4" d="M797.48,306.23c-13.92,8.59-24.22,14.95-34.59,21.41"/><path class="cls-4" d="M808.42,306.23c-13.88,8.57-24.24,15-34.59,21.41"/><path class="cls-4" d="M819.37,306.23c-13.86,8.55-24.26,15-34.59,21.41"/><path class="cls-4" d="M830.31,306.23c-13.82,8.53-24.28,15-34.59,21.41"/><path class="cls-4" d="M841.26,306.23c-13.8,8.51-24.31,15-34.6,21.41"/><path class="cls-4" d="M852.2,306.23c-13.77,8.49-24.33,15-34.59,21.41"/><path class="cls-4" d="M863.15,306.23c-13.74,8.47-24.36,15-34.6,21.41"/><path class="cls-4" d="M874.09,306.23c-13.71,8.46-24.38,15-34.59,21.41"/><path class="cls-4" d="M885,306.23c-13.67,8.44-24.39,15.07-34.59,21.41"/><path class="cls-4" d="M896,306.23c-13.65,8.42-24.42,15.08-34.6,21.41"/><path class="cls-4" d="M906.92,306.23c-13.62,8.4-24.44,15.09-34.59,21.41"/><path class="cls-4" d="M917.87,306.23c-13.59,8.38-24.47,15.11-34.6,21.41"/><path class="cls-4" d="M928.81,306.23c-13.56,8.36-24.49,15.12-34.59,21.41"/><path class="cls-4" d="M939.76,306.23c-13.53,8.34-24.52,15.14-34.6,21.41"/><path class="cls-4" d="M950.7,306.23c-13.5,8.33-24.54,15.15-34.59,21.41"/><path class="cls-4" d="M961.64,306.23c-13.46,8.31-24.55,15.17-34.59,21.41"/><path class="cls-4" d="M972.59,306.23c-13.44,8.29-24.58,15.18-34.6,21.41"/><path class="cls-4" d="M983.53,306.23c-13.41,8.27-24.6,15.19-34.59,21.41"/><path class="cls-4" d="M994.48,306.23c-13.38,8.25-24.63,15.21-34.6,21.41"/><path class="cls-4" d="M1005.42,306.23c-13.35,8.23-24.65,15.22-34.59,21.41"/><path class="cls-4" d="M1016.37,306.23c-13.32,8.22-24.68,15.24-34.6,21.41"/><path class="cls-4" d="M1027.31,306.23c-13.29,8.2-24.69,15.25-34.59,21.41"/><path class="cls-4" d="M1038.25,306.23c-13.25,8.18-24.71,15.26-34.59,21.41"/><path class="cls-4" d="M1049.2,306.23q-19.85,12.24-34.6,21.41"/><path class="cls-4" d="M1060.14,306.23q-19.8,12.21-34.59,21.41"/><path class="cls-4" d="M1071.09,306.23c-13.17,8.12-24.79,15.31-34.6,21.41"/><path class="cls-4" d="M1082,306.23c-13.14,8.1-24.81,15.32-34.59,21.41"/><path class="cls-4" d="M1093,306.23c-13.1,8.09-24.83,15.33-34.59,21.41"/><path class="cls-4" d="M1103.92,306.23c-13.08,8.07-24.85,15.35-34.59,21.41"/><path class="cls-4" d="M1114.86,306.23c-13,8-24.87,15.36-34.59,21.41"/><path class="cls-4" d="M1125.81,306.23c-13,8-24.9,15.38-34.6,21.41"/><path class="cls-4" d="M1136.75,306.23c-13,8-24.92,15.39-34.59,21.41"/><path class="cls-4" d="M1147.7,306.23c-13,8-25,15.41-34.6,21.41"/><path class="cls-4" d="M1158.64,306.23c-12.93,8-25,15.42-34.59,21.41"/><path class="cls-4" d="M1169.58,306.23c-12.89,8-25,15.43-34.59,21.41"/><path class="cls-4" d="M1180.53,306.23c-12.87,7.94-25,15.45-34.59,21.41"/><path class="cls-4" d="M1191.47,306.23c-12.84,7.92-25,15.46-34.59,21.41"/><path class="cls-3" d="M3014.93,295.89c-25.24,15.57-49.22,30.4-68,42.09H3546.4c18.8-11.69,42.77-26.52,68-42.09Z"/><path class="cls-4" d="M1856.25,306.23c-15.86,9.79-22.74,14-34.59,21.41"/><path class="cls-4" d="M1867.2,306.23c-15.84,9.77-22.77,14-34.6,21.41"/><path class="cls-4" d="M1878.14,306.23c-15.8,9.75-22.79,14.06-34.59,21.41"/><path class="cls-4" d="M1889.08,306.23c-15.77,9.73-22.81,14.08-34.59,21.41"/><path class="cls-4" d="M1900,306.23c-15.75,9.71-22.83,14.09-34.6,21.41"/><path class="cls-4" d="M1911,306.23c-15.71,9.69-22.85,14.11-34.59,21.41"/><path class="cls-4" d="M1921.92,306.23c-15.69,9.68-22.88,14.12-34.6,21.41"/><path class="cls-4" d="M1932.86,306.23c-15.65,9.66-22.9,14.13-34.59,21.41"/><path class="cls-4" d="M1943.8,306.23c-15.62,9.64-22.92,14.15-34.59,21.41"/><path class="cls-4" d="M1954.75,306.23c-15.6,9.62-23,14.16-34.59,21.41"/><path class="cls-4" d="M1965.69,306.23c-15.56,9.6-23,14.18-34.59,21.41"/><path class="cls-4" d="M1976.64,306.23c-15.54,9.58-23,14.19-34.6,21.41"/><path class="cls-4" d="M1987.58,306.23c-15.5,9.56-23,14.2-34.59,21.41"/><path class="cls-4" d="M1998.53,306.23c-15.48,9.55-23,14.22-34.6,21.41"/><path class="cls-4" d="M2009.47,306.23c-15.44,9.53-23.06,14.23-34.59,21.41"/><path class="cls-4" d="M2020.41,306.23c-15.41,9.51-23.08,14.25-34.59,21.41"/><path class="cls-4" d="M2031.36,306.23c-15.39,9.49-23.11,14.26-34.59,21.41"/><path class="cls-4" d="M2042.3,306.23c-15.35,9.47-23.12,14.28-34.59,21.41"/><path class="cls-4" d="M2053.25,306.23c-15.33,9.45-23.15,14.29-34.6,21.41"/><path class="cls-4" d="M2064.19,306.23c-15.29,9.44-23.17,14.3-34.59,21.41"/><path class="cls-4" d="M2075.14,306.23c-15.27,9.42-23.2,14.32-34.6,21.41"/><path class="cls-4" d="M2086.08,306.23c-15.23,9.4-23.22,14.33-34.59,21.41"/><path class="cls-4" d="M2097,306.23c-15.2,9.38-23.24,14.35-34.59,21.41"/><path class="cls-4" d="M2108,306.23c-15.18,9.36-23.26,14.36-34.6,21.41"/><path class="cls-4" d="M2118.91,306.23c-15.14,9.34-23.28,14.37-34.59,21.41"/><path class="cls-4" d="M2129.86,306.23c-15.12,9.32-23.31,14.39-34.6,21.41"/><path class="cls-4" d="M2140.8,306.23c-15.08,9.31-23.33,14.4-34.59,21.41"/><path class="cls-4" d="M2151.75,306.23c-15.06,9.29-23.36,14.42-34.6,21.41"/><path class="cls-4" d="M2162.69,306.23c-15,9.27-23.38,14.43-34.59,21.41"/><path class="cls-4" d="M2173.63,306.23c-15,9.25-23.4,14.45-34.59,21.41"/><path class="cls-4" d="M2184.58,306.23c-15,9.23-23.42,14.46-34.6,21.41"/><path class="cls-4" d="M2195.52,306.23c-14.93,9.21-23.44,14.47-34.59,21.41"/><path class="cls-4" d="M2206.47,306.23c-14.91,9.19-23.47,14.49-34.6,21.41"/><path class="cls-4" d="M2217.41,306.23c-14.87,9.18-23.49,14.5-34.59,21.41"/><path class="cls-4" d="M2228.36,306.23c-14.85,9.16-23.52,14.52-34.6,21.41"/><path class="cls-4" d="M2239.3,306.23c-14.82,9.14-23.54,14.53-34.59,21.41"/><path class="cls-4" d="M2250.24,306.23c-14.78,9.12-23.55,14.54-34.59,21.41"/><path class="cls-4" d="M2261.19,306.23c-14.76,9.1-23.58,14.56-34.6,21.41"/><path class="cls-4" d="M2272.13,306.23c-14.72,9.08-23.6,14.57-34.59,21.41"/><path class="cls-4" d="M2283.08,306.23c-14.7,9.07-23.63,14.59-34.6,21.41"/><path class="cls-4" d="M2294,306.23c-14.67,9-23.65,14.6-34.59,21.41"/><path class="cls-4" d="M2305,306.23c-14.63,9-23.67,14.61-34.59,21.41"/><path class="cls-4" d="M2315.91,306.23c-14.61,9-23.7,14.63-34.59,21.41"/><path class="cls-4" d="M2326.85,306.23c-14.57,9-23.71,14.64-34.59,21.41"/><path class="cls-4" d="M2337.8,306.23c-14.55,9-23.74,14.66-34.6,21.41"/><path class="cls-4" d="M2348.74,306.23c-14.51,8.95-23.76,14.67-34.59,21.41"/><path class="cls-4" d="M2359.69,306.23c-14.49,8.94-23.79,14.69-34.6,21.41"/><path class="cls-4" d="M2370.63,306.23c-14.46,8.92-23.81,14.7-34.59,21.41"/><path class="cls-4" d="M2381.57,306.23c-14.42,8.9-23.83,14.71-34.59,21.41"/><path class="cls-4" d="M2392.52,306.23c-14.4,8.88-23.86,14.73-34.59,21.41"/><path class="cls-4" d="M2403.46,306.23c-14.36,8.86-23.87,14.74-34.59,21.41"/><path class="cls-4" d="M2414.41,306.23c-14.34,8.84-23.9,14.76-34.6,21.41"/><path class="cls-4" d="M2425.35,306.23c-14.31,8.83-23.92,14.77-34.59,21.41"/><path class="cls-4" d="M2436.3,306.23c-14.28,8.81-24,14.78-34.6,21.41"/><path class="cls-4" d="M2447.24,306.23c-14.25,8.79-24,14.8-34.59,21.41"/><path class="cls-4" d="M2458.18,306.23c-14.21,8.77-24,14.81-34.59,21.41"/><path class="cls-4" d="M2469.13,306.23c-14.19,8.75-24,14.83-34.6,21.41"/><path class="cls-4" d="M2480.07,306.23c-14.15,8.73-24,14.84-34.59,21.41"/><path class="cls-4" d="M2491,306.23c-14.13,8.71-24.06,14.85-34.6,21.41"/><path class="cls-4" d="M2502,306.23c-14.1,8.7-24.08,14.87-34.59,21.41"/><path class="cls-4" d="M2512.91,306.23c-14.07,8.68-24.11,14.88-34.6,21.41"/><path class="cls-4" d="M2523.85,306.23c-14,8.66-24.13,14.9-34.59,21.41"/><path class="cls-4" d="M2534.79,306.23c-14,8.64-24.15,14.91-34.59,21.41"/><path class="cls-4" d="M2545.74,306.23c-14,8.62-24.17,14.93-34.6,21.41"/><path class="cls-4" d="M2556.68,306.23c-13.94,8.6-24.19,14.94-34.59,21.41"/><path class="cls-4" d="M2567.63,306.23c-13.92,8.59-24.22,14.95-34.6,21.41"/><path class="cls-4" d="M2578.57,306.23c-13.89,8.57-24.24,15-34.59,21.41"/><path class="cls-4" d="M2589.52,306.23c-13.86,8.55-24.27,15-34.6,21.41"/><path class="cls-4" d="M2600.46,306.23c-13.83,8.53-24.29,15-34.59,21.41"/><path class="cls-4" d="M2611.4,306.23c-13.79,8.51-24.3,15-34.59,21.41"/><path class="cls-4" d="M2622.35,306.23c-13.77,8.49-24.33,15-34.6,21.41"/><path class="cls-4" d="M2633.29,306.23c-13.74,8.47-24.35,15-34.59,21.41"/><path class="cls-4" d="M2644.24,306.23c-13.71,8.46-24.38,15-34.6,21.41"/><path class="cls-4" d="M2655.18,306.23c-13.68,8.44-24.4,15.07-34.59,21.41"/><path class="cls-4" d="M2666.12,306.23c-13.64,8.42-24.42,15.08-34.59,21.41"/><path class="cls-4" d="M2677.07,306.23c-13.62,8.4-24.45,15.09-34.59,21.41"/><path class="cls-4" d="M2688,306.23c-13.58,8.38-24.46,15.11-34.59,21.41"/><path class="cls-4" d="M2699,306.23c-13.56,8.36-24.49,15.12-34.6,21.41"/><path class="cls-4" d="M2709.9,306.23c-13.53,8.34-24.51,15.14-34.59,21.41"/><path class="cls-4" d="M2720.85,306.23c-13.5,8.33-24.54,15.15-34.6,21.41"/><path class="cls-4" d="M2731.79,306.23c-13.47,8.31-24.56,15.17-34.59,21.41"/><path class="cls-4" d="M2742.73,306.23c-13.43,8.29-24.58,15.18-34.59,21.41"/><path class="cls-4" d="M2753.68,306.23c-13.41,8.27-24.6,15.19-34.59,21.41"/><path class="cls-4" d="M2764.62,306.23c-13.38,8.25-24.62,15.21-34.59,21.41"/><path class="cls-4" d="M2775.57,306.23c-13.35,8.23-24.65,15.22-34.6,21.41"/><path class="cls-4" d="M2786.51,306.23c-13.32,8.22-24.67,15.24-34.59,21.41"/><path class="cls-4" d="M2797.46,306.23c-13.29,8.2-24.7,15.25-34.6,21.41"/><path class="cls-4" d="M2808.4,306.23c-13.26,8.18-24.72,15.26-34.59,21.41"/><path class="cls-4" d="M2819.34,306.23q-19.83,12.24-34.59,21.41"/><path class="cls-4" d="M2830.29,306.23q-19.8,12.21-34.6,21.41"/><path class="cls-4" d="M2841.23,306.23c-13.17,8.12-24.78,15.31-34.59,21.41"/><path class="cls-4" d="M2852.18,306.23c-13.14,8.1-24.81,15.32-34.6,21.41"/><path class="cls-4" d="M2863.12,306.23c-13.11,8.09-24.83,15.33-34.59,21.41"/><path class="cls-4" d="M2874.07,306.23c-13.08,8.07-24.86,15.35-34.6,21.41"/><path class="cls-4" d="M2885,306.23c-13.05,8-24.88,15.36-34.59,21.41"/><path class="cls-4" d="M2896,306.23c-13,8-24.89,15.38-34.59,21.41"/><path class="cls-4" d="M2906.9,306.23c-13,8-24.92,15.39-34.6,21.41"/><path class="cls-4" d="M2917.84,306.23c-13,8-24.94,15.41-34.59,21.41"/><path class="cls-4" d="M2928.79,306.23c-12.93,8-25,15.42-34.6,21.41"/><path class="cls-4" d="M2939.73,306.23c-12.9,8-25,15.43-34.59,21.41"/><path class="cls-4" d="M2950.68,306.23c-12.87,7.94-25,15.45-34.6,21.41"/><path class="cls-4" d="M2961.62,306.23c-12.84,7.92-25,15.46-34.59,21.41"/><path class="cls-3" d="M4791.87,295.89c-25.24,15.57-49.22,30.4-68,42.09h599.49c18.79-11.69,42.77-26.52,68-42.09Z"/><path class="cls-4" d="M3633.19,306.23c-15.87,9.79-22.74,14-34.59,21.41"/><path class="cls-4" d="M3644.13,306.23c-15.83,9.77-22.76,14-34.59,21.41"/><path class="cls-4" d="M3655.08,306.23c-15.81,9.75-22.79,14.06-34.6,21.41"/><path class="cls-4" d="M3666,306.23c-15.77,9.73-22.81,14.08-34.59,21.41"/><path class="cls-4" d="M3677,306.23c-15.75,9.71-22.84,14.09-34.6,21.41"/><path class="cls-4" d="M3687.91,306.23c-15.71,9.69-22.85,14.11-34.59,21.41"/><path class="cls-4" d="M3698.85,306.23c-15.68,9.68-22.87,14.12-34.59,21.41"/><path class="cls-4" d="M3709.8,306.23c-15.66,9.66-22.9,14.13-34.6,21.41"/><path class="cls-4" d="M3720.74,306.23c-15.62,9.64-22.92,14.15-34.59,21.41"/><path class="cls-4" d="M3731.69,306.23c-15.6,9.62-23,14.16-34.6,21.41"/><path class="cls-4" d="M3742.63,306.23c-15.56,9.6-23,14.18-34.59,21.41"/><path class="cls-4" d="M3753.58,306.23c-15.54,9.58-23,14.19-34.6,21.41"/><path class="cls-4" d="M3764.52,306.23c-15.5,9.56-23,14.2-34.59,21.41"/><path class="cls-4" d="M3775.46,306.23c-15.47,9.55-23,14.22-34.59,21.41"/><path class="cls-4" d="M3786.41,306.23c-15.45,9.53-23.06,14.23-34.6,21.41"/><path class="cls-4" d="M3797.35,306.23c-15.41,9.51-23.08,14.25-34.59,21.41"/><path class="cls-4" d="M3808.3,306.23c-15.39,9.49-23.11,14.26-34.6,21.41"/><path class="cls-4" d="M3819.24,306.23c-15.35,9.47-23.13,14.28-34.59,21.41"/><path class="cls-4" d="M3830.19,306.23c-15.33,9.45-23.15,14.29-34.6,21.41"/><path class="cls-4" d="M3841.13,306.23c-15.3,9.44-23.17,14.3-34.59,21.41"/><path class="cls-4" d="M3852.07,306.23c-15.26,9.42-23.19,14.32-34.59,21.41"/><path class="cls-4" d="M3863,306.23c-15.24,9.4-23.22,14.33-34.6,21.41"/><path class="cls-4" d="M3874,306.23c-15.2,9.38-23.24,14.35-34.59,21.41"/><path class="cls-4" d="M3884.91,306.23c-15.18,9.36-23.27,14.36-34.6,21.41"/><path class="cls-4" d="M3895.85,306.23c-15.14,9.34-23.29,14.37-34.59,21.41"/><path class="cls-4" d="M3906.79,306.23c-15.11,9.32-23.3,14.39-34.59,21.41"/><path class="cls-4" d="M3917.74,306.23c-15.09,9.31-23.33,14.4-34.59,21.41"/><path class="cls-4" d="M3928.68,306.23c-15,9.29-23.35,14.42-34.59,21.41"/><path class="cls-4" d="M3939.63,306.23c-15,9.27-23.38,14.43-34.6,21.41"/><path class="cls-4" d="M3950.57,306.23c-15,9.25-23.4,14.45-34.59,21.41"/><path class="cls-4" d="M3961.52,306.23c-15,9.23-23.43,14.46-34.6,21.41"/><path class="cls-4" d="M3972.46,306.23c-14.94,9.21-23.44,14.47-34.59,21.41"/><path class="cls-4" d="M3983.4,306.23c-14.9,9.19-23.46,14.49-34.59,21.41"/><path class="cls-4" d="M3994.35,306.23c-14.88,9.18-23.49,14.5-34.59,21.41"/><path class="cls-4" d="M4005.29,306.23c-14.84,9.16-23.51,14.52-34.59,21.41"/><path class="cls-4" d="M4016.24,306.23c-14.82,9.14-23.54,14.53-34.6,21.41"/><path class="cls-4" d="M4027.18,306.23c-14.78,9.12-23.56,14.54-34.59,21.41"/><path class="cls-4" d="M4038.13,306.23c-14.76,9.1-23.59,14.56-34.6,21.41"/><path class="cls-4" d="M4049.07,306.23c-14.73,9.08-23.6,14.57-34.59,21.41"/><path class="cls-4" d="M4060,306.23c-14.69,9.07-23.62,14.59-34.59,21.41"/><path class="cls-4" d="M4071,306.23c-14.67,9-23.65,14.6-34.6,21.41"/><path class="cls-4" d="M4081.9,306.23c-14.63,9-23.67,14.61-34.59,21.41"/><path class="cls-4" d="M4092.85,306.23c-14.61,9-23.7,14.63-34.6,21.41"/><path class="cls-4" d="M4103.79,306.23c-14.57,9-23.72,14.64-34.59,21.41"/><path class="cls-4" d="M4114.74,306.23c-14.55,9-23.74,14.66-34.6,21.41"/><path class="cls-4" d="M4125.68,306.23c-14.52,8.95-23.76,14.67-34.59,21.41"/><path class="cls-4" d="M4136.62,306.23c-14.48,8.94-23.78,14.69-34.59,21.41"/><path class="cls-4" d="M4147.57,306.23c-14.46,8.92-23.81,14.7-34.6,21.41"/><path class="cls-4" d="M4158.51,306.23c-14.42,8.9-23.83,14.71-34.59,21.41"/><path class="cls-4" d="M4169.46,306.23c-14.4,8.88-23.86,14.73-34.6,21.41"/><path class="cls-4" d="M4180.4,306.23c-14.37,8.86-23.88,14.74-34.59,21.41"/><path class="cls-4" d="M4191.35,306.23c-14.34,8.84-23.9,14.76-34.6,21.41"/><path class="cls-4" d="M4202.29,306.23c-14.31,8.83-23.92,14.77-34.59,21.41"/><path class="cls-4" d="M4213.23,306.23C4199,315,4189.29,321,4178.64,327.64"/><path class="cls-4" d="M4224.18,306.23c-14.25,8.79-24,14.8-34.6,21.41"/><path class="cls-4" d="M4235.12,306.23c-14.21,8.77-24,14.81-34.59,21.41"/><path class="cls-4" d="M4246.07,306.23c-14.19,8.75-24,14.83-34.6,21.41"/><path class="cls-4" d="M4257,306.23c-14.16,8.73-24,14.84-34.59,21.41"/><path class="cls-4" d="M4268,306.23c-14.12,8.71-24.05,14.85-34.59,21.41"/><path class="cls-4" d="M4278.9,306.23c-14.1,8.7-24.08,14.87-34.59,21.41"/><path class="cls-4" d="M4289.84,306.23c-14.06,8.68-24.1,14.88-34.59,21.41"/><path class="cls-4" d="M4300.79,306.23c-14,8.66-24.13,14.9-34.6,21.41"/><path class="cls-4" d="M4311.73,306.23c-14,8.64-24.15,14.91-34.59,21.41"/><path class="cls-4" d="M4322.68,306.23c-14,8.62-24.18,14.93-34.6,21.41"/><path class="cls-4" d="M4333.62,306.23c-13.95,8.6-24.19,14.94-34.59,21.41"/><path class="cls-4" d="M4344.56,306.23c-13.91,8.59-24.21,14.95-34.59,21.41"/><path class="cls-4" d="M4355.51,306.23c-13.89,8.57-24.24,15-34.59,21.41"/><path class="cls-4" d="M4366.45,306.23c-13.85,8.55-24.26,15-34.59,21.41"/><path class="cls-4" d="M4377.4,306.23c-13.83,8.53-24.29,15-34.6,21.41"/><path class="cls-4" d="M4388.34,306.23c-13.8,8.51-24.31,15-34.59,21.41"/><path class="cls-4" d="M4399.29,306.23c-13.77,8.49-24.34,15-34.6,21.41"/><path class="cls-4" d="M4410.23,306.23c-13.74,8.47-24.35,15-34.59,21.41"/><path class="cls-4" d="M4421.17,306.23c-13.7,8.46-24.37,15-34.59,21.41"/><path class="cls-4" d="M4432.12,306.23c-13.68,8.44-24.4,15.07-34.6,21.41"/><path class="cls-4" d="M4443.06,306.23c-13.65,8.42-24.42,15.08-34.59,21.41"/><path class="cls-4" d="M4454,306.23c-13.62,8.4-24.45,15.09-34.6,21.41"/><path class="cls-4" d="M4465,306.23c-13.59,8.38-24.47,15.11-34.59,21.41"/><path class="cls-4" d="M4475.9,306.23c-13.56,8.36-24.49,15.12-34.6,21.41"/><path class="cls-4" d="M4486.84,306.23c-13.53,8.34-24.51,15.14-34.59,21.41"/><path class="cls-4" d="M4497.78,306.23c-13.49,8.33-24.53,15.15-34.59,21.41"/><path class="cls-4" d="M4508.73,306.23c-13.47,8.31-24.56,15.17-34.6,21.41"/><path class="cls-4" d="M4519.67,306.23c-13.44,8.29-24.58,15.18-34.59,21.41"/><path class="cls-4" d="M4530.62,306.23c-13.41,8.27-24.61,15.19-34.6,21.41"/><path class="cls-4" d="M4541.56,306.23c-13.38,8.25-24.63,15.21-34.59,21.41"/><path class="cls-4" d="M4552.51,306.23c-13.35,8.23-24.65,15.22-34.6,21.41"/><path class="cls-4" d="M4563.45,306.23c-13.32,8.22-24.67,15.24-34.59,21.41"/><path class="cls-4" d="M4574.39,306.23c-13.28,8.2-24.69,15.25-34.59,21.41"/><path class="cls-4" d="M4585.34,306.23c-13.26,8.18-24.72,15.26-34.6,21.41"/><path class="cls-4" d="M4596.28,306.23q-19.84,12.24-34.59,21.41"/><path class="cls-4" d="M4607.23,306.23c-13.2,8.14-24.77,15.29-34.6,21.41"/><path class="cls-4" d="M4618.17,306.23c-13.17,8.12-24.78,15.31-34.59,21.41"/><path class="cls-4" d="M4629.11,306.23c-13.13,8.1-24.8,15.32-34.59,21.41"/><path class="cls-4" d="M4640.06,306.23c-13.11,8.09-24.83,15.33-34.59,21.41"/><path class="cls-4" d="M4651,306.23c-13.08,8.07-24.85,15.35-34.59,21.41"/><path class="cls-4" d="M4662,306.23c-13.05,8-24.88,15.36-34.6,21.41"/><path class="cls-4" d="M4672.89,306.23c-13,8-24.9,15.38-34.59,21.41"/><path class="cls-4" d="M4683.84,306.23c-13,8-24.93,15.39-34.6,21.41"/><path class="cls-4" d="M4694.78,306.23c-13,8-24.94,15.41-34.59,21.41"/><path class="cls-4" d="M4705.72,306.23c-12.92,8-25,15.42-34.59,21.41"/><path class="cls-4" d="M4716.67,306.23c-12.9,8-25,15.43-34.59,21.41"/><path class="cls-4" d="M4727.61,306.23c-12.87,7.94-25,15.45-34.59,21.41"/><path class="cls-4" d="M4738.56,306.23c-12.84,7.92-25,15.46-34.6,21.41"/><path class="cls-3" d="M6568.81,295.89c-25.25,15.57-49.22,30.4-68,42.09h599.49c18.79-11.69,42.77-26.52,68-42.09Z"/><path class="cls-4" d="M5410.13,306.23c-15.87,9.79-22.74,14-34.6,21.41"/><path class="cls-4" d="M5421.07,306.23c-15.83,9.77-22.76,14-34.59,21.41"/><path class="cls-4" d="M5432,306.23c-15.81,9.75-22.79,14.06-34.6,21.41"/><path class="cls-4" d="M5443,306.23c-15.77,9.73-22.81,14.08-34.59,21.41"/><path class="cls-4" d="M5453.9,306.23c-15.74,9.71-22.83,14.09-34.59,21.41"/><path class="cls-4" d="M5464.85,306.23c-15.72,9.69-22.86,14.11-34.6,21.41"/><path class="cls-4" d="M5475.79,306.23c-15.68,9.68-22.88,14.12-34.59,21.41"/><path class="cls-4" d="M5486.74,306.23c-15.66,9.66-22.9,14.13-34.6,21.41"/><path class="cls-4" d="M5497.68,306.23c-15.62,9.64-22.92,14.15-34.59,21.41"/><path class="cls-4" d="M5508.62,306.23c-15.59,9.62-22.94,14.16-34.59,21.41"/><path class="cls-4" d="M5519.57,306.23c-15.57,9.6-23,14.18-34.59,21.41"/><path class="cls-4" d="M5530.51,306.23c-15.53,9.58-23,14.19-34.59,21.41"/><path class="cls-4" d="M5541.46,306.23c-15.51,9.56-23,14.2-34.6,21.41"/><path class="cls-4" d="M5552.4,306.23c-15.47,9.55-23,14.22-34.59,21.41"/><path class="cls-4" d="M5563.35,306.23c-15.45,9.53-23.06,14.23-34.6,21.41"/><path class="cls-4" d="M5574.29,306.23c-15.41,9.51-23.08,14.25-34.59,21.41"/><path class="cls-4" d="M5585.23,306.23c-15.38,9.49-23.1,14.26-34.59,21.41"/><path class="cls-4" d="M5596.18,306.23c-15.36,9.47-23.13,14.28-34.59,21.41"/><path class="cls-4" d="M5607.12,306.23c-15.32,9.45-23.15,14.29-34.59,21.41"/><path class="cls-4" d="M5618.07,306.23c-15.3,9.44-23.18,14.3-34.6,21.41"/><path class="cls-4" d="M5629,306.23c-15.26,9.42-23.19,14.32-34.59,21.41"/><path class="cls-4" d="M5640,306.23c-15.24,9.4-23.22,14.33-34.6,21.41"/><path class="cls-4" d="M5650.9,306.23c-15.21,9.38-23.24,14.35-34.59,21.41"/><path class="cls-4" d="M5661.84,306.23c-15.17,9.36-23.26,14.36-34.59,21.41"/><path class="cls-4" d="M5672.79,306.23c-15.15,9.34-23.29,14.37-34.6,21.41"/><path class="cls-4" d="M5683.73,306.23c-15.11,9.32-23.31,14.39-34.59,21.41"/><path class="cls-4" d="M5694.68,306.23c-15.09,9.31-23.33,14.4-34.6,21.41"/><path class="cls-4" d="M5705.62,306.23c-15.05,9.29-23.35,14.42-34.59,21.41"/><path class="cls-4" d="M5716.57,306.23c-15,9.27-23.38,14.43-34.6,21.41"/><path class="cls-4" d="M5727.51,306.23c-15,9.25-23.4,14.45-34.59,21.41"/><path class="cls-4" d="M5738.45,306.23c-15,9.23-23.42,14.46-34.59,21.41"/><path class="cls-4" d="M5749.4,306.23c-14.94,9.21-23.45,14.47-34.6,21.41"/><path class="cls-4" d="M5760.34,306.23c-14.9,9.19-23.47,14.49-34.59,21.41"/><path class="cls-4" d="M5771.29,306.23c-14.88,9.18-23.49,14.5-34.6,21.41"/><path class="cls-4" d="M5782.23,306.23c-14.84,9.16-23.51,14.52-34.59,21.41"/><path class="cls-4" d="M5793.18,306.23c-14.82,9.14-23.54,14.53-34.6,21.41"/><path class="cls-4" d="M5804.12,306.23c-14.79,9.12-23.56,14.54-34.59,21.41"/><path class="cls-4" d="M5815.06,306.23c-14.75,9.1-23.58,14.56-34.59,21.41"/><path class="cls-4" d="M5826,306.23c-14.73,9.08-23.61,14.57-34.6,21.41"/><path class="cls-4" d="M5837,306.23c-14.69,9.07-23.62,14.59-34.59,21.41"/><path class="cls-4" d="M5847.9,306.23c-14.67,9-23.65,14.6-34.6,21.41"/><path class="cls-4" d="M5858.84,306.23c-14.64,9-23.67,14.61-34.59,21.41"/><path class="cls-4" d="M5869.78,306.23c-14.6,9-23.69,14.63-34.59,21.41"/><path class="cls-4" d="M5880.73,306.23c-14.58,9-23.72,14.64-34.59,21.41"/><path class="cls-4" d="M5891.67,306.23c-14.54,9-23.74,14.66-34.59,21.41"/><path class="cls-4" d="M5902.62,306.23c-14.52,8.95-23.77,14.67-34.6,21.41"/><path class="cls-4" d="M5913.56,306.23c-14.48,8.94-23.78,14.69-34.59,21.41"/><path class="cls-4" d="M5924.51,306.23c-14.46,8.92-23.81,14.7-34.6,21.41"/><path class="cls-4" d="M5935.45,306.23c-14.43,8.9-23.83,14.71-34.59,21.41"/><path class="cls-4" d="M5946.39,306.23c-14.39,8.88-23.85,14.73-34.59,21.41"/><path class="cls-4" d="M5957.34,306.23c-14.37,8.86-23.88,14.74-34.59,21.41"/><path class="cls-4" d="M5968.28,306.23c-14.33,8.84-23.9,14.76-34.59,21.41"/><path class="cls-4" d="M5979.23,306.23c-14.31,8.83-23.92,14.77-34.6,21.41"/><path class="cls-4" d="M5990.17,306.23c-14.28,8.81-23.94,14.78-34.59,21.41"/><path class="cls-4" d="M6001.12,306.23c-14.25,8.79-24,14.8-34.6,21.41"/><path class="cls-4" d="M6012.06,306.23c-14.22,8.77-24,14.81-34.59,21.41"/><path class="cls-4" d="M6023,306.23c-14.18,8.75-24,14.83-34.59,21.41"/><path class="cls-4" d="M6034,306.23c-14.16,8.73-24,14.84-34.6,21.41"/><path class="cls-4" d="M6044.89,306.23c-14.12,8.71-24.06,14.85-34.59,21.41"/><path class="cls-4" d="M6055.84,306.23c-14.1,8.7-24.08,14.87-34.6,21.41"/><path class="cls-4" d="M6066.78,306.23c-14.07,8.68-24.1,14.88-34.59,21.41"/><path class="cls-4" d="M6077.73,306.23c-14,8.66-24.13,14.9-34.6,21.41"/><path class="cls-4" d="M6088.67,306.23c-14,8.64-24.15,14.91-34.59,21.41"/><path class="cls-4" d="M6099.61,306.23c-14,8.62-24.17,14.93-34.59,21.41"/><path class="cls-4" d="M6110.56,306.23c-14,8.6-24.2,14.94-34.6,21.41"/><path class="cls-4" d="M6121.5,306.23c-13.91,8.59-24.21,14.95-34.59,21.41"/><path class="cls-4" d="M6132.45,306.23c-13.89,8.57-24.24,15-34.6,21.41"/><path class="cls-4" d="M6143.39,306.23c-13.86,8.55-24.26,15-34.59,21.41"/><path class="cls-4" d="M6154.34,306.23c-13.83,8.53-24.29,15-34.6,21.41"/><path class="cls-4" d="M6165.28,306.23c-13.8,8.51-24.31,15-34.59,21.41"/><path class="cls-4" d="M6176.22,306.23c-13.76,8.49-24.33,15-34.59,21.41"/><path class="cls-4" d="M6187.17,306.23c-13.74,8.47-24.36,15-34.6,21.41"/><path class="cls-4" d="M6198.11,306.23c-13.71,8.46-24.37,15-34.59,21.41"/><path class="cls-4" d="M6209.06,306.23c-13.68,8.44-24.4,15.07-34.6,21.41"/><path class="cls-4" d="M6220,306.23c-13.65,8.42-24.42,15.08-34.59,21.41"/><path class="cls-4" d="M6230.94,306.23c-13.61,8.4-24.44,15.09-34.59,21.41"/><path class="cls-4" d="M6241.89,306.23c-13.59,8.38-24.47,15.11-34.59,21.41"/><path class="cls-4" d="M6252.83,306.23c-13.55,8.36-24.49,15.12-34.59,21.41"/><path class="cls-4" d="M6263.78,306.23c-13.53,8.34-24.51,15.14-34.6,21.41"/><path class="cls-4" d="M6274.72,306.23c-13.5,8.33-24.53,15.15-34.59,21.41"/><path class="cls-4" d="M6285.67,306.23c-13.47,8.31-24.56,15.17-34.6,21.41"/><path class="cls-4" d="M6296.61,306.23c-13.44,8.29-24.58,15.18-34.59,21.41"/><path class="cls-4" d="M6307.55,306.23c-13.4,8.27-24.6,15.19-34.59,21.41"/><path class="cls-4" d="M6318.5,306.23c-13.38,8.25-24.63,15.21-34.59,21.41"/><path class="cls-4" d="M6329.44,306.23c-13.35,8.23-24.65,15.22-34.59,21.41"/><path class="cls-4" d="M6340.39,306.23c-13.32,8.22-24.67,15.24-34.6,21.41"/><path class="cls-4" d="M6351.33,306.23c-13.29,8.2-24.69,15.25-34.59,21.41"/><path class="cls-4" d="M6362.28,306.23c-13.26,8.18-24.72,15.26-34.6,21.41"/><path class="cls-4" d="M6373.22,306.23q-19.85,12.24-34.59,21.41"/><path class="cls-4" d="M6384.16,306.23c-13.19,8.14-24.76,15.29-34.59,21.41"/><path class="cls-4" d="M6395.11,306.23c-13.17,8.12-24.79,15.31-34.6,21.41"/><path class="cls-4" d="M6406.05,306.23c-13.14,8.1-24.81,15.32-34.59,21.41"/><path class="cls-4" d="M6417,306.23c-13.11,8.09-24.83,15.33-34.6,21.41"/><path class="cls-4" d="M6427.94,306.23c-13.08,8.07-24.85,15.35-34.59,21.41"/><path class="cls-4" d="M6438.89,306.23c-13.05,8-24.88,15.36-34.6,21.41"/><path class="cls-4" d="M6449.83,306.23c-13,8-24.9,15.38-34.59,21.41"/><path class="cls-4" d="M6460.77,306.23c-13,8-24.92,15.39-34.59,21.41"/><path class="cls-4" d="M6471.72,306.23c-13,8-24.95,15.41-34.6,21.41"/><path class="cls-4" d="M6482.66,306.23c-12.93,8-25,15.42-34.59,21.41"/><path class="cls-4" d="M6493.61,306.23c-12.9,8-25,15.43-34.6,21.41"/><path class="cls-4" d="M6504.55,306.23c-12.87,7.94-25,15.45-34.59,21.41"/><path class="cls-4" d="M6515.5,306.23c-12.84,7.92-25,15.46-34.6,21.41"/><g class="cls-5"><path class="cls-4" d="M7187.06,306.23c-15.86,9.79-22.74,14-34.59,21.41"/><path class="cls-4" d="M7198,306.23c-15.84,9.77-22.77,14-34.59,21.41"/><path class="cls-4" d="M7209,306.23c-15.8,9.75-22.78,14.06-34.59,21.41"/><path class="cls-4" d="M7219.9,306.23c-15.78,9.73-22.81,14.08-34.6,21.41"/><path class="cls-4" d="M7230.84,306.23c-15.74,9.71-22.83,14.09-34.59,21.41"/><path class="cls-4" d="M7241.79,306.23c-15.72,9.69-22.86,14.11-34.6,21.41"/><path class="cls-4" d="M7252.73,306.23c-15.68,9.68-22.88,14.12-34.59,21.41"/><path class="cls-4" d="M7263.67,306.23c-15.65,9.66-22.9,14.13-34.59,21.41"/><path class="cls-4" d="M7274.62,306.23c-15.63,9.64-22.92,14.15-34.6,21.41"/><path class="cls-4" d="M7285.56,306.23c-15.59,9.62-22.94,14.16-34.59,21.41"/><path class="cls-4" d="M7296.51,306.23c-15.57,9.6-23,14.18-34.6,21.41"/><path class="cls-4" d="M7307.45,306.23c-15.53,9.58-23,14.19-34.59,21.41"/><path class="cls-4" d="M7318.4,306.23c-15.51,9.56-23,14.2-34.6,21.41"/><path class="cls-4" d="M7329.34,306.23c-15.47,9.55-23,14.22-34.59,21.41"/><path class="cls-4" d="M7340.28,306.23c-15.44,9.53-23.06,14.23-34.59,21.41"/><path class="cls-4" d="M7351.23,306.23c-15.42,9.51-23.08,14.25-34.6,21.41"/><path class="cls-4" d="M7362.17,306.23c-15.38,9.49-23.1,14.26-34.59,21.41"/><path class="cls-4" d="M7373.12,306.23c-15.36,9.47-23.13,14.28-34.6,21.41"/><path class="cls-4" d="M7384.06,306.23c-15.32,9.45-23.15,14.29-34.59,21.41"/><path class="cls-4" d="M7395,306.23c-15.3,9.44-23.18,14.3-34.6,21.41"/><path class="cls-4" d="M7406,306.23c-15.27,9.42-23.2,14.32-34.59,21.41"/><path class="cls-4" d="M7416.89,306.23c-15.23,9.4-23.21,14.33-34.59,21.41"/><path class="cls-4" d="M7427.84,306.23c-15.21,9.38-23.24,14.35-34.6,21.41"/><path class="cls-4" d="M7438.78,306.23c-15.17,9.36-23.26,14.36-34.59,21.41"/><path class="cls-4" d="M7449.73,306.23c-15.15,9.34-23.29,14.37-34.6,21.41"/><path class="cls-4" d="M7460.67,306.23c-15.11,9.32-23.31,14.39-34.59,21.41"/><path class="cls-4" d="M7471.61,306.23c-15.08,9.31-23.33,14.4-34.59,21.41"/><path class="cls-4" d="M7482.56,306.23c-15.06,9.29-23.36,14.42-34.59,21.41"/><path class="cls-4" d="M7493.5,306.23c-15,9.27-23.37,14.43-34.59,21.41"/><path class="cls-4" d="M7504.45,306.23c-15,9.25-23.4,14.45-34.6,21.41"/><path class="cls-4" d="M7515.39,306.23c-15,9.23-23.42,14.46-34.59,21.41"/><path class="cls-4" d="M7526.34,306.23c-14.94,9.21-23.45,14.47-34.6,21.41"/><path class="cls-4" d="M7537.28,306.23c-14.91,9.19-23.47,14.49-34.59,21.41"/><path class="cls-4" d="M7548.22,306.23c-14.87,9.18-23.49,14.5-34.59,21.41"/><path class="cls-4" d="M7559.17,306.23c-14.85,9.16-23.51,14.52-34.59,21.41"/><path class="cls-4" d="M7570.11,306.23c-14.81,9.14-23.53,14.53-34.59,21.41"/><path class="cls-4" d="M7581.06,306.23c-14.79,9.12-23.56,14.54-34.6,21.41"/><path class="cls-4" d="M7592,306.23c-14.75,9.1-23.58,14.56-34.59,21.41"/><path class="cls-4" d="M7603,306.23c-14.73,9.08-23.61,14.57-34.6,21.41"/><path class="cls-4" d="M7613.89,306.23c-14.7,9.07-23.63,14.59-34.59,21.41"/><path class="cls-4" d="M7624.83,306.23c-14.66,9-23.65,14.6-34.59,21.41"/><path class="cls-4" d="M7635.78,306.23c-14.64,9-23.67,14.61-34.6,21.41"/><path class="cls-4" d="M7646.72,306.23c-14.6,9-23.69,14.63-34.59,21.41"/><path class="cls-4" d="M7657.67,306.23c-14.58,9-23.72,14.64-34.6,21.41"/><path class="cls-4" d="M7668.61,306.23c-14.55,9-23.74,14.66-34.59,21.41"/><path class="cls-4" d="M7679.56,306.23c-14.52,8.95-23.77,14.67-34.6,21.41"/><path class="cls-4" d="M7690.5,306.23c-14.49,8.94-23.79,14.69-34.59,21.41"/><path class="cls-4" d="M7701.44,306.23c-14.45,8.92-23.8,14.7-34.59,21.41"/><path class="cls-4" d="M7712.39,306.23c-14.43,8.9-23.83,14.71-34.6,21.41"/><path class="cls-4" d="M7723.33,306.23c-14.39,8.88-23.85,14.73-34.59,21.41"/><path class="cls-4" d="M7734.28,306.23c-14.37,8.86-23.88,14.74-34.6,21.41"/><path class="cls-4" d="M7745.22,306.23c-14.34,8.84-23.9,14.76-34.59,21.41"/><path class="cls-4" d="M7756.17,306.23c-14.31,8.83-23.93,14.77-34.6,21.41"/><path class="cls-4" d="M7767.11,306.23c-14.28,8.81-23.95,14.78-34.59,21.41"/><path class="cls-4" d="M7778.05,306.23c-14.24,8.79-24,14.8-34.59,21.41"/><path class="cls-4" d="M7789,306.23c-14.22,8.77-24,14.81-34.6,21.41"/><path class="cls-4" d="M7799.94,306.23c-14.18,8.75-24,14.83-34.59,21.41"/><path class="cls-4" d="M7810.89,306.23c-14.16,8.73-24,14.84-34.6,21.41"/><path class="cls-4" d="M7821.83,306.23c-14.13,8.71-24.06,14.85-34.59,21.41"/><path class="cls-4" d="M7832.77,306.23c-14.09,8.7-24.08,14.87-34.59,21.41"/><path class="cls-4" d="M7843.72,306.23c-14.07,8.68-24.1,14.88-34.59,21.41"/><path class="cls-4" d="M7854.66,306.23c-14,8.66-24.12,14.9-34.59,21.41"/><path class="cls-4" d="M7865.61,306.23c-14,8.64-24.15,14.91-34.6,21.41"/><path class="cls-4" d="M7876.55,306.23c-14,8.62-24.17,14.93-34.59,21.41"/><path class="cls-4" d="M7887.5,306.23c-13.95,8.6-24.2,14.94-34.6,21.41"/><path class="cls-4" d="M7898.44,306.23c-13.92,8.59-24.22,14.95-34.59,21.41"/><path class="cls-4" d="M7909.38,306.23c-13.88,8.57-24.24,15-34.59,21.41"/><path class="cls-4" d="M7920.33,306.23c-13.86,8.55-24.26,15-34.59,21.41"/><path class="cls-4" d="M7931.27,306.23c-13.82,8.53-24.28,15-34.59,21.41"/><path class="cls-4" d="M7942.22,306.23c-13.8,8.51-24.31,15-34.6,21.41"/><path class="cls-4" d="M7953.16,306.23c-13.77,8.49-24.33,15-34.59,21.41"/><path class="cls-4" d="M7964.11,306.23c-13.74,8.47-24.36,15-34.6,21.41"/><path class="cls-4" d="M7975.05,306.23c-13.71,8.46-24.38,15-34.59,21.41"/><path class="cls-4" d="M7986,306.23c-13.67,8.44-24.39,15.07-34.59,21.41"/><path class="cls-4" d="M7996.94,306.23c-13.65,8.42-24.42,15.08-34.6,21.41"/><path class="cls-4" d="M8007.88,306.23c-13.62,8.4-24.44,15.09-34.59,21.41"/><path class="cls-4" d="M8018.83,306.23c-13.59,8.38-24.47,15.11-34.6,21.41"/><path class="cls-4" d="M8029.77,306.23c-13.56,8.36-24.49,15.12-34.59,21.41"/><path class="cls-4" d="M8040.72,306.23c-13.53,8.34-24.52,15.14-34.6,21.41"/><path class="cls-4" d="M8051.66,306.23c-13.5,8.33-24.54,15.15-34.59,21.41"/><path class="cls-4" d="M8062.6,306.23c-13.46,8.31-24.55,15.17-34.59,21.41"/><path class="cls-4" d="M8073.55,306.23c-13.44,8.29-24.58,15.18-34.6,21.41"/><path class="cls-4" d="M8084.49,306.23c-13.41,8.27-24.6,15.19-34.59,21.41"/><path class="cls-4" d="M8095.44,306.23c-13.38,8.25-24.63,15.21-34.6,21.41"/><path class="cls-4" d="M8106.38,306.23c-13.35,8.23-24.65,15.22-34.59,21.41"/><path class="cls-4" d="M8117.33,306.23c-13.32,8.22-24.68,15.24-34.6,21.41"/><path class="cls-4" d="M8128.27,306.23c-13.29,8.2-24.69,15.25-34.59,21.41"/><path class="cls-4" d="M8139.21,306.23c-13.25,8.18-24.71,15.26-34.59,21.41"/><path class="cls-4" d="M8150.16,306.23q-19.84,12.24-34.6,21.41"/><path class="cls-4" d="M8161.1,306.23q-19.8,12.21-34.59,21.41"/><path class="cls-4" d="M8172.05,306.23c-13.17,8.12-24.79,15.31-34.6,21.41"/><path class="cls-4" d="M8183,306.23c-13.14,8.1-24.81,15.32-34.59,21.41"/><path class="cls-4" d="M8193.93,306.23c-13.1,8.09-24.83,15.33-34.59,21.41"/><path class="cls-4" d="M8204.88,306.23c-13.08,8.07-24.85,15.35-34.59,21.41"/><path class="cls-4" d="M8215.82,306.23c-13,8-24.87,15.36-34.59,21.41"/><path class="cls-4" d="M8226.77,306.23c-13,8-24.9,15.38-34.6,21.41"/><path class="cls-4" d="M8237.71,306.23c-13,8-24.92,15.39-34.59,21.41"/><path class="cls-4" d="M8248.66,306.23c-13,8-25,15.41-34.6,21.41"/><path class="cls-4" d="M8259.6,306.23c-12.93,8-25,15.42-34.59,21.41"/><path class="cls-4" d="M8270.54,306.23c-12.89,8-25,15.43-34.59,21.41"/><path class="cls-4" d="M8281.49,306.23c-12.87,7.94-25,15.45-34.59,21.41"/><path class="cls-4" d="M8292.43,306.23c-12.84,7.92-25,15.46-34.59,21.41"/></g><circle class="cls-6" cx="132.06" cy="146.51" r="56.83"/><line class="cls-7" x1="132.06" y1="203.35" x2="132.06" y2="284.68"/><circle class="cls-8" cx="132.06" cy="289.88" r="6.02"/><circle class="cls-9" cx="132.06" cy="146.51" r="46.78"/><text class="cls-10" transform="translate(107.65 142.31)">19<tspan x="0" y="32.83">20</tspan></text><text class="cls-11" transform="translate(205.28 140.49)">Création de la Caisse de Prêts <tspan x="0" y="26.99">Immobiliers du Maroc (CPIM).</tspan></text><text class="cls-11" transform="translate(519.75 455.69)">L’État autorise la CPIM à <tspan x="0" y="26.99">effectuer des opérations de </tspan><tspan x="0" y="53.97">crédit à long terme en vue de </tspan><tspan x="0" y="80.96">la construction, de la réfection </tspan><tspan x="0" y="107.95">et de l’aménagement d’hôtels </tspan><tspan x="0" y="134.93">de voyageurs. </tspan></text><circle class="cls-8" cx="454.37" cy="344" r="6.02"/><circle class="cls-6" cx="454.37" cy="487.36" r="56.83"/><line class="cls-7" x1="454.37" y1="430.53" x2="454.37" y2="349.2"/><circle class="cls-12" cx="454.37" cy="487.36" r="46.78"/><text class="cls-10" transform="translate(429.97 483.16)">19<tspan x="0" y="32.83">27</tspan></text><circle class="cls-8" cx="1099.73" cy="344" r="6.02"/><circle class="cls-6" cx="1099.73" cy="487.36" r="56.83"/><line class="cls-7" x1="1099.73" y1="430.53" x2="1099.73" y2="349.2"/><circle class="cls-13" cx="1099.73" cy="487.36" r="46.78"/><text class="cls-10" transform="translate(1075.33 483.16)">19<tspan x="0" y="32.83">68</tspan></text><text class="cls-11" transform="translate(1165.11 455.69)">L’État confie au CIH la mission <tspan x="0" y="26.99">de financer les secteurs </tspan><tspan x="0" y="53.97">immobilier et hôtelier et lui </tspan><tspan x="0" y="80.96">accorde dans ce cadre des </tspan><tspan x="0" y="107.95">moyens supplémentaires ainsi </tspan><tspan x="0" y="134.93">que le monopole dans ce </tspan><tspan x="0" y="161.92">domaine.</tspan></text><circle class="cls-8" cx="776.78" cy="289.88" r="6.02"/><circle class="cls-6" cx="776.78" cy="146.51" r="56.83"/><line class="cls-7" x1="776.78" y1="203.35" x2="776.78" y2="284.68"/><circle class="cls-14" cx="776.78" cy="146.51" r="46.78"/><text class="cls-10" transform="translate(752.17 142.16)">19<tspan x="0" y="32.83">67</tspan></text><text class="cls-11" transform="translate(850 128.08)">La CPIM devient<tspan x="0" y="26.99">le Crédit Immobilier</tspan><tspan x="0" y="53.97">et Hôtelier (CIH)</tspan></text><text class="cls-11" transform="translate(5035.35 449.69)">Lancement de nouvelles offres concernant<tspan x="0" y="26.99">la bancassurance, l’assistance, la monétique, </tspan><tspan x="0" y="53.97">les produits à l’international ou encore les </tspan><tspan x="0" y="80.96">services à distance. Ces offres dédiées aux </tspan><tspan x="0" y="107.95">particuliers et aux professionnels illustrent </tspan><tspan x="0" y="134.93">la nouvelle approche de la banque qui place </tspan><tspan x="0" y="161.92">désormais le client au cœur de sa stratégie.</tspan></text><circle class="cls-8" cx="4969.97" cy="344" r="6.02"/><circle class="cls-6" cx="4969.97" cy="487.36" r="56.83"/><line class="cls-7" x1="4969.97" y1="430.53" x2="4969.97" y2="349.2"/><circle class="cls-15" cx="4969.97" cy="487.36" r="46.78"/><text class="cls-10" transform="translate(4945.56 483.16)">20<tspan x="0" y="32.83">12</tspan></text><circle class="cls-8" cx="1421.25" cy="289.88" r="6.02"/><circle class="cls-6" cx="1421.25" cy="146.51" r="56.83"/><line class="cls-7" x1="1421.25" y1="203.35" x2="1421.25" y2="284.68"/><circle class="cls-16" cx="1421.25" cy="146.51" r="46.78"/><text class="cls-10" transform="translate(1396.84 142.31)">19<tspan x="0" y="32.83">80</tspan></text><text class="cls-11" transform="translate(1494.48 131.73)">Passage du manuel au <tspan x="0" y="26.99">système informatique </tspan><tspan x="0" y="53.97">au niveau central</tspan></text><circle class="cls-8" cx="1743.99" cy="344" r="6.02"/><circle class="cls-6" cx="1743.99" cy="487.36" r="56.83"/><line class="cls-7" x1="1743.99" y1="430.53" x2="1743.99" y2="349.2"/><circle class="cls-17" cx="1743.99" cy="487.36" r="46.78"/><text class="cls-10" transform="translate(1718.39 483.16)">19<tspan x="0" y="32.83">88</tspan></text><text class="cls-11" transform="translate(1809.36 455.69)">Mise en place d’un <tspan x="0" y="26.99">système informatique au </tspan><tspan x="0" y="53.97">niveau des agences avec </tspan><tspan x="0" y="80.96">le démarrage de l’activité </tspan><tspan x="0" y="107.95">bancaire</tspan></text><circle class="cls-8" cx="2067.02" cy="289.88" r="6.02"/><circle class="cls-6" cx="2067.02" cy="146.51" r="56.83"/><line class="cls-7" x1="2067.02" y1="203.35" x2="2067.02" y2="284.68"/><circle class="cls-18" cx="2067.02" cy="146.51" r="46.78"/><text class="cls-10" transform="translate(2042.62 142.31)">19<tspan x="0" y="32.83">93</tspan></text><text class="cls-11" transform="translate(2140.25 106.71)">Décloisonnement des marchés sur le <tspan x="0" y="26.99">plan bancaire, désencadrement du </tspan><tspan x="0" y="53.97">crédit et libéralisation des taux : le CIH </tspan><tspan x="0" y="80.96">est mis ainsi au même niveau que les </tspan><tspan x="0" y="107.95">autres banques commerciales et perd </tspan><tspan x="0" y="134.93">sa situation de monopole concernant le </tspan><tspan x="0" y="161.92">logement et l’hôtellerie.</tspan></text><circle class="cls-8" cx="2389.37" cy="344" r="6.02"/><circle class="cls-6" cx="2389.37" cy="487.36" r="56.83"/><line class="cls-7" x1="2389.37" y1="430.53" x2="2389.37" y2="349.2"/><circle class="cls-19" cx="2389.37" cy="487.36" r="46.78"/><text class="cls-10" transform="translate(2363.77 483.16)">20<tspan x="0" y="32.83">00</tspan></text><text class="cls-11" transform="translate(2454.74 409.82)">Lancement du plan de redressement du CIH. La <tspan x="0" y="26.99">banque est recapitalisée à hauteur de 2 milliards </tspan><tspan x="0" y="53.97">de dirhams et bénéficie d’un prêt d’un milliard de </tspan><tspan x="0" y="80.96">dirhams du Trésor public. Une partie des pertes </tspan><tspan x="0" y="107.95">de change est prise en charge et les promoteurs </tspan><tspan x="0" y="134.93">publics sont refinancés afin qu’ils puissent </tspan><tspan x="0" y="161.92">eux-mêmes rembourser leurs dettes auprès du </tspan><tspan x="0" y="188.91">CIH. Avec l’appui du ministère des Finances, la </tspan><tspan x="0" y="215.9">CDG, va participer activement au redressement </tspan><tspan x="0" y="242.88">de la Banque en prenant part à l’augmentation </tspan><tspan x="0" y="269.87">de capital et en se substituant aux actionnaires </tspan><tspan x="0" y="296.86">qui se sont retirés. </tspan></text><circle class="cls-8" cx="4647.86" cy="289.88" r="6.02"/><circle class="cls-6" cx="4647.86" cy="146.51" r="56.83"/><line class="cls-7" x1="4647.86" y1="203.35" x2="4647.86" y2="284.68"/><circle class="cls-20" cx="4647.86" cy="146.51" r="46.78"/><text class="cls-10" transform="translate(4623.46 142.31)">20<tspan x="0" y="32.83">10</tspan></text><text class="cls-11" transform="translate(4721.09 18.57)">Transformation du CIH en une banque <tspan x="0" y="26.99">universelle. Naissance de la banque de </tspan><tspan x="0" y="53.97">l’entreprise, la banque des particuliers et des </tspan><tspan x="0" y="80.96">professionnels, et la banque de l’immobilier. </tspan><tspan x="0" y="107.95">Les activités de la banque sont ainsi </tspan><tspan x="0" y="134.93">réorganisées pour permettre une gestion </tspan><tspan x="0" y="161.92">efficace et adaptée de chaque activité.</tspan><tspan x="0" y="188.91">CIH élargit en parallèle son activité en </tspan><tspan x="0" y="215.9">s’adressant aux professions libérales, aux </tspan><tspan x="0" y="242.88">entreprises individuelles, aux commerçants, </tspan><tspan x="0" y="269.87">aux artisans…</tspan></text><circle class="cls-8" cx="5614.77" cy="344" r="6.02"/><circle class="cls-6" cx="5614.77" cy="487.36" r="56.83"/><line class="cls-7" x1="5614.77" y1="430.53" x2="5614.77" y2="349.2"/><circle class="cls-21" cx="5614.77" cy="487.36" r="46.78"/><text class="cls-10" transform="translate(5590.37 483.16)">20<tspan x="0" y="32.83">14</tspan></text><text class="cls-11" transform="translate(5680.15 449.69)">CIH devient « CIH Bank ». Lancement du nouveau <tspan x="0" y="26.99">logo et de la nouvelle identité visuelle, incarnant le </tspan><tspan x="0" y="53.97">nouveau positionnement de la banque vers la </tspan><tspan x="0" y="80.96">transformation digitale et les nouvelles </tspan><tspan x="0" y="107.95">technologies. CIH BANK est la première banque </tspan><tspan x="0" y="134.93">marocaine à décrocher simultanément une double </tspan><tspan x="0" y="161.92">certification ISO 9001 version 2008, à la fois pour </tspan><tspan x="0" y="188.91">les activités monétique et crédits amortissables</tspan><tspan x="0" y="215.9">au logement.</tspan></text><circle class="cls-8" cx="5292.34" cy="289.88" r="6.02"/><circle class="cls-6" cx="5292.34" cy="146.51" r="56.83"/><line class="cls-7" x1="5292.34" y1="203.35" x2="5292.34" y2="284.68"/><circle class="cls-22" cx="5292.34" cy="146.51" r="46.78"/><text class="cls-10" transform="translate(5267.93 142.31)">20<tspan x="0" y="32.83">13</tspan></text><text class="cls-11" transform="translate(5365.56 113.74)">Lancement de la première carte <tspan x="0" y="26.99">multiservices sur le marché </tspan><tspan x="0" y="53.97">marocain. Lancement de </tspan><tspan x="0" y="80.96">l’application mobile et du site de </tspan><tspan x="0" y="107.95">banque à distance, CIH Online.</tspan></text><circle class="cls-8" cx="6904.22" cy="344" r="6.02"/><circle class="cls-6" cx="6904.22" cy="487.36" r="56.83"/><line class="cls-7" x1="6904.22" y1="430.53" x2="6904.22" y2="349.2"/><circle class="cls-23" cx="6904.22" cy="487.36" r="46.78"/><text class="cls-10" transform="translate(6879.82 483.16)">20<tspan x="0" y="32.83">19</tspan></text><text class="cls-11" transform="translate(6969.6 449.64)">Lancement de l’offre réservée aux <tspan x="0" y="26.99">fonctionnaires. CIH BANK décroche une </tspan><tspan x="0" y="53.97">quadruple certification ISO 9001 version </tspan><tspan x="0" y="80.96">2015 couvrant les activités, monétique, </tspan><tspan x="0" y="107.95">crédits immobiliers, bancassurance</tspan><tspan x="0" y="134.93">et financement des entreprises</tspan></text><circle class="cls-8" cx="6581.53" cy="289.88" r="6.02"/><circle class="cls-6" cx="6581.53" cy="146.51" r="56.83"/><line class="cls-7" x1="6581.53" y1="203.35" x2="6581.53" y2="284.68"/><circle class="cls-24" cx="6581.53" cy="146.51" r="46.78"/><text class="cls-10" transform="translate(6557.12 142.31)">20<tspan x="0" y="32.83">18</tspan></text><text class="cls-11" transform="translate(6654.76 136.97)">Lancement du pack Sayidati, <tspan x="0" y="26.99">dédié aux femmes.</tspan></text><circle class="cls-8" cx="7226.67" cy="289.88" r="6.02"/><circle class="cls-6" cx="7226.67" cy="146.51" r="56.83"/><line class="cls-7" x1="7226.67" y1="203.35" x2="7226.67" y2="284.68"/><circle class="cls-25" cx="7226.67" cy="146.51" r="46.78"/><text class="cls-10" transform="translate(7202.26 142.31)">20<tspan x="0" y="32.83">20</tspan></text><text class="cls-11" transform="translate(7299.9 113.66)">Lancement de la banque gratuite pour <tspan x="0" y="26.99">tous les particuliers ouvrant leur compte </tspan><tspan x="0" y="53.97">en ligne. Maintient de la quadruple </tspan><tspan x="0" y="80.96">certification ISO 9001 version 2015 </tspan><tspan x="0" y="107.95">couvrant les activités, monétique, crédits </tspan><tspan x="0" y="134.93">immobiliers, bancassurance et </tspan><tspan x="0" y="161.92">financement des entreprises.</tspan></text><circle class="cls-8" cx="6259.62" cy="344" r="6.02"/><circle class="cls-6" cx="6259.62" cy="487.36" r="56.83"/><line class="cls-7" x1="6259.62" y1="430.53" x2="6259.62" y2="349.2"/><circle class="cls-26" cx="6259.62" cy="487.36" r="46.78"/><text class="cls-10" transform="translate(6235.22 483.16)">20<tspan x="0" y="32.83">17</tspan></text><text class="cls-11" transform="translate(6325 472.54)">Lancement de l’offre <tspan x="0" y="26.99">[CODE 18] dédiée aux </tspan><tspan x="0" y="53.97">jeunes de moins de 18 ans. </tspan></text><circle class="cls-8" cx="5937.14" cy="289.88" r="6.02"/><circle class="cls-6" cx="5937.14" cy="146.51" r="56.83"/><line class="cls-7" x1="5937.14" y1="203.35" x2="5937.14" y2="284.68"/><circle class="cls-27" cx="5937.14" cy="146.51" r="46.78"/><text class="cls-10" transform="translate(5912.73 142.31)">20<tspan x="0" y="32.83">16</tspan></text><text class="cls-11" transform="translate(6010.37 113.74)"><tspan xml:space="preserve">Lancement de l’offre  [CODE 30] </tspan><tspan x="0" y="26.99">dédiée aux jeunes de moins de 30 ans </tspan><tspan x="0" y="53.97">et regroupant un ensemble de </tspan><tspan x="0" y="80.96">services bancaires gratuits.</tspan></text><text class="cls-11" transform="translate(4390.74 449.48)">Le CIH devient une société anonyme <tspan x="0" y="26.99">à conseil d’administration. Nommé</tspan><tspan x="0" y="53.97">à la présidence, Ahmed Rahhou lance </tspan><tspan x="0" y="80.96">le plan stratégique 2010-2014.</tspan></text><circle class="cls-8" cx="4325.36" cy="344" r="6.02"/><circle class="cls-6" cx="4325.36" cy="487.36" r="56.83"/><line class="cls-7" x1="4325.36" y1="430.53" x2="4325.36" y2="349.2"/><circle class="cls-28" cx="4325.36" cy="487.36" r="46.78"/><text class="cls-10" transform="translate(4300.96 483.16)">20<tspan x="0" y="32.83">09</tspan></text><circle class="cls-8" cx="4002.97" cy="289.88" r="6.02"/><circle class="cls-6" cx="4002.97" cy="146.51" r="56.83"/><line class="cls-7" x1="4002.97" y1="203.35" x2="4002.97" y2="284.68"/><circle class="cls-29" cx="4002.97" cy="146.51" r="46.78"/><text class="cls-10" transform="translate(3978.57 142.31)">20<tspan x="0" y="32.83">07</tspan></text><text class="cls-11" transform="translate(4076.2 123.48)">Le CIH se transforme en <tspan x="0" y="26.99">société anonyme à directoire </tspan><tspan x="0" y="53.97">et conseil de surveillance. </tspan></text><text class="cls-11" transform="translate(3745.31 477.04)">Fin du plan<tspan x="0" y="26.99">de redressement</tspan></text><circle class="cls-8" cx="3679.93" cy="344" r="6.02"/><circle class="cls-6" cx="3679.93" cy="487.36" r="56.83"/><line class="cls-7" x1="3679.93" y1="430.53" x2="3679.93" y2="349.2"/><circle class="cls-30" cx="3679.93" cy="487.36" r="46.78"/><text class="cls-10" transform="translate(3655.53 483.16)">20<tspan x="0" y="32.83">06</tspan></text><circle class="cls-8" cx="3357.02" cy="289.88" r="6.02"/><circle class="cls-6" cx="3357.02" cy="146.51" r="56.83"/><line class="cls-7" x1="3357.02" y1="203.35" x2="3357.02" y2="284.68"/><circle class="cls-31" cx="3357.02" cy="146.51" r="46.78"/><text class="cls-10" transform="translate(3332.61 142.31)">20<tspan x="0" y="32.83">05</tspan></text><text class="cls-11" transform="translate(3430.24 139.03)">La CDG détient 65 %<tspan x="0" y="26.99">du capital du CIH.</tspan></text><circle class="cls-8" cx="3034.39" cy="344" r="6.02"/><circle class="cls-6" cx="3034.39" cy="487.36" r="56.83"/><line class="cls-7" x1="3034.39" y1="430.53" x2="3034.39" y2="349.2"/><circle class="cls-32" cx="3034.39" cy="487.36" r="46.78"/><text class="cls-10" transform="translate(3009.99 483.16)">20<tspan x="0" y="32.83">04</tspan></text><text class="cls-11" transform="translate(3099.77 464.33)">CIH enregistre son <tspan x="0" y="26.99">premier exercice positif en </tspan><tspan x="0" y="53.97">sept ans.</tspan></text><circle class="cls-8" cx="2712.02" cy="289.88" r="6.02"/><circle class="cls-6" cx="2712.02" cy="146.51" r="56.83"/><line class="cls-7" x1="2712.02" y1="203.35" x2="2712.02" y2="284.68"/><circle class="cls-33" cx="2712.02" cy="146.51" r="46.78"/><text class="cls-10" transform="translate(2687.62 142.31)">20<tspan x="0" y="32.83">02</tspan></text><text class="cls-11" transform="translate(2785.25 129.08)">Lancement de la première <tspan x="0" y="26.99">opération de titrisation</tspan><tspan x="0" y="53.97">au Maroc.</tspan></text></g></g></svg>